<?xml version="1.0" encoding="utf-8"?>
<!-- Generator: Adobe Illustrator 27.5.0, SVG Export Plug-In . SVG Version: 6.00 Build 0)  -->
<svg version="1.1" id="Ebene_1" xmlns="http://www.w3.org/2000/svg" xmlns:xlink="http://www.w3.org/1999/xlink" x="0px" y="0px"
	 viewBox="0 0 16 16" style="enable-background:new 0 0 16 16;" xml:space="preserve">
<style type="text/css">
	.st0{fill:#B9E2F7;}
	.st1{fill:#9CD6EC;}
	.st2{fill:#55B3E3;}
	.st3{filter:url(#Adobe_OpacityMaskFilter);}
	.st4{fill:url(#SVGID_00000163785087301748090820000013893315761678926727_);}
	.st5{mask:url(#SVGID_1_);fill:#FFFFFF;}
	.st6{filter:url(#Adobe_OpacityMaskFilter_00000049188329349138220310000008977745404807292560_);}
	.st7{fill:url(#SVGID_00000173854596460271376140000011624681387579912336_);}
	.st8{mask:url(#SVGID_00000120524706327116295830000003752958114096311973_);fill:#FFFFFF;}
	.st9{filter:url(#Adobe_OpacityMaskFilter_00000124860933596675195030000010699906673094489269_);}
	.st10{fill:url(#SVGID_00000051365199044760781790000006440985469231613342_);}
	.st11{mask:url(#SVGID_00000109745922664757198450000000950738676208512652_);fill:#FFFFFF;}
</style>
<g>
	<g>
		<g>
			<polygon class="st0" points="3.7626104,10.0482473 3.8358512,10.0204639 4.6306996,10.0756483 4.5574574,10.1034317 			"/>
			<polygon class="st0" points="4.1398277,9.2102566 4.2130704,9.1824732 5.3194337,9.6882877 5.2461929,9.7160711 			"/>
			<polygon class="st0" points="5.0371337,8.6930075 5.1103745,8.6652241 6.2291675,9.1767683 6.1559267,9.2045517 			"/>
			<polygon class="st0" points="4.7757187,5.763803 4.8489594,5.7360196 5.1247544,5.9049377 5.0515118,5.9327211 			"/>
			<polygon class="st0" points="8.1523771,13.2173967 8.2256174,13.1896133 8.4009218,13.4230461 8.3276806,13.4508295 			"/>
			<polygon class="st0" points="5.459095,6.182323 5.5323358,6.1545396 6.0272946,6.4577713 5.954052,6.4855547 			"/>
			<polygon class="st0" points="8.5228491,12.5323257 8.5960903,12.5045424 9.0206013,13.1959372 8.94736,13.2237206 			"/>
			<polygon class="st0" points="6.6869102,8.1460094 6.7601509,8.1182251 7.4335804,8.499424 7.3603382,8.5272074 			"/>
			<polygon class="st0" points="6.3616333,6.735157 6.4348745,6.7073736 7.2455239,7.2038083 7.1722817,7.2315917 			"/>
			<polygon class="st0" points="8.5283251,11.72645 8.6015673,11.6986666 9.5605869,12.4578209 9.4873457,12.4856043 			"/>
			<polygon class="st0" points="8.5419006,9.7057886 8.6151409,9.6780052 8.6088009,10.6341543 8.5355597,10.6619377 			"/>
			<polygon class="st0" points="7.5562749,7.4669805 7.6295161,7.4391971 7.8276634,7.5605092 7.7544227,7.5882926 			"/>
			<polygon class="st0" points="8.5449772,9.2528801 8.6182184,9.2250967 9.2649145,9.6523657 9.1916733,9.6801491 			"/>
			<polygon class="st0" points="8.5578575,7.3574452 8.6310987,7.3296618 8.7669926,7.5882421 8.6937523,7.616025 			"/>
			<polygon class="st0" points="9.0163679,8.1989079 9.0896101,8.1711245 9.236762,8.4233999 9.1635199,8.4511833 			"/>
			<polygon class="st0" points="7.4506392,4.6364961 7.5238819,4.6087132 8.2679281,5.1975079 8.1946869,5.2252913 			"/>
			<polygon class="st0" points="8.5690203,5.7146826 8.6422634,5.6868992 8.6357651,6.6430049 8.5625229,6.6707883 			"/>
			<polygon class="st0" points="7.4685235,3.5804961 7.5417657,3.5527129 8.2751608,4.1331964 8.2019196,4.1609797 			"/>
			<polygon class="st0" points="8.5762548,4.6501698 8.6494951,4.6223869 8.6455288,5.2060828 8.5722885,5.2338662 			"/>
			<polygon class="st0" points="8.2208385,3.1426132 8.2940807,3.1148298 8.4690342,3.3997047 8.395793,3.4274881 			"/>
			<polygon class="st0" points="8.5817308,3.8442924 8.654974,3.8165092 8.6527634,4.1417708 8.5795202,4.1695542 			"/>
			<polygon class="st0" points="9.3897047,6.1663375 9.4629459,6.1385541 9.6806316,6.2718425 9.6073914,6.2996259 			"/>
			<polygon class="st0" points="9.7537136,7.6231179 9.8269548,7.5953345 10.680994,8.0787601 10.6077528,8.1065435 			"/>
			<polygon class="st0" points="9.3240681,4.67904 9.3973103,4.6512566 9.622221,4.9635048 9.5489807,4.9912882 			"/>
			<polygon class="st0" points="8.4922266,2.4128709 8.5654678,2.3850875 9.0858011,3.0778623 9.0125599,3.1056454 			"/>
			<polygon class="st0" points="9.3203831,3.622551 9.3936234,3.5947661 9.618536,3.9070141 9.5452948,3.9347975 			"/>
			<polygon class="st0" points="11.6817083,8.8437376 11.7549505,8.8159542 11.900609,9.1729631 11.8273678,9.2007465 			"/>
			<polygon class="st0" points="12.3963509,10.6541071 12.4695921,10.6263237 12.6183767,10.9261103 12.5451345,10.9538927 			"/>
			<polygon class="st0" points="10.5399876,5.5982556 10.6132278,5.5704722 10.9877806,5.6253386 10.9145393,5.6531219 			"/>
			<polygon class="st0" points="12.5719023,9.4015799 12.6451426,9.3737965 12.7906084,9.7307596 12.7173672,9.7585421 			"/>
			<polygon class="st0" points="10.9817047,6.9324336 11.0549469,6.9046488 11.9133568,7.2971263 11.8401155,7.3249092 			"/>
			<polygon class="st0" points="12.9921551,10.2939796 13.0653982,10.2661972 13.3770494,11.0764923 13.3038092,11.1042757 			"/>
			<polygon class="st0" points="11.4478703,5.1002507 11.5211115,5.0724673 11.8958187,5.1272969 11.8225784,5.1550798 			"/>
			<polygon class="st0" points="11.8914785,6.4207549 11.9647188,6.3929715 12.8106613,6.7798772 12.7374182,6.8076606 			"/>
			<polygon class="st0" points="12.412118,5.1877913 12.4853601,5.160008 13.3266392,5.3011723 13.2533979,5.3289571 			"/>
		</g>
		<g>
			<polygon class="st1" points="3.9707108,10.4475861 4.0439534,10.4198027 3.9352775,10.6878567 3.8620365,10.7156401 			"/>
			<polygon class="st1" points="3.8620365,10.7156401 3.9352775,10.6878567 4.2185426,10.7353592 4.1452999,10.7631426 			"/>
			<polygon class="st1" points="4.373251,11.1513615 4.4464922,11.1235781 4.3879461,11.1524658 4.3147054,11.1802492 			"/>
			<polygon class="st1" points="4.743938,10.4405737 4.8171802,10.4127903 4.4464922,11.1235781 4.373251,11.1513615 			"/>
			<polygon class="st1" points="5.0219431,10.2842293 5.0951843,10.2564459 4.8171802,10.4127903 4.743938,10.4405737 			"/>
			<polygon class="st1" points="5.4327908,10.0532141 5.5060315,10.0254307 5.3521523,11.2401638 5.2789116,11.2679472 			"/>
			<polygon class="st1" points="3.8978252,5.4488912 3.9710677,5.4211078 4.0759096,5.6940527 4.0026684,5.7218361 			"/>
			<polygon class="st1" points="4.0026684,5.7218361 4.0759096,5.6940527 4.4036732,5.6861486 4.3304324,5.7139316 			"/>
			<polygon class="st1" points="5.9317141,9.7727098 6.0049567,9.7449265 5.5060315,10.0254307 5.4327908,10.0532141 			"/>
			<polygon class="st1" points="3.5137291,5.1079397 3.5869701,5.0801563 4.4299088,4.9772382 4.356668,5.0050216 			"/>
			<polygon class="st1" points="4.356668,5.0050216 4.4299088,4.9772382 4.4880457,5.0087352 4.4148049,5.0365181 			"/>
			<polygon class="st1" points="4.4148049,5.0365181 4.4880457,5.0087352 4.8489594,5.7360196 4.7757187,5.763803 			"/>
			<polygon class="st1" points="6.3425632,9.5415354 6.4158044,9.5137529 6.2602315,10.7419662 6.1869907,10.7697496 			"/>
			<polygon class="st1" points="5.2679729,6.5108867 5.3412156,6.4831033 4.2283168,6.9386816 4.1550746,6.966465 			"/>
			<polygon class="st1" points="8.3311481,12.9405165 8.4043884,12.9127331 8.2256174,13.1896133 8.1523771,13.2173967 			"/>
			<polygon class="st1" points="4.9464726,4.9989324 5.0197134,4.971149 5.39501,4.933352 5.3217692,4.9611349 			"/>
			<polygon class="st1" points="5.3217692,4.9611349 5.39501,4.933352 5.5323358,6.1545396 5.459095,6.182323 			"/>
			<polygon class="st1" points="6.1704731,7.0636802 6.2437153,7.0358973 5.1183171,7.4964776 5.0450749,7.5242624 			"/>
			<polygon class="st1" points="8.1473017,12.1984882 8.2205439,12.1707048 7.4796414,12.7177076 7.4064007,12.745491 			"/>
			<polygon class="st1" points="7.159708,9.0820255 7.2329488,9.0542421 6.4158044,9.5137529 6.3425632,9.5415354 			"/>
			<polygon class="st1" points="8.5250597,12.2070656 8.5983009,12.1792822 8.5960903,12.5045424 8.5228491,12.5323257 			"/>
			<polygon class="st1" points="8.9435091,13.2903109 9.0167494,13.2625275 8.4871616,13.9314594 8.4139214,13.9592428 			"/>
			<polygon class="st1" points="8.1545334,11.1341343 8.2277746,11.1063509 7.4759564,11.6612177 7.4027152,11.6890001 			"/>
			<polygon class="st1" points="8.94736,13.2237206 9.0206013,13.1959372 9.0167494,13.2625275 8.9435091,13.2903109 			"/>
			<polygon class="st1" points="5.8474636,5.5380549 5.9207044,5.510272 6.296041,5.4724345 6.2228003,5.5002179 			"/>
			<polygon class="st1" points="6.2228003,5.5002179 6.296041,5.4724345 6.4348745,6.7073736 6.3616333,6.735157 			"/>
			<polygon class="st1" points="7.5469375,8.864152 7.6201787,8.8363676 7.588316,9.6142921 7.5150752,9.6420755 			"/>
			<polygon class="st1" points="8.5322905,11.1427135 8.6055336,11.1149292 8.6015673,11.6986666 8.5283251,11.72645 			"/>
			<polygon class="st1" points="7.3653121,7.7953892 7.4385533,7.7676063 6.7601509,8.1182251 6.6869102,8.1460094 			"/>
			<polygon class="st1" points="7.7465153,8.7519102 7.8197579,8.7241268 7.6201787,8.8363676 7.5469375,8.864152 			"/>
			<polygon class="st1" points="8.164299,9.6972141 8.2375402,9.6694307 7.4103594,10.1739197 7.3371172,10.2017031 			"/>
			<polygon class="st1" points="9.4873457,12.4856043 9.5605869,12.4578209 9.331501,12.7597609 9.2582588,12.7875443 			"/>
			<polygon class="st1" points="7.5351486,6.6880507 7.6083899,6.6602674 7.6295161,7.4391971 7.5562749,7.4669805 			"/>
			<polygon class="st1" points="8.1369638,8.2043447 8.2102041,8.1765614 8.1101761,8.3397675 8.0369358,8.3675508 			"/>
			<polygon class="st1" points="8.1373081,8.1533804 8.2105513,8.125597 8.2102041,8.1765614 8.1369638,8.2043447 			"/>
			<polygon class="st1" points="8.0397253,7.9857264 8.1129656,7.957943 8.2105513,8.125597 8.1373081,8.1533804 			"/>
			<polygon class="st1" points="8.0369358,8.3675508 8.1101761,8.3397675 8.3005486,8.3397961 8.2273083,8.3675795 			"/>
			<polygon class="st1" points="8.2273083,8.3675795 8.3005486,8.3397961 8.3438301,8.3661861 8.2705889,8.3939695 			"/>
			<polygon class="st1" points="8.2705889,8.3939695 8.3438301,8.3661861 8.4341164,8.5381289 8.3608751,8.5659122 			"/>
			<polygon class="st1" points="8.5465651,9.0191717 8.6198082,8.9913883 8.6182184,9.2250967 8.5449772,9.2528801 			"/>
			<polygon class="st1" points="7.7544227,7.5882926 7.8276634,7.5605092 8.1140947,7.5734158 8.0408525,7.6011992 			"/>
			<polygon class="st1" points="8.5355597,10.6619377 8.6088009,10.6341543 9.5784702,11.4017811 9.5052299,11.4295645 			"/>
			<polygon class="st1" points="9.5052299,11.4295645 9.5784702,11.4017811 9.3493862,11.7037592 9.276144,11.7315426 			"/>
			<polygon class="st1" points="8.2734718,7.9697633 8.3467131,7.9419799 8.3030863,7.9665537 8.2298441,7.9943366 			"/>
			<polygon class="st1" points="8.6860867,8.7668037 8.7593288,8.7390213 8.6198082,8.9913883 8.5465651,9.0191717 			"/>
			<polygon class="st1" points="8.366065,7.8020926 8.4393063,7.7743092 8.3467131,7.9419799 8.2734718,7.9697633 			"/>
			<polygon class="st1" points="8.4969397,8.373702 8.5701818,8.3459187 8.7604952,8.3545351 8.687254,8.3823185 			"/>
			<polygon class="st1" points="7.3648529,6.1203566 7.4380937,6.0925732 8.2581644,6.6344299 8.1849232,6.6622133 			"/>
			<polygon class="st1" points="9.5814018,10.1241646 9.6546431,10.0963812 9.4352131,10.2199011 9.3619709,10.2476835 			"/>
			<polygon class="st1" points="8.5594454,7.1237364 8.6326876,7.0959535 8.6310987,7.3296618 8.5578575,7.3574452 			"/>
			<polygon class="st1" points="9.5545416,9.1364088 9.6277828,9.1086254 9.6546431,10.0963812 9.5814018,10.1241646 			"/>
			<polygon class="st1" points="8.6937523,7.616025 8.7669926,7.5882421 9.0535488,7.5883474 8.9803066,7.6161308 			"/>
			<polygon class="st1" points="9.1635199,8.4511833 9.236762,8.4233999 9.4349079,8.5448723 9.3616676,8.5726557 			"/>
			<polygon class="st1" points="9.1669064,7.9530745 9.2401476,7.9252911 9.0896101,8.1711245 9.0163679,8.1989079 			"/>
			<polygon class="st1" points="9.3666401,7.8408365 9.4398823,7.8130531 9.2401476,7.9252911 9.1669064,7.9530745 			"/>
			<polygon class="st1" points="9.2117472,6.7261257 9.2849894,6.6983423 8.6326876,7.0959535 8.5594454,7.1237364 			"/>
			<polygon class="st1" points="10.7729263,9.8824902 10.8461685,9.8547058 10.9527569,10.802207 10.8795147,10.8299904 			"/>
			<polygon class="st1" points="9.7456627,8.8078451 9.818903,8.7800617 10.6295509,9.276535 10.5563107,9.3043184 			"/>
			<polygon class="st1" points="9.6073914,6.2996259 9.6806316,6.2718425 9.640357,7.2581916 9.5671158,7.285975 			"/>
			<polygon class="st1" points="8.3992596,2.9171743 8.4725008,2.8893909 8.2940807,3.1148298 8.2208385,3.1426132 			"/>
			<polygon class="st1" points="10.6060076,8.3633509 10.6792488,8.3355675 9.818903,8.7800617 9.7456627,8.8078451 			"/>
			<polygon class="st1" points="10.6077528,8.1065435 10.680994,8.0787601 10.6792488,8.3355675 10.6060076,8.3633509 			"/>
			<polygon class="st1" points="8.3130589,2.408802 8.3863001,2.3810186 8.5654678,2.3850875 8.4922266,2.4128709 			"/>
			<polygon class="st1" points="9.5489807,4.9912882 9.622221,4.9635048 8.6422634,5.6868992 8.5690203,5.7146826 			"/>
			<polygon class="st1" points="11.6754646,10.4353237 11.7487068,10.4075413 11.8535938,11.3412848 11.7803507,11.3690681 			"/>
			<polygon class="st1" points="10.9640846,9.5540838 11.0373278,9.5263014 11.5320911,9.8293705 11.4588509,9.8571539 			"/>
			<polygon class="st1" points="9.0156631,3.1723528 9.0889034,3.1445694 8.654974,3.8165092 8.5817308,3.8442924 			"/>
			<polygon class="st1" points="9.0125599,3.1056454 9.0858011,3.0778623 9.0889034,3.1445694 9.0156631,3.1723528 			"/>
			<polygon class="st1" points="10.570857,7.1634483 10.6440992,7.1356649 9.8269548,7.5953345 9.7537136,7.6231179 			"/>
			<polygon class="st1" points="9.5452948,3.9347975 9.618536,3.9070141 8.6494951,4.6223869 8.5762548,4.6501698 			"/>
			<polygon class="st1" points="11.8664303,10.1067543 11.9396715,10.0789709 12.2155066,10.2478905 12.1422634,10.2756739 			"/>
			<polygon class="st1" points="11.8273678,9.2007465 11.900609,9.1729631 11.0373278,9.5263014 10.9640846,9.5540838 			"/>
			<polygon class="st1" points="12.5451345,10.9538927 12.6183767,10.9261103 12.9023952,10.8913288 12.8291531,10.9191122 			"/>
			<polygon class="st1" points="10.9145393,5.6531219 10.9877806,5.6253386 10.8685045,6.5675101 10.7952642,6.5952935 			"/>
			<polygon class="st1" points="11.4806309,6.651969 11.5538721,6.624186 11.0549469,6.9046488 10.9817047,6.9324336 			"/>
			<polygon class="st1" points="12.7173672,9.7585421 12.7906084,9.7307596 11.9396715,10.0789709 11.8664303,10.1067543 			"/>
			<polygon class="st1" points="12.1422634,10.2756739 12.2155066,10.2478905 13.010664,10.2286539 12.9374228,10.2564373 			"/>
			<polygon class="st1" points="11.8401155,7.3249092 11.9133568,7.2971263 11.7628927,7.6472096 11.6896515,7.674993 			"/>
			<polygon class="st1" points="12.9374228,10.2564373 13.010664,10.2286539 13.0653982,10.2661972 12.9921551,10.2939796 			"/>
			<polygon class="st1" points="13.3038092,11.1042757 13.3770494,11.0764923 13.286335,11.2322779 13.2130928,11.2600613 			"/>
			<polygon class="st1" points="12.1695204,6.2646117 12.2427616,6.2368283 11.9647188,6.3929715 11.8914785,6.4207549 			"/>
			<polygon class="st1" points="11.8225784,5.1550798 11.8958187,5.1272969 11.778121,6.0560265 11.7048798,6.0838099 			"/>
			<polygon class="st1" points="12.7374182,6.8076606 12.8106613,6.7798772 12.6602354,7.1299996 12.5869942,7.157783 			"/>
			<polygon class="st1" points="12.5814848,5.604856 12.654726,5.5770726 12.501914,5.8698893 12.4286728,5.8976727 			"/>
			<polygon class="st1" points="12.4286728,5.8976727 12.501914,5.8698893 12.8295097,5.8926759 12.7562675,5.9204593 			"/>
			<polygon class="st1" points="13.0194006,6.2847061 13.0926418,6.2569227 13.0374136,6.2919683 12.9641733,6.3197513 			"/>
			<polygon class="st1" points="13.2533979,5.3289571 13.3266392,5.3011723 13.4152079,5.4612284 13.3419657,5.4890118 			"/>
			<polygon class="st1" points="13.3419657,5.4890118 13.4152079,5.4612284 13.0926418,6.2569227 13.0194006,6.2847061 			"/>
		</g>
		<path class="st2" d="M12.9374228,10.2564373l0.0547323,0.0375423l0.3116541,0.8102961l-0.0907164,0.1557856l-0.8429375,0.1029177
			l-0.0581751-0.031498l-0.3608751-0.7272434l-0.2756405-0.1689138l0.1048861,0.9337444l-0.3751802,0.0378399l-0.1374807-1.2211905
			l-0.4947634-0.3032274l0.1065884,0.9475002l-0.3753357,0.037797L10.3651886,9.632885l-0.810647-0.4964762l0.0268602,0.9877558
			l-0.2194309,0.1235189L8.5419006,9.7057886l-0.006341,0.9561491l0.9696703,0.7676268L9.276144,11.7315426l-0.7438536-0.588829
			L8.5283251,11.72645l0.9590206,0.7591543l-0.2290869,0.30194l-0.7331991-0.5804787l-0.0022106,0.3252602l0.424511,0.6913948
			l-0.0038509,0.0665903l-0.5295877,0.668932l-0.1793242-0.0040731l-0.5203743-0.6927748l-0.0029464-0.0667439l0.4338145-0.6719017
			l0.0022106-0.3252611l-0.740901,0.5470028l-0.2248721-0.3122492l0.9690394-0.7153711l0.0039654-0.5837364l-0.7518182,0.5548658
			l-0.2248735-0.3122873l0.97996-0.7233543L8.164299,9.6972141l-0.8271818,0.5044889l-0.2176847-0.1332865L7.159708,9.0820255
			L6.3425632,9.5415354l-0.1555724,1.2282143L5.8122845,10.71492l0.1194296-0.9422102l-0.4989233,0.2805042l-0.1538792,1.2147331
			l-0.3746662-0.055027l0.1176977-0.9286909L4.743938,10.4405737l-0.370687,0.7107878l-0.0585456,0.0288877l-0.8412797-0.1413631
			l-0.0884147-0.159853l0.3224103-0.7957382l0.0551891-0.0350475l0.794847,0.0551844l0.2778478-0.1561861L3.9894035,9.5603418
			l0.1504242-0.3500853l1.1063652,0.5058146l0.4988847-0.2805042L4.8867078,9.0431328l0.1504259-0.3501253l1.118793,0.5115442
			l0.8171444-0.4596691L6.1192265,8.2614613l0.0017452-0.2568064l0.8601508-0.4444981L6.1704731,7.0636802L5.0450749,7.5242624
			L4.8994555,7.1672959l0.8634391-0.3533769L5.2679729,6.5108867L4.1550746,6.966465L4.0094547,6.6094594L4.860353,6.2612457
			L4.584558,6.0923681L3.789362,6.1115632L3.7346666,6.0740204l-0.311692-0.810257l0.0907545-0.1558237L4.356668,5.0050216
			l0.0581369,0.0314965L4.7757187,5.763803l0.2757931,0.1689181L4.9464726,4.9989324l0.3752966-0.0377975L5.459095,6.182323
			l0.494957,0.3032317L5.8474636,5.5380549l0.3753366-0.037837l0.138833,1.2349391l0.8106484,0.4964347L7.1454215,6.2438765
			l0.2194314-0.1235199l0.8200703,0.5418568l0.0064964-0.9561057L7.2215924,4.938436l0.2290468-0.30194l0.7440476,0.5887952
			l0.0039663-0.5835371L7.239634,3.8824406l0.2288895-0.3019445l0.7333961,0.5804837l0.0022106-0.3252621L7.7794228,3.1442795
			l0.0040097-0.0665467L8.3130589,2.408802l0.1791677,0.0040689l0.5203333,0.6927745l0.0031033,0.0667074L8.5817308,3.8442924
			L8.5795202,4.1695542L9.3203831,3.622551l0.2249117,0.3122466L8.5762548,4.6501698L8.5722885,5.2338662L9.3240681,4.67904
			l0.2249126,0.3122482L8.5690203,5.7146826L8.5625229,6.6707883l0.8271818-0.5044508l0.2176867,0.1332884L9.5671158,7.285975
			l0.8173008-0.4594674l0.155571-1.2282519l0.3745518,0.0548663l-0.1192751,0.9421716l0.4987288-0.2804685l0.1538773-1.2145743
			l0.3747082,0.0548291l-0.1176987,0.92873l0.2780046-0.1563411l0.3706474-0.7108312l0.0585861-0.0288463l0.84128,0.1411657
			l0.0885677,0.1600547l-0.3225651,0.7956944l-0.0552273,0.0350451l-0.7946529-0.0551395l-0.2780418,0.1561432l0.8459396,0.3869057
			l-0.150424,0.3501225L11.4806309,6.651969l-0.4989262,0.2804646l0.8584108,0.3924756L11.6896515,7.674993L10.570857,7.1634483
			L9.7537136,7.6231179l0.8540392,0.4834256l-0.0017452,0.2568073L9.7456627,8.8078451l0.810648,0.4964733l1.1253977-0.4605808
			l0.1456594,0.3570089l-0.8632832,0.3533373l0.4947662,0.3030701l1.1130514-0.455574l0.1454649,0.3569622l-0.8509369,0.3482122
			l0.2758331,0.1689196L12.9374228,10.2564373z M9.3616676,8.5726557l0.6782446-0.3506632l-0.6732721-0.381156L9.1669064,7.9530745
			L9.0163679,8.1989079l0.1471519,0.2522755L9.3616676,8.5726557 M6.6869102,8.1460094l0.6734281,0.3811979l0.1997352-0.112277
			l0.150341-0.2456789L7.5634584,7.916822L7.3653121,7.7953892L6.6869102,8.1460094 M8.5449772,9.2528801l0.6466961,0.427269
			l-0.0211649-0.779129L8.9723997,8.779748L8.6860867,8.7668037l-0.1395216,0.252368L8.5449772,9.2528801 M8.1673765,9.2443056
			l0.0015879-0.2337093l-0.135931-0.2586212L7.7465153,8.7519102L7.5469375,8.864152L7.5150752,9.6420755L8.1673765,9.2443056
			 M8.1818457,7.1151619l-0.646697-0.4271111l0.0211263,0.7789297l0.1981478,0.1213121l0.2864299,0.0129066l0.1394043-0.2523284
			L8.1818457,7.1151619 M8.5594454,7.1237364L8.5578575,7.3574452L8.6937523,7.616025l0.2865543,0.0001059l0.1996965-0.112278
			l0.031744-0.7777271L8.5594454,7.1237364 M8.4969397,8.373702L8.687254,8.3823185L8.5894737,8.2146196l0.0003471-0.0509624
			l0.100029-0.1631689L8.4994755,8.0004597L8.4563522,7.9739151L8.366065,7.8020926L8.2734718,7.9697633L8.2298441,7.9943366
			L8.0397253,7.9857264l0.0975828,0.167654L8.1369638,8.2043447l-0.100028,0.1632061l0.1903725,0.0000286l0.0432806,0.0263901
			l0.0902863,0.1719427l0.0925922-0.1676302L8.4969397,8.373702 M8.3276806,13.4508295l0.1784592-0.225399l-0.1749916-0.284914
			l-0.178771,0.2768803L8.3276806,13.4508295 M8.3992596,2.9171743l-0.178421,0.2254388L8.395793,3.4274881l0.1786537-0.2768443
			L8.3992596,2.9171743 M12.5451345,10.9538927l0.2840185-0.0347805l-0.1049976-0.2729063l-0.3278046,0.0079012
			L12.5451345,10.9538927 M4.0026684,5.7218361l0.327764-0.0079045L4.1816478,5.4141073L3.8978252,5.4488912L4.0026684,5.7218361
			 M12.5814848,5.604856l-0.152812,0.2928166l0.3275948,0.0227866l0.1085196-0.2680984L12.5814848,5.604856 M4.1452999,10.7631426
			l0.152812-0.2927761l-0.3274012-0.0227804l-0.1086743,0.268054L4.1452999,10.7631426"/>
		<defs>
			
				<filter id="Adobe_OpacityMaskFilter" filterUnits="userSpaceOnUse" x="3.4636228" y="2.4459717" width="9.8376799" height="6.9148998">
				<feColorMatrix  type="matrix" values="1 0 0 0 0  0 1 0 0 0  0 0 1 0 0  0 0 0 1 0"/>
			</filter>
		</defs>
		<mask maskUnits="userSpaceOnUse" x="3.4636228" y="2.4459717" width="9.8376799" height="6.9148998" id="SVGID_1_">
			<g class="st3">
				
					<linearGradient id="SVGID_00000052082607163454053450000017421034667684355491_" gradientUnits="userSpaceOnUse" x1="8.3824139" y1="9.3627138" x2="8.3824139" y2="2.4448316">
					<stop  offset="0" style="stop-color:#505050"/>
					<stop  offset="1" style="stop-color:#9C9C9C"/>
				</linearGradient>
				<path style="fill:url(#SVGID_00000052082607163454053450000017421034667684355491_);" d="M5.9964991,9.3627138
					c-0.1117635,0-0.2244158-0.0012913-0.3348322-0.0038586l-0.729393-0.3332882l0.1228476-0.2859287L6.158412,9.2441034
					l0.8857327-0.4991169L6.1542826,8.2411661l0.0014729-0.215169l0.8964586-0.4632535L6.1728277,7.0241675L5.0642166,7.4786892
					L4.9449754,7.1864033l0.8949494-0.3662581L5.270328,6.471374L4.1742115,6.9208941L4.0549703,6.6285653l0.8824191-0.3610964
					L4.5935535,6.0569215l-0.793149,0.019433L3.7638531,6.0516887L3.4619088,5.2676835l0.0728159-0.1263857l0.8145237-0.100183
					l0.0386772,0.0205646l0.3612051,0.7271299l0.3450828,0.2110233L4.9851346,5.0301452l0.3057842-0.030798l0.1354709,1.204731
					l0.5703592,0.3486032L5.8861256,5.5692682L6.191947,5.538434l0.1369872,1.2184825l0.8800149,0.5380912L7.1809144,6.2639856
					L7.3633928,6.161262l0.8560209,0.5656028L8.226469,5.6884112L7.2701035,4.9322858l0.1868229-0.2462721L8.229126,5.2970915
					l0.00457-0.6730399L7.2881365,3.8762829l0.1866798-0.2462618l0.7615452,0.6027546l0.0027637-0.4073424L7.815249,3.1358771
					l0.0023532-0.0444956l0.5114746-0.6465499l0.1445093,0.002548l0.5042496,0.6701856l0.002388,0.0446475L8.5465803,3.8343368
					L8.5441217,4.2391129l0.7685823-0.5674696l0.1840677,0.2555547l-0.9560623,0.705802L8.5368862,5.3034186l0.7794971-0.5752978
					l0.1840677,0.2555633L8.533474,5.6975121l-0.0063,1.0357523L9.3896666,6.207273l0.182003,0.111423L9.5296602,7.3470969
					l0.8880024-0.4992146l0.1525078-1.209909l0.3054075,0.0447469L10.7518845,6.65975l0.5753603-0.3235416l0.1507845-1.1962471
					L11.7836161,5.18468l-0.1221123,0.9636025l0.3480263-0.1957288l0.3694086-0.709096l0.0379705-0.0190926l0.8132114,0.1360979
					l0.0727978,0.1301112l-0.3114576,0.7700901l-0.0358152,0.0231318l-0.7946682-0.0547905L11.814476,6.4239421l0.8773766,0.4012842
					l-0.1228313,0.2859292l-1.0908852-0.4987302l-0.5734205,0.3232088l0.8898344,0.4068484l-0.1228676,0.2858758
					l-1.1033258-0.504457L9.6826324,7.6230183l0.8900518,0.5038099l-0.0014734,0.2151976l-0.896656,0.4632463l0.1523809,0.0933161
					L9.8226271,8.8996296c-0.2011385,0.0484552-0.4068575,0.093874-0.6114082,0.1350222L9.2090826,9.0350828L9.2048817,8.8801155
					L8.9825573,8.7450047L8.6660194,8.7309303L8.5114832,9.0104685L8.5106936,9.1603727l-0.001543,0.0002337
					C8.4081306,9.1765471,8.305685,9.1917706,8.2046652,9.205863l-0.0021,0.0003061l0.0013924-0.2045498l-0.1498232-0.284584
					L7.7368956,8.7169819L7.5119429,8.8437614L7.494554,9.2895403L7.4929571,9.2897024
					C7.3916774,9.2994318,7.2887917,9.3083372,7.1871624,9.3161821L7.1850977,9.3163433L7.197154,9.0208988L6.6121159,9.3498783
					C6.4055467,9.3584785,6.198698,9.3627138,5.9964991,9.3627138z M8.2169809,8.4025068l0.026741,0.015995l0.1163683,0.2210503
					l0.1188993-0.21525l0.0259418-0.0149908L8.749732,8.4201012L8.6247272,8.2057304L8.624691,8.1741428l0.1275177-0.2085733
					L8.5098858,7.9655337L8.4832449,7.9494662L8.3668404,7.7284532L8.2479315,7.9437399L8.2218742,7.9587293L7.9773164,7.9479218
					l0.1247506,0.214344l0.0000458,0.0316143L7.9745588,8.4024887L8.2169809,8.4025068z M9.13799,8.476759l0.2230959,0.136529
					l0.7521744-0.3898926L9.3667059,7.8007293L9.1414537,7.9273219L8.9756641,8.1984587L9.13799,8.476759z M7.3611856,8.5678139
					l0.2243519-0.1271219l0.1655583-0.2709932L7.5889759,7.8912373l-0.222198-0.1359196L6.6135354,8.1446095L7.3611856,8.5678139z
					 M8.9899368,7.6510601l0.225069-0.1268167l0.0342903-0.8619184L8.5237818,7.1045756L8.5228662,7.3664141l0.1497946,0.2845287
					L8.9899368,7.6510601z M7.5219059,7.4878716l0.2223678,0.1351466l0.3166556,0.0140471l0.1544275-0.2794847l0.0015535-0.2621241
					L7.4984055,6.6219234L7.5219059,7.4878716z M12.7791357,5.9570522l0.1343575-0.3319335l-0.3512583-0.0588937
					l-0.1892195,0.3625965L12.7791357,5.9570522z M3.9788871,5.7573481l0.4072084-0.0098205L4.2019472,5.3764305l-0.352767,0.043231
					L3.9788871,5.7573481z M8.3950529,3.4930432l0.22192-0.3438995L8.3999987,2.8599472L8.1782932,3.1400874L8.3950529,3.4930432z"
					/>
			</g>
		</mask>
		<path class="st5" d="M12.417717,5.2260165l-0.0371447,0.0182943l-0.3701439,0.7098413l-0.3512049,0.1975231l0.122345-0.9654417
			l-0.3019428-0.0441809l-0.1514826,1.1957536l-0.5785389,0.3253365l0.1239271-0.9788613l-0.3017807-0.0442162l-0.1531897,1.209424
			L9.5276852,7.3503184l0.042099-1.0306177L9.3896666,6.2094269l-0.8643599,0.527123l0.0070734-1.0405183l0.9655218-0.7127428
			l-0.1819296-0.252583L8.5350199,5.3070712l0.0045938-0.6755524l0.9546089-0.7047164l-0.1819315-0.252574L8.5422544,4.2427759
			l0.0027828-0.4094353l0.4333544-0.6710374L8.9763641,3.1186697L8.4735489,2.4492216L8.3305216,2.4459717L7.8194323,3.0914884
			L7.8168201,3.1349168l0.4241467,0.6905255L8.2381754,4.2365546L7.4751477,3.6326227L7.2906857,3.8759604l0.944849,0.7480989
			L8.2309399,5.300869L7.4572577,4.6886168L7.2726517,4.9319634l0.955658,0.7564549l-0.007082,1.0418477L7.3633127,6.1634164
			l-0.180531,0.1016293l0.0280952,1.0332918L6.3271041,6.757123L6.1903224,5.5404458L5.888164,5.5709109l0.1108298,0.9852982
			L5.4245582,6.2042847L5.2892957,5.0013585l-0.302124,0.0304294l0.1092868,0.9715724L4.747488,5.7896271L4.3870468,5.0632954
			L4.349473,5.0429358L3.5363123,5.1422224L3.4636228,5.2670188l0.301271,0.7831521l0.0354645,0.0243444l0.794157-0.0191655
			l0.3469324,0.2124429L4.0573668,6.6295705L4.1752152,6.918498l1.0960746-0.4486952l0.5726933,0.3506665L4.947372,7.1874099
			l0.1178479,0.2888827l1.1085682-0.4536963l0.8821692,0.5402808L6.1575871,8.0271206L6.1561317,8.2401075l0.8917456,0.504879
			L6.1576495,9.2457724L5.0560641,8.7420969L4.9346704,9.0246334l0.7270436,0.3323975
			c0.3094788,0.0071487,0.6264377,0.004365,0.9495082-0.0087519l0.5879059-0.3305931L7.1870155,9.3143444
			c0.1014376-0.0078182,0.2033744-0.0166397,0.3057709-0.0264711l0.0182571-0.4457102l0.225852-0.1270123l0.3183517,0.0000534
			l0.1505489,0.2864313l-0.001379,0.2024107c0.1011486-0.0141048,0.2026415-0.0291882,0.3044415-0.0452614l0.001008-0.1492138
			l0.1550941-0.2805252l0.3185482,0.0143976l0.2232046,0.1366186l0.0041485,0.1527948
			C9.4176283,8.9912529,9.6215,8.9461851,9.8221903,8.89783l-0.1513681-0.092701l0.8985567-0.4642344l0.0014553-0.2129993
			L9.6788998,7.6230183L10.569129,7.122232l1.1016006,0.5036764l0.1214151-0.2825012l-0.89147-0.4076023l0.5782328-0.3250489
			l1.0891609,0.4979496l0.121377-0.2825546l-0.8790264-0.4020376l0.3506842-0.196939l0.7935553,0.0550699l0.0350981-0.0222707
			l0.3115454-0.7685118l-0.0714865-0.1291852L12.417717,5.2260165z M3.9776399,5.7592154L3.8466218,5.4181256l0.3563945-0.0436783
			l0.1860046,0.3748493L3.9776399,5.7592154z M9.2512703,6.658968L9.2159052,7.5258412L8.9899368,7.6529007L8.6715479,7.6527834
			L8.5210342,7.3664036l0.0017948-0.2633977L9.2512703,6.658968z M8.1760588,3.1399519l0.2239761-0.2830107l0.219183,0.2921224
			L8.3950157,3.4964907L8.1760588,3.1399519z M8.21875,7.0954657L8.2169638,7.3584695L8.0619888,7.6389503L7.7433133,7.624588
			l-0.223249-0.1366625L7.4964762,6.6184492L8.21875,7.0954657z M7.5864353,8.4422884L7.3602786,8.5694122L6.6096764,8.1445379
			l0.7571731-0.3913283l0.2237158,0.1371031l0.1626682,0.2794042L7.5864353,8.4422884z M8.7530174,8.4220934L8.5058279,8.4109097
			L8.4806061,8.4251804L8.360055,8.6434307L8.2427616,8.420064L8.2169809,8.4043388L7.9712834,8.4043207l0.1289878-0.2104568
			l0.0002079-0.030673L7.974031,7.9459386l0.2469459,0.0111942l0.0253477-0.0142817l0.1205521-0.218266l0.1173372,0.22331
			l0.025672,0.0157981l0.2456083,0.0000372L8.626523,8.1741514L8.6263075,8.2047949L8.7530174,8.4220934z M10.1171198,8.223465
			L9.360117,8.6148491L9.1364098,8.4776907L8.9735279,8.1984396L9.1405573,7.925715l0.2261486-0.1270938L10.1171198,8.223465z
			 M12.7803383,5.958982l-0.4102497-0.0285268l0.1911392-0.3662686l0.3548326,0.0594959L12.7803383,5.958982z"/>
		<defs>
			
				<filter id="Adobe_OpacityMaskFilter_00000129908776763197620150000004121390640015291307_" filterUnits="userSpaceOnUse" x="7.2325907" y="10.7510281" width="6.030582" height="3.1710315">
				<feColorMatrix  type="matrix" values="1 0 0 0 0  0 1 0 0 0  0 0 1 0 0  0 0 0 1 0"/>
			</filter>
		</defs>
		
			<mask maskUnits="userSpaceOnUse" x="7.2325907" y="10.7510281" width="6.030582" height="3.1710315" id="SVGID_00000125563667895059050160000010014389114282520222_">
			<g style="filter:url(#Adobe_OpacityMaskFilter_00000129908776763197620150000004121390640015291307_);">
				
					<linearGradient id="SVGID_00000137101374641029648640000002549411325077994882_" gradientUnits="userSpaceOnUse" x1="10.2474642" y1="13.9239273" x2="10.2474642" y2="10.7485771">
					<stop  offset="0" style="stop-color:#969696"/>
					<stop  offset="1" style="stop-color:#474747"/>
				</linearGradient>
				<path style="fill:url(#SVGID_00000137101374641029648640000002549411325077994882_);" d="M8.2532282,13.9206419
					l-0.5042496-0.6701307l-0.0022893-0.0447025l0.4335523-0.6721058l0.0024595-0.4047575l-0.76861,0.567461l-0.1840577-0.2555532
					l0.4968362-0.3667698c0.1890125-0.0197659,0.3801718-0.0419731,0.5690756-0.0663357
					c0.1491146-0.0192261,0.3008842-0.0403919,0.4511118-0.06287l0.6917801,0.5468693l-0.1868668,0.2462902l-0.7613478-0.6027899
					l-0.0027809,0.4073601l0.4236956,0.6895561l-0.0022268,0.0445404l-0.5119858,0.6472235L8.2532282,13.9206419z
					 M8.3269405,13.5080042l0.2217407-0.2800245L8.3318968,12.87498l-0.2220745,0.3439169L8.3269405,13.5080042z
					 M11.4350319,11.3600206l0.0014896-0.0004292c0.0996552-0.029336,0.1990213-0.0595856,0.2953186-0.0899076l0.0021372-0.0006628
					l0.007719,0.0688286l-0.3056593,0.0308428L11.4350319,11.3600206z M12.33885,11.3063078l-0.1021137-0.2050524
					l0.0019579-0.000701c0.1023836-0.0361929,0.2041731-0.073535,0.3025894-0.1109467l0.3365383-0.0412731l-0.030592-0.0795116
					l0.0016699-0.0006819c0.0939465-0.0385628,0.1878004-0.0785246,0.2789288-0.1187925l0.0017595-0.0007715l0.1353073,0.3517618
					l-0.0727787,0.1263666l-0.8151169,0.1002645L12.33885,11.3063078z"/>
			</g>
		</mask>
		<path style="mask:url(#SVGID_00000125563667895059050160000010014389114282520222_);fill:#FFFFFF;" d="M13.1285629,10.7510281
			l0.1346092,0.3499746l-0.0726547,0.1247692l-0.813158,0.0992956l-0.0376291-0.0203753l-0.1004305-0.2023983
			c0.102808-0.0363579,0.2037163-0.0733547,0.3026333-0.110961l0.3384542-0.0414553l-0.0307932-0.0800257
			C12.9447308,10.8307991,13.037714,10.7911701,13.1285629,10.7510281z M11.4370518,11.3613434l0.0006008,0.0053377
			l0.3020163-0.0304642l-0.0072756-0.0647659C11.6353321,11.3019905,11.5368738,11.3319683,11.4370518,11.3613434z
			 M8.7473221,11.9466944l0.6889677,0.5453768l-0.1846418,0.2433643l-0.7628374-0.6039772l-0.0028009,0.4111309l0.4239655,0.6905432
			L8.9074793,13.276597L8.3964529,13.92206l-0.1431808-0.0032501l-0.5028234-0.6693945L7.748528,13.2057371l0.4332585-0.67103
			l0.0027723-0.4094248L7.4144955,12.693821l-0.1819048-0.252574l0.4953704-0.365695
			c0.1878796-0.0193911,0.3773675-0.0413542,0.5682216-0.0659771C8.4478674,11.9900055,8.5982618,11.968998,8.7473221,11.9466944z
			 M8.3319311,12.8715334l-0.2243433,0.347435l0.2193174,0.2920523l0.22402-0.2829142L8.3319311,12.8715334z"/>
		<defs>
			
				<filter id="Adobe_OpacityMaskFilter_00000139985368468288618440000006408969210404616881_" filterUnits="userSpaceOnUse" x="3.446002" y="10.1045303" width="1.862178" height="1.1006683">
				<feColorMatrix  type="matrix" values="1 0 0 0 0  0 1 0 0 0  0 0 1 0 0  0 0 0 1 0"/>
			</filter>
		</defs>
		
			<mask maskUnits="userSpaceOnUse" x="3.446002" y="10.1045303" width="1.862178" height="1.1006683" id="SVGID_00000060744415643062865150000002246694515369325727_">
			<g style="filter:url(#Adobe_OpacityMaskFilter_00000139985368468288618440000006408969210404616881_);">
				
					<linearGradient id="SVGID_00000160898966742148008200000005216768310972302214_" gradientUnits="userSpaceOnUse" x1="4.3772945" y1="11.2072821" x2="4.3772945" y2="10.1029863">
					<stop  offset="0" style="stop-color:#8D8D8D"/>
					<stop  offset="1" style="stop-color:#5D5D5D"/>
				</linearGradient>
				<path style="fill:url(#SVGID_00000160898966742148008200000005216768310972302214_);" d="M4.9637084,11.1677675
					l0.0842876-0.6651402l0.0021706,0.0008087c0.0846386,0.0315418,0.1716442,0.0627794,0.2586155,0.0928497l0.001411,0.0004845
					L5.232852,11.2072821L4.9637084,11.1677675z M3.5085037,10.9907207L3.4443965,10.876255l0.3057947-0.7565546
					l0.0256991-0.0167141l0.3898106,0.0266953c0.1848035,0.0879135,0.3762569,0.1723442,0.5697069,0.2511015l0.0035353,0.0014381
					l-0.035429,0.019908L4.334321,11.1107159l-0.0277653,0.0140915L3.5085037,10.9907207z M4.1746502,10.8221283
					l0.2084112-0.3992987L3.9358363,10.391717L3.787648,10.7572117L4.1746502,10.8221283z"/>
			</g>
		</mask>
		<path style="mask:url(#SVGID_00000060744415643062865150000002246694515369325727_);fill:#FFFFFF;" d="M5.3081799,10.5980215
			l-0.0769157,0.6071777l-0.2655087-0.0389938l0.0837779-0.6610384C5.1349034,10.5369701,5.2211328,10.5679178,5.3081799,10.5980215
			z M4.7347136,10.3824806l-0.0320973,0.0180511l-0.3699303,0.7093401l-0.0264068,0.0130329L3.50881,10.9889069l-0.062808-0.1135502
			l0.3058944-0.7549744l0.0249796-0.015852l0.3887029,0.0269804C4.3502059,10.2195053,4.5400329,10.3032312,4.7347136,10.3824806z
			 M4.3859868,10.4211941l-0.4513516-0.0313978L3.7850819,10.758647l0.3905835,0.0655107L4.3859868,10.4211941z"/>
	</g>
</g>
</svg>
