<?xml version="1.0" encoding="utf-8"?>
<!-- Generator: Adobe Illustrator 27.5.0, SVG Export Plug-In . SVG Version: 6.00 Build 0)  -->
<svg version="1.1" id="Ebene_1" xmlns="http://www.w3.org/2000/svg" xmlns:xlink="http://www.w3.org/1999/xlink" x="0px" y="0px"
	 viewBox="0 0 16 16" style="enable-background:new 0 0 16 16;" xml:space="preserve">
<style type="text/css">
	.st0{fill:#EBEBB4;}
	.st1{fill:url(#SVGID_1_);}
	.st2{fill:#E84B4D;}
	.st3{fill:#EB6467;}
	.st4{fill:#CB3A3A;}
	.st5{fill:#F5F3C5;}
</style>
<g>
	<path class="st0" d="M8.2304277,12.8842134c3.0127745,0,5.4555025-2.1709576,5.4555025-4.8493032
		c0-2.6782131-2.442728-4.8493176-5.4555025-4.8493176V12.8842134z"/>
	<g>
		<linearGradient id="SVGID_1_" gradientUnits="userSpaceOnUse" x1="2.3140695" y1="8.034874" x2="8.2304277" y2="8.034874">
			<stop  offset="0.166667" style="stop-color:#E64041"/>
			<stop  offset="0.849462" style="stop-color:#E64041"/>
		</linearGradient>
		<polygon class="st1" points="8.2304277,3.0691407 7.4952393,2.7446108 6.8481765,3.2210476 6.0596013,3.067435 
			5.5374026,3.6780369 4.7345991,3.7119317 4.3736959,4.4295249 3.6046228,4.6615839 3.4418988,5.4478121 2.7648046,5.8800325 
			2.8325651,6.6798477 2.3140695,7.2929573 2.6211491,8.0349102 2.3140695,8.7770681 2.8325651,9.3901052 2.7648046,10.1899204 
			3.4418988,10.6221409 3.6047688,11.4084415 4.3739729,11.640501 4.7345991,12.3580351 5.5372567,12.3919153 6.0593243,13.0023861 
			6.8480306,12.848774 7.4952393,13.3251381 8.2304277,13.0006809 		"/>
		<path class="st2" d="M7.1936994,7.5769153L6.6245146,8.5581007h1.3211679L7.3764977,7.5769153
			C7.3261003,7.4899259,7.2440968,7.4899259,7.1936994,7.5769153z"/>
		<path class="st2" d="M5.5878,7.5769153L5.0186152,8.5581007h1.3211684L5.7703218,7.5769153
			C5.7199244,7.4899259,5.6379209,7.4899259,5.5878,7.5769153z"/>
		<path class="st2" d="M3.981606,7.5769153L3.4124212,8.5581007h1.3214636L4.1644044,7.5769153
			C4.114007,7.4899259,4.0320034,7.4899259,3.981606,7.5769153z"/>
		<path class="st3" d="M7.1936994,5.9608989L6.6245146,6.9422445h0.6759715V5.9008212
			C7.26232,5.8928471,7.222754,5.9105015,7.1936994,5.9608989z"/>
		<path class="st2" d="M7.3004861,5.9008212v1.0414233h0.6451964L7.3764977,5.9608989
			C7.355155,5.9243073,7.3280978,5.9065213,7.3004861,5.9008212z"/>
		<path class="st4" d="M7.1173959,6.7296767L6.6245146,6.9422445h1.3211679L7.4525242,6.7296767
			C7.3599954,6.6898193,7.2099395,6.6898193,7.1173959,6.7296767z"/>
		<path class="st2" d="M5.5878,5.9608989L5.0186152,6.9422445h1.3211684L5.7703218,5.9608989
			C5.7199244,5.8739095,5.6379209,5.8739095,5.5878,5.9608989z"/>
		<path class="st2" d="M3.981606,5.9608989L3.4124212,6.9422445h1.3214636L4.1644044,5.9608989
			C4.114007,5.8739095,4.0320034,5.8739095,3.981606,5.9608989z"/>
		<path class="st2" d="M7.1936994,4.3450284L6.6245146,5.3262281h1.3211679L7.3764977,4.3450284
			C7.3261003,4.2579079,7.2440968,4.2579079,7.1936994,4.3450284z"/>
		<path class="st2" d="M5.5878,4.3450284L5.0186152,5.3262281h1.3211684L5.7703218,4.3450284
			C5.7199244,4.2579079,5.6379209,4.2579079,5.5878,4.3450284z"/>
		<path class="st2" d="M7.1936994,10.8087883l-0.5691848,0.9811993h1.3211679l-0.5691848-0.9811993
			C7.3261003,10.7219448,7.2440968,10.7219448,7.1936994,10.8087883z"/>
		<path class="st2" d="M5.5878,10.8087883l-0.5691848,0.9811993h1.3211684l-0.5694618-0.9811993
			C5.7199244,10.7219448,5.6379209,10.7219448,5.5878,10.8087883z"/>
		<path class="st2" d="M7.1936994,9.1929169l-0.5691848,0.9812002h1.3211679L7.3764977,9.1929169
			C7.3261003,9.1059427,7.2440968,9.1059427,7.1936994,9.1929169z"/>
		<path class="st2" d="M5.5878,9.1929169l-0.5691848,0.9812002h1.3211684L5.7703218,9.1929169
			C5.7199244,9.1059427,5.6379209,9.1059427,5.5878,9.1929169z"/>
		<path class="st2" d="M3.981606,9.1929169l-0.5691848,0.9812002h1.3214636L4.1644044,9.1929169
			C4.114007,9.1059427,4.0320034,9.1059427,3.981606,9.1929169z"/>
		<path class="st3" d="M5.5878,5.9608989L5.0186152,6.9422445h0.6759572V5.9008212
			C5.6564207,5.8928471,5.6168404,5.9105015,5.5878,5.9608989z"/>
		<path class="st3" d="M3.981606,5.9608989L3.4124212,6.9422445h0.6759715V5.9008212
			C4.0502267,5.8928471,4.0106606,5.9105015,3.981606,5.9608989z"/>
		<path class="st3" d="M5.5878,4.3433228L5.0186152,5.3245225h0.6759572V4.2832451
			C5.6564207,4.2752705,5.6168404,4.2929249,5.5878,4.3433228z"/>
		<path class="st3" d="M7.1936994,4.3433228L6.6245146,5.3245225h0.6759715V4.2832451
			C7.26232,4.2752705,7.222754,4.2929249,7.1936994,4.3433228z"/>
		<path class="st3" d="M7.1936994,7.5754867L6.6245146,8.5566864h0.6759715V7.515409
			C7.26232,7.5074348,7.222754,7.5250893,7.1936994,7.5754867z"/>
		<path class="st3" d="M5.5878,7.5754867L5.0186152,8.5566864h0.6759572V7.515409
			C5.6564207,7.5074348,5.6168404,7.5250893,5.5878,7.5754867z"/>
		<path class="st3" d="M3.981606,7.5754867L3.4124212,8.5566864h0.6759715V7.515409
			C4.0502267,7.5074348,4.0106606,7.5250893,3.981606,7.5754867z"/>
		<path class="st3" d="M3.981606,9.1913576l-0.5691848,0.9811993h0.6759715v-1.041131
			C4.0502267,9.1231594,4.0106606,9.1409597,3.981606,9.1913576z"/>
		<path class="st3" d="M5.5878,9.1913576l-0.5691848,0.9811993h0.6759572v-1.041131
			C5.6564207,9.1231594,5.6168404,9.1409597,5.5878,9.1913576z"/>
		<path class="st3" d="M7.1936994,9.1913576l-0.5691848,0.9811993h0.6759715v-1.041131
			C7.26232,9.1231594,7.222754,9.1409597,7.1936994,9.1913576z"/>
		<path class="st3" d="M7.1936994,10.8072281l-0.5691848,0.981185h0.6759715v-1.041131
			C7.26232,10.7390299,7.222754,10.7568302,7.1936994,10.8072281z"/>
		<path class="st3" d="M5.5878,10.8072281l-0.5691848,0.981185h0.6759572v-1.041131
			C5.6564207,10.7390299,5.6168404,10.7568302,5.5878,10.8072281z"/>
		<path class="st4" d="M5.511497,6.7296767L5.0186152,6.9422445h1.3211684L5.8466253,6.7296767
			C5.7540817,6.6898193,5.6040258,6.6898193,5.511497,6.7296767z"/>
		<path class="st4" d="M5.511497,11.5775805l-0.4928818,0.2124071h1.3211684l-0.4931583-0.2124071
			C5.7540817,11.5377083,5.6040258,11.5377083,5.511497,11.5775805z"/>
		<path class="st4" d="M7.1173959,11.5775805l-0.4928813,0.2124071h1.3211679l-0.4931583-0.2124071
			C7.3599954,11.5377083,7.2099395,11.5377083,7.1173959,11.5775805z"/>
		<path class="st4" d="M7.1173959,9.9833441l-0.4928813,0.212553h1.3211679l-0.4931583-0.212553
			C7.3599954,9.9434862,7.2099395,9.9434862,7.1173959,9.9833441z"/>
		<path class="st4" d="M5.511497,9.9833441l-0.4928818,0.212553h1.3211684l-0.4931583-0.212553
			C5.7540817,9.9434862,5.6040258,9.9434862,5.511497,9.9833441z"/>
		<path class="st4" d="M3.9055941,9.96171l-0.4931729,0.2124071h1.3214636L4.2401576,9.96171
			C4.1481791,9.9218378,3.9981232,9.9218378,3.9055941,9.96171z"/>
		<path class="st4" d="M7.1173959,8.3456936L6.6245146,8.5581007h1.3211679L7.4525242,8.3456936
			C7.3599954,8.3058357,7.2099395,8.3058357,7.1173959,8.3456936z"/>
		<path class="st4" d="M5.511497,8.3456936L5.0186152,8.5581007h1.3211684L5.8466253,8.3456936
			C5.7540817,8.3058357,5.6040258,8.3058357,5.511497,8.3456936z"/>
		<path class="st4" d="M3.9055941,8.3456936L3.4124212,8.5581007h1.3214636L4.2401576,8.3456936
			C4.1481791,8.3058357,3.9981232,8.3058357,3.9055941,8.3456936z"/>
		<path class="st4" d="M3.9055941,6.7296767L3.4124212,6.9422445h1.3214636L4.2401576,6.7296767
			C4.1481791,6.6898193,3.9981232,6.6898193,3.9055941,6.7296767z"/>
		<path class="st4" d="M7.1173959,5.1138206L6.6245146,5.3262281h1.3211679L7.4525242,5.1138206
			C7.3599954,5.0739489,7.2099395,5.0739489,7.1173959,5.1138206z"/>
		<path class="st4" d="M5.511497,5.1138206L5.0186152,5.3262281h1.3211684L5.8466253,5.1138206
			C5.7540817,5.0739489,5.6040258,5.0739489,5.511497,5.1138206z"/>
	</g>
	<path class="st5" d="M10.890398,4.7277408c0.635726,0.3836341,0.8973637,1.115097,0.5843782,1.6337399
		s-1.082057,0.6280909-1.717804,0.2444415C9.1212454,6.2222881,8.8596106,5.4908433,9.172596,4.9722004
		C9.4855785,4.4535389,10.254653,4.3441091,10.890398,4.7277408z"/>
</g>
</svg>
