<?xml version="1.0" encoding="utf-8"?>
<!-- Generator: Adobe Illustrator 27.5.0, SVG Export Plug-In . SVG Version: 6.00 Build 0)  -->
<svg version="1.1" id="Ebene_1" xmlns="http://www.w3.org/2000/svg" xmlns:xlink="http://www.w3.org/1999/xlink" x="0px" y="0px"
	 viewBox="0 0 16 16" style="enable-background:new 0 0 16 16;" xml:space="preserve">
<style type="text/css">
	.st0{fill:#FACA94;}
	.st1{fill:#FCD9B4;}
	.st2{fill:#295426;}
	.st3{fill:#DA4A48;}
	.st4{fill:#EB6566;}
	.st5{fill:#336A2D;}
	.st6{fill:#EF8081;}
</style>
<g>
	<path class="st0" d="M2.7299931,12.1135569l0.3729708,0.3729715c1.1235595,0.836524,2.6950135,1.3465195,4.6327944,1.3465195
		s3.5092349-0.5099955,4.6327939-1.3465195l0.3729715-0.3729715L7.4668217,2.1523478L2.7299931,12.1135569z"/>
	<path class="st1" d="M11.872427,12.7476358L6.9246964,3.2923787l-4.1947031,8.8211784l0.3729708,0.3729715
		c1.1235595,0.836524,2.6950135,1.3465195,4.6327944,1.3465195C9.4411697,13.8330479,10.790082,13.4126129,11.872427,12.7476358z"/>
	<path class="st2" d="M12.3685522,11.778594c-1.123559,0.836525-2.695013,1.3465433-4.6327939,1.3465433
		s-3.5092349-0.5099955-4.6327944-1.3465433l-0.14483-0.1448069l-0.2281408,0.4797697c0,0,0.1334927,0.1566553,0.4089346,0.3907442
		c0.2754416,0.2340651,1.69958,1.3287468,4.5968304,1.3287468c3.0744195,0,4.4529767-1.1711626,4.6327939-1.3465195
		c0.179841-0.1753807,0.3729715-0.3729715,0.3729715-0.3729715l-0.2450771-0.4628325L12.3685522,11.778594z"/>
	<path class="st3" d="M3.0834024,11.3703566l0.0542707,0.0542707c1.1235836,0.8365479,2.6950147,1.3465424,4.6327944,1.3465424
		c1.9269099,0,3.4913707-0.5044184,4.6136279-1.3326025L7.4668217,2.1523478L3.0834024,11.3703566z"/>
	<path class="st4" d="M11.471694,11.9905195L6.896841,3.3509705l-3.8134387,8.0193863l0.0542707,0.0542707
		c1.1235836,0.8365479,2.6950147,1.3465424,4.6328192,1.3465424C9.2210207,12.7711697,10.4659452,12.4851341,11.471694,11.9905195z"
		/>
	<path class="st5" d="M7.4668217,8.8776035"/>
	<path class="st6" d="M6.406733,9.9165039c-2.4749343,0-0.077991-3.9169378,0.3708334-3.9169378
		C7.2263918,5.9995661,8.8816919,9.9165039,6.406733,9.9165039z"/>
	<path d="M7.8915772,6.3526735c0,0.1563993-0.1267786,0.2831779-0.2831783,0.2831779
		c-0.1563764,0-0.283155-0.1267786-0.283155-0.2831779c0-0.1563768,0.283155-0.6607261,0.283155-0.6607261
		S7.8915772,6.1962967,7.8915772,6.3526735z"/>
	<path d="M6.61731,8.004488c0,0.1563997-0.1267786,0.2831783-0.283155,0.2831783
		c-0.1563997,0-0.2831779-0.1267786-0.2831779-0.2831783c0-0.1563764,0.2831779-0.6607256,0.2831779-0.6607256
		S6.61731,7.8481116,6.61731,8.004488z"/>
	<path d="M9.0950556,8.004488c0,0.1563997-0.1267786,0.2831783-0.2831783,0.2831783S8.5286989,8.1608877,8.5286989,8.004488
		c0-0.1563764,0.2831783-0.6607256,0.2831783-0.6607256S9.0950556,7.8481116,9.0950556,8.004488z"/>
	<path d="M7.8915772,9.7742996c0,0.1563997-0.1267786,0.2831783-0.2831783,0.2831783
		c-0.1563764,0-0.283155-0.1267786-0.283155-0.2831783s0.283155-0.6607256,0.283155-0.6607256
		S7.8915772,9.6178999,7.8915772,9.7742996z"/>
	<path d="M6.61731,11.4261141c0,0.1563997-0.1267786,0.2831783-0.283155,0.2831783
		c-0.1563997,0-0.2831779-0.1267786-0.2831779-0.2831783s0.2831779-0.6607256,0.2831779-0.6607256
		S6.61731,11.2697144,6.61731,11.4261141z"/>
	<path d="M9.0950556,11.4261141c0,0.1563997-0.1267786,0.2831783-0.2831783,0.2831783s-0.2831783-0.1267786-0.2831783-0.2831783
		s0.2831783-0.6607256,0.2831783-0.6607256S9.0950556,11.2697144,9.0950556,11.4261141z"/>
	<path d="M10.2985106,9.7742996c0,0.1563997-0.1267786,0.2831783-0.2831554,0.2831783
		c-0.1563988,0-0.2831774-0.1267786-0.2831774-0.2831783s0.2831774-0.6607256,0.2831774-0.6607256
		S10.2985106,9.6178999,10.2985106,9.7742996z"/>
	<path d="M5.3430662,9.7742996c0,0.1563997-0.1267781,0.2831783-0.2831779,0.2831783
		c-0.1563764,0-0.283155-0.1267786-0.283155-0.2831783s0.283155-0.6607256,0.283155-0.6607256
		S5.3430662,9.6178999,5.3430662,9.7742996z"/>
	<path class="st5" d="M11.8958693,12.8382187l-0.3038321-0.5737906c-1.0319548,0.5432167-2.3298483,0.8607092-3.8562789,0.8607092
		c-1.9377809,0-3.5092349-0.5099955-4.6327944-1.3465433l-0.14483-0.1448069l-0.2281408,0.4797697
		c0,0,0.1334927,0.1566553,0.4089346,0.3907442c0.2754416,0.2340651,1.69958,1.3287468,4.5968304,1.3287468
		C9.9176407,13.8330479,11.2445755,13.2433891,11.8958693,12.8382187z"/>
</g>
</svg>
