<?xml version="1.0" encoding="utf-8"?>
<!-- Generator: Adobe Illustrator 27.5.0, SVG Export Plug-In . SVG Version: 6.00 Build 0)  -->
<svg version="1.1" id="Ebene_1" xmlns="http://www.w3.org/2000/svg" xmlns:xlink="http://www.w3.org/1999/xlink" x="0px" y="0px"
	 viewBox="0 0 16 16" style="enable-background:new 0 0 16 16;" xml:space="preserve">
<style type="text/css">
	.st0{fill:#A0C522;}
	.st1{fill:#558F32;}
</style>
<g>
	<g>
		<path class="st0" d="M13.1914902,4.7817726c-0.2231245,0.1525354-0.9279432,0.9457188-0.9279432,0.9457188
			s-0.0356827-0.0590816-0.0723867-0.1282291c-0.0087833,0.0080147-0.0173912,0.0158548-0.0261745,0.0239573
			c-0.22577,0.2177544-0.7940388,1.0216069-0.7940388,1.0216069s-0.0448503-0.0586624-0.0907221-0.126195
			c-0.0132971,0.0147548-0.026515,0.0295014-0.0398998,0.0445094c-0.2105951,0.2643943-0.6696424,1.0788198-0.6696424,1.0788198
			s-0.0505161-0.053546-0.102953-0.1160412C10.3052578,7.742312,9.8908863,8.72367,9.8908863,8.72367
			S9.8335075,8.6751528,9.7736578,8.618289C9.7662802,8.6316738,9.7585621,8.6450577,9.7511063,8.6584425
			C9.6039839,8.9486799,9.3239441,9.8689051,9.3239441,9.8689051S9.266818,9.8300266,9.2044897,9.7824526
			c-0.1213236,0.284091-0.2242765,0.5528336-0.3107376,0.7982998l-0.6421404,1.7498236l1.5136032-1.4455214l-0.0007238-0.0012836
			c0.1404696-0.1358242,0.2873297-0.2838373,0.4374733-0.4431915c-0.0684671-0.0379353-0.1266575-0.0746832-0.1266575-0.0746832
			s0.7469797-0.6387005,0.9439373-0.8836517c0.007369-0.009552,0.0146151-0.0194435,0.0219927-0.0289955
			c-0.0760975-0.0320501-0.1434116-0.0652189-0.1434116-0.0652189s0.7335081-0.7726393,0.8666878-1.0081348
			c-0.0786552-0.0231018-0.147542-0.0479145-0.147542-0.0479145s0.5984087-0.7945538,0.7332907-1.0716515
			c0.0042601-0.0093856,0.0085211-0.0186753,0.0127468-0.0280523c-0.0804892-0.015008-0.1524925-0.0327401-0.1524925-0.0327401
			s0.5509567-0.9117036,0.6304245-1.170135c-0.0784025-0.0058846-0.1472015-0.0149207-0.1472015-0.0149207
			S13.141017,5.0473628,13.1914902,4.7817726z"/>
		<path class="st1" d="M13.1914902,4.7817726c-0.2231245,0.1525354-0.9279432,0.9457188-0.9279432,0.9457188
			s-0.0356827-0.0590816-0.0723867-0.1282291c-0.0087833,0.0080147-0.0173912,0.0158548-0.0261745,0.0239573
			c-0.22577,0.2177544-0.7940388,1.0216069-0.7940388,1.0216069s-0.0448503-0.0586624-0.0907221-0.126195
			c-0.0132971,0.0147548-0.026515,0.0295014-0.0398998,0.0445094c-0.2105951,0.2643943-0.6696424,1.0788198-0.6696424,1.0788198
			s-0.0505161-0.053546-0.102953-0.1160412C10.3052578,7.742312,9.8908863,8.72367,9.8908863,8.72367
			S9.8335075,8.6751528,9.7736578,8.618289C9.7662802,8.6316738,9.7585621,8.6450577,9.7511063,8.6584425
			C9.6039839,8.9486799,9.3239441,9.8689051,9.3239441,9.8689051S9.266818,9.8300266,9.2044897,9.7824526
			c-0.1213236,0.284091-0.2242765,0.5528336-0.3107376,0.7982998l-0.6421404,1.7498236L13.1914902,4.7817726z"/>
		<path class="st0" d="M11.4322453,10.2934217c-0.2197628,0.0975399-0.9142179,0.6116705-0.9142179,0.6116705
			s-0.021102-0.0602865-0.0398998-0.12747c-0.3532391,0.2068415-0.6642294,0.4201689-0.924407,0.6153288l-1.3021088,0.9376249
			l1.6143398-0.324934c0.3102217-0.057972,0.6633301-0.1393166,1.0382738-0.252799
			c-0.036705-0.0596838-0.066843-0.1166353-0.066843-0.1166353s0.8753309-0.1648979,1.0805569-0.2591124
			c-0.0458717-0.0574656-0.086112-0.1150188-0.086112-0.1150188s0.849288-0.2674675,1.0419846-0.3858051
			c-0.0494509-0.0488567-0.0913153-0.0958376-0.0913153-0.0958376s0.8089161-0.3710585,0.9856625-0.5121651
			c-0.0548649-0.0430603-0.1023951-0.0854311-0.1023951-0.0854311s0.7627478-0.4599028,0.9217186-0.6198511
			c-0.2253075,0.0080156-1.0809069,0.255105-1.0809069,0.255105s0.001152-0.0637779,0.0067396-0.133441
			c-0.2235603,0.0339365-1.0455637,0.3751526-1.0455637,0.3751526s-0.005928-0.0629225-0.0082331-0.1323233
			C12.2418947,9.9886122,11.4684,10.4296656,11.4684,10.4296656S11.4431591,10.3658085,11.4322453,10.2934217z"/>
		<path class="st1" d="M14.5874825,9.5629864c-0.2253075,0.0080156-1.0809069,0.255105-1.0809069,0.255105
			s0.001152-0.0637779,0.0067396-0.133441c-0.2235603,0.0339365-1.0455637,0.3751526-1.0455637,0.3751526
			s-0.005928-0.0629225-0.0082331-0.1323233C12.2418947,9.9886122,11.4684,10.4296656,11.4684,10.4296656
			s-0.0252409-0.0638571-0.0361547-0.1362438c-0.2197628,0.0975399-0.9142179,0.6116705-0.9142179,0.6116705
			s-0.021102-0.0602865-0.0398998-0.12747c-0.3532391,0.2068415-0.6642294,0.4201689-0.924407,0.6153288l-1.3021088,0.9376249
			L14.5874825,9.5629864z"/>
		<path class="st0" d="M11.8326397,12.6173124c-0.2443228-0.0810041-1.2553911-0.1567965-1.2553911-0.1567965
			s0.0229712-0.0577192,0.0528555-0.1231995c-0.3093224-0.037097-0.6026678-0.0469017-0.8628454-0.0418644l-0.0007248-0.0004282
			l-1.5149221,0.035552l1.2686443,0.4749117c0.340745,0.1355629,0.7670956,0.2730026,1.2404699,0.3529768
			c1.1760979,0.1989136,2.1955738-0.0314569,2.1955738-0.0314569c-0.2241096-0.1266146-1.2013388-0.3960466-1.2013388-0.3960466
			S11.7895355,12.677084,11.8326397,12.6173124z"/>
		<path class="st1" d="M12.9562998,13.1270075c-0.2241096-0.1266146-1.2013388-0.3960466-1.2013388-0.3960466
			s0.0345745-0.0538769,0.0776787-0.1136484c-0.2443228-0.0810041-1.2553911-0.1567965-1.2553911-0.1567965
			s0.0229712-0.0577192,0.0528555-0.1231995c-0.3093224-0.037097-0.6026678-0.0469017-0.8628454-0.0418644l-0.0007248-0.0004282
			l-1.5149221,0.035552L12.9562998,13.1270075z"/>
		<path class="st0" d="M3.3117242,4.7817726C3.534848,4.9343081,4.2397108,5.7274914,4.2397108,5.7274914
			s0.0356388-0.0590816,0.0723429-0.1282291c0.0087833,0.0080147,0.0173922,0.0158548,0.026175,0.0239573
			c0.2257695,0.2177544,0.7940388,1.0216069,0.7940388,1.0216069s0.0448503-0.0586624,0.0907216-0.126195
			c0.0132971,0.0147548,0.0265155,0.0295014,0.0398998,0.0445094C5.473484,6.8275352,5.9325314,7.6419606,5.9325314,7.6419606
			s0.0505252-0.053546,0.1029534-0.1160412C6.1979561,7.742312,6.6123281,8.72367,6.6123281,8.72367
			s0.0573788-0.0485172,0.117228-0.105381c0.0073776,0.0133848,0.0150957,0.0267687,0.0225515,0.0401535
			c0.1471229,0.2902374,0.4271626,1.2104626,0.4271626,1.2104626s0.0571251-0.0388784,0.1194544-0.0864525
			c0.1213231,0.284091,0.2242765,0.5528336,0.3107376,0.7982998l0.6421494,1.7498236L6.737999,10.8850546l0.0007248-0.0012836
			c-0.14047-0.1358242-0.2873306-0.2838373-0.4374738-0.4431915c0.0684667-0.0379353,0.1266575-0.0746832,0.1266575-0.0746832
			S5.6809278,9.7271957,5.4839697,9.4822445C5.4766011,9.4726925,5.4693546,9.462801,5.461977,9.453249
			c0.0760975-0.0320501,0.1434121-0.0652189,0.1434121-0.0652189S4.8718805,8.6153908,4.7387013,8.3798952
			c0.0786557-0.0231018,0.1475501-0.0479145,0.1475501-0.0479145S4.2878432,7.5374269,4.1529527,7.2603292
			C4.1486921,7.2509437,4.1444316,7.2416539,4.1402059,7.2322769c0.0804892-0.015008,0.1525354-0.0327401,0.1525354-0.0327401
			s-0.5509999-0.9117036-0.6304674-1.170135c0.0784025-0.0058846,0.1472011-0.0149207,0.1472011-0.0149207
			S3.3621967,5.0473628,3.3117242,4.7817726z"/>
		<path class="st1" d="M8.2516117,12.3305759L6.737999,10.8850546l0.0007248-0.0012836
			c-0.14047-0.1358242-0.2873306-0.2838373-0.4374738-0.4431915c0.0684667-0.0379353,0.1266575-0.0746832,0.1266575-0.0746832
			S5.6809278,9.7271957,5.4839697,9.4822445C5.4766011,9.4726925,5.4693546,9.462801,5.461977,9.453249
			c0.0760975-0.0320501,0.1434121-0.0652189,0.1434121-0.0652189S4.8718805,8.6153908,4.7387013,8.3798952
			c0.0786557-0.0231018,0.1475501-0.0479145,0.1475501-0.0479145S4.2878432,7.5374269,4.1529527,7.2603292
			C4.1486921,7.2509437,4.1444316,7.2416539,4.1402059,7.2322769c0.0804892-0.015008,0.1525354-0.0327401,0.1525354-0.0327401
			s-0.5509999-0.9117036-0.6304674-1.170135c0.0784025-0.0058846,0.1472011-0.0149207,0.1472011-0.0149207
			S3.3621967,5.0473628,3.3117242,4.7817726L8.2516117,12.3305759z"/>
		<path class="st0" d="M5.0709686,10.2934217c0.2197628,0.0975399,0.9142184,0.6116705,0.9142184,0.6116705
			s0.021102-0.0602865,0.0398993-0.12747c0.3532391,0.2068415,0.6642294,0.4201689,0.924407,0.6153288l1.3021183,0.9376249
			l-1.6143484-0.324934c-0.3102226-0.057972-0.6633306-0.1393166-1.0382743-0.252799
			c0.0367045-0.0596838,0.0668521-0.1166353,0.0668521-0.1166353s-0.87534-0.1648979-1.0805659-0.2591124
			c0.0458717-0.0574656,0.0861115-0.1150188,0.0861115-0.1150188s-0.849287-0.2674675-1.0419843-0.3858051
			c0.0494599-0.0488567,0.0913153-0.0958376,0.0913153-0.0958376s-0.8089161-0.3710585-0.985662-0.5121651
			c0.0548642-0.0430603,0.1023946-0.0854311,0.1023946-0.0854311S2.0747464,9.7229347,1.9157325,9.5629864
			c0.2253066,0.0080156,1.0809063,0.255105,1.0809063,0.255105s-0.0011525-0.0637779-0.0067403-0.133441
			C3.213459,9.7185869,4.0354624,10.059803,4.0354624,10.059803s0.0059285-0.0629225,0.0082335-0.1323233
			c0.2176232,0.0611324,0.9911184,0.5021858,0.9911184,0.5021858S5.0600991,10.3658085,5.0709686,10.2934217z"/>
		<path class="st1" d="M8.2516117,12.3305759l-1.6143484-0.324934c-0.3102226-0.057972-0.6633306-0.1393166-1.0382743-0.252799
			c0.0367045-0.0596838,0.0668521-0.1166353,0.0668521-0.1166353s-0.87534-0.1648979-1.0805659-0.2591124
			c0.0458717-0.0574656,0.0861115-0.1150188,0.0861115-0.1150188s-0.849287-0.2674675-1.0419843-0.3858051
			c0.0494599-0.0488567,0.0913153-0.0958376,0.0913153-0.0958376s-0.8089161-0.3710585-0.985662-0.5121651
			c0.0548642-0.0430603,0.1023946-0.0854311,0.1023946-0.0854311S2.0747464,9.7229347,1.9157325,9.5629864L8.2516117,12.3305759z"/>
		<path class="st0" d="M4.6705747,12.6173124c0.2443228-0.0810041,1.2553911-0.1567965,1.2553911-0.1567965
			s-0.0229707-0.0577192-0.052856-0.1231995c0.3093228-0.037097,0.6026688-0.0469017,0.8628459-0.0418644l0.0007248-0.0004282
			l1.5149312,0.035552l-1.2686534,0.4749117c-0.340745,0.1355629-0.7670956,0.2730026-1.2404699,0.3529768
			c-1.1760979,0.1989136-2.1955743-0.0314569-2.1955743-0.0314569c0.2241104-0.1266146,1.2013822-0.3960466,1.2013822-0.3960466
			S4.7136788,12.677084,4.6705747,12.6173124z"/>
		<path class="st1" d="M8.2516117,12.3305759l-1.2686534,0.4749117c-0.340745,0.1355629-0.7670956,0.2730026-1.2404699,0.3529768
			c-1.1760979,0.1989136-2.1955743-0.0314569-2.1955743-0.0314569L8.2516117,12.3305759z"/>
		<path class="st0" d="M8.2512274,2.4391279C8.1509542,2.6763258,7.9944201,3.6780615,7.9944201,3.6780615
			S7.9363513,3.6494157,7.8718486,3.6133487C7.7964845,3.8594959,7.7446847,4.8726602,7.7446847,4.8726602
			S7.6757898,4.8473406,7.6022592,4.8149409C7.5481982,5.0667191,7.581707,6.0798831,7.581707,6.0798831
			S7.5114503,6.0605268,7.4363394,6.034946c-0.030488,0.2556109,0.0967722,1.2614412,0.0967722,1.2614412
			s-0.0716624-0.0127034-0.1489124-0.031291C7.3842864,7.27422,7.3843651,7.2832651,7.3845835,7.2924671
			c0.0098042,0.2929616,0.224154,1.2177963,0.224154,1.2177963S7.5354075,8.5048065,7.4562893,8.4940586
			c0,0.0005159,0.0001221,0.0009432,0.0001221,0.0014496V8.4942341C7.4564986,8.4955959,7.4566731,8.49722,7.4567518,8.4985819
			c0.0014143,0.0134716,0.0027328,0.0271091,0.0041823,0.040493c0.0398993,0.303875,0.309288,1.1575193,0.309288,1.1575193
			s-0.061264,0.0008469-0.1322889-0.0017118c0.0588803,0.3014917,0.1229119,0.5798645,0.1868563,0.8294249l0.4268222,1.8062687
			L8.6777,10.5243073c0.0639439-0.2495604,0.1279755-0.5279331,0.1868563-0.8294249
			C8.7935314,9.6974411,8.7322235,9.6965942,8.7322235,9.6965942s0.2694321-0.8536444,0.3093319-1.1575193
			C9.0429611,8.525691,9.044323,8.5120535,9.0457373,8.4985819C9.0458164,8.49722,9.0459909,8.4955959,9.0460777,8.4942341
			v0.0012741c0-0.0005064,0.0000792-0.0009336,0.0000792-0.0014496C8.967082,8.5048065,8.8937082,8.5102634,8.8937082,8.5102634
			S9.108058,7.5854287,9.1179066,7.2924671C9.1180811,7.2832651,9.1181593,7.27422,9.1182899,7.2650962
			c-0.0772495,0.0185876-0.1489115,0.031291-0.1489115,0.031291S9.0966377,6.2905569,9.0661154,6.034946
			c-0.07512,0.0255809-0.1453333,0.0449371-0.1453333,0.0449371s0.0335093-1.013164-0.020587-1.2649422
			C8.8266993,4.8473406,8.7578049,4.8726602,8.7578049,4.8726602S8.7060051,3.8594959,8.630641,3.6133487
			c-0.0645027,0.036067-0.1225624,0.0647128-0.1225624,0.0647128S8.3515348,2.6763258,8.2512274,2.4391279z"/>
		<path class="st1" d="M8.2512274,2.4391279C8.1509542,2.6763258,7.9944201,3.6780615,7.9944201,3.6780615
			S7.9363513,3.6494157,7.8718486,3.6133487C7.7964845,3.8594959,7.7446847,4.8726602,7.7446847,4.8726602
			S7.6757898,4.8473406,7.6022592,4.8149409C7.5481982,5.0667191,7.581707,6.0798831,7.581707,6.0798831
			S7.5114503,6.0605268,7.4363394,6.034946c-0.030488,0.2556109,0.0967722,1.2614412,0.0967722,1.2614412
			s-0.0716624-0.0127034-0.1489124-0.031291C7.3842864,7.27422,7.3843651,7.2832651,7.3845835,7.2924671
			c0.0098042,0.2929616,0.224154,1.2177963,0.224154,1.2177963S7.5354075,8.5048065,7.4562893,8.4940586
			c0,0.0005159,0.0001221,0.0009432,0.0001221,0.0014496V8.4942341C7.4564986,8.4955959,7.4566731,8.49722,7.4567518,8.4985819
			c0.0014143,0.0134716,0.0027328,0.0271091,0.0041823,0.040493c0.0398993,0.303875,0.309288,1.1575193,0.309288,1.1575193
			s-0.061264,0.0008469-0.1322889-0.0017118c0.0588803,0.3014917,0.1229119,0.5798645,0.1868563,0.8294249l0.4268222,1.8062687
			L8.2512274,2.4391279z"/>
	</g>
</g>
</svg>
