<?xml version="1.0" encoding="utf-8"?>
<!-- Generator: Adobe Illustrator 27.5.0, SVG Export Plug-In . SVG Version: 6.00 Build 0)  -->
<svg version="1.1" id="Ebene_1" xmlns="http://www.w3.org/2000/svg" xmlns:xlink="http://www.w3.org/1999/xlink" x="0px" y="0px"
	 viewBox="0 0 16 16" style="enable-background:new 0 0 16 16;" xml:space="preserve">
<style type="text/css">
	.st0{fill:#50A833;}
	.st1{fill:#242126;}
	.st2{fill:#655775;}
</style>
<g>
	<path class="st0" d="M7.303926,6.84097C7.3013754,6.8418665,7.2987814,6.8427424,7.2961378,6.8435273
		C7.2002192,6.8725028,7.0990057,6.8182693,7.0699825,6.7223678C7.0577631,6.6819649,6.7691417,5.7222571,6.6224599,4.8026118
		c-0.2027531-1.2713425,0.3027859-2.0729711,0.3244343-2.106498c0.054306-0.0841889,0.166554-0.1083424,0.2508183-0.0540268
		c0.0839834,0.054234,0.1082611,0.1661682,0.0543623,0.2502859c-0.005888,0.0092971-0.4203944,0.9434083-0.165565,2.053972
		C7.3820553,6.2342744,7.4143658,6.6076965,7.4172974,6.617372C7.4454875,6.7106466,7.3949285,6.8089824,7.303926,6.84097z"/>
	<g>
		<path class="st0" d="M7.8241534,4.1089821c0.027689,0.2165499,0.0293803,0.4468703-0.0021195,0.684135
			C7.6835356,5.8359833,6.9841833,6.6034374,6.2599611,6.5072689C6.0979042,6.4857583,6.3195224,7.6284881,6.8789825,7.7027817
			c0.7242222,0.0961685,1.4235907-0.6712909,1.5620728-1.7141519C8.5485601,5.1790838,8.2855558,4.4434671,7.8241534,4.1089821z"/>
		<path class="st0" d="M8.8410311,3.7195029c0.0277052,0.2165442,0.0293808,0.4468699-0.0021248,0.6841187
			C8.7004137,5.4465041,8.0010614,6.2139578,7.2768388,6.1177893C7.1147819,6.0962791,7.3364162,7.2390032,7.8958602,7.3133025
			C8.6200829,7.409471,9.3194513,6.6420112,9.4579277,5.5991344C9.5654383,4.7896042,9.302434,4.0539875,8.8410311,3.7195029z"/>
		<path class="st0" d="M5.5386147,4.9123521c0.1138945,0.1862488,0.2567015,0.3669667,0.429729,0.5323396
			C6.7288828,6.171545,7.7546334,6.332623,8.2594032,5.8044624c0.1129398-0.1181722,0.6550646,0.9118991,0.2651339,1.3199043
			C8.0197668,7.6525283,6.9940162,7.4914503,6.2334776,6.7645965C5.6430864,6.2003617,5.387991,5.4619651,5.5386147,4.9123521z"/>
		<path class="st0" d="M4.5016851,5.2447886c0.1138954,0.1862483,0.2566862,0.366972,0.4297242,0.5323234
			c0.7605448,0.7268696,1.7862954,0.8879476,2.2910652,0.3597865C7.3354149,6.0187263,7.8775392,7.0487976,7.487608,7.4568038
			C6.9828382,7.9849644,5.9570875,7.8238864,5.1965427,7.0970173C4.6061578,6.5327978,4.3510623,5.7944012,4.5016851,5.2447886z"/>
	</g>
	<g>
		<path d="M9.4756384,13.0153599c-0.4344463,0.3710423-1.0874395,0.3196411-1.4584723-0.1148272
			c-0.3710432-0.4344463-0.3196359-1.0874233,0.1148262-1.4584713c0.4344473-0.3710432,1.0874453-0.3196259,1.4584723,0.1148262
			C9.9615145,11.9913502,9.9101057,12.6443272,9.4756384,13.0153599z"/>
		<path class="st1" d="M9.5904646,11.5568876c-0.3710327-0.4344683-1.0240192-0.4858532-1.4584723-0.1148262
			c-0.2119479,0.1810179-0.3320069,0.429225-0.3570371,0.6863298c0.0358057,0.158474,0.1090016,0.3109236,0.2218604,0.4430523
			c0.371027,0.4344521,1.0240202,0.4858532,1.4584732,0.1148262c0.2119484-0.1810179,0.3319902-0.4292192,0.3570423-0.6863146
			C9.7765369,11.8414602,9.7033091,11.6890211,9.5904646,11.5568876z"/>
	</g>
	<g>
		<circle cx="9.9387474" cy="6.7499371" r="1.0344917"/>
		<path class="st1" d="M9.5956974,5.7739811c-0.5390053,0.1894612-0.8223677,0.7800002-0.632906,1.3190055
			c0.0924273,0.2629499,0.2806635,0.4644127,0.5114727,0.5804582c0.160718,0.0237474,0.3293056,0.0104117,0.4932318-0.0472088
			c0.5390053-0.1894608,0.8223677-0.7799997,0.6329002-1.3190212c-0.0924273-0.2629499-0.2806578-0.464397-0.5114517-0.5804477
			C9.9282284,5.7030196,9.7596235,5.7163606,9.5956974,5.7739811z"/>
	</g>
	<g>
		<circle class="st1" cx="8.5794935" cy="6.6668491" r="1.0344917"/>
	</g>
	<g>
		<path d="M11.6792936,10.4968719c0.1894608,0.5390062-0.0939007,1.1295452-0.632906,1.319006
			s-1.129529-0.0939064-1.3189898-0.6329117s0.0938845-1.1295385,0.6328897-1.3190002
			C10.8992929,9.6745052,11.4898319,9.9578667,11.6792936,10.4968719z"/>
		<path class="st1" d="M10.3602877,9.863966c-0.5390053,0.1894617-0.8223505,0.779995-0.6328897,1.3190002
			c0.0924273,0.2629499,0.2806635,0.4644127,0.5114574,0.5804634c0.1607265,0.0237265,0.3293047,0.0104122,0.4932327-0.0472088
			c0.5390043-0.1894608,0.8223667-0.7799997,0.6329002-1.3190212c-0.0924273-0.2629499-0.2806587-0.4643965-0.5114365-0.5804529
			C10.6928186,9.793004,10.52423,9.8063402,10.3602877,9.863966z"/>
		<path class="st1" d="M9.5941286,9.9409637c-0.5390053,0.1894608-0.8223515,0.779994-0.6328897,1.3189993
			c0.092433,0.2629662,0.2806644,0.4644127,0.5114574,0.5804634c0.1607323,0.0237427,0.3293056,0.0104122,0.4932308-0.0472078
			c0.5390062-0.1894617,0.8223677-0.7800007,0.632906-1.319006c-0.0924273-0.2629499-0.2806635-0.4644127-0.5114412-0.5804691
			C9.9266596,9.8700018,9.7580709,9.883337,9.5941286,9.9409637z"/>
	</g>
	<g>
		<circle class="st1" cx="6.8664169" cy="7.1728435" r="1.0344917"/>
	</g>
	<g>
		<circle class="st1" cx="5.7975841" cy="8.189539" r="1.0344917"/>
	</g>
	<g>
		<circle class="st1" cx="5.7884912" cy="9.3945827" r="1.0344917"/>
	</g>
	<g>
		<circle class="st1" cx="6.5399957" cy="10.6207399" r="1.0344917"/>
	</g>
	<g>
		<path d="M11.0127859,12.163661c-0.0882854,0.5644684-0.6174364,0.9505072-1.181921,0.8622265
			c-0.5644684-0.0882854-0.9504948-0.6174583-0.8622103-1.1819258c0.0882854-0.5644684,0.6174421-0.950491,1.1819277-0.8622112
			C10.7150497,11.0700359,11.1010714,11.5991926,11.0127859,12.163661z"/>
		<path class="st1" d="M10.1505594,10.98174c-0.5644627-0.0882692-1.0936193,0.2977533-1.1819048,0.8622217
			c-0.043066,0.2753763,0.0273666,0.5419474,0.1757231,0.7534275c0.1303415,0.0970011,0.2851477,0.1650553,0.4568148,0.1919107
			c0.5644684,0.0882854,1.0936413-0.2977428,1.1819267-0.8622112c0.043066-0.2753763-0.0273657-0.5419483-0.1757231-0.7534266
			C10.4770546,11.0766602,10.3222427,11.0085897,10.1505594,10.98174z"/>
	</g>
	<g>
		<path d="M11.6497059,8.7182064c0.391058,0.4165249,0.3704176,1.0711956-0.0461187,1.4622746
			c-0.4165249,0.391058-1.0712013,0.3704014-1.4622583-0.0461245c-0.391058-0.4165249-0.3704176-1.0711956,0.0461082-1.4622526
			C10.6039619,8.2810459,11.2586489,8.3016806,11.6497059,8.7182064z"/>
		<path class="st1" d="M10.1874371,8.6721039c-0.4165258,0.391057-0.4371662,1.0457277-0.0461082,1.4622526
			c0.1907759,0.2032022,0.4443674,0.3114557,0.7023678,0.3243656c0.1566105-0.0432072,0.3054438-0.1235123,0.4321222-0.2424402
			c0.4165258-0.391058,0.4371662-1.0457287,0.0461035-1.4622698c-0.1907768-0.2032013-0.4443464-0.3114443-0.7023525-0.3243713
			C10.4629593,8.4728489,10.3141098,8.5531597,10.1874371,8.6721039z"/>
	</g>
	<path class="st2" d="M10.9538088,9.4520578c0.0581446,0.1654186-0.0288115,0.3466406-0.194231,0.4047861
		c-0.1654186,0.0581446-0.3466568-0.0288067-0.4048014-0.1942253s0.0288229-0.3466625,0.1942406-0.4048071
		C10.7144365,9.199666,10.8956633,9.2866392,10.9538088,9.4520578z"/>
	<path class="st2" d="M10.5734653,10.4671068c0.0581446,0.1654186-0.0288286,0.3466463-0.1942472,0.4047918
		c-0.1654186,0.0581446-0.3466415-0.0288124-0.4047861-0.194231c-0.0581446-0.1654177,0.0288124-0.3466406,0.194231-0.4047852
		C10.3340816,10.2147369,10.5153208,10.3016891,10.5734653,10.4671068z"/>
	<g>
		<circle cx="10.6875544" cy="8.1052237" r="1.0344917"/>
		<path class="st1" d="M10.3445044,7.1292677c-0.5390053,0.1894612-0.8223667,0.7800002-0.632906,1.319006
			c0.092433,0.2629652,0.2806635,0.4644127,0.5114584,0.5804625c0.1607313,0.0237427,0.32932,0.0104074,0.493247-0.0472136
			c0.5390053-0.1894608,0.8223667-0.7799997,0.632906-1.3190055c-0.0924273-0.2629499-0.2806635-0.4644127-0.5114574-0.5804634
			C10.6770201,7.0583115,10.5084314,7.0716472,10.3445044,7.1292677z"/>
	</g>
	<g>
		<path d="M10.7443399,9.9621391c-0.1045656,0.5616837-0.6446705,0.932251-1.2063541,0.8276854
			c-0.5616837-0.1045666-0.932251-0.6446705-0.8276691-1.2063599C8.8148823,9.02178,9.3549871,8.6512136,9.9166546,8.755785
			C10.478344,8.8603668,10.8489113,9.4004707,10.7443399,9.9621391z"/>
		<path class="st1" d="M9.9166546,8.755785C9.3549871,8.6512136,8.8148823,9.02178,8.7103167,9.5834646
			c-0.0510197,0.2740269,0.0116673,0.54251,0.1538601,0.7581921c0.12747,0.1007328,0.280241,0.1732502,0.4510698,0.2050514
			c0.5616837,0.1045656,1.1017876-0.2660017,1.2063541-0.8276854c0.0510254-0.2740107-0.0116835-0.5425043-0.1538544-0.7581768
			C10.2402754,8.8601141,10.0874891,8.7876015,9.9166546,8.755785z"/>
	</g>
	<path class="st2" d="M10.4620752,7.7339692c0.0581446,0.1654181-0.0288229,0.346662-0.1942415,0.4048076
		C10.102416,8.1969213,9.9211884,8.1099482,9.8630438,7.9445295c-0.0581388-0.1654024,0.0288115-0.3466406,0.1942301-0.4047852
		C10.2226915,7.4815993,10.4039364,7.5685668,10.4620752,7.7339692z"/>
	<path class="st2" d="M9.4519148,9.4191084C9.5100594,9.5845261,9.4231024,9.765749,9.2576857,9.8238935
		C9.0922661,9.8820381,8.9110441,9.7950811,8.8528986,9.6296635C8.794754,9.4642448,8.8817053,9.2830067,9.0471249,9.2248611
		C9.2125425,9.1667166,9.3937702,9.2536898,9.4519148,9.4191084z"/>
	<g>
		<circle cx="9.0896082" cy="8.2662811" r="1.0344917"/>
		<path class="st1" d="M8.7465582,7.2903256c-0.5390053,0.1894612-0.8223667,0.7800002-0.632906,1.3190055
			C8.2060852,8.8722973,8.3943214,9.07376,8.6251268,9.1897888C8.7858419,9.2135372,8.9544306,9.200201,9.1183577,9.142581
			c0.5390053-0.1894617,0.8223667-0.7800007,0.632906-1.319006C9.6588364,7.5606251,9.4706001,7.3591623,9.2398071,7.2431116
			C9.0790958,7.2193799,8.9104853,7.2327051,8.7465582,7.2903256z"/>
	</g>
	<g>
		<circle class="st1" cx="6.7332883" cy="8.9823723" r="1.0344917"/>
	</g>
	<path class="st2" d="M9.9672375,11.7057772c0.0581446,0.1654186-0.0288067,0.3466568-0.1942253,0.4048023
		c-0.1654186,0.0581446-0.3466463-0.0288286-0.4047909-0.1942472c-0.0581446-0.1654177,0.0288124-0.3466406,0.1942301-0.4047852
		C9.72787,11.4534025,9.9090929,11.5403595,9.9672375,11.7057772z"/>
	<g>
		<circle class="st1" cx="7.5308285" cy="11.5704641" r="1.0344917"/>
	</g>
	<circle class="st2" cx="8.3574772" cy="12.0953426" r="0.317472"/>
	<g>
		<path d="M9.5930834,11.5505962c-0.2753592,0.5006018-0.9044065,0.683197-1.4049931,0.4078321
			c-0.5006018-0.2753601-0.683197-0.9044085-0.4078317-1.404994c0.2753434-0.5005951,0.9043918-0.6831913,1.4049935-0.4078312
			C9.6858473,10.4209471,9.8684435,11.0499945,9.5930834,11.5505962z"/>
		<path class="st1" d="M9.1852465,10.145587c-0.5006018-0.2753592-1.1296272-0.0927544-1.4049878,0.4078474
			c-0.1343479,0.2442188-0.1589594,0.5188217-0.0915599,0.7682018c0.0894852,0.135622,0.2118225,0.2523603,0.3640709,0.3361111
			c0.5006018,0.2753592,1.1296339,0.0927696,1.4050093-0.4078379c0.1343269-0.2442284,0.1589594-0.5188208,0.0915442-0.7681961
			C9.4598379,10.3460922,9.3374949,10.2293367,9.1852465,10.145587z"/>
	</g>
	<path class="st2" d="M6.645843,8.8670664c0.058145,0.1654186-0.0288281,0.3466463-0.1942306,0.4047852
		C6.2861943,9.3299971,6.1049557,9.2430458,6.0468111,9.0776272c-0.058145-0.1654186,0.0288281-0.3466463,0.1942468-0.4047918
		C6.4064598,8.6146965,6.5876985,8.7016478,6.645843,8.8670664z"/>
	<path class="st2" d="M8.6198368,10.8813877c0.0581455,0.1654186-0.0288219,0.3466625-0.1942244,0.4048014
		c-0.1654186,0.0581446-0.3466625-0.0288229-0.4048071-0.1942406c-0.058145-0.1654186,0.0288277-0.3466463,0.1942463-0.4047918
		C8.3804541,10.6290178,8.5616922,10.7159691,8.6198368,10.8813877z"/>
	<path class="st2" d="M9.097455,7.9091673c0.0581446,0.1654186-0.0288229,0.3466625-0.1942406,0.4048071
		C8.7377958,8.3721189,8.5565672,8.2851467,8.4984226,8.1197281S8.527235,7.773087,8.6926537,7.714942
		C8.8580713,7.6567974,9.0393105,7.7437487,9.097455,7.9091673z"/>
	<circle class="st2" cx="9.5301828" cy="6.5872598" r="0.317472"/>
	<path class="st2" d="M5.730351,9.3170633C5.7884955,9.482481,5.7015386,9.6637039,5.5361204,9.7218485
		c-0.1654186,0.0581446-0.3466411-0.0288124-0.4047856-0.194231C5.0731902,9.3621998,5.1601415,9.1809607,5.3255596,9.1228161
		C5.4909782,9.0646715,5.6722059,9.1516447,5.730351,9.3170633z"/>
	<path class="st2" d="M5.7260232,7.9484701c0.058145,0.1654186-0.0288119,0.3466406-0.1942306,0.4047852
		C5.3663745,8.4113998,5.1851521,8.3244429,5.127007,8.1590252C5.0688624,7.9936066,5.1558137,7.8123679,5.3212323,7.7542233
		C5.4866505,7.6960783,5.6678786,7.7830515,5.7260232,7.9484701z"/>
	<path class="st2" d="M6.7431974,6.8417749C6.801342,7.0071936,6.714385,7.1884155,6.5489669,7.2465606
		C6.3835483,7.3047051,6.2023101,7.2177539,6.144165,7.0523357c-0.0581446-0.1654186,0.0288224-0.3466625,0.194241-0.4048076
		C6.5038247,6.5893836,6.6850524,6.6763563,6.7431974,6.8417749z"/>
	<path class="st2" d="M6.6550016,10.3862047c0.0581446,0.1654177-0.0288124,0.3466406-0.194231,0.4047852
		c-0.1654181,0.0581446-0.3466406-0.0288124-0.4047852-0.194231c-0.058145-0.1654177,0.0288062-0.3466568,0.1942248-0.4048014
		C6.4156284,10.1338129,6.5968566,10.2207861,6.6550016,10.3862047z"/>
	<path class="st2" d="M7.4479218,11.5136528c0.058145,0.1654177-0.0288062,0.3466568-0.1942248,0.4048014
		c-0.1654177,0.0581446-0.3466616-0.0288229-0.4048061-0.1942415c-0.0581393-0.1654024,0.0288281-0.3466463,0.1942458-0.4047909
		C7.2085547,11.2612772,7.3897829,11.3482504,7.4479218,11.5136528z"/>
	<path class="st2" d="M8.4538393,6.2605062c0.0581446,0.1654181-0.0288124,0.3466406-0.194231,0.4047852
		c-0.1654177,0.058145-0.3466563-0.0288062-0.4048014-0.1942248C7.7966623,6.3056483,7.883635,6.1244202,8.0490532,6.0662751
		C8.2144718,6.0081306,8.3956947,6.0950875,8.4538393,6.2605062z"/>
	<g>
		<path d="M8.8701162,10.2230844c-0.2897549,0.4924145-0.9238172,0.6566944-1.4162254,0.3669558
			C6.9614763,10.3002863,6.7971964,9.6662235,7.086935,9.1738157C7.3766894,8.6814013,8.010746,8.5171051,8.5031605,8.80686
			C8.9955683,9.0965977,9.1598549,9.7306757,8.8701162,10.2230844z"/>
		<path class="st1" d="M8.5031605,8.80686C8.010746,8.5171051,7.3766894,8.6814013,7.086935,9.1738157
			C6.9455795,9.4140444,6.9130173,9.6878195,6.9731708,9.939044c0.0855093,0.138155,0.2044239,0.2583857,0.3541737,0.3465099
			c0.492414,0.2897549,1.1264701,0.1254587,1.416225-0.3669558c0.1413555-0.2402287,0.1739388-0.5139933,0.1137857-0.7652178
			C8.7718296,9.0152311,8.6529255,8.8949785,8.5031605,8.80686z"/>
	</g>
	<path class="st2" d="M7.8787179,9.4112215c0.0581446,0.1654186-0.0288124,0.3466406-0.1942306,0.4047861
		c-0.1654186,0.0581446-0.3466411-0.0288124-0.4047856-0.194231C7.2215567,9.456358,7.3085079,9.2751198,7.4739265,9.2169752
		S7.8205729,9.2458029,7.8787179,9.4112215z"/>
	<g>
		<circle cx="7.5311346" cy="8.0609293" r="1.0344917"/>
		<path class="st1" d="M7.1880846,7.0849733c-0.5390053,0.1894612-0.8223672,0.7800002-0.632906,1.319006
			c0.0924273,0.262949,0.2806635,0.4644127,0.5114574,0.5804634C7.2273684,9.0081844,7.395957,8.9948483,7.5598836,8.9372282
			c0.5390058-0.1894608,0.8223672-0.7799997,0.6329055-1.3190055C8.1003628,7.3552728,7.9121261,7.15381,7.6813321,7.0377593
			C7.5206008,7.0140166,7.3520112,7.0273528,7.1880846,7.0849733z"/>
		<path class="st2" d="M7.4907079,7.8970509c0.058145,0.1654186-0.0288072,0.3466568-0.1942258,0.4048014
			C7.1310639,8.3599977,6.9498358,8.2730246,6.8916912,8.1076059c-0.058145-0.1654186,0.0288119-0.3466406,0.1942306-0.4047856
			C7.2513399,7.6446757,7.4325633,7.7316322,7.4907079,7.8970509z"/>
	</g>
</g>
</svg>
