<?xml version="1.0" encoding="utf-8"?>
<!-- Generator: Adobe Illustrator 27.5.0, SVG Export Plug-In . SVG Version: 6.00 Build 0)  -->
<svg version="1.1" id="Ebene_1" xmlns="http://www.w3.org/2000/svg" xmlns:xlink="http://www.w3.org/1999/xlink" x="0px" y="0px"
	 viewBox="0 0 16 16" style="enable-background:new 0 0 16 16;" xml:space="preserve">
<style type="text/css">
	.st0{fill:#3F9D43;}
	.st1{fill:#FFDC04;}
	.st2{fill:#F9E934;}
	.st3{fill:#FBF29D;}
</style>
<path class="st0" d="M9.8426008,9.4001455c-0.2343197-0.575489-0.1402569-1.1576672,0.2100878-1.300312
	c0.3503456-0.1426439,0.8243046,0.2082396,1.0586309,0.7837486c0.2343197,0.575489,0.1402617,1.1576548-0.210084,1.3002987
	C10.5508862,10.3265371,10.076932,9.9756422,9.8426008,9.4001455z"/>
<g>
	<path class="st1" d="M12.7747526,3.3772426c-0.5146914-0.4694049-1.2697325-0.5061884-1.8230619-0.1338782
		c-1.7563362-0.556057-4.0445843,0.1744764-5.6942568,1.9832816c-1.7943127,1.9673829-2.2487576,4.569654-1.2350168,6.2828135
		c-0.5426731,0.6028147-0.6594596,1.383131-0.2590184,1.7483234c0.4004412,0.3652134,1.1667347,0.177268,1.7171655-0.4184494
		C7.2795668,13.6914701,9.829113,13,11.6234255,11.0326176c1.6496735-1.8088055,2.1670074-4.1544447,1.4520311-5.8523026
		C13.3953838,4.5951252,13.289423,3.8466475,12.7747526,3.3772426z"/>
	<path class="st2" d="M11.9888096,4.7060084c0.2925844-0.5351295,0.1956816-1.2196088-0.2749796-1.6488631
		c-0.022975-0.0209491-0.0468435-0.0401506-0.0707979-0.0592031c-0.2433758,0.0223985-0.4818296,0.1044474-0.6913414,0.2454221
		c-1.7563362-0.556057-4.0445843,0.1744764-5.6942568,1.9832816c-1.3787837,1.5117669-1.9654012,3.3980384-1.703676,4.9680924
		c0.0303049,0.142168,0.0377851,0.2169495,0.0832424,0.3859062c0.088016,0.3296242,0.2156286,0.6419001,0.3854167,0.9288149
		c-0.1913552,0.2125597-0.3285367,0.447113-0.4099677,0.6778307C3.998399,12.3813944,4.5980163,12.1921062,5.0434675,11.71
		c1.645134,0.7792721,3.9766426,0.1469421,5.6174927-1.6521873C12.1695518,8.4037066,12.6426439,6.2586503,11.9888096,4.7060084z"/>
	<path class="st3" d="M7.7830052,7.5748425C7.2418876,8.240078,6.3632398,8.4214802,5.8205237,7.9800148
		c-0.542716-0.4414659-0.5440154-1.3386116-0.0028772-2.0038681c0.5411177-0.6652355,1.419744-0.8466382,1.96246-0.4051723
		C8.3228445,6.0124397,8.3241224,6.909586,7.7830052,7.5748425z"/>
</g>
</svg>
