<?xml version="1.0" encoding="utf-8"?>
<!-- Generator: Adobe Illustrator 27.5.0, SVG Export Plug-In . SVG Version: 6.00 Build 0)  -->
<svg version="1.2" baseProfile="tiny" id="Ebene_1" xmlns="http://www.w3.org/2000/svg" xmlns:xlink="http://www.w3.org/1999/xlink"
	 x="0px" y="0px" viewBox="0 0 8 8" overflow="visible" xml:space="preserve">
<path fill="#FFFFFF" d="M0.2,4.4L4,2.3l2.4-1.5l1.4,2.7L7.8,3.7c0,0-2.6,1.5-2.7,1.6C4.9,5.4,1.8,7.2,1.8,7.2L0.2,4.4z"/>
<g id="Gruppe_720_00000093895045409752912560000016981695351880542888_" transform="translate(0 48.374)">
	<g id="Pfad_1116_00000166657442413803300610000003617978313628925062_">
		<path fill="#FFFFFF" d="M1.8-41C1.7-41,1.7-41,1.8-41c-0.1,0-0.1,0-0.1-0.1c0,0,0,0,0,0l0-0.1c0-0.1-0.1-0.2-0.2-0.3l-0.1-0.1
			c-0.1-0.1-0.2-0.3-0.2-0.4l0-0.1c0-0.1-0.1-0.2-0.2-0.3l-0.1-0.1c-0.1-0.1-0.2-0.3-0.3-0.4l0-0.1c-0.1-0.2-0.2-0.4-0.3-0.5
			l-0.1-0.1c0,0,0,0,0,0c0,0,0-0.1,0-0.1c0,0,0.1-0.1,0.1-0.1l0.8-0.4c0.6-0.3,1.4-0.7,1.5-0.8c0.2-0.1,3.1-1.9,3.3-2.1l0.5-0.4
			c0,0,0.1,0,0.2,0c0,0,0.1,0,0.1,0.1c0,0,0,0,0,0l0,0.2c0,0.2,0.1,0.3,0.2,0.4l0.1,0.1c0.1,0.1,0.2,0.2,0.2,0.4l0.1,0.2
			c0,0.1,0.1,0.2,0.1,0.2l0.1,0.1c0.1,0.1,0.2,0.3,0.2,0.4l0,0c0,0.1,0.1,0.2,0.2,0.3L8-44.9c0,0,0,0,0,0c0,0.1,0,0.2-0.1,0.2
			c0,0,0,0,0,0l-0.6,0.2c-0.2,0.1-2.3,1.4-2.4,1.5c-0.1,0-2.2,1.3-2.4,1.4l-0.6,0.5c0,0,0,0,0,0C1.8-41,1.8-41,1.8-41z M0.3-43.9
			L0.3-43.9c0.2,0.2,0.4,0.4,0.4,0.7l0,0.1C0.8-43,0.9-42.9,1-42.8L1-42.7c0.1,0.1,0.2,0.3,0.2,0.4l0,0.1c0,0.1,0.1,0.2,0.2,0.3
			l0.1,0.1c0.1,0.1,0.2,0.3,0.2,0.5l0,0l0.6-0.4c0,0,0,0,0,0c0.8-0.5,2.3-1.4,2.4-1.4c0.1-0.1,2.3-1.4,2.4-1.5c0,0,0,0,0,0l0.6-0.2
			l-0.1-0.1c-0.1-0.1-0.2-0.3-0.2-0.4l0,0c0-0.1-0.1-0.2-0.2-0.3l-0.1-0.1C7.1-45.9,7-46.1,7-46.2l-0.1-0.2c0-0.1-0.1-0.2-0.2-0.3
			l-0.1-0.1c-0.1-0.1-0.3-0.3-0.3-0.5l0-0.1l-0.5,0.4c0,0,0,0,0,0c0,0-3.1,1.9-3.3,2.1c-0.1,0.1-1.4,0.7-1.6,0.8L0.3-43.9z
			 M7.9-44.7L7.9-44.7L7.9-44.7z"/>
	</g>
	<g id="Linie_98_00000154410820524351030900000004334405582947285148_">
		<path fill="#55575A" d="M2.7-42C2.7-42,2.7-42,2.7-42l-0.1-0.2c0,0,0-0.1,0-0.1c0,0,0.1,0,0.1,0L2.7-42C2.8-42.1,2.8-42,2.7-42
			C2.7-42,2.7-42,2.7-42z M2.5-42.3C2.5-42.3,2.5-42.3,2.5-42.3l-0.1-0.2c0,0,0-0.1,0-0.1c0,0,0.1,0,0.1,0L2.5-42.3
			C2.6-42.4,2.6-42.3,2.5-42.3C2.6-42.3,2.6-42.3,2.5-42.3z M2.4-42.6C2.4-42.6,2.3-42.6,2.4-42.6l-0.1-0.2c0,0,0-0.1,0-0.1
			c0,0,0.1,0,0.1,0L2.4-42.6C2.4-42.7,2.4-42.6,2.4-42.6C2.4-42.6,2.4-42.6,2.4-42.6z M2.2-42.9C2.2-42.9,2.2-42.9,2.2-42.9
			l-0.1-0.2c0,0,0-0.1,0-0.1c0,0,0.1,0,0.1,0L2.2-42.9C2.3-42.9,2.3-42.9,2.2-42.9C2.2-42.9,2.2-42.9,2.2-42.9z M2-43.2
			C2-43.2,2-43.2,2-43.2l-0.1-0.2c0,0,0-0.1,0-0.1c0,0,0.1,0,0.1,0L2-43.2C2.1-43.2,2.1-43.2,2-43.2C2.1-43.2,2-43.2,2-43.2z
			 M1.9-43.5C1.8-43.5,1.8-43.5,1.9-43.5l-0.1-0.2c0,0,0-0.1,0-0.1c0,0,0.1,0,0.1,0L1.9-43.5C1.9-43.5,1.9-43.5,1.9-43.5
			C1.9-43.5,1.9-43.5,1.9-43.5z M1.7-43.8C1.7-43.8,1.7-43.8,1.7-43.8l-0.1-0.2c0,0,0-0.1,0-0.1c0,0,0.1,0,0.1,0L1.7-43.8
			C1.8-43.8,1.7-43.8,1.7-43.8C1.7-43.8,1.7-43.8,1.7-43.8z M1.5-44.1C1.5-44.1,1.5-44.1,1.5-44.1l-0.1-0.2c0,0,0-0.1,0-0.1
			c0,0,0.1,0,0.1,0L1.5-44.1C1.6-44.1,1.6-44.1,1.5-44.1C1.5-44.1,1.5-44.1,1.5-44.1z"/>
	</g>
	<g id="Linie_98_00000012467232688252603030000017905992915836443806_">
		<path fill="#55575A" d="M6.7-44.4C6.7-44.4,6.7-44.4,6.7-44.4l-0.1-0.2c0,0,0-0.1,0-0.1c0,0,0.1,0,0.1,0L6.7-44.4
			C6.8-44.5,6.8-44.4,6.7-44.4C6.7-44.4,6.7-44.4,6.7-44.4z M6.5-44.7C6.5-44.7,6.5-44.7,6.5-44.7l-0.1-0.2c0,0,0-0.1,0-0.1
			c0,0,0.1,0,0.1,0L6.5-44.7C6.6-44.7,6.6-44.7,6.5-44.7C6.6-44.7,6.5-44.7,6.5-44.7z M6.4-45C6.3-45,6.3-45,6.4-45l-0.1-0.2
			c0,0,0-0.1,0-0.1c0,0,0.1,0,0.1,0L6.4-45C6.4-45,6.4-45,6.4-45C6.4-45,6.4-45,6.4-45z M6.2-45.3C6.2-45.3,6.1-45.3,6.2-45.3
			L6-45.4c0,0,0-0.1,0-0.1c0,0,0.1,0,0.1,0L6.2-45.3C6.2-45.3,6.2-45.3,6.2-45.3C6.2-45.3,6.2-45.3,6.2-45.3z M6-45.6
			C6-45.6,6-45.6,6-45.6l-0.1-0.2c0,0,0-0.1,0-0.1c0,0,0.1,0,0.1,0L6-45.6C6.1-45.6,6.1-45.6,6-45.6C6-45.6,6-45.6,6-45.6z
			 M5.8-45.8C5.8-45.8,5.8-45.9,5.8-45.8L5.7-46c0,0,0-0.1,0-0.1c0,0,0.1,0,0.1,0L5.8-45.8C5.9-45.9,5.9-45.9,5.8-45.8
			C5.9-45.9,5.8-45.8,5.8-45.8z M5.7-46.1C5.6-46.1,5.6-46.2,5.7-46.1l-0.1-0.2c0,0,0-0.1,0-0.1c0,0,0.1,0,0.1,0L5.7-46.1
			C5.7-46.2,5.7-46.2,5.7-46.1C5.7-46.1,5.7-46.1,5.7-46.1z M5.5-46.4C5.5-46.4,5.4-46.4,5.5-46.4l-0.1-0.2c0,0,0-0.1,0-0.1
			c0,0,0.1,0,0.1,0L5.5-46.4C5.6-46.5,5.5-46.5,5.5-46.4C5.5-46.4,5.5-46.4,5.5-46.4z"/>
	</g>
</g>
</svg>
