<?xml version="1.0" encoding="utf-8"?>
<!-- Generator: Adobe Illustrator 27.5.0, SVG Export Plug-In . SVG Version: 6.00 Build 0)  -->
<svg version="1.1" id="Ebene_1" xmlns="http://www.w3.org/2000/svg" xmlns:xlink="http://www.w3.org/1999/xlink" x="0px" y="0px"
	 viewBox="0 0 16 16" style="enable-background:new 0 0 16 16;" xml:space="preserve">
<style type="text/css">
	.st0{fill:#009443;}
	.st1{fill:#47AD4D;}
	.st2{fill:#8DBF44;}
	.st3{fill:#3F9D43;}
</style>
<g>
	<path class="st0" d="M12.939642,1.6838877c-0.9688501,3.9056842-2.6059475,7.5861502-4.8463993,10.9000702
		c0.0021286,0.0014219,0.0028257,0.0049629,0.0051622,0.0049534c0.0008965-0.0001898,0.0018196-0.0027075,0.0018196-0.0027075
		c1.3910694,0.5837412,3.8929977,0.4203176,5.0390816-1.1117449c0.4382648-0.5367708,1.2250471-2.8228168,1.2041836-2.8276339
		c0,0-0.0669928-0.0577831-0.1935062-0.1523037c0.3295364-0.6552157,0.4097586-1.1685505,0.4102755-1.1677265
		c0,0-0.0960426-0.0946746-0.2748146-0.2418346c0.1686211-0.5639634,0.1821404-0.9668674,0.182621-0.9665051
		c0,0-0.1133652-0.0908079-0.3198566-0.2273459c0.1658049-0.729733,0.1148415-1.2695909,0.1155748-1.2689571
		c0,0-0.0997639-0.0654435-0.2816248-0.1638851c-0.0061388-0.7513754-0.1757927-1.2730956-0.1749325-1.2727966
		c0,0-0.1401148-0.0602913-0.3847837-0.1402326c-0.1566048-0.8258834-0.4433546-1.3713199-0.4422493-1.3713018
		c0,0,0,0-0.000761,0.0004619C12.9760542,1.674778,12.9626799,1.6783639,12.939642,1.6838877z"/>
	<path class="st1" d="M12.939642,1.6838877c-0.9688501,3.9056842-2.6059475,7.5861502-4.8463993,10.9000702
		c-0.0021458-0.0013943-0.0057411-0.0006514-0.006628-0.00278c-0.0001726-0.0008869,0.0018291-0.0027075,0.0018291-0.0027075
		C7.0302339,11.499877,6.2659092,9.4321127,6.555285,7.9028296c0.1631608-0.8622413,1.2752776-2.2201228,1.2613778-2.2316504
		c0,0,0.0852118,0.0161371,0.2365828,0.0535359c0.2097416-0.5852261,0.4647341-0.9401088,0.4655218-0.9402809
		c0,0,0.1300449,0.0089197,0.3543844,0.0399618C9.102562,4.372086,9.3262587,4.1039,9.3267479,4.1039634
		c0,0,0.1408396,0.0150046,0.3807449,0.0584888c0.3057299-0.5853977,0.6342888-0.9383698,0.6350946-0.9383516
		c0,0,0.1161089,0.0145972,0.3165874,0.0546858c0.4167042-0.5375674,0.8146267-0.850451,0.8153334-0.8501248
		c0,0,0.147604,0.0339036,0.3926353,0.1125953c0.5498276-0.5653312,1.0412216-0.8887825,1.0420361-0.8880852
		c0,0,0,0,0.000453,0.000815C12.9123678,1.6561509,12.9222832,1.6665285,12.939642,1.6838877z"/>
	<path class="st2" d="M12.939642,1.6838877c-0.9832029,4.1840668-2.7320805,8.1282368-5.176053,11.6561632
		c-0.0493612-0.0185452-0.0987134-0.0371447-0.1480474-0.0557899c-0.0353618-0.0380421-0.0707684-0.076066-0.1062026-0.1140623
		C10.0197334,9.7254448,11.8587217,5.840661,12.939642,1.6838877z"/>
	<path class="st2" d="M13.2520094,8.6708488c-1.206356,1.0699453-2.5974083,1.8585386-4.0690527,2.3347998
		c-0.0109663-0.0214424-0.0219326-0.0428858-0.0328894-0.0643387c-0.002717-0.0238972-0.0054789-0.0478125-0.0082855-0.071701
		C10.6111174,10.4415855,12.0163317,9.7024717,13.2520094,8.6708488z"/>
	<path class="st2" d="M8.1523027,7.1348014c0.0639677,1.4622903,0.2369261,2.9539847,0.5279951,4.4608636
		c0.0242147-0.000824,0.0484285-0.0016661,0.0726519-0.0025711c0.0224123-0.0092545,0.0448065-0.0185003,0.0672188-0.0277643
		C8.482419,10.0798664,8.2627516,8.5970917,8.1523027,7.1348014z"/>
	<path class="st2" d="M13.7321568,6.6273165c-0.9644594,0.8917704-2.0765038,1.5681572-3.2637262,2.0048294
		c-0.0097256-0.0174227-0.0194597-0.0348549-0.0291948-0.0522776c-0.0030785-0.0197229-0.0061846-0.0394268-0.0093269-0.0591135
		C11.6175117,8.1240444,12.7429037,7.4878459,13.7321568,6.6273165z"/>
	<path class="st2" d="M9.5531521,5.4941273c0.0653353,1.2233629,0.235713,2.4619122,0.5164766,3.7034035
		c0.019805-0.0011864,0.0395994-0.002408,0.0593863-0.0036583c0.018074-0.0081139,0.0361404-0.0162449,0.054224-0.0243864
		C9.8654289,7.9467301,9.6568003,6.7167568,9.5531521,5.4941273z"/>
	<path class="st2" d="M13.4998388,4.4703827c-0.5339537,0.7418036-1.2088919,1.3394718-1.9825344,1.7643352
		c-0.0113373-0.0140815-0.0226841-0.0281806-0.0340033-0.042253c-0.0069637-0.016345-0.0139542-0.0326447-0.0209455-0.0489445
		C12.24615,5.7527237,12.9402037,5.187501,13.4998388,4.4703827z"/>
	<path class="st2" d="M10.6851368,3.7528658c0.0639763,1.0257368,0.2284231,2.0756249,0.491375,3.1403093
		c0.01649,0.0007334,0.03298,0.0014486,0.0494614,0.0021458c0.0149231-0.0052156,0.0298195-0.0104318,0.0447149-0.0156474
		C10.97789,5.8274131,10.7815952,4.781446,10.6851368,3.7528658z"/>
</g>
<g>
	<path class="st0" d="M0.9778669,6.7071762c3.8044174,1.3112192,7.3252993,3.2681179,10.4275751,5.7934809
		c0.0016117-0.0019922,0.0052071-0.0023727,0.0053883-0.0046911c-0.0000992-0.0009232-0.0025177-0.0020647-0.0025177-0.0020647
		c0.7047491-1.333848,0.7637272-3.8404121-0.6607208-5.1177907c-0.4958038-0.4841127-2.7031126-1.4704313-2.7097683-1.4500837
		c0,0-0.0634875,0.0616131-0.1688476,0.1792521C7.2455449,5.7189651,6.7413383,5.5935473,6.7422075,5.5931125
		c0,0-0.1028066,0.0872674-0.265234,0.2523026C5.930161,5.62746,5.5300369,5.5782795,5.5304446,5.577836
		c0,0-0.1004882,0.1048617-0.2547841,0.29844C4.5634866,5.6464491,4.0212379,5.6493559,4.021935,5.6486859
		c0,0-0.0740373,0.0935698-0.1882174,0.2659855c-0.7489393-0.0604906-1.283663,0.0622649-1.2832918,0.0614319
		c0,0-0.0724525,0.1342196-0.1737831,0.3708382c-0.8365144,0.0827761-1.4052141,0.320065-1.4051055,0.3189511
		c0,0,0,0,0.0003984,0.0008059C0.9720081,6.670094,0.9743987,6.6837316,0.9778669,6.7071762z"/>
	<path class="st1" d="M0.9778669,6.7071762c3.8044174,1.3112192,7.3253078,3.2681084,10.4275751,5.7934809
		c-0.0015755,0.0020103-0.0011587,0.0056601-0.0033417,0.0063572c-0.000905,0.0000906-0.0025349-0.0020561-0.0025349-0.0020561
		c-1.1681433,0.958437-3.2955198,1.5364733-4.7931356,1.1126785c-0.8443928-0.238946-2.0983448-1.4670544-2.1110678-1.4542313
		c0,0,0.0236259-0.083437,0.0743089-0.230896c-0.5643349-0.2607965-0.8952208-0.5462418-0.8953295-0.547039
		c0,0,0.0204201-0.1287413,0.0712121-0.3494492c-0.4301786-0.2685938-0.6774828-0.5151825-0.6773922-0.5156622
		c0,0,0.0274379-0.1389647,0.0920215-0.3740711C2.604188,9.789875,2.2817328,9.431324,2.2818143,9.4305363
		c0,0,0.0248299-0.1143694,0.0825403-0.3105021C1.8658254,8.65732,1.5894533,8.2332354,1.5898427,8.2325468
		c0,0,0.0468528-0.1440172,0.1469426-0.3810978c-0.514358-0.5977769-0.7929849-1.1159019-0.7922242-1.1166539
		c0,0,0,0,0.0008512-0.000371C0.947821,6.7318792,0.9590316,6.7229238,0.9778669,6.7071762z"/>
	<path class="st2" d="M0.9778669,6.7071762c4.0804448,1.350193,7.854064,3.4417915,11.1514854,6.1888504
		c-0.0228558,0.0475321-0.0457573,0.0950365-0.0686951,0.1425238c-0.0410299,0.0318661-0.0820417,0.0637503-0.1230268,0.0956707
		C8.7289619,10.3283834,5.0224524,8.1522884,0.9778669,6.7071762z"/>
	<path class="st2" d="M7.9650087,7.0153418c0.9587994,1.2964497,1.6209879,2.7519217,1.9649401,4.260006
		c-0.0223398,0.0090094-0.0446701,0.0180292-0.0670013,0.0270395c-0.0240421,0.0005884-0.048111,0.0012312-0.0721531,0.0019016
		C9.4946899,9.8028059,8.8830404,8.3375988,7.9650087,7.0153418z"/>
	<path class="st2" d="M5.9829812,11.9588156c1.4622092,0.0659056,2.9633479,0.0258532,4.4900947-0.1304979
		c0.0013409-0.0242052,0.002635-0.0483923,0.0038853-0.0726061c-0.007226-0.0231276-0.0144529-0.0462646-0.0216875-0.0694103
		C8.945713,11.8910446,7.4493108,11.9784298,5.9829812,11.9588156z"/>
	<path class="st2" d="M5.9720783,6.3559608c0.802774,1.0396914,1.3779302,2.2073269,1.7076478,3.4285707
		C7.6615067,9.7926912,7.6432872,9.8008318,7.6250677,9.8089819C7.6051545,9.8103037,7.5852599,9.8116531,7.5653563,9.8130293
		C7.2754731,8.5949364,6.7415371,7.4175844,5.9720783,6.3559608z"/>
	<path class="st2" d="M4.4729319,10.4180593c1.2243319,0.0433578,2.4731135-0.016571,3.7346001-0.1861792
		c0.0005703-0.0198231,0.0011139-0.0396452,0.0016298-0.0594673c-0.0064926-0.0187273-0.0129852-0.0374441-0.0194874-0.05618
		C6.9435554,10.3244267,5.6999354,10.4231939,4.4729319,10.4180593z"/>
	<path class="st2" d="M3.8030286,6.3961854C4.4946017,6.993772,5.0300951,7.7190313,5.3847065,8.5272923
		C5.3696651,8.5373354,5.3546243,8.5473871,5.339601,8.5574198C5.3227129,8.5629072,5.3058424,8.5684042,5.2889996,8.5739374
		C4.9692154,7.7585855,4.4677253,7.0171709,3.8030286,6.3961854z"/>
	<path class="st2" d="M2.8388596,9.1361895C3.8662357,9.1633921,4.9265552,9.09266,6.0103741,8.925107
		c0.002182-0.0163631,0.0043645-0.0327168,0.0065107-0.0490894C6.0130181,8.8607054,6.0091243,8.8454103,6.0052667,8.8300972
		C4.931201,9.0284748,3.8719406,9.1313,2.8388596,9.1361895z"/>
</g>
<path class="st3" d="M9.8426008,9.4001455c-0.2343197-0.575489-0.1402569-1.1576672,0.2100878-1.300312
	c0.3503456-0.1426439,0.8243046,0.2082396,1.0586309,0.7837486c0.2343197,0.575489,0.1402617,1.1576548-0.210084,1.3002987
	C10.5508862,10.3265371,10.076932,9.9756422,9.8426008,9.4001455z"/>
</svg>
