<?xml version="1.0" encoding="utf-8"?>
<!-- Generator: Adobe Illustrator 27.5.0, SVG Export Plug-In . SVG Version: 6.00 Build 0)  -->
<svg version="1.2" baseProfile="tiny" id="Ebene_1" xmlns="http://www.w3.org/2000/svg" xmlns:xlink="http://www.w3.org/1999/xlink"
	 x="0px" y="0px" viewBox="0 0 32 16" overflow="visible" xml:space="preserve">
<g id="XMLID_1688_">
	<path fill="#FFFFFF" d="M5,9.9c-1.3,0-2.4-1.1-2.4-2.4S3.7,5.1,5,5.1s2.4,1.1,2.4,2.4S6.3,9.9,5,9.9z"/>
	<path fill="#282828" d="M5,5.2c1.3,0,2.3,1,2.3,2.3c0,1.3-1,2.3-2.3,2.3c-1.3,0-2.3-1-2.3-2.3C2.7,6.2,3.7,5.2,5,5.2 M5,5
		C3.6,5,2.5,6.1,2.5,7.5S3.6,10,5,10s2.5-1.1,2.5-2.5S6.4,5,5,5L5,5z"/>
</g>
<g id="XMLID_1687_">
	<circle fill="#FFFFFF" cx="11" cy="7.5" r="2.4"/>
	<path fill="#282828" d="M11,5.2c1.3,0,2.3,1,2.3,2.3c0,1.3-1,2.3-2.3,2.3c-1.3,0-2.3-1-2.3-2.3C8.7,6.2,9.7,5.2,11,5.2 M11,5
		C9.6,5,8.5,6.1,8.5,7.5S9.6,10,11,10s2.5-1.1,2.5-2.5S12.4,5,11,5L11,5z"/>
</g>
<path id="XMLID_1150_" fill="#2B2523" d="M6.2,8.6c0,0.7-0.5,1.2-1.2,1.2c-0.7,0-1.2-0.5-1.2-1.2c0-0.7,0.5-1.2,1.2-1.2
	C5.7,7.3,6.2,7.9,6.2,8.6z"/>
<path id="XMLID_1149_" fill="#2B2523" d="M12.2,8.6c0,0.7-0.5,1.2-1.2,1.2S9.8,9.2,9.8,8.6c0-0.7,0.5-1.2,1.2-1.2S12.2,7.9,12.2,8.6
	z"/>
<g id="XMLID_00000092456830939128357560000004991190066784558008_">
	<circle fill="#FFFFFF" cx="21" cy="7.5" r="2.4"/>
	<path fill="#282828" d="M21,5.2c1.3,0,2.3,1,2.3,2.3c0,1.3-1,2.3-2.3,2.3c-1.3,0-2.3-1-2.3-2.3C18.7,6.2,19.8,5.2,21,5.2 M21,5
		c-1.4,0-2.5,1.1-2.5,2.5S19.6,10,21,10s2.5-1.1,2.5-2.5S22.4,5,21,5L21,5z"/>
</g>
<g id="XMLID_00000026126704284639068580000014717146154433929901_">
	<path fill="#FFFFFF" d="M27,9.9c-1.3,0-2.4-1.1-2.4-2.4s1.1-2.4,2.4-2.4c1.3,0,2.4,1.1,2.4,2.4S28.3,9.9,27,9.9z"/>
	<path fill="#282828" d="M27,5.2c1.3,0,2.3,1,2.3,2.3c0,1.3-1,2.3-2.3,2.3c-1.3,0-2.3-1-2.3-2.3C24.7,6.2,25.7,5.2,27,5.2 M27,5
		c-1.4,0-2.5,1.1-2.5,2.5S25.6,10,27,10s2.5-1.1,2.5-2.5S28.4,5,27,5L27,5z"/>
</g>
<path id="XMLID_00000054978913676288418270000014183063542026755000_" fill="#2B2523" d="M22.2,8.6c0,0.7-0.5,1.2-1.2,1.2
	c-0.7,0-1.2-0.5-1.2-1.2c0-0.7,0.5-1.2,1.2-1.2C21.7,7.3,22.2,7.9,22.2,8.6z"/>
<path id="XMLID_00000078029983791235046680000000065563890282093706_" fill="#2B2523" d="M28.2,8.6c0,0.7-0.5,1.2-1.2,1.2
	s-1.2-0.5-1.2-1.2c0-0.7,0.5-1.2,1.2-1.2S28.2,7.9,28.2,8.6z"/>
</svg>
