<?xml version="1.0" encoding="utf-8"?>
<!-- Generator: Adobe Illustrator 27.5.0, SVG Export Plug-In . SVG Version: 6.00 Build 0)  -->
<svg version="1.1" id="Ebene_1" xmlns="http://www.w3.org/2000/svg" xmlns:xlink="http://www.w3.org/1999/xlink" x="0px" y="0px"
	 viewBox="0 0 32 16" style="enable-background:new 0 0 32 16;" xml:space="preserve">
<style type="text/css">
	.st0{fill:url(#XMLID_00000060732448436143747610000002645209176078091158_);}
	.st1{fill:#FFFFFF;}
	.st2{fill:#2B2523;}
	.st3{fill:#FFFFFF;stroke:#FFFFFF;stroke-width:0.25;stroke-miterlimit:10;}
	.st4{fill:url(#XMLID_00000067224878990667030520000013010653083456056719_);}
</style>
<linearGradient id="XMLID_00000003825526258302128520000004692792695886782595_" gradientUnits="userSpaceOnUse" x1="11.7768" y1="16.6643" x2="3.4861" y2="2.3046">
	<stop  offset="0.1312" style="stop-color:#E0E0E0"/>
	<stop  offset="0.5448" style="stop-color:#F1F1F1"/>
	<stop  offset="1" style="stop-color:#FFFFFF"/>
</linearGradient>
<path id="XMLID_00000172439258645512597300000009307544992362660005_" style="fill:url(#XMLID_00000003825526258302128520000004692792695886782595_);" d="
	M8,13.5c1.1,0,0.9,1.9,1.8,1.9c1.2,0,0.7-1.7,1.7-1.7s1.2,1.7,2.3,1.7c0.6,0,0.7-0.7,0.7-1.3c0-1,0-2.8,0-6.9c0-3.6-2.9-6.5-6.5-6.5
	S1.5,3.6,1.5,7.2c0,4.1,0,5.9,0,6.9c0,0.6,0.1,1.3,0.7,1.3c1,0,1.3-1.7,2.3-1.7s0.5,1.7,1.7,1.7C7.1,15.4,6.9,13.5,8,13.5z"/>
<circle id="XMLID_00000094587717051795446670000015747493138571767231_" class="st1" cx="5.4" cy="6.6" r="1.8"/>
<circle id="XMLID_00000088835459998879401390000007106664401869012141_" class="st1" cx="10.6" cy="6.6" r="1.8"/>
<path id="XMLID_00000112614958535032726790000015315611627292529322_" class="st2" d="M6.9,6.1C6.9,6.6,6.5,7,6,7C5.4,7,5,6.6,5,6.1
	C5,5.6,5.4,5.2,6,5.2C6.5,5.2,6.9,5.6,6.9,6.1z"/>
<path id="XMLID_00000091013517131891654890000011134562149942662574_" class="st2" d="M11.1,7.2c0,0.5-0.4,0.9-0.9,0.9
	S9.2,7.7,9.2,7.2c0-0.5,0.4-0.9,0.9-0.9S11.1,6.7,11.1,7.2z"/>
<path class="st3" d="M12.3,11c-0.3,0.1-0.5-0.2-0.8-0.4c-0.1-0.1-0.1-0.1-0.2-0.2c-0.4-0.3-0.8-0.3-1.2,0.1c0,0-0.1,0.1-0.1,0.1
	C9.9,10.8,9.7,11,9.4,11c-0.3,0-0.4-0.2-0.6-0.4c-0.1-0.1-0.1-0.1-0.2-0.2c-0.1-0.1-0.3-0.3-0.6-0.3l0,0c0,0,0,0,0,0c0,0,0,0,0,0
	l0,0c-0.3,0-0.5,0.1-0.6,0.3c-0.1,0-0.1,0.1-0.2,0.2C7,10.8,6.9,11,6.6,11c-0.3,0-0.5-0.2-0.6-0.4c0,0-0.1-0.1-0.1-0.1
	c-0.4-0.4-0.8-0.4-1.2-0.1c-0.1,0.1-0.1,0.1-0.2,0.2C4.2,10.8,4,11,3.7,11c0,0-0.1,0-0.1,0.1c0,0,0,0.1,0.1,0.1
	c0.4,0.1,0.7-0.2,0.9-0.4c0.1-0.1,0.1-0.1,0.2-0.2c0.3-0.3,0.7-0.2,1,0.1c0,0,0.1,0.1,0.1,0.1c0.2,0.2,0.4,0.5,0.8,0.4
	c0.3,0,0.5-0.2,0.7-0.4c0.1-0.1,0.1-0.1,0.1-0.2c0.2-0.2,0.4-0.2,0.5-0.2c0.2,0,0.3,0.1,0.5,0.2c0,0,0.1,0.1,0.1,0.2
	c0.2,0.2,0.4,0.4,0.7,0.4c0.4,0,0.6-0.2,0.8-0.4c0,0,0.1-0.1,0.1-0.1c0.3-0.3,0.7-0.3,1-0.1c0.1,0.1,0.1,0.1,0.2,0.2
	c0.2,0.2,0.5,0.5,0.9,0.4C12.4,11.1,12.4,11.1,12.3,11C12.4,11,12.4,11,12.3,11z"/>
<linearGradient id="XMLID_00000006671406294788330340000001437615844800829605_" gradientUnits="userSpaceOnUse" x1="27.7768" y1="16.6643" x2="19.4861" y2="2.3046">
	<stop  offset="0.1312" style="stop-color:#E0E0E0"/>
	<stop  offset="0.5448" style="stop-color:#F1F1F1"/>
	<stop  offset="1" style="stop-color:#FFFFFF"/>
</linearGradient>
<path id="XMLID_00000017497091430302826080000006565395961457224858_" style="fill:url(#XMLID_00000006671406294788330340000001437615844800829605_);" d="
	M24,14.5c1.1,0,0.9,0.9,1.8,0.9c1.2,0,1.2-1,2.2-1c1,0,0.7,1,1.8,1c0.6,0,0.7-0.7,0.7-1.3c0-1,0-2.8,0-6.9c0-3.6-2.9-6.5-6.5-6.5
	s-6.5,2.9-6.5,6.5c0,4.1,0,5.9,0,6.9c0,0.6,0.1,1.3,0.7,1.3c1,0,1.1-0.9,2.1-0.9c1,0,0.7,0.9,1.9,0.9C23.1,15.4,22.9,14.5,24,14.5z"
	/>
<circle id="XMLID_00000067221065358331821530000005534693149771391631_" class="st1" cx="21.4" cy="6.6" r="1.8"/>
<circle id="XMLID_00000036935299618677880660000005073333830854544284_" class="st1" cx="26.6" cy="6.6" r="1.8"/>
<path id="XMLID_00000034801198950821253680000003702451878092602003_" class="st2" d="M22.9,7.1C22.9,7.6,22.5,8,22,8
	C21.4,8,21,7.6,21,7.1c0-0.5,0.4-0.9,0.9-0.9C22.5,6.2,22.9,6.6,22.9,7.1z"/>
<path id="XMLID_00000155116343978784875240000003827803109300319883_" class="st2" d="M27.1,6c0,0.5-0.4,0.9-0.9,0.9
	c-0.5,0-0.9-0.4-0.9-0.9c0-0.5,0.4-0.9,0.9-0.9C26.7,5,27.1,5.4,27.1,6z"/>
<path class="st3" d="M28.3,11c-0.3,0.1-0.5-0.2-0.8-0.4c-0.1-0.1-0.1-0.1-0.2-0.2c-0.4-0.3-0.8-0.3-1.2,0.1c0,0-0.1,0.1-0.1,0.1
	c-0.2,0.2-0.4,0.4-0.6,0.4c-0.3,0-0.4-0.2-0.6-0.4c-0.1-0.1-0.1-0.1-0.2-0.2c-0.1-0.1-0.3-0.3-0.6-0.3l0,0c0,0,0,0,0,0c0,0,0,0,0,0
	l0,0c-0.3,0-0.5,0.1-0.6,0.3c-0.1,0-0.1,0.1-0.2,0.2C23,10.8,22.9,11,22.6,11c-0.3,0-0.5-0.2-0.6-0.4c0,0-0.1-0.1-0.1-0.1
	c-0.4-0.4-0.8-0.4-1.2-0.1c-0.1,0.1-0.1,0.1-0.2,0.2C20.2,10.8,20,11,19.7,11c0,0-0.1,0-0.1,0.1c0,0,0,0.1,0.1,0.1
	c0.4,0.1,0.7-0.2,0.9-0.4c0.1-0.1,0.1-0.1,0.2-0.2c0.3-0.3,0.7-0.2,1,0.1c0,0,0.1,0.1,0.1,0.1c0.2,0.2,0.4,0.5,0.8,0.4
	c0.3,0,0.5-0.2,0.7-0.4c0.1-0.1,0.1-0.1,0.1-0.2c0.2-0.2,0.4-0.2,0.5-0.2c0.2,0,0.3,0.1,0.5,0.2c0,0,0.1,0.1,0.1,0.2
	c0.2,0.2,0.4,0.4,0.7,0.4c0.4,0,0.6-0.2,0.8-0.4c0,0,0.1-0.1,0.1-0.1c0.3-0.3,0.7-0.3,1-0.1c0.1,0.1,0.1,0.1,0.2,0.2
	c0.2,0.2,0.5,0.5,0.9,0.4C28.4,11.1,28.4,11.1,28.3,11C28.4,11,28.4,11,28.3,11z"/>
</svg>
