<?xml version="1.0" encoding="utf-8"?>
<!-- Generator: Adobe Illustrator 27.5.0, SVG Export Plug-In . SVG Version: 6.00 Build 0)  -->
<svg version="1.1" id="Ebene_1" xmlns="http://www.w3.org/2000/svg" xmlns:xlink="http://www.w3.org/1999/xlink" x="0px" y="0px"
	 viewBox="0 0 192 16" style="enable-background:new 0 0 192 16;" xml:space="preserve">
<style type="text/css">
	.st0{fill:#FFFFFF;}
	.st1{fill:#D9D9D9;}
</style>
<g>
	<g>
		<path class="st0" d="M20.3,7.4c-0.5-0.1-0.8-0.6-0.9-1c0-0.6,0.5-1.1,1.1-1.1c0-0.1,0.2-0.5,0.5-0.8c0.5-0.4,1.1-0.3,1.2-0.3
			c0.1-0.1,0.3-0.3,0.6-0.3c0.5-0.1,1,0.2,1.4,0.8c0.1,0,0.3,0,0.5,0.1c0.3,0.1,0.4,0.3,0.4,0.4c0.1,0,0.6,0,0.9,0.4
			c0.4,0.5,0.3,1,0.2,1.1c0.6,0.3,1.1,0.8,1.1,1.4c0.1,0.9-0.7,1.6-1.4,1.8c-0.3,0.1-0.5,0-0.7,0c0,0.8-0.4,1.4-0.9,1.6
			c-0.1,0-0.3,0.1-0.6,0c-0.4,0.4-1,0.5-1.4,0.3c-0.4-0.1-0.6-0.5-0.7-0.6c-0.2,0.1-0.6,0.2-0.9,0c-0.5-0.3-0.7-1.2-0.2-2.1
			c-0.1-0.1-0.4-0.4-0.4-0.8C20.2,7.8,20.3,7.5,20.3,7.4z"/>
	</g>
	<g>
		<path class="st1" d="M23.9,11.3c0.3,0.1,0.5,0,0.6,0c0.5-0.2,0.9-0.8,0.9-1.6c0.2,0,0.4,0.1,0.7,0c0.7-0.1,1.3-0.7,1.4-1.5
			c-0.1,0.1-0.5,0.8-1.2,1c-0.3,0.1-0.7,0.1-0.7,0.1c-0.2,0-0.3,0-0.4-0.1c-0.1,0.5-0.4,0.9-0.7,1c-0.1,0-0.2,0-0.3,0
			c0,0.1-0.1,0.3-0.3,0.5c-0.2,0.2-0.7,0.4-1,0.2c-0.3-0.1-0.4-0.4-0.5-0.5c-0.1,0-0.5,0.2-0.9,0c-0.1,0-0.5-0.2-0.6-0.6
			c0-0.1-0.1-0.4,0-0.7C21,9.1,21.1,9,21.2,8.9c0,0-0.3-0.2-0.3-0.6c0-0.3,0.3-0.5,0.3-0.6c-0.2-0.1-0.3-0.2-0.4-0.4
			c0-0.2,0.1-0.4,0.1-0.4C20.8,7,20.5,7.2,20,7c-0.3-0.1-0.4-0.3-0.5-0.3c0,0.1,0.1,0.3,0.3,0.4c0.1,0.1,0.3,0.2,0.5,0.3
			c0,0.1-0.1,0.4-0.1,0.7c0.1,0.5,0.3,0.7,0.4,0.8c-0.5,0.9-0.3,1.8,0.2,2.1c0.3,0.2,0.7,0.1,0.9,0c0.1,0.1,0.3,0.4,0.7,0.6
			C23,11.8,23.5,11.7,23.9,11.3z"/>
	</g>
	<g>
		<path class="st1" d="M24,7.3c0,0,0.1,0.1,0.1,0.2c0,0.1,0,0.2,0,0.2c0,0,0,0,0.1,0c0,0,0.1,0,0.1,0c0-0.1,0-0.2,0.1-0.3
			c0.1-0.1,0.2-0.2,0.2-0.2c-0.1,0-0.2,0.1-0.3,0.1C24.2,7.4,24.1,7.4,24,7.3z"/>
	</g>
	<g>
		<path class="st1" d="M21.8,8.9c0.1,0,0.1-0.1,0.2-0.1c0.1-0.1,0.1-0.1,0.2-0.2c0,0,0.1,0,0.2,0c0.1,0,0.1,0,0.2,0
			c0,0,0.1,0.1,0.1,0.2c0.2,0.1,0.3,0.1,0.4,0.1c0,0-0.1,0-0.2,0.1c0,0-0.1,0.1-0.1,0.1C22.8,9,22.7,9,22.6,9c-0.1,0-0.2,0-0.2,0
			c-0.1,0-0.1-0.1-0.3-0.1C22,8.9,21.9,8.9,21.8,8.9z"/>
	</g>
	<g>
		<path class="st1" d="M22.1,6.3c0,0,0.1,0.2,0,0.3c0,0.1-0.1,0.2-0.1,0.2c0,0,0.1-0.1,0.3,0c0.1,0,0.1,0.1,0.2,0.1c0,0,0-0.1,0-0.2
			c0.1-0.1,0.1-0.2,0.2-0.2c-0.1,0-0.2,0-0.3,0C22.2,6.4,22.2,6.4,22.1,6.3z"/>
	</g>
	<g>
		<path class="st1" d="M26.2,5.5C26.2,5.5,26.1,5.5,26.2,5.5c-0.1-0.1-0.1-0.1-0.1-0.1c0,0.1,0.1,0.4-0.1,0.8
			c-0.1,0.2-0.3,0.3-0.4,0.4c0.1,0,0.3-0.1,0.4-0.1c0.1,0,0.3,0,0.4,0c0,0,0-0.1,0-0.2c0-0.1,0-0.3,0-0.3
			C26.5,6.1,26.4,5.8,26.2,5.5z"/>
	</g>
</g>
<g>
	<g>
		<path class="st0" d="M35.4,4.2c-0.2,0.1-0.8,0.2-1.1,0.7c-0.4,0.7-0.1,1.9,0.9,2.7c-0.1,0.2-0.2,0.5-0.1,0.9
			c0.1,0.7,0.4,1.2,0.6,1.3c-0.4,1.1-0.2,2.2,0.5,2.8c0.4,0.3,0.9,0.4,1.1,0.4c0.1,0.1,0.7,0.5,1.4,0.4c0.7-0.1,1.2-0.5,1.3-0.6
			c0.2,0.1,0.7,0.3,1.3,0c0.6-0.3,1.1-0.9,1.1-1.7c1.3-0.3,2.2-1.2,2.5-2.2c0-0.2,0.2-1-0.3-1.7c-0.4-0.6-0.9-0.8-1.1-0.8
			c0.1-0.2,0.3-0.6,0.2-1.1c-0.2-0.7-1-1.2-1.9-1.1c-0.1-0.1-0.2-0.2-0.4-0.4c-0.4-0.2-0.7-0.3-0.9-0.3c0-0.4-0.1-0.6-0.2-0.7
			c-0.5-0.6-1.6-0.6-2.7,0c-0.6-0.2-1.2-0.1-1.7,0.3C35.4,3.5,35.4,4.1,35.4,4.2z"/>
	</g>
	<g>
		<path class="st1" d="M37.6,5.9c0,0.1,0.1,0.3,0,0.5c0,0.2-0.1,0.3-0.1,0.4c0.1,0,0.2,0,0.4,0.1c0.2,0.1,0.3,0.2,0.3,0.2
			c0-0.1,0-0.3,0.1-0.4c0.2-0.3,0.6-0.4,1-0.3c0,0,0-0.1,0-0.2c0-0.3,0.2-0.5,0.3-0.5c-0.1,0-0.2,0.2-0.5,0.2c-0.1,0-0.2,0-0.3-0.1
			c0,0.1-0.1,0.3-0.4,0.4C38.2,6.3,37.9,6.2,37.6,5.9z"/>
	</g>
	<g>
		<path class="st1" d="M38.7,13.5c0.7-0.1,1.2-0.5,1.3-0.6c0.2,0.1,0.7,0.3,1.3,0c0.6-0.3,1.1-0.9,1.1-1.7c1.3-0.3,2.2-1.2,2.5-2.2
			c0-0.1,0.1-0.4,0.1-0.8l0,0c0,0.2-0.1,0.4-0.3,0.6c-0.4,0.7-1.3,1.2-2.1,1.2c-0.3,0-0.5-0.1-0.7-0.1c-0.2,0.6-0.5,1.1-1,1.2
			c-0.1,0-0.3,0-0.5,0c-0.2,0.8-0.9,1.2-1.5,1.1c-0.5-0.1-0.7-0.5-0.8-0.6c-0.8,0.3-1.6,0-1.8-0.6c-0.2-0.4,0-1.1,0.6-1.3
			c0.4-0.1,0.9,0,1.2,0.4c0-0.2,0.2-0.3,0.3-0.3c0.2,0,0.4,0.1,0.5,0.3c0-0.1,0.1-0.4,0.5-0.6c0.3-0.2,0.5-0.2,0.6-0.2
			c-0.1-0.3,0-0.6,0.2-0.7c0.2-0.1,0.4-0.1,0.4,0c0-0.7,0.4-1.1,0.8-1.2c0.1,0,0.3,0,0.5,0.1c0-0.1,0.2-0.5,0.6-0.8
			c0.5-0.3,1-0.2,1.1-0.2c0,0,0,0,0,0c0.1-0.2,0.3-0.6,0.1-1.1c-0.1-0.3-0.3-0.5-0.5-0.7c0.2,0.6,0,1.3-0.5,1.7
			c-0.4,0.3-0.8,0.3-1,0.4c-0.1,0.1-0.3,0.5-0.9,0.6c-0.4,0.1-0.7,0-0.8,0c0.1,0.1,0.1,0.2,0.1,0.4c0,0.4-0.2,0.7-0.4,1
			c-0.2,0.2-0.6,0.7-1,0.6c-0.2-0.1-0.3-0.3-0.3-0.4c-0.1,0.1-0.3,0.2-0.5,0.1c-0.1,0-0.1-0.1-0.2-0.1c-0.4,0.6-1,0.7-1.3,0.5
			c-0.2-0.1-0.3-0.4-0.3-0.7c0.1-0.3,0.3-0.5,0.4-0.5c-0.1,0-0.3-0.2-0.4-0.6c-0.1-0.3,0-0.6,0.1-0.6C36.1,7,35.6,7.1,35.1,7
			c-0.4-0.1-0.6-0.3-0.8-0.4c0.1,0.2,0.2,0.3,0.3,0.5c0.1,0.2,0.3,0.3,0.5,0.5c-0.1,0.2-0.2,0.5-0.1,0.9c0.1,0.7,0.4,1.2,0.6,1.3
			c-0.4,1.1-0.2,2.2,0.5,2.8c0.4,0.3,0.9,0.4,1.1,0.4C37.3,13.1,37.9,13.5,38.7,13.5z"/>
	</g>
</g>
<g>
	<g>
		<path class="st0" d="M60.5,6.3c-0.1-0.1-0.2-0.1-0.3-0.2c0.4-0.6,0.3-1.4-0.1-2c-0.5-0.6-1.3-0.8-2-0.6c-0.1-0.1-0.2-0.5-0.6-0.7
			c-0.3-0.2-0.7-0.2-0.8-0.2c-0.5-1.2-1.6-1.9-2.4-1.7c-0.2,0-0.6,0.2-0.9,0.6c-0.2,0-0.9-0.2-1.6,0.2c-0.8,0.4-1,1.1-1.1,1.3
			c-1.2,0.9-1.7,2.3-1.3,3.3c0.1,0.2,0.3,0.6,0.9,1c0,0.1,0,0.4,0.1,0.7c0.2,0.3,0.4,0.4,0.5,0.4c-0.1,0.1-0.2,0.3-0.2,0.5
			c-0.1,0.5,0,1,0.1,1.1c-0.1,0.2-0.7,0.9-0.6,1.9c0.1,0.8,0.7,1.8,1.6,1.9c0.4,0.1,0.7-0.1,0.9-0.2c0.1,0.1,0.6,0.8,1.5,0.9
			c1,0.1,1.7-0.6,1.7-0.7c0.6,0.5,1.5,0.5,2.1,0.1c0.7-0.5,1.1-1.4,0.8-2.3c0.2,0,1.7,0,2.5-1.2C62.3,9.2,61.6,7.1,60.5,6.3z
			 M53.4,6.3c0.1-0.3,0-0.5,0-0.6c0.1,0.1,0.3,0.2,0.5,0.3c0.2,0.1,0.5,0.1,0.6,0.2c0,0-0.2,0.1-0.3,0.4c-0.1,0.2,0,0.3,0,0.4
			c-0.1-0.1-0.3-0.2-0.5-0.3c-0.2,0-0.3,0-0.5,0C53.2,6.5,53.3,6.4,53.4,6.3z M54.9,9.9c0,0-0.1,0.1-0.2,0.5
			C54.6,10.1,54.3,10,54,10c-0.3,0.1-0.4,0.4-0.4,0.4c-0.1-0.1-0.1-0.3-0.3-0.4c-0.3-0.3-0.6-0.3-0.8-0.3c0.1,0,0.3-0.1,0.5-0.2
			c0.2-0.2,0.3-0.3,0.4-0.5c0,0,0.1,0.1,0.2,0.1c0.2,0,0.4-0.1,0.4-0.1c0.1,0.2,0.3,0.3,0.4,0.4c0.2,0.1,0.8,0.2,0.8,0.2
			c0,0,0,0,0,0C55.3,9.6,55.1,9.7,54.9,9.9z M56.8,8.1c0,0.2,0,0.4,0,0.6c0,0,0,0,0,0c0,0-0.2-0.2-0.4-0.3c-0.1-0.1-0.2-0.1-0.4-0.1
			C56,8.2,56.1,8,56.1,7.8c0.1-0.3,0-0.5,0-0.6c0.1,0,0.2,0.1,0.4,0.1c0.4,0,0.7-0.1,0.9-0.2C57.2,7.2,56.9,7.6,56.8,8.1z"/>
	</g>
	<g>
		<path class="st1" d="M57.8,6.3c0,0.1-0.3,0.6-1,0.7c-0.5,0.1-0.8-0.1-0.9-0.2c0,0.2,0.1,1-0.5,1.6c-0.1,0.1-0.6,0.6-1.1,0.5
			c-0.1,0-0.2-0.1-0.3-0.2c0,0-0.2,0.1-0.4,0c-0.2-0.1-0.3-0.2-0.3-0.2c-0.3,0.7-0.8,1-1.2,0.9c-0.2,0-0.4-0.2-0.4-0.4
			c-0.1-0.3,0-0.6,0.2-0.8c-0.1,0-0.2-0.1-0.4-0.2c-0.1-0.1-0.3-0.2-0.4-0.5c0-0.3,0.1-0.5,0.4-0.7c-0.1,0.1-0.8,0.5-1.6,0.1
			c-0.5-0.2-0.7-0.5-0.8-0.7c0,0,0,0.1,0,0.1c0.1,0.2,0.3,0.6,0.9,1c0,0.1,0,0.4,0.1,0.7c0.2,0.3,0.4,0.4,0.5,0.4
			c-0.1,0.1-0.2,0.3-0.2,0.5c-0.1,0.5,0,1,0.1,1.1c-0.1,0.2-0.7,0.9-0.6,1.9c0.1,0.8,0.7,1.8,1.6,1.9c0.4,0.1,0.7-0.1,0.9-0.2
			c0.1,0.1,0.6,0.8,1.5,0.9c1,0.1,1.7-0.6,1.7-0.7c0.6,0.5,1.5,0.5,2.1,0.1c0.7-0.5,1.1-1.4,0.8-2.3c0.2,0,1.7,0,2.5-1.2
			c0.5-0.7,0.6-1.5,0.4-2.2c0,0.2-0.3,1.8-1.7,2.6c-0.7,0.4-1.3,0.4-1.6,0.4c0.1,1-0.5,1.8-1.2,1.9c-0.7,0.1-1.3-0.4-1.4-0.5
			c-0.1,0.2-0.3,0.6-0.7,0.8c-0.7,0.3-1.6,0-2.2-0.9c-0.6,0.4-1.2,0.4-1.7,0c-0.6-0.4-0.5-1.2-0.5-1.4c0.1-0.8,0.8-1.4,1.7-1.6
			c0,0,0,0,0,0c0,0,0,0,0,0c0.1,0,0.3-0.1,0.5-0.2c0.2-0.2,0.3-0.3,0.4-0.5c0,0,0.1,0.1,0.2,0.1c0.2,0,0.4-0.1,0.4-0.1
			c0.1,0.2,0.3,0.3,0.4,0.4c0.2,0.1,0.8,0.2,0.8,0.2c0,0,0,0,0,0c0,0,0,0-0.1,0c0.1,0,0.1,0,0.2,0c0.1,0,0.2,0,0.3,0
			c0-0.1,0-0.3,0.2-0.5c0.3-0.4,0.7-0.5,0.8-0.5c0,0-0.1-0.1-0.1-0.1c-0.1-0.1-0.2-0.1-0.3-0.2c-0.1-0.1-0.2-0.1-0.4-0.1
			C56,8.2,56.1,8,56.1,7.8c0.1-0.3,0-0.5,0-0.6c0.1,0,0.2,0.1,0.4,0.1c0.4,0,0.7-0.1,0.9-0.2c0,0-0.1,0.1-0.1,0.1
			C57.1,7.4,57,7.5,57,7.6c0.1-0.1,0.2-0.2,0.4-0.3c0.3-0.1,0.5,0,0.6,0C58,7.2,58.2,7,58.4,6.9c0.3-0.2,0.7-0.2,0.8-0.2
			c0.1-0.1,0.2-0.2,0.4-0.3c0.2-0.1,0.5-0.2,0.6-0.2c0.1-0.1,0.3-0.5,0.2-1c0-0.3-0.1-0.7-0.4-1c0,0.8-0.3,1.4-0.7,1.5
			c-0.1,0-0.2,0-0.3,0C59,6,58.8,6.3,58.5,6.4C58.2,6.5,57.9,6.4,57.8,6.3z"/>
	</g>
	<g>
		<g>
			<path class="st0" d="M54.1,6.9L54.1,6.9C54.1,6.9,54.1,6.8,54.1,6.9L54.1,6.9z"/>
		</g>
		<g>
			<path class="st1" d="M54.6,5.3c0,0.1-0.3,0.3-0.7,0.4c-0.3,0-0.5-0.1-0.6-0.1c0,0.1-0.1,0.5-0.4,0.7c-0.2,0.2-0.5,0.4-0.6,0.4
				c0.3,0,0.6,0,0.8-0.1c0.1-0.1,0.2-0.2,0.2-0.3c0.1-0.3,0-0.5,0-0.6c0.1,0.1,0.3,0.2,0.5,0.3c0.2,0.1,0.5,0.1,0.6,0.2
				c0,0-0.2,0.1-0.3,0.4c-0.1,0.2,0,0.3,0,0.4c0.1-0.1,0.2-0.3,0.5-0.5c0.4-0.2,0.7-0.3,0.9-0.2c0-0.1,0-0.2,0-0.3
				c0.1-0.4,0.3-0.6,0.2-0.7c0,0-0.2,0.2-0.5,0.2C55,5.4,54.8,5.4,54.6,5.3z"/>
		</g>
	</g>
</g>
<g>
	<g>
		<path class="st0" d="M66.6,7.3c-0.8,0.1-1.7-0.2-2.1-0.9c-0.5-0.8-0.2-1.8,0.1-2.3c0.4-0.6,0.9-0.8,1.2-0.8c0-0.8,0.7-1.5,1.4-1.6
			c0.6,0,1.3,0.4,1.5,1C69,2.9,69.2,3,69.3,3.2c0.4,0.6,0.3,1.6-0.2,2.4c0.1,0.4,0.1,0.8-0.2,1c-0.2,0.2-0.5,0.3-0.6,0.3
			c0,0.1-0.3,0.5-0.8,0.6C67,7.6,66.7,7.3,66.6,7.3z"/>
	</g>
	<g>
		<path class="st1" d="M66.8,3.9C66.9,4,67,4.2,67.1,4.3c0.1,0.3,0.2,0.5,0.2,0.6c0.1-0.1,0.1-0.3,0.3-0.4c0.2-0.2,0.4-0.3,0.6-0.4
			c-0.2,0-0.5,0.1-0.8,0C67.1,4.1,66.9,4,66.8,3.9z"/>
	</g>
	<g>
		<path class="st1" d="M68.5,5.1c0.2,0.3,0.2,0.7,0,0.9c-0.1,0.1-0.3,0.1-0.4,0.1c-0.2,0.3-0.5,0.5-0.8,0.5c-0.3,0-0.5-0.2-0.6-0.2
			c-0.1,0.1-0.5,0.3-1,0.4c-0.9,0-1.4-0.7-1.4-0.8c0,0.1,0,0.1,0.1,0.2c0,0.1,0.1,0.2,0.1,0.2c0.4,0.7,1.3,1,2.1,0.9
			c0.1,0,0.4,0.3,0.9,0.2c0.5-0.1,0.8-0.5,0.8-0.6c0.1,0,0.4-0.1,0.6-0.3c0.2-0.3,0.3-0.7,0.2-1c0.3-0.4,0.4-0.8,0.5-1.2
			c-0.1,0.2-0.3,0.6-0.8,0.7C68.7,5.1,68.6,5.1,68.5,5.1z"/>
	</g>
	<g>
		<path class="st0" d="M70.3,4.1L70,3.5c-0.4-0.1-0.7-0.4-0.7-0.7c-0.1-0.3,0.1-0.6,0.2-0.6c-0.1-0.2-0.2-0.5-0.2-0.8
			c0.1-0.7,1-1,1.7-1c1,0,1.9,0.9,1.8,1.6c0,0.1-0.1,0.4-0.6,0.7c0,0.1,0.2,0.6-0.1,1.2c-0.2,0.3-0.4,0.5-0.6,0.5
			c0.2,0.8-0.3,1.5-0.8,1.6c-0.3,0.1-0.8-0.1-0.9-0.4C69.5,5.2,69.7,4.5,70.3,4.1z"/>
	</g>
	<g>
		<path class="st1" d="M71.5,4.5c0.1-0.1,0.4-0.2,0.6-0.5c0.1-0.2,0.2-0.4,0.2-0.6c0,0.1-0.2,0.6-0.6,0.8c-0.2,0.1-0.3,0.1-0.4,0.1
			c0.3,0.6,0.1,1.2-0.3,1.4c-0.2,0.1-0.6,0.2-0.9,0c-0.3-0.2-0.4-0.5-0.4-0.6c0,0,0,0,0,0c0,0.2,0,0.3,0.1,0.5
			c0.2,0.3,0.6,0.5,0.9,0.4C71.2,5.9,71.6,5.3,71.5,4.5z"/>
	</g>
	<g>
		<path class="st1" d="M70.5,3.2c-0.3,0.1-0.6,0.1-0.8,0c-0.1,0-0.3-0.3-0.3-0.6c0-0.2,0.2-0.4,0.4-0.5c-0.1,0-0.1,0-0.2,0
			c-0.2-0.1-0.3-0.2-0.3-0.3c0,0.1,0,0.1,0.1,0.2c0,0.1,0.1,0.1,0.1,0.2c0,0.1-0.2,0.3-0.2,0.6c0.1,0.3,0.3,0.6,0.7,0.7
			c0.1,0.2,0.2,0.4,0.2,0.6c0,0,0,0,0,0c0,0,0.1,0,0.1,0c0,0,0.1,0,0.2,0c0,0-0.2-0.1-0.3-0.4C70.3,3.4,70.5,3.2,70.5,3.2z"/>
	</g>
	<g>
		<path class="st1" d="M72.7,2.2c-0.2,0.2-0.4,0.3-0.5,0.3c-0.2,0-0.4,0-0.4,0c0,0,0.1,0,0.1,0.1c0.1,0,0.1,0.1,0.1,0.2
			c0,0,0,0,0.1,0c0.1-0.1,0.3-0.1,0.4-0.3C72.6,2.4,72.7,2.3,72.7,2.2z"/>
	</g>
	<g>
		<g>
			<path class="st0" d="M74.1,3.6c0.1-0.1,0.6-0.5,1.2-0.5c0.8,0,1.5,0.7,1.7,1.4c0.1,0.5,0.1,1.4-0.6,1.9c-0.7,0.5-1.5,0.1-1.5,0.1
				c0,0-0.2,0.5-0.7,0.6c-0.4,0.1-0.7-0.1-0.7-0.1c-0.1,0.1-0.3,0.3-0.6,0.3c-0.1,0-0.7,0.1-0.9-0.3c-0.1-0.3,0-0.6,0-0.6
				c-0.3-0.3-0.4-0.7-0.3-1c0.1-0.3,0.4-0.6,0.8-0.6c-0.2-0.4-0.1-0.8,0.1-1.1C72.9,3.1,73.7,3.1,74.1,3.6z"/>
		</g>
		<g>
			<path class="st1" d="M73.2,5.2c0.1,0,0.4,0.1,0.6-0.1c0.3-0.2,0.4-0.6,0.4-0.6c0,0-0.1,0.3,0,0.6c0,0.1,0.1,0.2,0.2,0.3
				c-0.1,0-0.2,0-0.4,0.1c-0.1,0-0.2,0.1-0.2,0.1c0-0.1-0.1-0.1-0.2-0.2C73.5,5.3,73.3,5.2,73.2,5.2z"/>
		</g>
		<g>
			<path class="st1" d="M71.9,6.3c0,0,0-0.1,0.1-0.1c0.1-0.2,0.3-0.2,0.4-0.2c-0.1,0-0.3,0.1-0.5,0c-0.1,0-0.2-0.1-0.2-0.2
				c0,0.1,0.1,0.2,0.2,0.4C71.8,6.1,71.9,6.2,71.9,6.3C71.9,6.2,71.9,6.2,71.9,6.3z"/>
		</g>
		<g>
			<path class="st1" d="M74.8,6.1c-0.1,0.4-0.4,0.7-0.8,0.7c-0.3,0-0.5-0.1-0.6-0.2c0,0-0.5,0.5-1.1,0.4c-0.2,0-0.4-0.2-0.5-0.2
				c0,0,0,0,0,0.1c0.2,0.4,0.8,0.3,0.9,0.3c0.3,0,0.6-0.2,0.6-0.3c0.1,0,0.4,0.2,0.7,0.1c0.5-0.1,0.7-0.5,0.7-0.6
				c0.1,0,0.9,0.4,1.5-0.1C76.9,6,77,5.5,77,5c0,0.1-0.5,1.1-1.5,1.2C75.2,6.2,75,6.2,74.8,6.1z"/>
		</g>
	</g>
	<g>
		<path class="st0" d="M74.5,8.5c0-0.1-0.2-0.6,0.1-0.9c0.3-0.4,0.9-0.5,1.4-0.2C76.4,7,76.9,7,77.2,7.2c0.3,0.2,0.3,0.6,0.3,0.7
			c0.2,0.1,1,0.6,1.2,1.6c0.2,1.1-0.5,2.4-1.7,2.6c-0.8,0.1-1.5-0.2-2.1-0.9c-0.2,0-0.6-0.2-0.8-0.5C73.6,10.2,73.8,9.2,74.5,8.5z"
			/>
	</g>
	<g>
		<path class="st1" d="M78.5,9.1c0.1,0.7-0.2,1.3-0.7,1.6c-0.4,0.3-1.2,0.4-1.7,0c-0.4-0.3-0.4-0.8-0.5-0.9c0.1,0,0.3,0,0.5,0
			c0.5-0.2,0.6-0.7,0.6-0.7c0,0-0.3,0.4-0.8,0.4c-0.4,0-0.6-0.2-0.7-0.3c0,0.1,0,0.3,0.2,0.5c0.1,0.1,0.1,0.1,0.2,0.1
			c-0.1,0.4-0.5,0.7-0.9,0.7c-0.5,0-0.8-0.3-0.8-0.4c0,0,0,0,0,0c0,0.2,0.1,0.3,0.2,0.5c0.2,0.3,0.6,0.4,0.8,0.5
			c0.5,0.7,1.3,1,2.1,0.9c1.2-0.2,1.9-1.5,1.7-2.6C78.6,9.4,78.6,9.2,78.5,9.1z"/>
	</g>
	<g>
		<g>
			<path class="st0" d="M74.3,11.7c-0.1-0.2-0.3-0.8-1-1.2c-0.1,0-1.1-0.6-1.9,0c-0.4,0.3-0.5,0.7-0.6,0.8c-0.1,0-0.4-0.1-0.7,0
				c-0.2,0-0.3,0.1-0.4,0.2c0,0-0.1-0.3-0.4-0.5c-0.3-0.1-0.6-0.1-0.8,0.2c-0.1-0.1-0.5-0.5-1.1-0.5c-0.1,0-0.7,0-1.2,0.3
				c-0.9,0.7-1,2.4-0.1,3.3c0.6,0.6,1.4,0.6,1.4,0.6c0.5,0,0.8-0.1,1-0.2c0.1,0.2,0.4,0.5,0.7,0.7c0.1,0.1,1.1,0.7,2,0.2
				c0.5-0.3,0.7-0.7,0.8-0.9c0.1,0.1,0.9,0.6,1.8,0.4c0.6-0.2,1.5-0.7,1.5-1.6C75.6,12.7,75.1,12,74.3,11.7z"/>
		</g>
		<g>
			<path class="st1" d="M75.6,13.5c0-0.1,0-0.3,0-0.4c0,0.2-0.1,0.6-0.5,1c-0.6,0.7-1.6,0.7-1.7,0.7c-0.2,0-0.6,0-0.9-0.3
				c-0.3-0.2-0.4-0.4-0.5-0.6c0,0.1,0,0.5-0.3,0.8c0,0-0.3,0.4-0.8,0.6c-0.7,0.2-1.5-0.2-2.2-1c-0.1,0.1-0.7,0.4-1.3,0.4
				c-1.1-0.1-1.6-1.1-1.7-1.2c0,0.1,0.1,0.3,0.2,0.5c0.1,0.1,0.2,0.3,0.3,0.4c0.6,0.6,1.4,0.6,1.4,0.6c0.5,0,0.8-0.1,1-0.2
				c0.1,0.2,0.4,0.5,0.7,0.7c0.1,0.1,1.1,0.7,2,0.2c0.5-0.3,0.7-0.7,0.8-0.9c0.1,0.1,0.9,0.6,1.8,0.4C74.7,14.9,75.5,14.4,75.6,13.5
				z"/>
		</g>
		<g>
			<path class="st1" d="M68.7,12.3c0,0.2,0.1,0.3,0.1,0.5c0,0.2,0.1,0.4,0.1,0.6c0.1-0.1,0.2-0.3,0.3-0.5c0.2-0.2,0.3-0.3,0.4-0.4
				c0,0-0.3,0.2-0.6,0C68.8,12.5,68.7,12.4,68.7,12.3z"/>
		</g>
		<g>
			<path class="st1" d="M71.6,12.2c-0.1,0-0.1-0.1-0.1-0.1c0,0,0.1,0.2,0,0.4c0,0.1-0.1,0.2-0.2,0.3c0.1,0,0.2,0,0.4,0.1
				c0.2,0.2,0.2,0.5,0.3,0.5c0,0,0-0.3,0-0.6c0.1-0.3,0.2-0.5,0.3-0.6c-0.1,0-0.2,0.1-0.4,0.1C71.8,12.3,71.7,12.3,71.6,12.2z"/>
		</g>
		<g>
			<path class="st1" d="M73.4,11.7c0.1,0,0.3-0.1,0.5-0.1c0.2,0,0.3,0,0.4,0c0-0.1-0.1-0.2-0.1-0.2c0-0.1-0.1-0.2-0.2-0.3
				c0,0.1-0.1,0.2-0.2,0.3C73.7,11.6,73.5,11.7,73.4,11.7z"/>
		</g>
	</g>
	<g>
		<g>
			<path class="st0" d="M67.3,10.2c0,0,0.2,0.2,0.4,0.2c0.3,0,0.5-0.2,0.6-0.6c0,0,0.4-0.2,0.5-0.6c0.1-0.3-0.1-0.5-0.1-0.6
				c-0.3-0.5-0.9-0.5-1-0.5c-0.4-0.4-1.1-0.5-1.6-0.2c-0.6,0.4-0.6,1.3-0.2,1.8C66.2,10.2,66.8,10.3,67.3,10.2z"/>
		</g>
		<g>
			<path class="st1" d="M68.8,8.9L68.8,8.9c0,0.1,0,0.2-0.1,0.4c0,0-0.2,0.3-0.5,0.2c-0.1,0-0.2,0-0.2,0c0,0,0,0.1-0.1,0.2
				c-0.1,0.1-0.2,0.1-0.2,0c0-0.1,0.1-0.2,0.1-0.4c0-0.1,0-0.3-0.1-0.3c0,0.1-0.1,0.4-0.2,0.6c-0.3,0.3-0.7,0.4-0.8,0.4
				c-0.5,0-0.8-0.3-0.9-0.3c0,0.1,0.1,0.1,0.1,0.2c0.3,0.4,0.9,0.6,1.4,0.4c0,0,0.2,0.2,0.4,0.2c0.3,0,0.5-0.2,0.6-0.6
				c0,0,0.4-0.2,0.5-0.6C68.8,9.1,68.8,9,68.8,8.9z"/>
		</g>
	</g>
	<g>
		<path class="st0" d="M70.3,7.4c-0.3-0.3-0.7-0.3-0.9,0c-0.2,0.2-0.1,0.5-0.1,0.5C69,8,68.9,8.4,69,8.7C69.2,9,69.6,9.1,70,8.9
			c0.3,0.4,0.8,0.5,1.2,0.4c0.6-0.2,0.9-1,0.6-1.5C71.5,7.3,70.8,7.1,70.3,7.4z"/>
	</g>
	<g>
		<path class="st1" d="M71.9,8.3c-0.3,0.6-0.9,0.8-1.4,0.7C70.2,8.9,70,8.6,70,8.5c0,0-0.2,0.3-0.5,0.3c-0.3,0-0.4-0.2-0.5-0.2
			c0,0.1,0,0.1,0.1,0.2C69.2,9,69.6,9.1,70,8.9c0.3,0.4,0.8,0.5,1.2,0.4C71.6,9.2,71.9,8.7,71.9,8.3z"/>
	</g>
</g>
<g>
	<g>
		<path class="st0" d="M85.7,2.1c-0.1-0.2-0.2-0.5,0-0.8c0.2-0.6,1.1-0.8,1.6-0.7c0.7,0.1,1.4,0.5,1.6,1.1c0.1,0.2,0.2,0.6,0,0.9
			c-0.1,0.2-0.3,0.3-0.4,0.3c0,0.4-0.2,0.8-0.6,1c-0.5,0.2-1,0-1.3-0.5c-0.4,0.2-0.8,0.1-1-0.3C85.3,2.8,85.4,2.3,85.7,2.1z"/>
	</g>
	<g>
		<path class="st1" d="M85.7,2.1c0,0,0.1,0,0.1-0.1C86,2,86.1,1.9,86.2,1.9c-0.1,0-0.3,0-0.4-0.2c-0.1-0.1-0.1-0.2-0.2-0.2
			c0,0.1,0,0.1,0,0.2c0,0,0,0,0,0.1C85.6,1.9,85.7,2,85.7,2.1z"/>
	</g>
	<g>
		<path class="st1" d="M88.9,1.9c0,0-0.1,0.4-0.4,0.5c-0.1,0-0.2,0-0.3,0c0,0,0.1,0.1,0.2,0.1c0.1,0.1,0.1,0.3,0.1,0.3
			c0.1,0,0.2-0.1,0.4-0.3C89,2.3,88.9,2.1,88.9,1.9z"/>
	</g>
	<g>
		<path class="st1" d="M85.5,2.4c-0.1,0.2-0.1,0.5,0.1,0.8c0.2,0.3,0.7,0.5,1,0.3c0,0,0-0.1,0-0.2c0-0.1,0-0.2,0-0.3
			c0,0-0.1,0.1-0.2,0.2c-0.2,0.1-0.5,0.1-0.7-0.1C85.5,2.9,85.4,2.6,85.5,2.4z"/>
	</g>
	<g>
		<path class="st0" d="M90.1,3.6c-0.3-0.3-0.8-0.2-1.1,0.2c-0.2,0.3-0.1,0.7,0.2,0.9c0,0.1-0.1,0.4,0,0.8c0.1,0.2,0.3,0.4,0.4,0.4
			c-0.1,0.4,0.1,0.8,0.4,0.9c0.4,0.2,0.8,0,1.1-0.4c0.2,0,0.7,0.2,1.2-0.1C93.1,6,93.3,5,93,4.3C92.7,3.5,91.3,3,90.1,3.6z"/>
	</g>
	<g>
		<path class="st1" d="M91.1,6.5c0.2,0,0.7,0.2,1.2-0.1c0.5-0.3,0.7-0.8,0.8-1.3C93,5.3,92.8,5.8,92.3,6c-0.2,0.1-0.8,0.4-1.3,0.1
			c-0.3-0.2-0.5-0.4-0.5-0.5c-0.1,0-0.3,0.1-0.5,0.1c-0.1,0-0.3,0-0.5-0.2c-0.2-0.2-0.3-0.4-0.3-0.4v0l0,0.1c0,0.1,0,0.2,0.1,0.3
			c0.1,0.2,0.3,0.4,0.4,0.4c-0.1,0.4,0.1,0.8,0.4,0.9C90.4,7.1,90.9,6.9,91.1,6.5z"/>
	</g>
	<g>
		<path class="st0" d="M91.6,8.7c0,0,0.2-0.5,0.8-0.6c0.4,0,0.8,0.2,1,0.5c0.2,0,0.6,0.2,0.8,0.5c0.5,0.6,0.3,1.5-0.2,2.1
			c-0.6,0.8-1.8,1.1-2.6,0.5c-0.5-0.3-0.6-0.9-0.7-1.1c-0.1,0-0.5-0.1-0.7-0.4c-0.2-0.4-0.2-0.8,0-1.1C90.4,8.6,91.1,8.4,91.6,8.7z"
			/>
	</g>
	<g>
		<path class="st1" d="M90.5,4.5c0,0-0.1,0-0.2-0.1c-0.2-0.1-0.2-0.3-0.2-0.3c0,0,0,0,0,0.1c0,0.1,0,0.2-0.1,0.3
			c-0.1,0.1-0.2,0.2-0.3,0.2c0,0,0,0,0,0c0,0,0.2,0,0.3,0c0.1,0,0.1,0.1,0.2,0.2c0,0,0-0.1,0-0.2c0-0.1,0-0.1,0.1-0.2
			C90.4,4.5,90.5,4.5,90.5,4.5z"/>
	</g>
	<g>
		<path class="st1" d="M90,9.7L90,9.7c0,0.2,0.1,0.3,0.2,0.5c0.2,0.3,0.6,0.4,0.7,0.4c0-0.1,0-0.2,0.1-0.3c0.2-0.3,0.5-0.4,0.5-0.4
			c0,0-0.4,0.2-0.8,0.1C90.2,9.9,90.1,9.8,90,9.7z"/>
	</g>
	<g>
		<path class="st1" d="M94.5,9.7c-0.1,0.9-0.8,1.7-1.6,1.9c-0.9,0.2-1.7-0.3-1.8-0.3c0.1,0.1,0.2,0.2,0.4,0.4c0.8,0.6,2,0.3,2.6-0.5
			C94.4,10.8,94.6,10.2,94.5,9.7z"/>
	</g>
	<g>
		<path class="st0" d="M91.1,8.1c0.1,0.2,0.4,0.2,0.5,0.1c0.1-0.1,0.1-0.3,0.1-0.4c-0.1-0.1-0.2-0.2-0.4-0.2c-0.2-0.2-0.5-0.2-0.7,0
			c-0.2,0.1-0.2,0.5-0.1,0.6C90.6,8.3,90.9,8.3,91.1,8.1z"/>
	</g>
	<g>
		<path class="st1" d="M91.7,7.8c0,0-0.1,0.2-0.3,0.2c-0.2,0-0.3,0-0.3,0c0,0,0,0.1-0.1,0.1c-0.1,0.1-0.3,0.2-0.4,0.1
			c-0.1,0-0.1-0.1-0.2-0.1c0,0.1,0.1,0.1,0.1,0.1c0.1,0.1,0.4,0.1,0.6,0c0.1,0.2,0.4,0.2,0.5,0.1C91.7,8.1,91.8,7.9,91.7,7.8z"/>
	</g>
	<g>
		<path class="st0" d="M89,6c0.2-0.3,0-0.7-0.3-0.9c-0.3-0.1-0.6-0.1-0.8,0.2c-0.1,0.1-0.1,0.3-0.1,0.4C87.9,6,88,6.1,88,6.1
			c0,0.1,0.1,0.1,0.1,0.2c0,0,0,0.1,0,0.1c0,0,0,0.1,0,0.2c0,0.2,0.1,0.3,0.2,0.4c0.2,0.2,0.8,0.3,1,0C89.4,6.7,89.4,6.3,89,6z"/>
	</g>
	<g>
		<path class="st1" d="M89.2,7c0.1-0.1,0.1-0.3,0.1-0.5c0,0.1-0.1,0.2-0.3,0.4c-0.1,0-0.2,0.1-0.4,0.1c-0.3,0-0.5-0.3-0.5-0.3
			c0,0,0,0.1,0.1,0.2c0,0.1,0.1,0.1,0.1,0.2C88.5,7.3,89,7.3,89.2,7z"/>
	</g>
	<g>
		<path class="st0" d="M86.6,4.9c-0.1-0.2-0.1-0.4,0.1-0.5c0.2-0.2,0.5-0.2,0.6,0c0.2,0.1,0.2,0.5,0,0.6c-0.1,0.1-0.1,0.2,0,0.3
			c0.1,0.4-0.1,0.7-0.3,0.8c-0.3,0.1-0.6,0-0.7-0.2C86,5.5,86.2,5,86.6,4.9z"/>
	</g>
	<g>
		<path class="st1" d="M87.3,5.2c0,0-0.1,0.4-0.4,0.5c-0.1,0-0.3,0.2-0.5,0.1c-0.2-0.1-0.3-0.2-0.3-0.2c0,0.1,0,0.1,0.1,0.2
			c0.1,0.2,0.5,0.3,0.7,0.2C87.2,5.9,87.4,5.6,87.3,5.2z"/>
	</g>
	<g>
		<path class="st0" d="M85.7,7.9c0-0.1,0-0.3,0.1-0.4c0.1-0.1,0.3,0,0.4,0.1c0.1,0.1,0.1,0.4-0.1,0.5c0.1,0.3-0.1,0.5-0.3,0.5
			c-0.2,0-0.3,0-0.4-0.2C85.4,8.3,85.4,8,85.7,7.9z"/>
	</g>
	<g>
		<path class="st1" d="M86.1,8.1c0,0.1,0,0.2-0.2,0.2c-0.1,0.1-0.3,0.1-0.4,0c-0.1,0-0.1-0.1-0.1-0.1c0,0,0,0.1,0,0.2
			c0.1,0.1,0.2,0.2,0.4,0.2C86.1,8.6,86.2,8.4,86.1,8.1z"/>
	</g>
	<g>
		<path class="st0" d="M86.9,7.8c0,0,0.3-0.1,0.5,0.1c0.1,0.1,0.2,0.2,0.2,0.4c0,0.1,0,0.3-0.1,0.4c-0.1,0.2-0.2,0.3-0.4,0.4
			c-0.2,0.1-0.4,0.1-0.5,0c-0.2-0.1-0.2-0.3-0.2-0.4c-0.1-0.3,0.1-0.5,0.1-0.5C86.6,8,86.7,7.9,86.9,7.8z"/>
	</g>
	<g>
		<path class="st1" d="M87.5,8.6c0.1-0.1,0.1-0.3,0.1-0.4c0,0.1-0.1,0.3-0.3,0.4c0,0-0.4,0.3-0.7,0.2c-0.1-0.1-0.2-0.2-0.2-0.2
			c0,0,0,0,0,0c0,0,0,0,0,0c0,0.1,0.1,0.3,0.2,0.4c0.1,0.1,0.3,0.1,0.5,0C87.3,8.9,87.5,8.8,87.5,8.6z"/>
	</g>
	<g>
		<path class="st0" d="M88.2,10.5c0.5-0.2,1.1-0.1,1.3,0.3c0.1,0.2,0.1,0.5,0,0.7c-0.2,0.3-0.8,0.3-1.2-0.1
			c-0.2,0.2-0.6,0.1-0.7-0.1c-0.1-0.2-0.1-0.4-0.1-0.6C87.5,10.5,87.8,10.4,88.2,10.5z"/>
	</g>
	<g>
		<path class="st1" d="M89.4,11.5c0.1-0.1,0.1-0.3,0.1-0.4c0,0.1-0.1,0.2-0.3,0.4c-0.3,0.2-0.6,0.1-0.9-0.1
			c-0.1-0.1-0.2-0.2-0.2-0.3c-0.1,0.1-0.2,0.1-0.2,0.2c0,0-0.3,0.1-0.5,0c-0.1,0-0.1-0.1-0.2-0.1c0,0,0,0,0,0c0,0,0,0,0,0l0,0.1
			c0,0.1,0.1,0.1,0.1,0.2c0.2,0.2,0.5,0.2,0.7,0.1C88.6,11.8,89.2,11.7,89.4,11.5z"/>
	</g>
	<g>
		<path class="st0" d="M85.4,12.4c-0.1-0.2-0.3-0.6-0.7-0.8c-0.7-0.4-1.8-0.3-2.3,0.3c-0.3,0.4-0.3,1-0.3,1.1c0,0.2,0.1,0.4,0.2,0.5
			c0.3,0.6,0.8,0.8,0.9,0.8c0.6,0.2,1.2,0,1.3,0c0.1,0.2,0.4,0.7,1.1,1c1.1,0.5,2.1-0.2,2.1-0.2c0.3-0.2,0.5-0.4,0.6-0.6
			c0.1,0.1,0.8,0.5,1.6,0.3c0.7-0.2,1.5-0.9,1.4-1.7c-0.1-0.6-0.6-1-1.1-1.2c-0.9-0.3-1.7,0.3-1.7,0.3c-0.1-0.1-0.6-0.3-1.1-0.2
			c-0.2,0.1-0.4,0.2-0.5,0.3c-0.2-0.1-0.5-0.1-0.9-0.1C85.8,12.3,85.6,12.3,85.4,12.4z"/>
	</g>
	<g>
		<path class="st1" d="M88.7,13.2c0,0-0.3,0.5-0.8,0.5c-0.5,0-0.8-0.3-0.8-0.4c0,0.1,0.1,0.3,0.3,0.4c0.2,0.1,0.4,0.2,0.5,0.2
			c-0.1,0.1-0.2,0.3-0.5,0.5c-0.6,0.4-1.3,0.3-1.8,0c-0.4-0.2-0.6-0.5-0.8-0.7c-0.2,0.1-0.9,0.3-1.7,0c-0.5-0.2-0.8-0.6-1-0.8
			c0,0.2,0.1,0.4,0.2,0.5c0.4,0.8,1.4,1.2,2.3,0.8c0.1,0.2,0.4,0.7,1.1,1c1.1,0.5,2.1-0.2,2.1-0.2c0.3-0.2,0.5-0.4,0.6-0.6
			c0.1,0.1,0.8,0.5,1.6,0.3c0.7-0.2,1.5-0.9,1.4-1.7c-0.1,0.1-0.6,0.8-1.5,1c-0.7,0.1-1.2-0.1-1.4-0.2c0,0,0.2-0.1,0.2-0.3
			C88.8,13.4,88.8,13.3,88.7,13.2z"/>
	</g>
	<g>
		<g>
			<path class="st0" d="M81.8,3.5c0,0,0-0.9,0.7-1.4c0.6-0.3,1.3-0.2,1.8,0.2c0.5,0.4,0.7,1,0.6,1.6c0.1,0.1,0.3,0.5,0.2,0.9
				c-0.1,0.6-0.8,1-1.5,0.9c0,0.1,0,0.9-0.7,1.3C82,7.6,81.1,7,81,7c-0.7-0.4-1-1.3-0.7-2.1C80.6,3.8,81.7,3.5,81.8,3.5z"/>
		</g>
		<g>
			<path class="st1" d="M84.9,3.9c0-0.2,0-0.3,0-0.5c0,0.1-0.1,0.4-0.3,0.5c-0.3,0.3-0.6,0.4-0.8,0.4c-0.2,0-0.4,0-0.5,0
				c0.4,1,0,2-0.8,2.4c-0.6,0.3-1.3,0.2-1.9-0.2C80.7,6.7,80.9,6.9,81,7c0.1,0,1,0.6,1.8,0.1c0.7-0.4,0.7-1.2,0.7-1.3
				c0.8,0.1,1.4-0.4,1.5-0.9C85.2,4.4,84.9,4,84.9,3.9z M84.9,4.7c0,0.2-0.1,0.3-0.2,0.4c-0.1,0.1-0.3,0.3-0.5,0.3
				c-0.2,0-0.4-0.1-0.5-0.2c-0.1-0.1-0.1-0.3,0-0.4c0,0,0.1,0,0.2,0c0.2,0,0.3-0.2,0.6-0.4c0.1,0,0.2-0.1,0.3,0
				C84.9,4.4,84.9,4.7,84.9,4.7z"/>
		</g>
	</g>
	<g>
		<g>
			<path class="st0" d="M85.7,11.3c0,0-0.1-0.2-0.3-0.3c-0.2,0-0.4,0.1-0.4,0.2c0,0.1,0.1,0.2,0.1,0.3c0.2,0.2,0.5,0.1,0.5,0.1
				c0,0.1,0.1,0.2,0.2,0.2c0.1,0,0.2-0.1,0.2-0.1c0,0.1,0.1,0.1,0.2,0.2c0.3,0.1,0.7,0,0.7-0.3c0-0.1,0-0.3-0.1-0.4
				c-0.2-0.1-0.5-0.1-0.8,0.2c0,0,0-0.1-0.1-0.1C85.8,11.3,85.7,11.3,85.7,11.3z"/>
		</g>
		<g>
			<path class="st1" d="M85.1,11.5c0.1,0.1,0.3,0.1,0.3,0.1c0.1,0,0.2,0,0.2,0c0,0.1,0.1,0.2,0.2,0.2c0.1,0,0.2-0.1,0.2-0.1
				c0,0.1,0.1,0.1,0.2,0.2c0.3,0.1,0.7,0,0.7-0.3c0-0.1,0-0.2,0-0.2c-0.1,0.1-0.1,0.2-0.2,0.2c-0.2,0.1-0.5,0.2-0.6,0.1
				c0,0,0-0.1,0-0.1c-0.1,0.1-0.2,0.1-0.3,0.1c-0.1,0-0.2-0.1-0.2-0.2c0,0-0.4,0.1-0.6-0.2c0,0,0-0.1,0-0.1c0,0,0,0.1,0,0.1
				C85,11.5,85,11.5,85.1,11.5z"/>
		</g>
	</g>
	<g>
		<path class="st0" d="M83.9,10.6c0,0-0.1,0.1-0.1,0.2c0,0.1,0.1,0.1,0.1,0.2c0.1,0,0.1,0.1,0.2,0.1c0.1,0,0.1,0,0.2,0
			c0.1,0,0.1-0.1,0.1-0.1c0-0.1,0-0.2-0.1-0.2c-0.1-0.1-0.2-0.1-0.3-0.1C84,10.5,83.9,10.5,83.9,10.6z"/>
	</g>
	<g>
		<g>
			<path class="st0" d="M83.8,9.5c-0.5,0.5-1.3,0.5-1.7,0c-0.4-0.5-0.2-1.3,0.4-1.6c0.4-0.2,0.9-0.1,1.3,0.3c0.2-0.1,0.4-0.1,0.5,0
				c0.1,0.1,0.1,0.2,0.1,0.3c0.3,0,0.5,0.3,0.5,0.5c0,0.3-0.4,0.5-0.4,0.5C84.1,9.7,83.8,9.5,83.8,9.5z"/>
		</g>
		<g>
			<path class="st1" d="M83.8,9.5c0.1,0,0.4,0.2,0.7,0c0.1,0,0.4-0.2,0.4-0.5c0-0.2-0.2-0.4-0.5-0.5c0,0,0-0.1,0-0.2
				c0,0,0,0.2-0.1,0.3C84.1,8.7,84,8.7,84,8.7c0,0,0,0.2-0.2,0.4c-0.2,0.1-0.3,0.1-0.4,0c-0.1,0.1-0.3,0.3-0.5,0.4
				c-0.4,0.1-0.8,0-0.9,0c0,0,0,0,0,0c0,0,0,0,0,0C82.4,10,83.3,10,83.8,9.5z"/>
		</g>
		<g>
			<path class="st0" d="M84,10.2c0.1,0,0.2,0,0.3,0c0.1,0,0.1-0.1,0.2-0.1c0-0.1,0-0.2-0.1-0.2c-0.1-0.1-0.3-0.1-0.4,0
				c-0.1,0.1-0.2,0.2-0.2,0.3C83.9,10.2,84,10.2,84,10.2z"/>
		</g>
		<g>
			<path class="st1" d="M84.5,9.9L84.5,9.9c0,0,0,0.1-0.1,0.1c-0.1,0.1-0.4,0.1-0.4,0.1c0,0-0.1,0-0.2-0.1c0,0,0,0,0,0
				c0,0.1,0.2,0.2,0.2,0.2c0.1,0,0.2,0,0.3,0c0.1,0,0.1-0.1,0.2-0.1C84.5,10,84.5,9.9,84.5,9.9z"/>
		</g>
	</g>
	<g>
		<path class="st1" d="M84.4,10.8c0,0,0-0.1,0-0.1c0,0-0.2,0.2-0.4,0.2c-0.1,0-0.2-0.1-0.2-0.1c0,0,0,0.1,0.1,0.1c0,0,0.1,0,0.1,0.1
			c0.1,0,0.1,0.1,0.2,0.1c0.1,0,0.1,0,0.2,0C84.4,10.9,84.4,10.9,84.4,10.8z"/>
	</g>
	<g>
		<path class="st0" d="M83.9,6.5c0,0,0-0.2,0.1-0.4c0.1-0.2,0.3-0.3,0.6-0.2c0-0.1,0.1-0.2,0.2-0.3c0.1,0,0.2,0,0.3,0.1
			c0,0.1,0,0.2-0.1,0.3c0,0,0.2,0.2,0.2,0.4c0,0.3-0.2,0.5-0.6,0.6c-0.1,0.3-0.3,0.5-0.6,0.5c-0.2,0-0.5-0.2-0.5-0.4
			C83.5,6.8,83.6,6.5,83.9,6.5z"/>
	</g>
	<g>
		<path class="st1" d="M85,6c0,0.1,0.1,0.2,0,0.4c-0.1,0.2-0.3,0.4-0.6,0.4c0,0-0.1,0.3-0.4,0.4c-0.3,0.1-0.5,0-0.5-0.1
			c0,0,0.2,0.3,0.5,0.3c0.3,0,0.5-0.2,0.6-0.5c0.4-0.1,0.6-0.3,0.6-0.6C85.2,6.2,85.1,6.1,85,6L85,6C85,6,85,6,85,6z"/>
	</g>
</g>
<g>
	<g>
		<path class="st0" d="M119.3,2.8c-0.1,0-0.3-0.1-0.4-0.2c-0.3-0.3-0.5-0.7-0.4-1c0.2-0.6,1-0.8,1.6-0.6c0.7,0.1,1.3,0.7,1.2,1.3
			c-0.1,0.3-0.4,0.6-0.5,0.7c0,0,0,0.5-0.4,0.7c-0.3,0.2-0.7,0.2-1-0.1C119.2,3.4,119.2,3.1,119.3,2.8z"/>
	</g>
	<g>
		<path class="st1" d="M119.5,2.6c-0.1,0-0.4-0.1-0.6-0.2c-0.3-0.2-0.4-0.4-0.5-0.5c0,0.1,0.1,0.4,0.4,0.7c0.2,0.1,0.3,0.2,0.4,0.2
			c0,0,0,0,0,0c0,0,0-0.1,0.1-0.1C119.4,2.6,119.5,2.6,119.5,2.6z"/>
	</g>
	<g>
		<path class="st1" d="M120.5,2.5c0,0,0.1,0.1,0.2,0.1c0.1,0.1,0.1,0.2,0.1,0.3c0,0,0.4-0.2,0.5-0.7c0-0.3-0.1-0.6-0.3-0.8
			c0.2,0.3,0.2,0.7,0,0.9C120.8,2.5,120.6,2.5,120.5,2.5z"/>
	</g>
	<g>
		<path class="st0" d="M118.9,3.5c0,0.1-0.1,0.1-0.2,0.2c-0.2,0-0.3-0.1-0.4-0.1c-0.1-0.1-0.1-0.2-0.2-0.4c0-0.1,0-0.1,0-0.2
			c0-0.1,0.1-0.1,0.1-0.2c0.1-0.1,0.4,0,0.4,0C118.9,2.9,119,3.3,118.9,3.5z"/>
	</g>
	<g>
		<path class="st1" d="M118.9,3.2c0,0,0,0.1-0.1,0.2c-0.1,0.1-0.2,0.1-0.3,0.1c-0.2,0-0.3-0.1-0.4-0.2c0,0.1,0.1,0.2,0.1,0.2
			c0,0,0.2,0.2,0.4,0.1c0.1,0,0.2-0.1,0.2-0.2C119,3.4,119,3.3,118.9,3.2C118.9,3.2,118.9,3.2,118.9,3.2z"/>
	</g>
	<g>
		<path class="st0" d="M122.9,5.6c0-0.1-0.2-0.5,0-1c0-0.1,0.3-0.6,0.8-0.8c0.6-0.2,1.2,0.1,1.5,0.5c0.5,0.6,0.4,1.7-0.3,2.1
			c-0.5,0.4-1.2,0.2-1.3,0.2c0,0-0.2,0.3-0.5,0.3c-0.3,0-0.6-0.2-0.7-0.5C122.4,6.1,122.5,5.8,122.9,5.6z"/>
	</g>
	<g>
		<path class="st1" d="M125.4,4.7c0,0.1,0,0.8-0.4,1.2c-0.1,0.1-0.5,0.5-1,0.5c-0.2,0-0.4-0.1-0.5-0.2c0,0.2-0.1,0.5-0.3,0.6
			c-0.2,0.1-0.4,0-0.5-0.1h0c0.1,0.2,0.3,0.3,0.6,0.3c0.3,0,0.4-0.3,0.5-0.3c0.1,0,0.8,0.2,1.3-0.2C125.4,6.1,125.6,5.3,125.4,4.7z"
			/>
	</g>
	<g>
		<path class="st0" d="M115.8,5.8c0.1,0.1,0.3,0.1,0.5,0.1c0.5,0,1-0.6,0.9-1.1c-0.1-0.3-0.3-0.5-0.4-0.5c0-0.2,0.1-0.5-0.1-0.8
			c-0.3-0.6-1.1-1-1.8-0.7c-0.5,0.3-0.7,0.9-0.7,1c-0.2,0-0.6,0.2-1,0.7c-0.1,0.1-0.5,0.6-0.3,1.4c0.1,0.7,0.8,1.5,1.5,1.4
			c0.4,0,0.8-0.3,1-0.6C115.8,6.3,115.8,5.9,115.8,5.8z"/>
	</g>
	<g>
		<path class="st1" d="M116.8,4.3c0-0.2,0.1-0.5-0.1-0.8c0-0.1-0.1-0.1-0.1-0.2c0.1,0.4,0,0.6-0.1,0.7c-0.1,0.1-0.1,0.1-0.3,0.3
			c-0.1,0.1-0.2,0.3-0.3,0.3c0.3-0.2,0.7-0.2,0.8-0.1c0.2,0.2,0.1,0.5,0.1,0.5c-0.1,0.3-0.5,0.6-0.9,0.5c-0.3-0.1-0.4-0.4-0.4-0.4
			c-0.2,1.1-0.9,1.8-1.6,1.8c-0.1,0-0.4,0-0.7-0.3c0,0,0.4,0.6,1.1,0.6c0.4,0,0.8-0.3,1-0.6c0.2-0.4,0.2-0.8,0.2-0.9
			c0.1,0.1,0.3,0.1,0.5,0.1c0.5,0,1-0.6,0.9-1.1C117.2,4.5,116.9,4.3,116.8,4.3z"/>
	</g>
	<g>
		<path class="st0" d="M121.8,4.9c0,0-0.2,0-0.3-0.1c-0.1-0.1-0.1-0.4,0-0.5c0.2-0.3,0.7-0.4,0.9-0.2c0.1,0.1,0.2,0.3,0.1,0.4
			c0,0.1,0,0.1-0.1,0.1c0.2,0.4,0.2,0.8-0.1,0.9c-0.1,0.1-0.3,0.1-0.5,0C121.7,5.5,121.6,5.2,121.8,4.9z"/>
	</g>
	<g>
		<path class="st1" d="M122.3,5.7c0.2-0.1,0.3-0.6,0.1-0.9c0,0,0-0.1,0.1-0.1c0-0.1,0-0.2,0-0.3c0,0,0,0.2-0.1,0.4
			c0,0-0.1,0.1-0.1,0.1c0.2,0.2,0.2,0.6,0,0.7c-0.1,0.1-0.3,0.1-0.4,0.1c-0.1,0-0.2-0.1-0.2-0.1c0,0,0.1,0.2,0.2,0.2
			C122,5.8,122.2,5.8,122.3,5.7z"/>
	</g>
	<g>
		<path class="st0" d="M119.3,5.2c-0.1-0.1,0-0.2,0.1-0.3c0.1-0.1,0.2,0,0.3,0.1c0.1,0.1,0.1,0.3,0,0.4c0.2,0.3,0.1,0.6-0.1,0.7
			c-0.2,0.1-0.6,0-0.7-0.3C118.8,5.5,119,5.2,119.3,5.2z"/>
	</g>
	<g>
		<path class="st1" d="M119.6,5c0,0.1,0,0.2,0,0.2c0,0-0.1,0.1-0.1,0.1c0.1,0.3,0,0.6-0.2,0.7c-0.2,0.1-0.4-0.1-0.4-0.1
			c0.2,0.2,0.4,0.2,0.6,0.1c0.2-0.1,0.3-0.5,0.1-0.7C119.7,5.2,119.7,5.1,119.6,5z"/>
	</g>
	<g>
		<path class="st0" d="M120.7,6.3c-0.1-0.1-0.2-0.3-0.1-0.4c0.1-0.2,0.3-0.2,0.4-0.1c0.2,0.1,0.2,0.4,0.1,0.5
			c0.2,0.1,0.2,0.4,0.1,0.5c-0.1,0.1-0.3,0.1-0.4,0C120.6,6.7,120.6,6.5,120.7,6.3z"/>
	</g>
	<g>
		<path class="st0" d="M116.7,6.5c0-0.3,0.2-0.5,0.4-0.6c0.2,0,0.4,0.1,0.5,0.2c0.1,0.2,0,0.6-0.3,0.7c0,0.1-0.1,0.3-0.3,0.4
			c-0.1,0-0.2,0.1-0.4,0c-0.1-0.1-0.2-0.2-0.2-0.4C116.3,6.7,116.5,6.6,116.7,6.5z"/>
	</g>
	<g>
		<path class="st1" d="M117.6,6.2c0,0,0,0.3-0.3,0.5c-0.1,0.1-0.2,0.1-0.2,0.1c-0.1,0.2-0.3,0.4-0.5,0.4c-0.2,0-0.3-0.2-0.3-0.2
			c0,0,0,0.3,0.2,0.4c0.2,0.1,0.3,0,0.4,0c0.2-0.1,0.3-0.3,0.3-0.4C117.6,6.8,117.7,6.4,117.6,6.2z"/>
	</g>
	<g>
		<path class="st0" d="M124.3,9.2c-0.2-0.1-0.3-0.3-0.3-0.5c0-0.2,0.3-0.4,0.4-0.4c0.3-0.1,0.6,0.1,0.8,0.5c0.2,0,0.9,0,1.2,0.5
			c0.5,0.7-0.1,2.3-1.1,2.5c-0.5,0.1-1.3,0-1.6-0.6C123.4,10.6,123.6,9.7,124.3,9.2z"/>
	</g>
	<g>
		<path class="st1" d="M123.6,10.5c0,0.2,0,0.5,0.2,0.7c0.3,0.6,1.1,0.8,1.6,0.6c0.6-0.2,1.1-0.7,1.2-1.3c-0.1,0.2-0.3,0.4-0.6,0.6
			c-0.1,0.1-0.9,0.6-1.7,0.2C123.8,11.1,123.6,10.7,123.6,10.5z"/>
	</g>
	<g>
		<path class="st1" d="M125,8.9c0,0,0.1,0,0.1,0c0.1,0,0.1,0,0.2,0c0,0,0,0,0,0c0,0,0,0,0,0c0-0.1-0.1-0.2-0.2-0.3c0,0,0,0.1,0,0.2
			C125.1,8.8,125,8.9,125,8.9z"/>
	</g>
	<g>
		<path class="st1" d="M124.3,9.2C124.3,9.2,124.3,9.2,124.3,9.2C124.3,9.2,124.4,9.2,124.3,9.2c0.2-0.1,0.2-0.2,0.3-0.2
			c-0.1,0-0.2,0-0.3,0c-0.1,0-0.2-0.1-0.3-0.1c0,0,0,0.1,0.1,0.1c0,0,0,0,0,0C124.2,9.1,124.2,9.2,124.3,9.2z"/>
	</g>
	<g>
		<path class="st0" d="M119.7,12.7c0,0,0.2-0.3,0.6-0.4c0.4-0.1,0.7,0.2,0.7,0.3c0.2-0.1,0.6-0.3,1.1-0.3c0.6,0,1.3,0.3,1.4,0.9
			c0.1,0.6-0.7,1.2-1.2,1.4c-0.7,0.2-1.3,0-1.5,0c-0.2,0.1-0.6,0.5-1.3,0.6c-0.2,0-1,0.1-1.4-0.5c-0.4-0.5-0.1-1.4,0.5-1.8
			C119.1,12.5,119.6,12.7,119.7,12.7z"/>
	</g>
	<g>
		<path class="st1" d="M123.5,13.2c0-0.1,0-0.1-0.1-0.2c-0.1,0.2-0.4,0.6-0.9,0.9c-0.6,0.3-1.6,0.4-1.7,0c0-0.1-0.1-0.2,0.1-0.5
			c0,0-0.2,0.3-0.5,0.3c-0.2,0-0.3,0-0.3-0.1c0.1,0.1,0.3,0.3,0.3,0.5c0,0.4-0.7,0.5-1.2,0.6c-0.6,0-1-0.2-1.2-0.4
			c0,0.1,0,0.1,0.1,0.2c0,0.1,0.1,0.1,0.1,0.2c0.4,0.5,1.1,0.5,1.4,0.5c0.7,0,1.2-0.4,1.3-0.6c0.2,0.1,0.8,0.3,1.5,0
			C122.9,14.3,123.6,13.8,123.5,13.2z"/>
	</g>
	<g>
		<path class="st0" d="M115.5,11.6c0.3-0.2,0.8-0.1,1.1,0c0.3,0.2,0.6,0.5,0.7,0.9c0.1,0.3,0.1,0.7-0.1,1c-0.2,0.4-0.7,0.7-1.1,0.6
			c-0.3,0-0.6-0.2-0.8-0.4c-0.5-0.5-0.6-1.3-0.2-1.8C115.2,11.8,115.4,11.6,115.5,11.6z"/>
	</g>
	<g>
		<path class="st1" d="M115.3,13.7c0.2,0.2,0.5,0.3,0.8,0.4c0.5,0,0.9-0.2,1.1-0.6c0.1-0.2,0.1-0.4,0.1-0.7c-0.4,0.5-1,0.8-1.6,0.7
			c-0.5-0.1-0.8-0.4-0.9-0.5C114.9,13.1,115,13.4,115.3,13.7z"/>
	</g>
	<g>
		<path class="st0" d="M116.2,8.3c0.2-0.1,0.5,0,0.5,0.2c0,0,0.1,0.2,0,0.3c-0.1,0.1-0.2,0.2-0.4,0.2c0,0.1-0.1,0.4-0.4,0.6
			c-0.3,0.2-0.8,0.1-1-0.2c-0.4-0.4-0.1-1.2,0.3-1.4c0.2-0.1,0.4-0.1,0.7,0C116,8.1,116.1,8.2,116.2,8.3z"/>
	</g>
	<g>
		<path class="st1" d="M116.7,8.8c0-0.1,0-0.1,0-0.2c0,0-0.1,0.1-0.2,0.2c-0.2,0.1-0.3,0-0.3,0c0,0.1-0.1,0.3-0.4,0.4
			c-0.3,0.2-0.5,0.1-0.6,0.1c-0.3-0.1-0.4-0.3-0.5-0.3c0,0.1,0,0.1,0.1,0.2c0,0.1,0.1,0.1,0.1,0.2c0.2,0.2,0.6,0.4,1,0.2
			c0.3-0.2,0.4-0.5,0.4-0.6C116.5,9,116.7,8.9,116.7,8.8z"/>
	</g>
	<g>
		<path class="st0" d="M116.9,8.8c0.1-0.1,0.3-0.1,0.4,0c0,0,0.1,0.1,0.1,0.1c0.1,0.1,0,0.2,0,0.3c-0.1,0.1-0.2,0.1-0.3,0.1
			C116.8,9.3,116.6,9,116.9,8.8z"/>
	</g>
	<g>
		<path class="st0" d="M116.9,9.7c0.1,0,0.1,0,0.2,0c0.1,0,0.1,0.1,0.1,0.1c0,0,0,0,0,0.1c-0.1,0.1-0.2,0.1-0.3,0.1
			c0,0-0.1-0.1-0.1-0.1C116.7,9.8,116.8,9.7,116.9,9.7z"/>
	</g>
	<g>
		<path class="st0" d="M116.9,10.3c0.1,0,0.1,0.1,0.2,0.1c0,0.1,0,0.2,0,0.2c0,0-0.1,0-0.1,0c-0.1,0-0.2-0.1-0.3-0.2
			C116.6,10.4,116.8,10.3,116.9,10.3z"/>
	</g>
	<g>
		<path class="st0" d="M119.3,11.1c0,0.1,0.1,0.1,0.1,0.2c0,0.1-0.1,0.1-0.1,0.2c-0.1,0.1-0.2,0.1-0.3,0.1c-0.2,0-0.3-0.2-0.2-0.4
			c0-0.1,0.2-0.2,0.3-0.2C119.1,11,119.2,11,119.3,11.1z"/>
	</g>
	<g>
		<path class="st0" d="M118.4,11.1c0.1,0,0.1,0.1,0.2,0.1c0,0,0,0.1,0,0.1c0,0-0.1,0.1-0.1,0.1c-0.1,0-0.1,0-0.1,0
			c0,0-0.1-0.1-0.1-0.2C118.2,11.2,118.3,11.1,118.4,11.1z"/>
	</g>
	<g>
		<path class="st0" d="M117.9,10.9c0.1,0,0.1,0,0.2,0.1c0,0.1,0,0.1,0,0.2c0,0-0.1,0.1-0.1,0.1c0,0-0.1,0-0.1,0c0,0-0.1,0-0.1,0
			c0,0-0.1-0.1-0.1-0.1C117.7,11,117.8,10.9,117.9,10.9z"/>
	</g>
	<g>
		<path class="st0" d="M120.5,10.5c0.1,0,0.3-0.1,0.5-0.1c0.3,0,0.6,0.3,0.5,0.5c0,0.2-0.3,0.4-0.5,0.4c-0.3,0-0.4-0.2-0.5-0.2
			c-0.1,0.1-0.3,0.1-0.4,0.1c-0.1-0.1-0.2-0.2-0.2-0.3C120,10.6,120.3,10.4,120.5,10.5z"/>
	</g>
	<g>
		<path class="st1" d="M121.4,10.6L121.4,10.6c0,0,0,0.2-0.1,0.3c-0.1,0.2-0.3,0.1-0.4,0.1c-0.2,0-0.3-0.1-0.4-0.2
			c-0.1,0-0.2,0.1-0.4,0.1c-0.1,0-0.2-0.1-0.2-0.1c0,0,0,0.2,0.2,0.2c0.1,0.1,0.3,0.1,0.4-0.1c0,0,0.2,0.2,0.5,0.2
			c0.2,0,0.5-0.2,0.5-0.4C121.6,10.8,121.5,10.6,121.4,10.6z"/>
	</g>
	<g>
		<path class="st0" d="M123.6,9.7c-0.2,0.4-0.6,0.6-0.9,0.5c-0.3-0.1-0.4-0.6-0.2-1c0.2-0.4,0.6-0.6,0.9-0.5
			C123.7,8.9,123.8,9.3,123.6,9.7z"/>
	</g>
	<g>
		<path class="st1" d="M123.7,9.3c-0.2,0.5-0.6,0.7-0.9,0.6c-0.2-0.1-0.3-0.2-0.4-0.3c0,0,0,0.4,0.3,0.5c0.3,0.1,0.7-0.1,0.9-0.5
			C123.6,9.6,123.7,9.4,123.7,9.3z"/>
	</g>
	<g>
		<path class="st0" d="M118.4,8c0-0.1,0-0.2,0.1-0.3c0.1-0.1,0.3,0,0.3,0.1c0,0.1,0,0.2-0.1,0.2c0,0.2-0.1,0.3-0.2,0.3
			c-0.1,0-0.1,0-0.2-0.1c-0.1-0.1-0.1-0.2,0-0.3C118.3,8,118.3,8,118.4,8z"/>
	</g>
	<g>
		<path class="st0" d="M119.4,7.9c0.1,0,0.2,0,0.2,0c0.2,0,0.3,0.2,0.3,0.4c0,0.1,0,0.3-0.1,0.4c-0.1,0.1-0.2,0.2-0.3,0.2
			c-0.1,0-0.2,0-0.2,0c-0.1-0.1-0.1-0.2-0.2-0.3C119.1,8.3,119.2,8,119.4,7.9z"/>
	</g>
	<g>
		<path class="st1" d="M119.8,8.7c0.1-0.1,0.1-0.2,0.1-0.4c0,0,0,0,0-0.1c0,0,0,0.3-0.3,0.4c0,0-0.2,0.1-0.4,0
			c-0.1-0.1-0.2-0.3-0.2-0.3c0,0,0,0,0,0c0,0.1,0,0.1,0,0.2c0,0.1,0.1,0.2,0.2,0.3c0.1,0,0.2,0.1,0.2,0
			C119.6,8.8,119.8,8.8,119.8,8.7z"/>
	</g>
	<g>
		<path class="st0" d="M123.4,7.7c0,0-0.2-0.1-0.4-0.1c-0.1,0-0.2,0.1-0.2,0.3c0,0.1,0.1,0.2,0.1,0.2c0.1,0.1,0.3,0.1,0.4-0.1
			c0.1,0.1,0.3,0.1,0.3,0c0.1-0.1,0.1-0.2,0.1-0.2C123.6,7.7,123.5,7.7,123.4,7.7z"/>
	</g>
</g>
<g>
	<g>
		<path class="st0" d="M98.9,4.4c0.1,0,0.2-0.1,0.3-0.2c0.3-0.3,0.4-0.7,0.3-1.1c-0.2-0.6-1-1.1-1.6-0.8c-0.6,0.2-0.7,0.9-0.7,1
			c-0.1,0-1.2,0.6-1.3,1.7c0,0.1-0.1,1.2,0.7,1.6c0.7,0.4,1.5-0.1,1.6-0.2C98.8,6.1,99.1,5.3,98.9,4.4z"/>
	</g>
	<g>
		<path class="st0" d="M100,4.1c0.1,0,0.2,0,0.3,0.1c0.1,0.1,0.2,0.3,0.1,0.4c0,0.1-0.1,0.3-0.2,0.4c-0.1,0.1-0.2,0.3-0.4,0.3
			c-0.2,0-0.4,0-0.5-0.1c-0.1-0.1-0.1-0.2-0.1-0.3c0-0.2,0.1-0.3,0.1-0.3c0.1-0.1,0.1-0.2,0.2-0.2C99.6,4.3,99.8,4.1,100,4.1z"/>
	</g>
	<g>
		<path class="st0" d="M101.2,5.5c0,0,0.1,0,0.1,0c0,0,0.1,0.1,0,0.1c0,0-0.1,0.1-0.1,0.1c0,0-0.1,0-0.1,0c0,0-0.1,0-0.1-0.1
			C101,5.5,101.1,5.5,101.2,5.5z"/>
	</g>
	<g>
		<path class="st0" d="M100.7,5.9c0.1,0,0.2,0,0.3,0c0.1,0,0.1,0.1,0.1,0.2c0,0.1,0,0.1,0,0.2c0,0.1-0.1,0.1-0.1,0.1
			c-0.1,0-0.1,0.1-0.1,0.1c-0.1,0-0.2,0-0.2,0c-0.1,0-0.1-0.1-0.2-0.1c0-0.1,0-0.2,0-0.3C100.5,6,100.6,5.9,100.7,5.9z"/>
	</g>
	<g>
		<path class="st0" d="M100.2,6.5c0.1,0,0.2,0,0.3,0c0.1,0,0.2,0.1,0.2,0.2c0,0.1,0,0.2-0.1,0.2C100.5,7,100.4,7,100.4,7
			c-0.1,0-0.1,0-0.2,0C100.1,7,100,7,100,6.9C99.9,6.7,100,6.6,100.2,6.5z"/>
	</g>
	<g>
		<path class="st1" d="M99.6,3.4c0,0.1-0.1,0.6-0.6,0.8c-0.1,0-0.2,0.1-0.3,0.1c0.1,1.2-0.6,2.1-1.4,2.2c-0.6,0.1-1.1-0.2-1.2-0.3
			c0.1,0.1,0.2,0.4,0.5,0.5c0.7,0.4,1.5-0.1,1.6-0.2c0.6-0.4,0.9-1.2,0.7-2.1c0.1,0,0.2-0.1,0.3-0.2C99.5,4.1,99.6,3.7,99.6,3.4z"/>
	</g>
	<g>
		<path class="st0" d="M101.9,2.6c0-0.1,0.1-0.2,0.2-0.2c0.1,0,0.1,0,0.2,0c0.1,0.1,0.2,0.2,0.2,0.3c0,0.1,0,0.2-0.1,0.3
			C102.1,3.1,101.9,2.8,101.9,2.6z"/>
	</g>
	<g>
		<path class="st0" d="M103.2,2.5c0-0.1,0.1-0.3,0.2-0.3c0.1,0,0.2,0,0.3,0c0.1,0,0.3,0.1,0.4,0.1c0.1,0.1,0.2,0.2,0.2,0.3
			c0,0.1-0.1,0.3-0.2,0.4c-0.1,0-0.1,0-0.2,0C103.7,3,103.1,2.9,103.2,2.5z"/>
	</g>
	<g>
		<path class="st0" d="M102.4,1.4c0,0-0.1-0.3,0-0.5c0.1-0.2,0.2-0.2,0.3-0.3c0.4-0.2,0.8-0.1,1-0.1c0.2,0,0.6,0.2,0.8,0.6
			c0.1,0.1,0.1,0.3,0.1,0.4c0,0.1-0.2,0.2-0.3,0.3c-0.5,0.3-1.1,0.2-1.5-0.1C102.6,1.7,102.5,1.6,102.4,1.4z"/>
	</g>
	<g>
		<path class="st1" d="M102.4,1.4L102.4,1.4c0.1,0.1,0.2,0.3,0.4,0.3c0.5,0.3,1.1,0.3,1.5,0.1c0.1-0.1,0.3-0.2,0.3-0.3
			c0-0.1,0-0.1,0-0.2c0,0,0,0.1,0,0.1c-0.2,0.4-1,0.5-1.6,0.3C102.8,1.7,102.6,1.6,102.4,1.4z"/>
	</g>
	<g>
		<path class="st0" d="M103.1,4.9c0-0.1,0-0.2,0.1-0.2c0.1,0,0.1,0,0.2,0c0.1,0.1,0.1,0.2-0.1,0.4c0,0,0.1,0.2,0,0.4
			c0,0-0.1,0.2-0.3,0.2c-0.1,0-0.2-0.1-0.2-0.1c-0.1-0.2-0.1-0.5,0.1-0.6C103,4.9,103.1,4.9,103.1,4.9z"/>
	</g>
	<g>
		<path class="st1" d="M103.3,5c0.1,0.2,0,0.4-0.1,0.5c-0.1,0.1-0.3,0-0.3,0c0,0,0,0.1,0.1,0.1c0,0,0.1,0.1,0.2,0.1
			c0.2,0,0.3-0.2,0.3-0.2C103.4,5.3,103.4,5.1,103.3,5c0.1,0,0.1,0,0.1,0c0,0,0,0,0-0.1c0,0,0,0,0,0c0,0,0,0-0.1,0.1
			C103.4,5,103.3,5,103.3,5C103.3,5,103.3,5,103.3,5z"/>
	</g>
	<g>
		<path class="st0" d="M105.8,4.5c-0.2,0-0.3-0.2-0.3-0.3c0-0.2,0.1-0.3,0.2-0.3c0.1-0.1,0.3-0.1,0.5,0c0.2,0.1,0.2,0.3,0.1,0.5
			c0,0,0.1,0.1,0.2,0.3c0,0.1,0.1,0.4-0.1,0.5c-0.1,0.1-0.2,0.1-0.3,0C105.9,5,105.8,4.8,105.8,4.5z"/>
	</g>
	<g>
		<path class="st1" d="M106.4,4.5c0,0,0.1,0.2-0.1,0.4c0,0-0.1,0.1-0.2,0.1c-0.1,0-0.2-0.1-0.3-0.2c0,0,0,0.2,0.2,0.3
			c0.1,0,0.2,0,0.3,0C106.5,5,106.5,4.7,106.4,4.5C106.5,4.5,106.4,4.5,106.4,4.5z"/>
	</g>
	<g>
		<path class="st0" d="M107.7,3.8c0.2-0.3,0.6-0.6,1-0.5c0.3,0,0.6,0.3,0.8,0.6c0.2,0.3,0.2,0.6,0.2,1c0,0.3,0,0.6-0.1,0.9
			c-0.2,0.5-0.8,0.8-1.3,0.6c-0.4-0.1-0.7-0.6-0.7-1C107.5,4.7,107.5,4.3,107.7,3.8z"/>
	</g>
	<path class="st0" d="M107.4,5.8c-0.1-0.1-0.2-0.2-0.4-0.2c-0.1,0-0.2,0-0.3,0.1c-0.1,0.1-0.1,0.2-0.1,0.3c0,0.1,0,0.2,0.1,0.3
		l0.1,0.1c0.1,0.1,0.3,0.2,0.4,0.1c0.2,0,0.3-0.2,0.3-0.3C107.6,6.1,107.5,5.9,107.4,5.8z"/>
	<g>
		<path class="st0" d="M107.9,7.8c0,0.1-0.1,0.2-0.2,0.2c-0.1,0-0.2-0.1-0.2-0.2c0-0.1,0.1-0.2,0.2-0.2
			C107.8,7.6,107.9,7.7,107.9,7.8z"/>
	</g>
	<g>
		<path class="st0" d="M107.3,7.8c0,0.1-0.1,0.2-0.2,0.2s-0.2-0.1-0.2-0.2c0-0.1,0.1-0.2,0.2-0.2S107.3,7.7,107.3,7.8z"/>
	</g>
	<g>
		<path class="st0" d="M105,5.9c0,0.1-0.1,0.2-0.2,0.2c-0.1,0-0.2-0.1-0.2-0.2c0-0.1,0.1-0.2,0.2-0.2C104.9,5.6,105,5.7,105,5.9z"/>
	</g>
	<g>
		<path class="st0" d="M105.2,6.2c0-0.1-0.1-0.3-0.3-0.3c-0.1,0-0.3,0.1-0.3,0.3c0,0.1,0.1,0.3,0.3,0.3
			C105.1,6.4,105.2,6.3,105.2,6.2z"/>
	</g>
	<g>
		<path class="st0" d="M103.7,8.3c0,0.2-0.2,0.4-0.4,0.4s-0.4-0.2-0.4-0.4c0-0.2,0.2-0.4,0.4-0.4S103.7,8.1,103.7,8.3z"/>
	</g>
	<g>
		<path class="st0" d="M102.4,7.9c0,0.1-0.1,0.1-0.1,0.1c-0.1,0-0.1-0.1-0.1-0.1c0-0.1,0.1-0.1,0.1-0.1
			C102.3,7.8,102.4,7.8,102.4,7.9z"/>
	</g>
	<g>
		<path class="st0" d="M102.2,8.1c0,0.1-0.1,0.2-0.2,0.2c-0.1,0-0.2-0.1-0.2-0.2c0-0.1,0.1-0.2,0.2-0.2C102.1,8,102.2,8,102.2,8.1z"
			/>
	</g>
	<g>
		<path class="st0" d="M100.7,9.1c0,0.2-0.1,0.3-0.3,0.3s-0.3-0.1-0.3-0.3c0-0.2,0.1-0.3,0.3-0.3S100.7,9,100.7,9.1z"/>
	</g>
	<g>
		<path class="st0" d="M100.5,9.9c0,0.1-0.1,0.2-0.2,0.2c-0.1,0-0.2-0.1-0.2-0.2c0-0.1,0.1-0.2,0.2-0.2
			C100.4,9.8,100.5,9.8,100.5,9.9z"/>
	</g>
	<g>
		<path class="st0" d="M100.6,10.7c0,0.1-0.1,0.2-0.2,0.2c-0.1,0-0.2-0.1-0.2-0.2c0-0.1,0.1-0.2,0.2-0.2
			C100.5,10.5,100.6,10.6,100.6,10.7z"/>
	</g>
	<g>
		<path class="st0" d="M101.8,11.3c0,0.1-0.1,0.1-0.2,0.1c-0.1,0-0.2-0.1-0.2-0.1s0.1-0.1,0.2-0.1C101.7,11.2,101.8,11.3,101.8,11.3
			z"/>
	</g>
	<g>
		<path class="st0" d="M102.2,11.5c0,0.1-0.1,0.1-0.1,0.1s-0.1,0-0.1-0.1c0-0.1,0.1-0.1,0.1-0.1S102.2,11.5,102.2,11.5z"/>
	</g>
	<g>
		<path class="st0" d="M103.1,11.7c0,0.1-0.2,0.2-0.4,0.2c-0.2,0-0.4-0.1-0.4-0.2c0-0.1,0.2-0.2,0.4-0.2
			C103,11.5,103.1,11.5,103.1,11.7z"/>
	</g>
	<g>
		<ellipse class="st0" cx="104.3" cy="11" rx="0.3" ry="0.3"/>
	</g>
	<g>
		<path class="st0" d="M104.4,11c0,0.2,0.2,0.3,0.5,0.3c0.3,0,0.5-0.1,0.5-0.3c0-0.2-0.2-0.3-0.5-0.3
			C104.7,10.7,104.4,10.9,104.4,11z"/>
	</g>
	<g>
		<path class="st0" d="M107.1,8.9c0.1-0.1,0.3-0.1,0.4-0.1c0.1,0,0.2,0.1,0.2,0.2c0,0.1,0.1,0.2,0.1,0.3c0,0.1,0,0.3,0,0.4
			c0,0.1-0.2,0.3-0.3,0.3c-0.1,0.1-0.3,0.1-0.4,0.1c-0.1,0-0.1,0-0.2-0.1c-0.1-0.1-0.2-0.2-0.1-0.4C106.7,9.4,106.9,9.1,107.1,8.9z"
			/>
	</g>
	<g>
		<path class="st0" d="M108.9,9.2c-0.2-0.1-0.3-0.3-0.3-0.5c0-0.3,0.4-0.5,0.7-0.4c0.3,0.1,0.5,0.3,0.5,0.6c0.2,0,0.8,0.1,1.1,0.4
			c0.6,0.7,0.2,2.5-0.9,2.8c-0.5,0.2-1.2,0-1.5-0.4C108,11,108.1,9.9,108.9,9.2z"/>
	</g>
	<g>
		<path class="st1" d="M109.6,5.7c0.1-0.3,0.1-0.6,0.1-0.9c0-0.2,0-0.3-0.1-0.5c-0.1,0.8-0.6,1.5-1.2,1.6c-0.3,0.1-0.6-0.1-0.8-0.2
			c0.1,0.1,0.2,0.4,0.6,0.5C108.8,6.4,109.4,6.2,109.6,5.7z"/>
	</g>
	<g>
		<path class="st1" d="M108.3,11.2c0,0.1,0.1,0.3,0.2,0.4c0.4,0.5,1,0.6,1.5,0.4c0.6-0.2,1-0.8,1.1-1.4c-0.5,0.7-1.3,1.2-2,1
			C108.8,11.6,108.5,11.4,108.3,11.2z"/>
	</g>
	<g>
		<path class="st0" d="M103.4,13.7c0.1-0.1,0.3-0.3,0.7-0.3c0.5-0.1,0.8,0.2,0.9,0.3c1.2-0.4,2.2-0.4,2.5,0.1
			c0.1,0.2,0.1,0.5,0.1,0.5c-0.2,0.8-1.8,1.4-2.8,0.9c0,0,0,0,0,0c-0.8,0.8-1.9,1-2.4,0.6c-0.3-0.2-0.5-0.7-0.4-1.1
			C102,14.1,102.6,13.6,103.4,13.7z"/>
	</g>
	<g>
		<path class="st1" d="M107.3,13.6c0,0.2-0.1,0.4-0.3,0.7c-0.5,0.7-1.3,0.7-1.5,0.7c-0.3,0-0.6-0.1-0.8-0.2c0-0.1,0.1-0.2,0.1-0.3
			c0-0.1,0-0.2,0-0.2c0,0-0.3,0.3-0.7,0.3c-0.3,0-0.5-0.1-0.5-0.2c0,0.1,0.1,0.1,0.1,0.2c0.1,0.1,0.2,0.2,0.3,0.2
			c-0.1,0.1-0.3,0.4-0.7,0.5c-0.5,0.2-1.1,0-1.5-0.5c0.1,0.5,0.3,0.7,0.4,0.7c0.6,0.4,1.6,0.2,2.4-0.6c0,0,0,0,0,0
			c0.9,0.5,2.6-0.1,2.8-0.9c0,0,0.1-0.3-0.1-0.5C107.4,13.7,107.4,13.6,107.3,13.6z"/>
	</g>
	<g>
		<path class="st0" d="M98.1,12.6c0,0.2,0,0.4,0,0.6c0.1,0.3,0.2,0.6,0.4,0.9c0.2,0.3,0.5,0.5,0.8,0.6c0.3,0.1,0.7,0,0.9-0.2
			c0.3-0.2,0.4-0.6,0.3-0.9c-0.1-0.3-0.5-0.5-0.7-0.8c-0.1-0.1-0.2-0.3-0.3-0.5C99.3,12.2,99.2,12,99,12
			C98.5,11.7,98.2,12.1,98.1,12.6z"/>
	</g>
	<g>
		<path class="st1" d="M100.2,14.5c0.3-0.2,0.4-0.6,0.3-0.9c0-0.1-0.1-0.1-0.1-0.2c-0.1,0.4-0.5,0.8-0.9,0.8c-0.5,0.1-1-0.2-1.2-0.6
			c0,0.1,0.1,0.3,0.2,0.4c0.2,0.3,0.5,0.5,0.8,0.6C99.6,14.8,100,14.7,100.2,14.5z"/>
	</g>
	<g>
		<path class="st0" d="M99.2,8.4c0.1-0.1,0.3,0,0.4,0.1c0.1,0.1,0,0.2,0,0.2c0,0.1-0.1,0.2-0.2,0.2c0,0,0.1,0.3-0.1,0.6
			c-0.1,0.1-0.3,0.2-0.4,0.2c-0.4-0.1-0.7-0.7-0.5-1.2c0-0.1,0.1-0.4,0.4-0.4C98.9,8.1,99.1,8.2,99.2,8.4z"/>
	</g>
	<g>
		<path class="st1" d="M99.6,8.7c0,0,0,0,0-0.1c0,0,0,0.1-0.2,0.2c-0.1,0-0.1,0-0.2,0c0,0.4-0.3,0.7-0.5,0.7c-0.2,0-0.3-0.1-0.4-0.3
			c0,0.1,0.1,0.2,0.2,0.4c0.1,0.1,0.2,0.2,0.3,0.2c0.1,0,0.3,0,0.4-0.2c0.2-0.2,0.1-0.6,0.1-0.6C99.5,8.9,99.6,8.8,99.6,8.7z"/>
	</g>
</g>
<g>
	<g>
		<path class="st0" d="M130.5,4.5c-0.1-0.3,0-0.7,0.3-0.8c0.3-0.1,0.7,0.1,0.8,0.4c0.1,0.3-0.1,0.5-0.1,0.5
			c-0.2,0.3-0.4,0.3-0.5,0.3c0,0.1,0.2,0.9-0.4,1.4c-0.2,0.2-0.7,0.5-1,0.3c-0.4-0.2-0.4-0.8-0.4-0.9c0,0,0-0.7,0.6-1.1
			C130.2,4.5,130.4,4.5,130.5,4.5z"/>
	</g>
	<g>
		<path class="st1" d="M129.8,6.6c0.4,0.2,0.8-0.1,1-0.3c0.5-0.5,0.4-1.3,0.4-1.4c0,0.1,0,0.8-0.5,1.2c-0.1,0.1-0.4,0.3-0.8,0.2
			c-0.3-0.1-0.5-0.4-0.5-0.5C129.4,6.1,129.5,6.4,129.8,6.6z"/>
	</g>
	<g>
		<path class="st0" d="M136.4,2.4c0,0.3-0.3,0.5-0.7,0.5s-0.7-0.2-0.7-0.5c0-0.3,0.3-0.5,0.7-0.5S136.4,2.1,136.4,2.4z"/>
	</g>
	<g>
		<path class="st0" d="M136.3,3.6c0,0.2-0.2,0.3-0.3,0.3s-0.3-0.1-0.3-0.3c0-0.2,0.2-0.3,0.3-0.3S136.3,3.5,136.3,3.6z"/>
	</g>
	<g>
		<circle class="st0" cx="134.7" cy="3.9" r="0.2"/>
	</g>
	<g>
		<path class="st0" d="M132.9,5.2c0.2,0.1,0.2,0.3,0.1,0.5c-0.1,0.2-0.3,0.3-0.5,0.2c-0.2-0.1-0.2-0.3-0.1-0.5S132.7,5.1,132.9,5.2z
			"/>
	</g>
	<g>
		<path class="st0" d="M139.5,5c0.1-0.2,0.4-0.4,0.7-0.4c0.3,0,0.5,0.2,0.7,0.4c0.1,0.2,0.2,0.5,0.2,0.7c0,0.3,0,0.5-0.1,0.8
			c-0.1,0.2-0.4,0.4-0.7,0.4c-0.2,0-0.5-0.2-0.6-0.4C139.3,6,139.2,5.4,139.5,5z"/>
	</g>
	<g>
		<path class="st1" d="M140.9,6.4c0.1-0.2,0.1-0.5,0.1-0.8c0,0,0,0,0,0c0,0.1,0,0.4-0.3,0.7c0,0-0.4,0.3-0.8,0.2
			c-0.3-0.1-0.5-0.3-0.5-0.4c0,0.1,0.1,0.2,0.2,0.3c0.1,0.2,0.3,0.3,0.6,0.4C140.5,6.8,140.7,6.6,140.9,6.4z"/>
	</g>
	<g>
		<path class="st0" d="M141,9.1c0.3,0,0.6,0.1,0.8,0.3c0.1,0.2,0.2,0.4,0.2,0.6c0,0.3,0,0.5-0.1,0.8s-0.3,0.4-0.5,0.5
			c-0.2,0.1-0.5,0.1-0.7-0.1c-0.2-0.1-0.3-0.4-0.4-0.6c0-0.2,0-0.4,0-0.5c0-0.1,0.1-0.3,0.2-0.5C140.5,9.5,140.7,9.2,141,9.1z"/>
	</g>
	<g>
		<path class="st0" d="M135.8,13.5c0,0,0.1-0.2,0.3-0.3c0.3-0.1,0.6,0.1,0.6,0.1c0.1-0.1,0.6-0.5,1.2-0.3c0.4,0.1,0.9,0.4,0.9,0.8
			c0,0.5-0.7,0.9-1.3,0.9c-0.4,0-0.8-0.2-0.9-0.3c-0.1,0.1-0.2,0.3-0.4,0.4c0,0-0.6,0.3-1.1,0.1c-0.1,0-0.4-0.2-0.4-0.6
			c0-0.3,0.2-0.5,0.2-0.5C135.1,13.5,135.5,13.4,135.8,13.5z"/>
	</g>
	<g>
		<path class="st0" d="M131.1,12.6c0-0.2,0-0.4,0.2-0.6c0.2-0.2,0.5-0.2,0.8-0.1c0.2,0.1,0.4,0.3,0.6,0.5c0.1,0.2,0.2,0.4,0.2,0.5
			c0,0.2,0,0.4-0.2,0.6c-0.1,0.1-0.3,0.2-0.5,0.2C131.6,13.8,131.1,13.2,131.1,12.6z"/>
	</g>
	<g>
		<path class="st0" d="M132.2,8.6c-0.1-0.1-0.3-0.2-0.4-0.1c-0.2,0.1-0.2,0.4-0.1,0.6c0.1,0.1,0.2,0.2,0.4,0.2
			c0.1,0,0.2-0.2,0.2-0.4c0,0,0.1,0,0.1-0.1c0,0,0-0.1,0-0.2C132.3,8.6,132.2,8.6,132.2,8.6z"/>
	</g>
	<g>
		<path class="st1" d="M132.2,8.9c0,0.1-0.1,0.3-0.2,0.3c-0.2,0.1-0.3,0-0.3,0c0,0,0,0,0,0c0.1,0.1,0.2,0.2,0.4,0.1
			C132.1,9.2,132.2,9.1,132.2,8.9c0,0.1,0.1,0,0.1,0c0,0,0,0,0,0C132.3,8.8,132.3,8.9,132.2,8.9C132.2,8.9,132.2,8.9,132.2,8.9z"/>
	</g>
	<g>
		<path class="st1" d="M132.1,13.5c-0.3,0-0.5-0.1-0.8-0.2c0.2,0.3,0.5,0.5,0.9,0.4c0.2,0,0.3-0.1,0.5-0.2c0.1-0.1,0.2-0.4,0.2-0.5
			C132.7,13.3,132.4,13.5,132.1,13.5z"/>
	</g>
	<g>
		<path class="st1" d="M138.8,13.8C138.8,13.8,138.8,13.8,138.8,13.8c-0.1,0-0.2,0.2-0.4,0.4c-0.1,0.1-0.5,0.3-1,0.3
			c-0.3,0-0.6-0.2-0.7-0.3c0,0,0.1-0.1,0.1-0.2c0-0.1,0-0.1,0-0.2c0,0-0.1,0.2-0.3,0.3c-0.2,0.1-0.4,0-0.5,0c0,0,0.1,0.1,0.2,0.1
			c0.1,0.1,0.3,0,0.3,0c-0.2,0.3-0.6,0.5-1,0.5c-0.5,0-0.7-0.4-0.8-0.4c0.1,0.2,0.2,0.4,0.4,0.5c0,0,0,0,0,0c0.5,0.3,1-0.1,1.1-0.1
			c0.2-0.1,0.3-0.3,0.4-0.4c0.1,0.1,0.5,0.3,0.9,0.3C138.1,14.7,138.8,14.3,138.8,13.8z"/>
	</g>
	<g>
		<path class="st0" d="M138.9,9.1c0.1,0,0.2,0,0.3,0c0.1,0.1,0.1,0.2,0.1,0.3c0,0.1-0.1,0.3-0.2,0.4c0,0-0.1,0.1-0.1,0.1
			c-0.1,0.1-0.3,0-0.4-0.1c-0.1-0.1-0.1-0.2-0.1-0.3c0-0.1,0.1-0.2,0.1-0.3C138.8,9.2,138.9,9.2,138.9,9.1z"/>
	</g>
	<g>
		<path class="st0" d="M140.3,8.6c0.1,0,0.2,0,0.2,0c0.1,0,0.1,0,0.2,0.1c0.1,0,0.1,0.1,0.1,0.2c0,0.1-0.1,0.1-0.1,0.2
			c-0.1,0.1-0.3,0.1-0.3,0c0,0-0.2-0.1-0.2-0.2C140.1,8.8,140.2,8.7,140.3,8.6z"/>
	</g>
	<g>
		<path class="st0" d="M138.6,6.3c0.1,0,0.1,0,0.2,0.1c0.1,0.1,0.1,0.1,0.1,0.2c0,0.1,0,0.2-0.1,0.2c0,0-0.1,0.1-0.1,0.1
			c-0.1,0-0.3-0.1-0.3-0.2c0-0.1,0-0.2,0-0.3C138.4,6.3,138.5,6.3,138.6,6.3z"/>
	</g>
	<g>
		<path class="st0" d="M133.4,6.5c0.1-0.1,0.2,0,0.3,0.1c0,0,0.1,0.1,0.1,0.1c0,0.1,0,0.1-0.1,0.1c0,0-0.1,0.1-0.1,0.1
			c-0.1,0-0.2,0-0.3-0.1C133.3,6.7,133.3,6.6,133.4,6.5z"/>
	</g>
	<g>
		<path class="st0" d="M133.1,7.1c0.1,0,0.1,0,0.2,0.1c0,0,0,0.1,0,0.1c0,0-0.1,0.1-0.1,0.1c-0.1,0-0.1,0-0.2,0c0,0-0.1-0.1,0-0.2
			C132.9,7.1,133,7.1,133.1,7.1z"/>
	</g>
	<g>
		<path class="st0" d="M133.1,9c0.1,0,0.2,0,0.2,0s0.1,0.1,0,0.2c0,0-0.1,0.1-0.1,0.1C133,9.3,133,9.1,133.1,9z"/>
	</g>
	<g>
		<path class="st0" d="M135.3,5.8c0,0,0.1-0.1,0.1,0c0.1,0,0.1,0,0.1,0.1c0,0.1,0,0.1,0,0.2c0,0-0.1,0.1-0.1,0.1c0,0-0.1,0-0.1,0
			c0,0,0-0.1,0-0.1C135.3,5.9,135.3,5.8,135.3,5.8z"/>
	</g>
	<g>
		<path class="st0" d="M135.4,8.2c0.1,0,0.2,0,0.3,0.1c0,0.1,0,0.2-0.1,0.3c-0.1,0-0.1,0-0.2,0c-0.1,0-0.1,0-0.1-0.1
			c-0.1-0.1-0.1-0.1-0.1-0.2C135.3,8.3,135.4,8.2,135.4,8.2z"/>
	</g>
	<g>
		<path class="st0" d="M134.9,11.2c0,0,0.1,0,0.1,0c0,0,0.1,0,0.1,0c0,0,0.1,0.1,0.1,0.1c0,0,0,0.1-0.1,0.1c0,0-0.1,0-0.1,0
			c-0.1,0-0.1,0-0.2,0C134.8,11.3,134.8,11.3,134.9,11.2C134.9,11.2,134.9,11.2,134.9,11.2z"/>
	</g>
	<g>
		<path class="st0" d="M136.4,10.6c0,0-0.1,0-0.1,0.1c0,0-0.1,0.1-0.1,0.1c0,0.1,0.1,0.1,0.1,0.1c0.1,0,0.2,0,0.2,0
			c0,0,0.1,0.1,0.2,0.1c0,0,0.1,0,0.2-0.1c0-0.1,0-0.1,0-0.2c0,0-0.1-0.1-0.2-0.1c-0.1,0-0.1,0-0.2,0
			C136.6,10.6,136.5,10.6,136.4,10.6C136.5,10.6,136.5,10.6,136.4,10.6z"/>
	</g>
	<g>
		<path class="st0" d="M137.6,5.3c0-0.1-0.1-0.1,0-0.2c0-0.1,0.1-0.1,0.2-0.1c0.1,0,0.1,0.1,0.2,0.1c0,0.1,0,0.2,0,0.2
			c0,0,0.1,0.1,0.1,0.1c0,0,0,0.1,0,0.1c0,0-0.1,0-0.1,0c-0.1,0-0.1-0.1-0.1-0.2C137.7,5.3,137.6,5.3,137.6,5.3z"/>
	</g>
</g>
<g id="XMLID_00000147214482915411668810000004493492746917028240_">
	<g>
		<path class="st0" d="M154.5,5.6c0-0.1,0.1-0.2,0.2-0.2c0.2,0,0.3,0.1,0.4,0.2c0.1,0.2,0.1,0.3,0,0.5c0,0.1-0.1,0.2-0.2,0.3
			c0,0-0.1,0.1-0.3,0c-0.2-0.1-0.2-0.3-0.3-0.4C154.4,6,154.4,5.8,154.5,5.6z"/>
	</g>
	<g>
		<path class="st0" d="M151.1,3.6c0,0.1,0,0.1,0,0.2c0,0.1,0.1,0.1,0.2,0.1s0.1,0,0.2,0c0.1,0,0.2,0,0.2-0.1c0,0,0-0.1,0-0.2
			c0,0-0.1-0.1-0.1-0.1C151.4,3.5,151.2,3.4,151.1,3.6z"/>
	</g>
	<g>
		<path class="st0" d="M151.5,4.5c-0.1,0-0.1,0-0.1,0.1c0,0,0,0.1,0,0.1c0,0,0.1,0.1,0.1,0c0.1,0,0.1,0,0.1-0.1
			C151.7,4.5,151.6,4.5,151.5,4.5z"/>
	</g>
	<g>
		<path class="st0" d="M147.5,5.1c0-0.1,0-0.2,0.1-0.2c0.1,0,0.1,0,0.2,0c0,0.1,0,0.2-0.1,0.3c0,0,0,0.1,0,0.2
			c0,0.1-0.2,0.3-0.3,0.3c-0.1,0-0.1,0-0.2-0.1c-0.1-0.1,0-0.4,0.2-0.5C147.5,5.1,147.5,5.1,147.5,5.1z"/>
	</g>
	<g>
		<path class="st0" d="M149.1,5.8c0,0,0.1,0,0.1,0c0,0,0.1,0,0.1,0.1c0,0,0,0.1,0,0.1c0,0,0,0.1-0.1,0.1s-0.1,0-0.1,0c0,0,0,0-0.1,0
			c0,0,0-0.1,0-0.1C149,6,149,5.9,149.1,5.8C149,5.9,149.1,5.9,149.1,5.8z"/>
	</g>
	<g>
		<path class="st0" d="M148.6,8.2c0,0,0.1,0,0.1,0c0,0,0,0.1,0.1,0.1c0,0,0,0.1,0,0.1c0,0.1-0.1,0.1-0.2,0.1c-0.1,0-0.1-0.1,0-0.1
			C148.5,8.3,148.6,8.3,148.6,8.2z"/>
	</g>
	<g>
		<path class="st0" d="M153.4,6.7c0,0,0.1,0,0.1,0c0,0,0.1,0.1,0.1,0.1c0,0,0,0.1,0,0.1c0,0,0,0-0.1,0.1c-0.1,0-0.1,0-0.2,0
			c0,0-0.1-0.1-0.1-0.1C153.3,6.7,153.4,6.7,153.4,6.7z"/>
	</g>
	<g>
		<path class="st0" d="M153.8,8.9c0.1,0,0.1,0,0.2,0c0,0,0.1,0.1,0.1,0.2c0,0,0,0.1-0.1,0.1c0,0-0.1,0-0.1,0c0,0-0.1,0-0.1,0
			c0,0-0.1-0.1-0.1-0.1C153.6,9,153.7,8.9,153.8,8.9z"/>
	</g>
	<g>
		<path class="st0" d="M155.3,9.1c0.1-0.1,0.2-0.1,0.3-0.1c0,0,0.1,0,0.1,0c0,0,0.1,0.1,0.1,0.1c0,0.1,0.1,0.2,0.1,0.3
			c0,0.1,0,0.3-0.1,0.4c0,0-0.1,0.1-0.1,0.1c0,0-0.1,0-0.2,0c-0.1,0-0.1-0.1-0.2-0.2C155.1,9.5,155.1,9.2,155.3,9.1z"/>
	</g>
	<g>
		<path class="st1" d="M155.6,9.7c0,0-0.1,0.1-0.2,0.1c-0.1,0-0.2-0.1-0.2-0.1c0,0.1,0.1,0.1,0.2,0.2c0.1,0.1,0.2,0,0.2,0
			C155.6,9.9,155.7,9.8,155.6,9.7c0.2,0,0.2-0.1,0.2-0.2C155.8,9.6,155.7,9.7,155.6,9.7z"/>
	</g>
	<g>
		<path class="st0" d="M151.8,12.2c0,0,0-0.1,0.1-0.2c0.1-0.1,0.2,0,0.3,0.1c0.1-0.1,0.3-0.1,0.5,0c0.2,0.1,0.2,0.3,0.2,0.5
			c-0.1,0.2-0.4,0.2-0.8,0c-0.2,0.2-0.5,0.3-0.6,0.2c-0.1,0-0.2-0.1-0.1-0.3C151.3,12.4,151.5,12.2,151.8,12.2z"/>
	</g>
	<g>
		<path class="st1" d="M152.1,12.6c0.4,0.2,0.7,0.1,0.8,0c0,0,0-0.1,0-0.2c0,0.1-0.1,0.1-0.1,0.1c-0.2,0.1-0.4,0.1-0.7-0.1
			c0,0-0.2,0.3-0.5,0.3c-0.1,0-0.2-0.1-0.2-0.1c0,0.1,0.1,0.1,0.1,0.2C151.6,12.9,151.9,12.8,152.1,12.6z"/>
	</g>
	<g>
		<g>
			<path class="st0" d="M148.4,11c-0.1,0-0.3,0-0.4,0.1c0,0.1-0.1,0.1-0.1,0.2c0,0.1,0,0.3,0.1,0.4c0.1,0.1,0.2,0.2,0.3,0.2
				c0.1,0,0.2,0,0.2,0c0.1-0.1,0.1-0.2,0.1-0.3c0-0.1,0-0.2,0-0.2c0,0,0-0.1-0.1-0.2C148.6,11.2,148.5,11.1,148.4,11z"/>
		</g>
		<g>
			<path class="st1" d="M148.3,11.8c-0.1,0-0.2-0.1-0.2-0.2c0,0,0,0,0,0.1c0.1,0.1,0.2,0.2,0.3,0.2c0.1,0,0.2,0,0.2,0
				c0.1-0.1,0.1-0.2,0.1-0.3c0-0.1,0-0.2,0-0.2c0,0,0,0,0,0c0,0.1,0,0.1,0,0.2c0,0.1,0,0.1-0.1,0.2
				C148.5,11.8,148.4,11.9,148.3,11.8z"/>
		</g>
	</g>
</g>
<g id="XMLID_00000129910269501889307290000010828378463974575235_">
	<g>
		<path class="st0" d="M170.5,5.6c0-0.1,0.1-0.2,0.2-0.2c0.2,0,0.3,0.1,0.4,0.2c0.1,0.2,0.1,0.3,0,0.5c0,0.1-0.1,0.2-0.2,0.3
			c0,0-0.1,0.1-0.3,0c-0.2-0.1-0.2-0.3-0.3-0.4C170.4,6,170.4,5.8,170.5,5.6z"/>
	</g>
	<g>
		<path class="st0" d="M167.1,3.6c0,0.1,0,0.1,0,0.2c0,0.1,0.1,0.1,0.2,0.1c0.1,0,0.1,0,0.2,0c0.1,0,0.2,0,0.2-0.1c0,0,0-0.1,0-0.2
			c0,0-0.1-0.1-0.1-0.1C167.4,3.5,167.2,3.4,167.1,3.6z"/>
	</g>
	<g>
		<path class="st0" d="M167.5,4.5c-0.1,0-0.1,0-0.1,0.1c0,0,0,0.1,0,0.1c0,0,0.1,0.1,0.1,0c0.1,0,0.1,0,0.1-0.1
			C167.7,4.5,167.6,4.5,167.5,4.5z"/>
	</g>
	<g>
		<path class="st0" d="M163.5,5.1c0-0.1,0-0.2,0.1-0.2c0.1,0,0.1,0,0.2,0c0,0.1,0,0.2-0.1,0.3c0,0,0,0.1,0,0.2
			c0,0.1-0.2,0.3-0.3,0.3c-0.1,0-0.1,0-0.2-0.1c-0.1-0.1,0-0.4,0.2-0.5C163.4,5.1,163.5,5.1,163.5,5.1z"/>
	</g>
	<g>
		<path class="st0" d="M165.1,5.8c0,0,0.1,0,0.1,0c0,0,0.1,0,0.1,0.1c0,0,0,0.1,0,0.1c0,0,0,0.1-0.1,0.1s-0.1,0-0.1,0c0,0,0,0-0.1,0
			c0,0,0-0.1,0-0.1C164.9,6,165,5.9,165.1,5.8C165,5.9,165,5.9,165.1,5.8z"/>
	</g>
	<g>
		<path class="st0" d="M164.6,8.2c0,0,0.1,0,0.1,0c0,0,0,0.1,0.1,0.1c0,0,0,0.1,0,0.1c0,0.1-0.1,0.1-0.2,0.1c-0.1,0-0.1-0.1,0-0.1
			C164.5,8.3,164.6,8.3,164.6,8.2z"/>
	</g>
	<g>
		<path class="st0" d="M169.4,6.7c0,0,0.1,0,0.1,0c0,0,0.1,0.1,0.1,0.1c0,0,0,0.1,0,0.1c0,0,0,0-0.1,0.1c-0.1,0-0.1,0-0.2,0
			c0,0-0.1-0.1-0.1-0.1C169.3,6.7,169.4,6.7,169.4,6.7z"/>
	</g>
	<g>
		<path class="st0" d="M169.8,8.9c0.1,0,0.1,0,0.2,0c0,0,0.1,0.1,0.1,0.2c0,0,0,0.1-0.1,0.1c0,0-0.1,0-0.1,0c0,0-0.1,0-0.1,0
			c0,0-0.1-0.1-0.1-0.1C169.6,9,169.7,8.9,169.8,8.9z"/>
	</g>
	<g>
		<path class="st0" d="M171.3,9.1c0.1-0.1,0.2-0.1,0.3-0.1c0,0,0.1,0,0.1,0c0,0,0.1,0.1,0.1,0.1c0,0.1,0.1,0.2,0.1,0.3
			c0,0.1,0,0.3-0.1,0.4c0,0-0.1,0.1-0.1,0.1c0,0-0.1,0-0.2,0c-0.1,0-0.1-0.1-0.2-0.2C171.1,9.5,171.1,9.2,171.3,9.1z"/>
	</g>
	<g>
		<path class="st1" d="M171.6,9.7c0,0-0.1,0.1-0.2,0.1c-0.1,0-0.2-0.1-0.2-0.1c0,0.1,0.1,0.1,0.2,0.2c0.1,0.1,0.2,0,0.2,0
			C171.6,9.9,171.7,9.8,171.6,9.7c0.2,0,0.2-0.1,0.2-0.2C171.8,9.6,171.7,9.7,171.6,9.7z"/>
	</g>
	<g>
		<path class="st0" d="M167.8,12.2c0,0,0-0.1,0.1-0.2c0.1-0.1,0.2,0,0.3,0.1c0.1-0.1,0.3-0.1,0.5,0c0.2,0.1,0.2,0.3,0.2,0.5
			c-0.1,0.2-0.4,0.2-0.8,0c-0.2,0.2-0.5,0.3-0.6,0.2c-0.1,0-0.2-0.1-0.1-0.3C167.3,12.4,167.5,12.2,167.8,12.2z"/>
	</g>
	<g>
		<path class="st1" d="M168.1,12.6c0.4,0.2,0.7,0.1,0.8,0c0,0,0-0.1,0-0.2c0,0.1-0.1,0.1-0.1,0.1c-0.2,0.1-0.4,0.1-0.7-0.1
			c0,0-0.2,0.3-0.5,0.3c-0.1,0-0.2-0.1-0.2-0.1c0,0.1,0.1,0.1,0.1,0.2C167.6,12.9,167.9,12.8,168.1,12.6z"/>
	</g>
	<g>
		<g>
			<path class="st0" d="M164.4,11c-0.1,0-0.3,0-0.4,0.1c0,0.1-0.1,0.1-0.1,0.2c0,0.1,0,0.3,0.1,0.4c0.1,0.1,0.2,0.2,0.3,0.2
				c0.1,0,0.2,0,0.2,0c0.1-0.1,0.1-0.2,0.1-0.3c0-0.1,0-0.2,0-0.2c0,0,0-0.1-0.1-0.2C164.6,11.2,164.5,11.1,164.4,11z"/>
		</g>
		<g>
			<path class="st1" d="M164.3,11.8c-0.1,0-0.2-0.1-0.2-0.2c0,0,0,0,0,0.1c0.1,0.1,0.2,0.2,0.3,0.2c0.1,0,0.2,0,0.2,0
				c0.1-0.1,0.1-0.2,0.1-0.3c0-0.1,0-0.2,0-0.2c0,0,0,0,0,0c0,0.1,0,0.1,0,0.2c0,0.1,0,0.1-0.1,0.2
				C164.5,11.8,164.4,11.9,164.3,11.8z"/>
		</g>
	</g>
</g>
<g id="XMLID_00000048498607981545894820000015017490766460802973_">
	<g>
		<path class="st0" d="M6,6.6c0-0.4,0.3-0.7,0.6-0.8c0.2,0,0.4,0,0.5,0.1c0.2-0.2,0.5-0.3,0.6-0.2C7.9,5.8,7.9,6,8,6
			c0.3,0,0.6,0.1,0.8,0.3c0.2,0.3,0.1,0.7,0.1,0.7C9.3,7.2,9.6,7.5,9.7,8c0.1,0.6-0.2,1.1-0.6,1.3C8.7,9.5,8.4,9.4,8.2,9.4
			c0,0,0,0.3-0.3,0.5c-0.2,0.1-0.4,0.1-0.4,0.1c0,0-0.1,0.4-0.3,0.5c-0.3,0.1-0.7-0.1-0.9-0.6c0,0-0.3,0.1-0.5-0.1
			C5.7,9.8,5.7,9.6,5.7,9.5c0-0.5,0.4-0.9,0.5-0.9c0,0-0.3-0.2-0.3-0.4c0-0.1,0-0.1,0-0.2C5.6,7.9,5.3,7.7,5.2,7.4
			c0,0-0.1-0.3,0.1-0.5C5.6,6.6,6,6.6,6,6.6z"/>
	</g>
	<g>
		<path class="st1" d="M6,8c0,0,0,0.1,0,0.2c0,0.3,0.2,0.4,0.3,0.4c0,0,0.1,0,0.1-0.1c0.1,0,0.1-0.1,0.2-0.1
			C6.4,8.4,6.3,8.3,6.3,8.2c0-0.2,0.3-0.5,0.2-0.5C6.4,7.7,6.2,7.8,5.9,7.8c-0.2,0-0.4-0.1-0.5-0.2c0,0,0.1,0.1,0.1,0.2
			c0,0,0,0,0.1,0.1c0,0,0.1,0.1,0.2,0.1C5.9,8,5.9,8,6,8z"/>
	</g>
	<g>
		<path class="st1" d="M8.2,9.4c0.1,0,0.5,0.1,0.9-0.1c0.3-0.2,0.6-0.5,0.7-0.9C9.7,8.5,9.3,9.1,8.7,9.2c-0.2,0-0.4,0-0.5,0
			C8.1,9.5,7.9,9.7,7.7,9.8c-0.1,0-0.2,0-0.2,0c-0.1,0-0.1,0-0.2,0c-0.1,0,0,0.1,0,0.2c0,0.1-0.1,0.3-0.2,0.3c-0.1,0-0.2,0-0.3,0
			c-0.3-0.1-0.4-0.5-0.4-0.5c0,0-0.2,0.1-0.4,0C5.8,9.7,5.8,9.5,5.7,9.5c0,0,0,0,0,0c0,0,0,0,0,0c0,0.1,0,0.2,0.1,0.3
			C6,10,6.3,10,6.3,10c0.2,0.5,0.6,0.7,0.9,0.6c0.2-0.1,0.3-0.5,0.3-0.5c0.1,0,0.3,0,0.4-0.1C8.2,9.8,8.2,9.5,8.2,9.4z"/>
	</g>
	<g>
		<path class="st1" d="M8.4,7.2c0.1,0,0.1,0,0.2,0c0.1,0,0.1,0,0.2,0c0-0.1,0-0.1,0-0.2c0-0.1,0-0.3-0.1-0.4c0,0.1,0,0.3-0.1,0.5
			C8.6,7.1,8.5,7.1,8.4,7.2z"/>
	</g>
</g>
</svg>
