<?xml version="1.0" encoding="utf-8"?>
<!-- Generator: Adobe Illustrator 27.5.0, SVG Export Plug-In . SVG Version: 6.00 Build 0)  -->
<svg version="1.1" id="Ebene_1" xmlns="http://www.w3.org/2000/svg" xmlns:xlink="http://www.w3.org/1999/xlink" x="0px" y="0px"
	 viewBox="0 0 224 248" enable-background="new 0 0 224 248" xml:space="preserve">
<g id="Ebene_1_00000034776350666135776980000002211182359128866699_">
	<rect y="0.0000068" fill="#FFFFFF" width="224" height="248"/>
	<rect y="0.0000068" width="224.1000061" height="248.1000061"/>
</g>
<g id="Ebene_2_00000123402639075652131520000004499175907534969473_">
	<path fill="#1C1C1C" stroke="#565656" stroke-miterlimit="10" d="M41.2000008,35.5000076H22.7999992
		c-1.2999992,0-2.2999992-1-2.2999992-2.2999992V22.8000069c0-1.2999992,1-2.2999992,2.2999992-2.2999992h18.3999977
		c1.2999992,0,2.2999992,1,2.2999992,2.2999992v10.3999977C43.5,34.5000076,42.5,35.5000076,41.2000008,35.5000076z"/>
	<path id="XMLID_00000108291793505320668280000011485560694836020358_" fill="#1C1C1C" stroke="#565656" stroke-miterlimit="10" d="
		M41.2000008,59.5000076H22.7999992c-1.2999992,0-2.2999992-1-2.2999992-2.2999992v-2.4000015
		c0-1.2999992,1-2.2999992,2.2999992-2.2999992h18.3999977c1.2999992,0,2.2999992,1,2.2999992,2.2999992v2.4000015
		C43.5,58.5000076,42.5,59.5000076,41.2000008,59.5000076z"/>
	<path fill="#1C1C1C" stroke="#565656" stroke-miterlimit="10" d="M67.5,126.8000107v26.3999863
		C67.5,154.5,66.5,155.5,65.1999969,155.5h-2.4000015c-1.2999992,0-2.2999992-1-2.2999992-2.3000031v-26.3999939
		c0-1.3000031,1-2.3000031,2.2999992-2.3000031h2.4000015C66.5,124.5000076,67.5,125.5000076,67.5,126.8000107z"/>
	<path fill="#1C1C1C" stroke="#565656" stroke-miterlimit="10" d="M137.1999969,148.5H86.8000031
		C85.5,148.5,84.5,149.5,84.5,150.8000031v2.3999939c0,1.1999969,1,2.3000031,2.3000031,2.3000031H106
		c1.4000015,0,2.5,1.1000061,2.5,2.5v19.3000031c0,1.1999969,1,2.3000031,2.3000031,2.3000031h2.5
		c1.3000031,0,2.3000031-1,2.3000031-2.3000031V158c0-1.3999939,1.0999985-2.5,2.5-2.5h19.1999969
		c1.3000031,0,2.3000031-1,2.3000031-2.3000031v-2.3999939C139.5,149.5,138.5,148.5,137.1999969,148.5z"/>
	<path fill="#1C1C1C" stroke="#565656" stroke-miterlimit="10" d="M137.1999969,52.5000076H86.8000031
		c-1.3000031,0-2.3000031,1-2.3000031,2.2999992v2.4000015c0,1.2000008,1,2.2999992,2.3000031,2.2999992h19.0999985
		c1.4000015,0,2.5999985,1.2000008,2.5999985,2.5999985v19.2000046c0,1.1999969,1,2.3000031,2.3000031,2.3000031h2.4000015
		c1.3000031,0,2.3000031-1,2.3000031-2.3000031V62.0000076c0-1.4000015,1.1999969-2.5999985,2.5999985-2.5999985h19.1000061
		c1.3000031,0,2.3000031-1,2.3000031-2.2999992v-2.4000015C139.5,53.5000076,138.5,52.5000076,137.1999969,52.5000076z"/>
	<path fill="#1C1C1C" stroke="#565656" stroke-miterlimit="10" d="M60.5,54.8000069v50.3999977
		c0,1.3000031,1,2.3000031,2.2999992,2.3000031h2.3999977c1.1999969,0,2.3000031-1,2.3000031-2.3000031V86.1000061
		c0-1.4000015,1.1999969-2.5999985,2.5999985-2.5999985h19.2000046c1.1999969,0,2.3000031-1,2.3000031-2.3000031v-2.4000015
		c0-1.3000031-1-2.3000031-2.3000031-2.3000031H70c-1.4000015,0-2.5999985-1.1999969-2.5999985-2.5999985V54.8000069
		c0-1.2999992-1-2.2999992-2.3000031-2.2999992h-2.4000015C61.5,52.5000076,60.5,53.5000076,60.5,54.8000069z"/>
	<path fill="#1C1C1C" stroke="#565656" stroke-miterlimit="10" d="M163.5,54.8000069v50.3999977
		c0,1.3000031-1,2.3000031-2.3000031,2.3000031h-2.3999939c-1.1999969,0-2.3000031-1-2.3000031-2.3000031V86.1000061
		c0-1.4000015-1.1999969-2.5999985-2.6000061-2.5999985h-19.1999969c-1.1999969,0-2.3000031-1-2.3000031-2.3000031v-2.4000015
		c0-1.3000031,1-2.3000031,2.3000031-2.3000031H154c1.3999939,0,2.6000061-1.1999969,2.6000061-2.5999985V54.8000069
		c0-1.2999992,1-2.2999992,2.3000031-2.2999992h2.3999939C162.5,52.5000076,163.5,53.5000076,163.5,54.8000069z"/>
	<path fill="#1C1C1C" stroke="#565656" stroke-miterlimit="10" d="M137.1999969,196.5H86.8000031
		C85.5,196.5,84.5,197.5,84.5,198.8000031v2.3999939c0,1.1999969,1,2.3000031,2.3000031,2.3000031h19.0999985
		c1.4000015,0,2.5999985,1.1999969,2.5999985,2.6000061v19.1999969c0,1.1999969,1,2.3000031,2.3000031,2.3000031h2.4000015
		c1.3000031,0,2.3000031-1,2.3000031-2.3000031V206c0-1.3999939,1.1999969-2.6000061,2.5999985-2.6000061h19.1000061
		c1.3000031,0,2.3000031-1,2.3000031-2.3000031v-2.3999939C139.5,197.5,138.5,196.5,137.1999969,196.5z"/>
	<path fill="#1C1C1C" stroke="#565656" stroke-miterlimit="10" d="M62.7999992,172.5h26.3999977
		C90.5,172.5,91.5,173.5,91.5,174.8000031v2.3999939C91.5,178.5,90.5,179.5,89.1999969,179.5H62.7999992
		C61.5,179.5,60.5,178.5,60.5,177.1999969v-2.3999939C60.5,173.5,61.5,172.5,62.7999992,172.5z"/>
	<path fill="#1C1C1C" stroke="#565656" stroke-miterlimit="10" d="M89.1999969,220.5H70c-1.4000015,0-2.5-1.1000061-2.5-2.5
		v-19.1999969C67.5,197.5,66.5,196.5,65.1999969,196.5h-2.4000015c-1.2999992,0-2.2999992,1-2.2999992,2.3000031V218
		c0,1.3999939-1.0999985,2.5-2.5,2.5H22.7999992C21.5,220.5,20.5,221.5,20.5,222.8000031v2.3999939
		C20.5,226.5,21.5,227.5,22.7999992,227.5h66.3999939C90.5,227.5,91.5,226.5,91.5,225.1999969v-2.3999939
		C91.5,221.5,90.5,220.5,89.1999969,220.5z"/>
	<path fill="#1C1C1C" stroke="#565656" stroke-miterlimit="10" d="M134.8000031,220.5H154c1.3999939,0,2.5-1.1000061,2.5-2.5
		v-19.1999969C156.5,197.5,157.5,196.5,158.8000031,196.5h2.3999939C162.5,196.5,163.5,197.5,163.5,198.8000031V218
		c0,1.3999939,1.1000061,2.5,2.5,2.5h35.1999969C202.5,220.5,203.5,221.5,203.5,222.8000031v2.3999939
		C203.5,226.5,202.5,227.5,201.1999969,227.5h-66.4000092c-1.3000031,0-2.3000031-1-2.3000031-2.3000031v-2.3999939
		C132.5,221.5,133.5,220.5,134.8000031,220.5z"/>
	<path fill="#1C1C1C" stroke="#565656" stroke-miterlimit="10" d="M41.2000008,172.5H39h-0.2000008h-16
		C21.5,172.5,20.5,173.5,20.5,174.8000031v2.3999939C20.5,178.5,21.5,179.5,22.7999992,179.5h12
		C35.7000008,179.5,36.5,180.3000031,36.5,181.1999969v20C36.5,202.5,37.5,203.5,38.7999992,203.5h2.4000015
		C42.5,203.5,43.5,202.5,43.5,201.1999969v-26.3999939C43.5,173.5,42.5,172.5,41.2000008,172.5z"/>
	<path fill="#1C1C1C" stroke="#565656" stroke-miterlimit="10" d="M182.8000031,172.5H185h0.1999969h16
		C202.5,172.5,203.5,173.5,203.5,174.8000031v2.3999939C203.5,178.5,202.5,179.5,201.1999969,179.5h-12
		c-0.8999939,0-1.6999969,0.8000031-1.6999969,1.6999969v20C187.5,202.5,186.5,203.5,185.1999969,203.5h-2.3999939
		C181.5,203.5,180.5,202.5,180.5,201.1999969v-26.3999939C180.5,173.5,181.5,172.5,182.8000031,172.5z"/>
	<path fill="#1C1C1C" stroke="#565656" stroke-miterlimit="10" d="M134.8000031,172.5h26.3999939
		C162.5,172.5,163.5,173.5,163.5,174.8000031v2.3999939C163.5,178.5,162.5,179.5,161.1999969,179.5h-26.3999939
		C133.5,179.5,132.5,178.5,132.5,177.1999969v-2.3999939C132.5,173.5,133.5,172.5,134.8000031,172.5z"/>
	<path fill="#1C1C1C" stroke="#565656" stroke-miterlimit="10" d="M163.5,126.8000107v26.3999863
		C163.5,154.5,162.5,155.5,161.1999969,155.5h-2.3999939C157.5,155.5,156.5,154.5,156.5,153.1999969v-26.3999939
		C156.5,125.5,157.5,124.5,158.8000031,124.5h2.3999939C162.5,124.5000076,163.5,125.5000076,163.5,126.8000107z"/>
	<path fill="#1C1C1C" stroke="#565656" stroke-miterlimit="10" d="M225.5,124.4000092H182l0,0c-0.8000031,0-1.5,0.6999969-1.5,1.5
		v0.0999985v27.8999863l0,0V154c0,0.8000031,0.6999969,1.5,1.5,1.5h37c0.8000031,0,1.5,0.6999969,1.5,1.5v38
		c0,0.8000031-0.6999969,1.5-1.5,1.5h-13c-0.8000031,0-1.5,0.6999969-1.5,1.5v4c0,0.8000031,0.6999969,1.5,1.5,1.5h13
		c0.8000031,0,1.5,0.6999969,1.5,1.5v38c0,0.8000031-0.6999969,1.5-1.5,1.5H5c-0.8000002,0-1.5-0.6999969-1.5-1.5v-38
		c0-0.8000031,0.6999998-1.5,1.5-1.5h13c0.7999992,0,1.5-0.6999969,1.5-1.5v-4c0-0.8000031-0.7000008-1.5-1.5-1.5H5
		c-0.8000002,0-1.5-0.6999969-1.5-1.5v-38c0-0.8000031,0.6999998-1.5,1.5-1.5h37c0.7999992,0,1.5-0.6999969,1.5-1.5v-0.1000061
		v-27.9999924c0-0.8000031-0.7000008-1.5-1.5-1.5l0,0l0,0l0,0H-1.6c-0.8000001,0-1.4999999,0.6999969-1.4999999,1.5V126
		c0,0.8000031,0.7,1.5,1.5,1.5H39c0.7999992,0,1.5,0.6999969,1.5,1.5v22c0,0.8000031-0.7000008,1.5-1.5,1.5H2.0999999l0,0H2
		c-0.8,0-1.5,0.6999969-1.5,1.5l0,0v0.1000061v44.8000031v2.3999939v44.5v0.1000061v0.1000061v0.1000061
		c0,0.8000031,0.7,1.5,1.5,1.5h220c0.8000031,0,1.5-0.6999969,1.5-1.5v-0.1000061v-0.1000061v-0.1000061v-44.5v-2.3999939V154
		v-0.1000061l0,0c0-0.8000031-0.6999969-1.5-1.5-1.5h-0.1000061l0,0H185c-0.8000031,0-1.5-0.6999969-1.5-1.5v-22
		c0-0.8000031,0.6999969-1.4999924,1.5-1.4999924h40.5c0.8000031,0,1.5-0.6999969,1.5-1.5v-0.0999985
		C227,125.1000061,226.3999939,124.4000092,225.5,124.4000092z"/>
	<path fill="#1C1C1C" stroke="#565656" stroke-miterlimit="10" d="M225.5,104.5000076H185c-0.8000031,0-1.5-0.6999969-1.5-1.5v-22
		c0-0.8000031,0.6999969-1.5,1.5-1.5h36.8999939c0.3999939,0,0.8000031-0.1999969,1.1000061-0.5s0.5-0.6999969,0.5-1.0999985
		V2.0000069l0,0c0-0.8000001-0.6999969-1.5-1.5-1.5h-0.1000061H113.1999969h-2.4000015H2.0999999H2c-0.8,0-1.5,0.6-1.5,1.5l0,0
		v75.9000015l0,0l0,0v0.0999985c0,0.8000031,0.7,1.5,1.5,1.5h37c0.7999992,0,1.5,0.6999969,1.5,1.5v22
		c0,0.8000031-0.7000008,1.5-1.5,1.5H-1.5c-0.8,0-1.5,0.6999969-1.5,1.5l0,0c0,0.8000031,0.7,1.5,1.5,1.5H42
		c0.7999992,0,1.5-0.6999969,1.5-1.5l0,0v-28c0-0.8000031-0.7000008-1.5-1.5-1.5l0,0l0,0l0,0H5.0999999
		c-0.8000002,0-1.5-0.6999969-1.5-1.5v-70c0-0.8000002,0.6999998-1.4999998,1.5-1.4999998h102
		c0.8000031,0,1.5,0.6999996,1.5,1.4999998v29c0,0.7999992,0.6999969,1.5,1.5,1.5h4c0.8000031,0,1.5-0.7000008,1.5-1.5v-29
		c0-0.8000002,0.6999969-1.4999998,1.5-1.4999998h102.0000076c0.8000031,0,1.5,0.6999996,1.5,1.4999998v70
		c0,0.8000031-0.6999969,1.5-1.5,1.5h-36.8999939H182c-0.8000031,0-1.5,0.6999969-1.5,1.5l0,0v28v0.0999985
		c0,0.8000031,0.6999969,1.5,1.5,1.5h43.5c0.8000031,0,1.5-0.6999969,1.5-1.5l0,0
		C227,105.2000046,226.3999939,104.5000076,225.5,104.5000076z"/>
	<path fill="#1C1C1C" stroke="#565656" stroke-miterlimit="10" d="M201.1999969,59.5000076h-18.3999939
		c-1.3000031,0-2.3000031-1-2.3000031-2.2999992v-2.4000015c0-1.2999992,1-2.2999992,2.3000031-2.2999992h18.3999939
		c1.3000031,0,2.3000031,1,2.3000031,2.2999992v2.4000015C203.5,58.5000076,202.5,59.5000076,201.1999969,59.5000076z"/>
	<path fill="#1C1C1C" stroke="#565656" stroke-miterlimit="10" d="M201.1999969,35.5000076h-18.3999939
		c-1.3000031,0-2.3000031-1-2.3000031-2.2999992V22.8000069c0-1.2999992,1-2.2999992,2.3000031-2.2999992h18.3999939
		c1.3000031,0,2.3000031,1,2.3000031,2.2999992v10.3999977C203.5,34.5000076,202.5,35.5000076,201.1999969,35.5000076z"/>
	<path fill="#1C1C1C" stroke="#565656" stroke-miterlimit="10" d="M161.1999969,35.5000076h-26.3999939
		c-1.3000031,0-2.3000031-1-2.3000031-2.2999992V22.8000069c0-1.2999992,1-2.2999992,2.3000031-2.2999992h26.3999939
		c1.3000031,0,2.3000031,1,2.3000031,2.2999992v10.3999977C163.5,34.5000076,162.5,35.5000076,161.1999969,35.5000076z"/>
	<path fill="#1C1C1C" stroke="#565656" stroke-miterlimit="10" d="M89.1999969,35.5000076H62.7999992
		c-1.2999992,0-2.2999992-1-2.2999992-2.2999992V22.8000069c0-1.2999992,1-2.2999992,2.2999992-2.2999992h26.3999977
		c1.3000031,0,2.3000031,1,2.3000031,2.2999992v10.3999977C91.5,34.5000076,90.5,35.5000076,89.1999969,35.5000076z"/>
	<g>
		<path fill="#1C1C1C" stroke="#9B9B9B" stroke-miterlimit="10" d="M136.1000061,100.5000076H122
			c-0.8000031,0-1.5,0.6999969-1.5,1.5l0,0c0,0.8000031,0.6999969,1.5,1.5,1.5h13.3999939
			c0.6000061,0,1.1000061,0.5,1.1000061,1.0999985v22.7999954C136.5,128,136,128.5,135.3999939,128.5H88.5999985
			C88,128.5,87.5,128,87.5,127.4000092v-22.7999954c0-0.5999985,0.5-1.0999985,1.0999985-1.0999985H102
			c0.8000031,0,1.5-0.6999969,1.5-1.5l0,0c0-0.8000031-0.6999969-1.5-1.5-1.5H87.9000015
			c-1.9000015,0-3.4000015,1.5-3.4000015,3.4000015v24.1999893C84.5,130,86,131.5,87.9000015,131.5h48.2000046
			C138,131.5,139.5,130,139.5,128.1000061v-24.1999893C139.5,102.0000076,138,100.5000076,136.1000061,100.5000076z"/>
	</g>
	
		<circle fill="none" stroke="#9B9B9B" stroke-width="0.5" stroke-miterlimit="10" cx="106.3000031" cy="102.0000076" r="1.1999969"/>
	
		<circle fill="none" stroke="#9B9B9B" stroke-width="0.5" stroke-miterlimit="10" cx="110.0999985" cy="102.0000076" r="1.1999969"/>
	
		<circle fill="none" stroke="#9B9B9B" stroke-width="0.5" stroke-miterlimit="10" cx="113.9000015" cy="102.0000076" r="1.1999969"/>
	
		<circle id="XMLID_00000115498291506425215520000016212215527762541448_" fill="none" stroke="#9B9B9B" stroke-width="0.5" stroke-miterlimit="10" cx="117.6999969" cy="102.0000076" r="1.1999969"/>
</g>
</svg>
