<?xml version="1.0" encoding="utf-8"?>
<!-- Generator: Adobe Illustrator 27.5.0, SVG Export Plug-In . SVG Version: 6.00 Build 0)  -->
<svg version="1.1" id="Ebene_1" xmlns="http://www.w3.org/2000/svg" xmlns:xlink="http://www.w3.org/1999/xlink" x="0px" y="0px"
	 viewBox="0 0 16 16" style="enable-background:new 0 0 16 16;" xml:space="preserve">
<style type="text/css">
	.st0{fill:#86D146;}
</style>
<g>
	<path class="st0" d="M3.4371138,10.0776358H3.1427784c-0.1275151-0.0109692-0.3185589-0.0164537-0.5731318-0.0164537H2.2355485
		c-0.1590509,0-0.2650849-0.0210238-0.3181018-0.0630713c-0.0744981-0.0585012-0.1115185-0.1727619-0.1115185-0.342782
		L1.814155,9.5840302c0-0.0164537,0.0022852-0.0329075,0.0077698-0.052103
		c0.0050274-0.0182819,0.0077697-0.0411339,0.0077697-0.0676422L1.845691,9.2896948L1.8296945,9.0666571
		c0-0.0210238-0.0027423-0.0411339-0.0077697-0.0594149C1.8164402,8.9889603,1.814155,8.9688501,1.814155,8.9478264
		L1.8059282,8.892067C1.8004438,8.8390503,1.7981585,8.7380438,1.7981585,8.5895052V7.873776
		C1.7926741,7.7092404,1.7899318,7.5181966,1.7899318,7.3006444c0-0.0580444-0.0077697-0.0872951-0.0237663-0.0872951
		c-0.0210239,0-0.0530169,0.0210238-0.0955219,0.0635285C1.5751216,7.393424,1.4745723,7.4944305,1.3685384,7.5789833
		C1.3155214,7.6164608,1.2570199,7.6347427,1.193491,7.6347427c-0.0585015,0-0.106491-0.0155396-0.1435114-0.0475326
		S0.9946774,7.5181966,0.9946774,7.4756918V5.9560246c0-0.0210242,0.0050275-0.0342784,0.0155394-0.039763
		c0.010512-0.0050273,0.021481-0.0132542,0.031993-0.023766s0.0237662-0.0187387,0.0397627-0.023766
		c0.0319929-0.0159965,0.0726697-0.039763,0.1234015-0.0717559c0.0502747-0.0319929,0.1124325-0.0690136,0.1869304-0.1115184
		c0.1485389-0.1005492,0.2596003-0.1613359,0.3340983-0.182817C1.7954162,5.4761295,1.856203,5.4628754,1.90922,5.4628754
		c0.5411386,0,0.9337382,0.0027423,1.177799,0.0077701l1.1773424,0.0082264c0.0585012,0,0.1087761,0.0210242,0.1512809,0.063529
		c0.0425048,0.0425053,0.063529,0.0904946,0.063529,0.1430545v2.649477c0,0.2335482-0.0077696,0.4511013-0.023766,0.6521997
		C4.4394083,9.1991997,4.4316387,9.4039555,4.4316387,9.5995693c0,0.1489964-0.0109692,0.2550297-0.0319929,0.3181019
		c-0.0265083,0.1115179-0.0872951,0.1672773-0.182817,0.1672773C3.845253,10.0849485,3.5856526,10.0822067,3.4371138,10.0776358z"/>
	<path class="st0" d="M6.6908011,10.2641096c-0.0479894-0.0082273-0.1087761-0.0173674-0.1832743-0.0274229l-0.4296203-0.0877523
		c-0.0315356-0.0164528-0.0621576-0.0283365-0.0914083-0.0356493c-0.0292511-0.0082264-0.054388-0.0173674-0.0754123-0.0283365
		c-0.0109692-0.00457-0.0265083-0.0127974-0.0479894-0.0237665c-0.0210242-0.0100546-0.0315361-0.0237656-0.0315361-0.0393057
		C5.7835712,10.0054235,5.72507,9.9789152,5.6565132,9.9423513C5.5875001,9.920413,5.5289984,9.8939047,5.4814658,9.8628263
		L5.3699474,9.7823868C5.3169308,9.7513075,5.2799101,9.7247992,5.2584291,9.7028608
		C5.1048627,9.5703182,4.9851174,9.3820171,4.9005647,9.1379566C4.8315511,8.9368572,4.7785344,8.7010231,4.7415137,8.4304543
		c-0.0159965-0.1590509-0.023766-0.3660917-0.023766-0.6206641c0-0.3021054,0.0155392-0.5379395,0.0475321-0.7079592
		c0.0265088-0.1960716,0.0822678-0.4323626,0.1672778-0.7079597c0.0370207-0.0319929,0.0978074-0.1352844,0.182817-0.3103318
		c0.0210242-0.0265083,0.0370207-0.054388,0.0475326-0.0836387c0.0109692-0.0292511,0.0242233-0.054388,0.039763-0.0754123
		C5.2081542,5.919004,5.2172952,5.9043789,5.2305493,5.8806124c0.0132546-0.023766,0.0278797-0.0356493,0.0438762-0.0356493
		c0.0425053,0,0.103292-0.0402198,0.1832743-0.1197453c0.0260515-0.0155392,0.063529-0.0475321,0.1110616-0.0950646
		c0.0370202-0.0374775,0.0717554-0.0639858,0.1037483-0.0799828C5.8205919,5.4601331,6.006608,5.3966041,6.229188,5.3595839
		c0.0370202-0.0054846,0.086381-0.0118833,0.1471677-0.0201101c0.0607867-0.0077696,0.1101475-0.0118828,0.1471677-0.0118828
		c0.0690136,0,0.1275148-0.0027423,0.1750474-0.0077701c0.0479894-0.0054841,0.0900373-0.0109687,0.1275148-0.0159965
		c0.3340983,0.0105124,0.6124372,0.0315361,0.8354745,0.063529c0.1960711,0.021481,0.4424171,0.061244,0.7394953,0.1192884
		c0.015996,0,0.0425043,0.0082264,0.0799818,0.023766C8.656085,5.5689092,8.7877131,5.6219263,8.8782072,5.6699157
		c0.0639868,0.0315361,0.0959797,0.063529,0.0959797,0.0950651v0.0717554c0.0575867,0,0.1188307,0.0251374,0.1828165,0.0758696
		c0.0639858,0.0502744,0.1215734,0.1179166,0.1745911,0.2024698c0.0585012,0.0744977,0.1042051,0.1540232,0.1352844,0.2390332
		c0.0319929,0.0845528,0.0484467,0.1535664,0.0484467,0.2065835c0.0475321,0,0.074955,0.0027423,0.0831814,0.0082264
		c0.0082264,0.0050278,0.0118828,0.0292511,0.0118828,0.0712991C9.636899,6.7732172,9.6634073,6.879251,9.6899157,6.9587765
		c0.0109692,0.0425048,0.0228519,0.088666,0.0356493,0.1389408c0.013711,0.0507317,0.0283365,0.1101475,0.0438757,0.1791606
		l0.0082273,0.063529l0.0155392,0.2943358V7.834013c0,0.3976278-0.0265083,0.7079592-0.079525,0.9305391
		c-0.0740414,0.345067-0.220295,0.6128941-0.4378471,0.8030243C9.1963091,9.6370468,9.1094713,9.7010326,9.0134926,9.7586203
		L8.73561,9.9423513c-0.1595078,0.0530167-0.2760534,0.0978069-0.3500948,0.1352844L8.043191,10.1964674
		c-0.1805325,0-0.3843732,0.013711-0.6124377,0.0402193c-0.1750474,0.0265083-0.38483,0.0393057-0.628891,0.0393057
		C6.7753539,10.2759924,6.7383337,10.272336,6.6908011,10.2641096z M7.6217971,8.9076071
		c0.0260515-0.063529,0.042048-0.1348276,0.0475326-0.2143536c0.0050273-0.079525,0.0077696-0.1275148,0.0077696-0.1435118
		l0.0082269-0.222579c0.0159965-0.1590509,0.023766-0.3130751,0.023766-0.4616137
		c0.0050278-0.0475326,0.0077701-0.1115184,0.0077701-0.1910439c0-0.127058-0.0132546-0.2504592-0.039763-0.3697476
		c-0.0265083-0.119288-0.0553021-0.2321777-0.0872951-0.3382115S7.536787,6.7914987,7.5262752,6.7595057
		c-0.0109692-0.0950651-0.0333643-0.1695628-0.0676422-0.22258C7.4238977,6.4839091,7.3640251,6.4574003,7.2794724,6.4574003
		c-0.1590509,0-0.2650852,0.0850101-0.3181019,0.2545729c-0.0269656,0.063529-0.0452476,0.1380272-0.0557594,0.22258
		c0,0.0319929-0.0082269,0.1037488-0.023766,0.2148099L6.8260856,7.5392208
		c-0.0374775,0.117003-0.055759,0.2468028-0.055759,0.3898573c0,0.1860161,0.0182815,0.3528366,0.055759,0.5013762
		c0.0105124,0.079525,0.032907,0.1631641,0.0676427,0.2504587c0.0342779,0.0877523,0.056673,0.1503677,0.0676422,0.1873884
		c0.0050273,0.0530167,0.0530167,0.1060333,0.1430545,0.15905C7.1309333,9.0538607,7.1601839,9.075798,7.19172,9.0949945
		c0.0319929,0.018281,0.055759,0.027422,0.0717554,0.027422C7.4280109,9.1224165,7.5472994,9.0511179,7.6217971,8.9076071z"/>
	<path class="st0" d="M11.9020023,10.2641096c-0.0475321-0.0082273-0.1087761-0.0173674-0.1828175-0.0274229l-0.4296198-0.0877523
		c-0.0319929-0.0164528-0.0621576-0.0283365-0.0914087-0.0356493c-0.0292501-0.0082264-0.0548449-0.0173674-0.0758686-0.0283365
		c-0.0109692-0.00457-0.0265083-0.0127974-0.047533-0.0237665c-0.0210238-0.0100546-0.0319929-0.0237656-0.0319929-0.0393057
		c-0.0475321-0.0164528-0.1060333-0.0429611-0.1745901-0.079525C10.7987013,9.920413,10.7402,9.8939047,10.692667,9.8628263
		l-0.1115179-0.0804396c-0.0530176-0.0310793-0.0895805-0.0575876-0.1115189-0.0795259
		c-0.1535664-0.1325426-0.2733116-0.3208437-0.3574076-0.5649042c-0.0694704-0.2010994-0.1224871-0.4369335-0.1590509-0.7075024
		C9.9367189,8.2714033,9.9294062,8.0643625,9.9294062,7.8097901c0-0.3021054,0.0155392-0.5379395,0.0475321-0.7079592
		c0.0265083-0.1960716,0.0822678-0.4323626,0.1672773-0.7079597c0.0365639-0.0319929,0.0978079-0.1352844,0.1828175-0.3103318
		c0.0210238-0.0265083,0.0365639-0.054388,0.0475321-0.0836387c0.0109692-0.0292511,0.0237665-0.054388,0.0393057-0.0754123
		c0.0054846-0.0054846,0.0146255-0.0201097,0.0283375-0.0438762c0.0127964-0.023766,0.027422-0.0356493,0.0438757-0.0356493
		c0.0420475,0,0.1032915-0.0402198,0.1828175-0.1197453c0.0265083-0.0155392,0.0639858-0.0475321,0.1115179-0.0950646
		c0.0365639-0.0374775,0.0712986-0.0639858,0.1032915-0.0799828c0.1480818-0.0900373,0.3345556-0.1535664,0.5566788-0.1905866
		c0.0374775-0.0054846,0.0868378-0.0118833,0.1471672-0.0201101c0.061244-0.0077696,0.1106043-0.0118828,0.1471682-0.0118828
		c0.0694704,0,0.1279716-0.0027423,0.1755037-0.0077701c0.047533-0.0054841,0.0895805-0.0109687,0.127058-0.0159965
		c0.3345556,0.0105124,0.6124372,0.0315361,0.835474,0.063529c0.1965284,0.021481,0.4424181,0.061244,0.7394953,0.1192884
		c0.0164537,0,0.0429621,0.0082264,0.0804396,0.023766c0.1745901,0.0585012,0.3071327,0.1115184,0.3976278,0.1595078
		c0.0630713,0.0315361,0.0950642,0.063529,0.0950642,0.0950651v0.0717554c0.0585022,0,0.1197453,0.0251374,0.1828175,0.0758696
		c0.0639858,0.0502744,0.1224871,0.1179166,0.1755047,0.2024698c0.0585012,0.0744977,0.1032915,0.1540232,0.1352844,0.2390332
		c0.0319929,0.0845528,0.0475321,0.1535664,0.0475321,0.2065835c0.047533,0,0.0758696,0.0027423,0.0831823,0.0082264
		c0.0082264,0.0050278,0.0127974,0.0292511,0.0127974,0.0712991c0.0255938,0.1329994,0.0521021,0.2390332,0.079525,0.3185587
		c0.0100546,0.0425048,0.0219383,0.088666,0.0356493,0.1389408c0.0127974,0.0507317,0.0274229,0.1101475,0.0438757,0.1791606
		l0.0073128,0.063529l0.0164537,0.2943358V7.834013c0,0.3976278-0.0265083,0.7079592-0.079525,0.9305391
		c-0.074955,0.345067-0.220295,0.6128941-0.4378471,0.8030243c-0.0795259,0.0694704-0.1672773,0.1334562-0.2623425,0.1910439
		l-0.2787962,0.1837311c-0.1590509,0.0530167-0.2760534,0.0978069-0.3500948,0.1352844l-0.3418684,0.1188316
		c-0.1809883,0-0.3848295,0.013711-0.6124372,0.0402193c-0.1755037,0.0265083-0.3848295,0.0393057-0.62889,0.0393057
		C11.9870119,10.2759924,11.9495344,10.272336,11.9020023,10.2641096z M12.8334551,8.9076071
		c0.0255947-0.063529,0.0420485-0.1348276,0.047533-0.2143536c0.00457-0.079525,0.0073128-0.1275148,0.0073128-0.1435118
		l0.0082264-0.222579c0.0164537-0.1590509,0.0237665-0.3130751,0.0237665-0.4616137
		c0.0054846-0.0475326,0.0082264-0.1115184,0.0082264-0.1910439c0-0.127058-0.013711-0.2504592-0.0402193-0.3697476
		c-0.0265083-0.119288-0.0548458-0.2321777-0.0868387-0.3382115s-0.0530167-0.1750474-0.0639858-0.2070403
		c-0.0109692-0.0950651-0.0329065-0.1695628-0.0676422-0.22258c-0.0347347-0.0530167-0.0941505-0.0795255-0.1791611-0.0795255
		c-0.1590509,0-0.2650843,0.0850101-0.3181009,0.2545729c-0.0265093,0.063529-0.0447903,0.1380272-0.0557594,0.22258
		c0,0.0319929-0.0082273,0.1037488-0.0237665,0.2148099l-0.0557594,0.3898578
		c-0.0374775,0.117003-0.0557585,0.2468028-0.0557585,0.3898573c0,0.1860161,0.018281,0.3528366,0.0557585,0.5013762
		c0.0109692,0.079525,0.0329075,0.1631641,0.0676422,0.2504587c0.0347357,0.0877523,0.056674,0.1503677,0.0676432,0.1873884
		c0.0054836,0.0530167,0.0530167,0.1060333,0.1435108,0.15905c0.0265083,0.0265093,0.0557594,0.0484467,0.0868387,0.0676432
		c0.0319929,0.018281,0.0557585,0.027422,0.0722122,0.027422C12.6396694,9.1224165,12.7585001,9.0511179,12.8334551,8.9076071z"/>
</g>
</svg>
