<?xml version="1.0" encoding="utf-8"?>
<!-- Generator: Adobe Illustrator 27.5.0, SVG Export Plug-In . SVG Version: 6.00 Build 0)  -->
<svg version="1.1" id="Ebene_1" xmlns="http://www.w3.org/2000/svg" xmlns:xlink="http://www.w3.org/1999/xlink" x="0px" y="0px"
	 viewBox="0 0 24 16" style="enable-background:new 0 0 24 16;" xml:space="preserve">
<style type="text/css">
	.st0{fill:#86D146;}
</style>
<g>
	<path class="st0" d="M4.0751953,9.8668127H3.7607422C3.6245117,9.855094,3.4204102,9.8502111,3.1484375,9.8502111H2.7915039
		c-0.1699219,0-0.2832031-0.0224609-0.3398438-0.0683594c-0.0795898-0.0625-0.1191406-0.1835938-0.1191406-0.3652344
		L2.3413086,9.339469c0-0.0166016,0.0024414-0.0351562,0.0083008-0.0546875
		c0.0053711-0.0195312,0.0083008-0.0439453,0.0083008-0.0722656L2.375,9.0250158l-0.0170898-0.237793
		c0-0.0224609-0.0029297-0.0439453-0.0083008-0.0639648C2.34375,8.7037268,2.3413086,8.6822424,2.3413086,8.6597815
		L2.3325195,8.6002111C2.3266602,8.5435705,2.3242188,8.4356604,2.3242188,8.276969V7.5123205
		C2.3183594,7.3365393,2.3154297,7.1324377,2.3154297,6.9000158c0-0.0620117-0.0083008-0.0932617-0.0253906-0.0932617
		c-0.0224609,0-0.0566406,0.0224609-0.1020508,0.0678711C2.0859375,6.9991369,1.9785156,7.1070471,1.8652344,7.1973791
		C1.8085938,7.2374182,1.7460938,7.2569494,1.6782227,7.2569494c-0.0625,0-0.1137695-0.0166016-0.1533203-0.0507812
		s-0.059082-0.0737305-0.059082-0.1191406V5.4634924c0-0.0224609,0.0053711-0.0366211,0.0166016-0.0424805
		c0.0112305-0.0053711,0.0229492-0.0141602,0.0341797-0.0253906S1.5419922,5.3756018,1.559082,5.3702307
		C1.5932617,5.3531408,1.6367188,5.3277502,1.690918,5.2935705C1.7446289,5.2593908,1.8110352,5.21984,1.890625,5.1744299
		C2.0493164,5.067008,2.1679688,5.0020666,2.2475586,4.9791174c0.0737305-0.0283203,0.1386719-0.0424805,0.1953125-0.0424805
		c0.578125,0,0.9975586,0.0029297,1.2583008,0.0083008l1.2578125,0.0087891c0.0625,0,0.1162109,0.0224609,0.1616211,0.0678711
		s0.0678711,0.0966797,0.0678711,0.152832v2.8305664c0,0.2495117-0.0083008,0.4819336-0.0253906,0.6972656
		C5.1459961,8.9288244,5.1376953,9.1470861,5.1376953,9.3570471c0,0.1582031-0.0117188,0.2714844-0.0341797,0.3398438
		C5.0751953,9.8160315,5.0102539,9.8756018,4.9082031,9.8756018C4.5112305,9.8756018,4.2338867,9.8726721,4.0751953,9.8668127z"/>
	<path class="st0" d="M7.5512695,10.067008C7.5,10.058219,7.4350586,10.0484533,7.3554688,10.0367346l-0.4589844-0.09375
		C6.862793,9.926383,6.8300781,9.9136877,6.7988281,9.9048986c-0.03125-0.0078125-0.0581055-0.0185547-0.0805664-0.0292969
		C6.706543,9.8697424,6.6899414,9.8609533,6.6669922,9.8502111C6.6445312,9.8384924,6.6333008,9.8248205,6.6333008,9.8072424
		C6.5820312,9.7906408,6.5195312,9.7623205,6.4462891,9.7222815C6.3725586,9.6998205,6.3100586,9.6715002,6.2592773,9.6373205
		L6.1401367,9.5523596c-0.0566406-0.0341797-0.0961914-0.0625-0.1191406-0.0849609
		C5.8569336,9.3257971,5.7290039,9.1246252,5.6386719,8.8633947C5.5649414,8.648551,5.5083008,8.3961096,5.46875,8.1070471
		C5.4516602,7.9371252,5.4433594,7.7159338,5.4433594,7.4439611c0-0.3227539,0.0166016-0.574707,0.0507812-0.7563477
		c0.0283203-0.2094727,0.0878906-0.4619141,0.1787109-0.7563477c0.0395508-0.0341797,0.1044922-0.1445312,0.1953125-0.331543
		C5.890625,5.5714025,5.9077148,5.5416174,5.9189453,5.5103674c0.0117188-0.03125,0.0258789-0.0581055,0.0424805-0.0805664
		c0.0058594-0.0058594,0.015625-0.0214844,0.0297852-0.046875S6.0209961,5.34484,6.0380859,5.34484
		c0.0454102,0,0.1103516-0.0429688,0.1958008-0.1279297c0.027832-0.0166016,0.0678711-0.0507812,0.1186523-0.1015625
		c0.0395508-0.0400391,0.0766602-0.0683594,0.1108398-0.0854492C6.621582,4.9337072,6.8203125,4.8658361,7.0581055,4.8262854
		C7.0976562,4.820426,7.1503906,4.81359,7.215332,4.804801c0.0649414-0.0083008,0.1176758-0.0126953,0.1572266-0.0126953
		c0.0737305,0,0.1362305-0.0029297,0.1870117-0.0083008C7.6108398,4.7779455,7.6557617,4.7720861,7.6958008,4.766715
		c0.3569336,0.0112305,0.6542969,0.0336914,0.8925781,0.0678711C8.7978516,4.8575354,9.0610352,4.9000158,9.378418,4.9620275
		c0.0170898,0,0.0454102,0.0087891,0.0854492,0.0253906c0.1870117,0.0625,0.328125,0.1191406,0.4248047,0.1704102
		C9.956543,5.1915197,9.9907227,5.2256994,9.9907227,5.2593908V5.336051c0.0620117,0,0.1274414,0.0268555,0.1953125,0.0810547
		c0.0683594,0.0537109,0.1303711,0.1259766,0.1870117,0.2163086c0.0625,0.0795898,0.1108398,0.1645508,0.1445312,0.2553711
		c0.0341797,0.090332,0.0512695,0.1640625,0.0512695,0.2207031c0.0507812,0,0.0805664,0.0029297,0.0888672,0.0087891
		c0.0087891,0.0053711,0.0131836,0.03125,0.0131836,0.0761719c0.027832,0.1420898,0.0561523,0.2553711,0.0849609,0.340332
		c0.0112305,0.0454102,0.0239258,0.0947266,0.0380859,0.1484375c0.0141602,0.0541992,0.0297852,0.1176758,0.046875,0.1914062
		l0.0083008,0.0678711l0.0170898,0.3144531V7.46984c0,0.4248047-0.0283203,0.7563477-0.0849609,0.9941406
		c-0.0795898,0.3686523-0.2353516,0.6547852-0.4677734,0.8588867c-0.0849609,0.0732422-0.1782227,0.1416016-0.2802734,0.2041016
		L9.7358398,9.7222815C9.5654297,9.7789221,9.440918,9.8277502,9.3618164,9.8668127L8.9960938,9.9947424
		c-0.1928711,0-0.4106445,0.0136719-0.6542969,0.0419922c-0.1870117,0.0283203-0.4111328,0.0429688-0.671875,0.0429688
		C7.6416016,10.0797033,7.6020508,10.0748205,7.5512695,10.067008z M8.5458984,8.617301
		c0.027832-0.0683594,0.0449219-0.1445312,0.0507812-0.2294922c0.0053711-0.0849609,0.0083008-0.1362305,0.0083008-0.1533203
		l0.0087891-0.237793c0.0170898-0.1699219,0.0253906-0.3344727,0.0253906-0.4931641
		c0.0053711-0.0507812,0.0083008-0.1191406,0.0083008-0.2041016c0-0.1357422-0.0141602-0.2675781-0.0424805-0.3950195
		s-0.059082-0.2480469-0.0932617-0.3613281S8.4550781,6.3560705,8.4438477,6.3218908
		C8.4321289,6.2203283,8.4082031,6.1407385,8.371582,6.0840979C8.3344727,6.0274572,8.2705078,5.9991369,8.1801758,5.9991369
		c-0.1699219,0-0.2832031,0.0908203-0.3398438,0.2719727c-0.0288086,0.0678711-0.0483398,0.1474609-0.0595703,0.237793
		c0,0.0341797-0.0087891,0.1108398-0.0253906,0.2294922L7.6958008,7.1548986
		c-0.0400391,0.125-0.0595703,0.2636719-0.0595703,0.4165039c0,0.1987305,0.0195312,0.3769531,0.0595703,0.5356445
		C7.7070312,8.192008,7.730957,8.2813635,7.7680664,8.3746252c0.0366211,0.09375,0.0605469,0.1606445,0.0722656,0.2001953
		c0.0053711,0.0566406,0.0566406,0.1132812,0.152832,0.1699219C8.0214844,8.7730627,8.0527344,8.7969885,8.0864258,8.817008
		c0.0341797,0.0200195,0.0595703,0.0297852,0.0766602,0.0297852C8.3388672,8.8467932,8.4663086,8.770133,8.5458984,8.617301z"/>
	<path class="st0" d="M13.1191406,10.067008c-0.0517578-0.0087891-0.1162109-0.0185547-0.1958008-0.0302734l-0.4589844-0.09375
		c-0.0336914-0.0166016-0.0664062-0.0292969-0.0976562-0.0380859c-0.03125-0.0078125-0.0581055-0.0185547-0.0805664-0.0292969
		c-0.0117188-0.0058594-0.0283203-0.0146484-0.0512695-0.0253906c-0.0224609-0.0117188-0.0336914-0.0253906-0.0336914-0.0429688
		c-0.0512695-0.0166016-0.1137695-0.0449219-0.1870117-0.0849609c-0.0737305-0.0224609-0.1362305-0.0507812-0.1870117-0.0849609
		l-0.1191406-0.0849609c-0.0566406-0.0341797-0.0961914-0.0625-0.1191406-0.0849609
		c-0.1640625-0.1416016-0.2919922-0.3427734-0.3823242-0.6040039c-0.0737305-0.2148438-0.1303711-0.4672852-0.1699219-0.7563477
		c-0.0170898-0.1699219-0.0253906-0.3911133-0.0253906-0.6630859c0-0.3227539,0.0166016-0.574707,0.0507812-0.7563477
		c0.0283203-0.2094727,0.0878906-0.4619141,0.1787109-0.7563477c0.0395508-0.0341797,0.1044922-0.1445312,0.1953125-0.331543
		c0.0224609-0.0283203,0.0395508-0.0581055,0.0507812-0.0893555c0.0117188-0.03125,0.0258789-0.0581055,0.0424805-0.0805664
		c0.0058594-0.0058594,0.015625-0.0214844,0.0297852-0.046875S11.5888672,5.34484,11.605957,5.34484
		c0.0454102,0,0.1103516-0.0429688,0.1958008-0.1279297c0.027832-0.0166016,0.0678711-0.0507812,0.1186523-0.1015625
		c0.0395508-0.0400391,0.0766602-0.0683594,0.1108398-0.0854492c0.1582031-0.0961914,0.3569336-0.1640625,0.5947266-0.2036133
		C12.6655273,4.820426,12.7182617,4.81359,12.7832031,4.804801c0.0649414-0.0083008,0.1176758-0.0126953,0.1572266-0.0126953
		c0.0732422,0,0.1357422-0.0029297,0.1865234-0.0083008c0.0517578-0.0058594,0.0966797-0.0117188,0.1367188-0.0170898
		c0.3564453,0.0112305,0.6542969,0.0336914,0.8925781,0.0678711c0.2089844,0.0229492,0.4726562,0.0654297,0.7900391,0.1274414
		c0.0166016,0,0.0449219,0.0087891,0.0849609,0.0253906c0.1875,0.0625,0.328125,0.1191406,0.4248047,0.1704102
		c0.0683594,0.0336914,0.1025391,0.0678711,0.1025391,0.1015625V5.336051c0.0615234,0,0.1269531,0.0268555,0.1953125,0.0810547
		c0.0683594,0.0537109,0.1298828,0.1259766,0.1865234,0.2163086c0.0625,0.0795898,0.1113281,0.1645508,0.1445312,0.2553711
		c0.0341797,0.090332,0.0517578,0.1640625,0.0517578,0.2207031c0.0507812,0,0.0800781,0.0029297,0.0888672,0.0087891
		c0.0087891,0.0053711,0.0126953,0.03125,0.0126953,0.0761719c0.0283203,0.1420898,0.0566406,0.2553711,0.0849609,0.340332
		c0.0117188,0.0454102,0.0244141,0.0947266,0.0380859,0.1484375c0.0146484,0.0541992,0.0302734,0.1176758,0.046875,0.1914062
		l0.0087891,0.0678711l0.0166016,0.3144531V7.46984c0,0.4248047-0.0283203,0.7563477-0.0849609,0.9941406
		c-0.0791016,0.3686523-0.2353516,0.6547852-0.4677734,0.8588867C15.7958984,9.3961096,15.703125,9.464469,15.6005859,9.526969
		l-0.296875,0.1953125c-0.1708984,0.0566406-0.2949219,0.1054688-0.3740234,0.1445312l-0.3662109,0.1279297
		c-0.1923828,0-0.4101562,0.0136719-0.6542969,0.0419922c-0.1865234,0.0283203-0.4111328,0.0429688-0.671875,0.0429688
		C13.2089844,10.0797033,13.1699219,10.0748205,13.1191406,10.067008z M14.1132812,8.617301
		c0.0283203-0.0683594,0.0449219-0.1445312,0.0507812-0.2294922s0.0087891-0.1362305,0.0087891-0.1533203l0.0087891-0.237793
		c0.0166016-0.1699219,0.0253906-0.3344727,0.0253906-0.4931641c0.0048828-0.0507812,0.0078125-0.1191406,0.0078125-0.2041016
		c0-0.1357422-0.0136719-0.2675781-0.0419922-0.3950195s-0.0595703-0.2480469-0.09375-0.3613281
		s-0.0566406-0.1870117-0.0673828-0.2211914C14,6.2203283,13.9755859,6.1407385,13.9394531,6.0840979
		c-0.0371094-0.0566406-0.1015625-0.0849609-0.1914062-0.0849609c-0.1699219,0-0.2832031,0.0908203-0.3398438,0.2719727
		c-0.0292969,0.0678711-0.0488281,0.1474609-0.0595703,0.237793c0,0.0341797-0.0087891,0.1108398-0.0253906,0.2294922
		l-0.0595703,0.4165039c-0.0400391,0.125-0.0595703,0.2636719-0.0595703,0.4165039
		c0,0.1987305,0.0195312,0.3769531,0.0595703,0.5356445c0.0107422,0.0849609,0.0351562,0.1743164,0.0722656,0.2675781
		c0.0361328,0.09375,0.0605469,0.1606445,0.0722656,0.2001953c0.0048828,0.0566406,0.0566406,0.1132812,0.1523438,0.1699219
		c0.0283203,0.0283203,0.0595703,0.0522461,0.09375,0.0722656s0.0595703,0.0297852,0.0761719,0.0297852
		C13.90625,8.8467932,14.0341797,8.770133,14.1132812,8.617301z"/>
	<path class="st0" d="M18.6865234,10.067008c-0.0517578-0.0087891-0.1162109-0.0185547-0.1962891-0.0302734l-0.4589844-0.09375
		c-0.0332031-0.0166016-0.0664062-0.0292969-0.0976562-0.0380859c-0.03125-0.0078125-0.0576172-0.0185547-0.0800781-0.0292969
		c-0.0117188-0.0058594-0.0283203-0.0146484-0.0517578-0.0253906c-0.0224609-0.0117188-0.0332031-0.0253906-0.0332031-0.0429688
		c-0.0517578-0.0166016-0.1142578-0.0449219-0.1875-0.0849609c-0.0732422-0.0224609-0.1357422-0.0507812-0.1865234-0.0849609
		l-0.1191406-0.0849609c-0.0566406-0.0341797-0.0966797-0.0625-0.1191406-0.0849609
		c-0.1640625-0.1416016-0.2919922-0.3427734-0.3828125-0.6040039c-0.0732422-0.2148438-0.1298828-0.4672852-0.1699219-0.7563477
		c-0.0166016-0.1699219-0.0253906-0.3911133-0.0253906-0.6630859c0-0.3227539,0.0166016-0.574707,0.0507812-0.7563477
		c0.0283203-0.2094727,0.0878906-0.4619141,0.1787109-0.7563477c0.0400391-0.0341797,0.1044922-0.1445312,0.1953125-0.331543
		c0.0224609-0.0283203,0.0400391-0.0581055,0.0507812-0.0893555c0.0117188-0.03125,0.0263672-0.0581055,0.0429688-0.0805664
		c0.0058594-0.0058594,0.015625-0.0214844,0.0292969-0.046875C17.140625,5.3575354,17.15625,5.34484,17.1728516,5.34484
		c0.0458984,0,0.1103516-0.0429688,0.1962891-0.1279297c0.0273438-0.0166016,0.0673828-0.0507812,0.1181641-0.1015625
		c0.0400391-0.0400391,0.0771484-0.0683594,0.1113281-0.0854492c0.1582031-0.0961914,0.3564453-0.1640625,0.5947266-0.2036133
		C18.2324219,4.820426,18.2851562,4.81359,18.3505859,4.804801c0.0644531-0.0083008,0.1171875-0.0126953,0.1572266-0.0126953
		c0.0732422,0,0.1357422-0.0029297,0.1865234-0.0083008c0.0517578-0.0058594,0.0966797-0.0117188,0.1367188-0.0170898
		c0.3564453,0.0112305,0.6542969,0.0336914,0.8925781,0.0678711c0.2089844,0.0229492,0.4726562,0.0654297,0.7900391,0.1274414
		c0.0166016,0,0.0449219,0.0087891,0.0849609,0.0253906c0.1875,0.0625,0.328125,0.1191406,0.4248047,0.1704102
		c0.0683594,0.0336914,0.1025391,0.0678711,0.1025391,0.1015625V5.336051c0.0615234,0,0.1269531,0.0268555,0.1953125,0.0810547
		c0.0683594,0.0537109,0.1298828,0.1259766,0.1865234,0.2163086c0.0625,0.0795898,0.1113281,0.1645508,0.1445312,0.2553711
		c0.0341797,0.090332,0.0517578,0.1640625,0.0517578,0.2207031c0.0507812,0,0.0800781,0.0029297,0.0888672,0.0087891
		c0.0087891,0.0053711,0.0126953,0.03125,0.0126953,0.0761719c0.0283203,0.1420898,0.0566406,0.2553711,0.0849609,0.340332
		c0.0117188,0.0454102,0.0244141,0.0947266,0.0380859,0.1484375c0.0146484,0.0541992,0.0302734,0.1176758,0.046875,0.1914062
		l0.0087891,0.0678711l0.0166016,0.3144531V7.46984c0,0.4248047-0.0283203,0.7563477-0.0849609,0.9941406
		c-0.0791016,0.3686523-0.2353516,0.6547852-0.4677734,0.8588867c-0.0849609,0.0732422-0.1777344,0.1416016-0.2802734,0.2041016
		l-0.296875,0.1953125c-0.1708984,0.0566406-0.2949219,0.1054688-0.3740234,0.1445312l-0.3662109,0.1279297
		c-0.1923828,0-0.4101562,0.0136719-0.6542969,0.0419922c-0.1865234,0.0283203-0.4111328,0.0429688-0.671875,0.0429688
		C18.7763672,10.0797033,18.7373047,10.0748205,18.6865234,10.067008z M19.6806641,8.617301
		c0.0283203-0.0683594,0.0449219-0.1445312,0.0507812-0.2294922s0.0087891-0.1362305,0.0087891-0.1533203l0.0087891-0.237793
		c0.0166016-0.1699219,0.0253906-0.3344727,0.0253906-0.4931641c0.0048828-0.0507812,0.0078125-0.1191406,0.0078125-0.2041016
		c0-0.1357422-0.0136719-0.2675781-0.0419922-0.3950195s-0.0595703-0.2480469-0.09375-0.3613281
		s-0.0566406-0.1870117-0.0673828-0.2211914c-0.0117188-0.1015625-0.0361328-0.1811523-0.0722656-0.237793
		c-0.0371094-0.0566406-0.1015625-0.0849609-0.1914062-0.0849609c-0.1699219,0-0.2832031,0.0908203-0.3398438,0.2719727
		c-0.0292969,0.0678711-0.0488281,0.1474609-0.0595703,0.237793c0,0.0341797-0.0087891,0.1108398-0.0253906,0.2294922
		l-0.0595703,0.4165039c-0.0400391,0.125-0.0595703,0.2636719-0.0595703,0.4165039
		c0,0.1987305,0.0195312,0.3769531,0.0595703,0.5356445c0.0107422,0.0849609,0.0351562,0.1743164,0.0722656,0.2675781
		c0.0361328,0.09375,0.0605469,0.1606445,0.0722656,0.2001953c0.0048828,0.0566406,0.0566406,0.1132812,0.1523438,0.1699219
		C19.15625,8.7730627,19.1875,8.7969885,19.2216797,8.817008s0.0595703,0.0297852,0.0761719,0.0297852
		C19.4736328,8.8467932,19.6015625,8.770133,19.6806641,8.617301z"/>
</g>
</svg>
