<?xml version="1.0" encoding="utf-8"?>
<!-- Generator: Adobe Illustrator 27.5.0, SVG Export Plug-In . SVG Version: 6.00 Build 0)  -->
<svg version="1.1" id="Ebene_1" xmlns="http://www.w3.org/2000/svg" xmlns:xlink="http://www.w3.org/1999/xlink" x="0px" y="0px"
	 viewBox="0 0 24 16" style="enable-background:new 0 0 24 16;" xml:space="preserve">
<style type="text/css">
	.st0{fill:#86D146;}
</style>
<g>
	<path class="st0" d="M4.5141602,10.5465002H4.199707c-0.1362305-0.0117188-0.340332-0.0166016-0.6123047-0.0166016H3.2304688
		c-0.1699219,0-0.2832031-0.0224609-0.3398438-0.0683594c-0.0795898-0.0625-0.1191406-0.1835938-0.1191406-0.3652344
		l0.0087891-0.0771484c0-0.0166016,0.0024414-0.0351562,0.0083008-0.0546875
		C2.7939453,9.9449377,2.796875,9.9205236,2.796875,9.8922033l0.0170898-0.1875L2.796875,9.4673986
		c0-0.0224609-0.0029297-0.0439453-0.0083008-0.0644531C2.7827148,9.3834143,2.7802734,9.3619299,2.7802734,9.339469
		L2.7714844,9.2798986C2.765625,9.223258,2.7631836,9.1158361,2.7631836,8.9571447V8.1924963
		C2.7573242,8.016715,2.7543945,7.8126135,2.7543945,7.5801916c0-0.0620117-0.0083008-0.0932617-0.0253906-0.0932617
		c-0.0224609,0-0.0566406,0.0224609-0.1020508,0.0678711C2.5249023,7.6793127,2.4174805,7.7872229,2.3041992,7.8775549
		C2.2475586,7.917594,2.1850586,7.9371252,2.1171875,7.9371252c-0.0625,0-0.1137695-0.0166016-0.1533203-0.0507812
		s-0.059082-0.0737305-0.059082-0.1191406V6.1436682c0-0.0224609,0.0053711-0.0366211,0.0166016-0.0424805
		c0.0112305-0.0053711,0.0229492-0.0141602,0.0341797-0.0253906S1.980957,6.0557775,1.9980469,6.0504065
		C2.0322266,6.0333166,2.0756836,6.007926,2.1298828,5.9737463C2.1835938,5.9395666,2.25,5.9000158,2.3295898,5.8546057
		c0.1586914-0.1074219,0.2773438-0.1723633,0.3569336-0.1953125c0.0737305-0.0283203,0.1386719-0.0424805,0.1953125-0.0424805
		c0.578125,0,0.9975586,0.0029297,1.2583008,0.0083008l1.2578125,0.0087891c0.0625,0,0.1162109,0.0224609,0.1616211,0.0678711
		s0.0678711,0.0966797,0.0678711,0.152832v2.8305664c0,0.2495117-0.0083008,0.4814453-0.0253906,0.6972656
		c-0.0170898,0.2265625-0.0253906,0.4443359-0.0253906,0.6542969c0,0.1582031-0.0117188,0.2714844-0.0341797,0.3398438
		c-0.0283203,0.1191406-0.0932617,0.1787109-0.1953125,0.1787109C4.9501953,10.5552893,4.6728516,10.5523596,4.5141602,10.5465002z"
		/>
	<path class="st0" d="M7.3525391,10.3599768c-0.4648438-0.2099609-0.8271484-0.4990234-1.0878906-0.8671875
		C5.980957,9.0963049,5.8398438,8.6060705,5.8398438,8.0220861c0-0.2661133,0.0097656-0.4887695,0.0292969-0.6669922
		C5.8891602,7.176383,5.9301758,7.007926,5.9926758,6.8492346C6.128418,6.4981604,6.375,6.1578283,6.7319336,5.829215
		c0.5668945-0.3793945,1.309082-0.5693359,2.2270508-0.5693359c0.3515625,0,0.7368164,0.0566406,1.15625,0.1699219
		l0.2802734,0.1020508c0.1132812,0.0507812,0.1982422,0.1020508,0.2548828,0.152832
		c0.0117188,0.0058594,0.0229492,0.0126953,0.0341797,0.0214844c0.0112305,0.0083008,0.0283203,0.015625,0.0512695,0.0209961
		c0.0678711,0.0229492,0.1015625,0.0878906,0.1015625,0.1958008c0,0.0791016-0.0307617,0.2265625-0.0932617,0.4418945
		l-0.1274414,0.2890625c-0.0625,0.1416016-0.1333008,0.2236328-0.2124023,0.246582h-0.0424805
		c-0.0400391,0-0.09375-0.0087891-0.1616211-0.0258789C9.9394531,6.801383,9.6987305,6.7642736,9.4775391,6.7642736
		c-0.300293,0-0.5356445,0.0454102-0.7055664,0.1362305C8.6245117,6.9796057,8.5341797,7.0787268,8.5,7.1978674
		C8.4775391,7.2828283,8.4604492,7.370719,8.4492188,7.461051c0.3457031-0.1132812,0.6855469-0.1699219,1.0200195-0.1699219
		c0.4360352,0,0.7875977,0.0849609,1.0537109,0.2553711c0.2265625,0.1303711,0.4038086,0.3046875,0.53125,0.5224609
		c0.1274414,0.2182617,0.1914062,0.4716797,0.1914062,0.7607422s-0.0678711,0.5498047-0.2041016,0.7822266
		c-0.1357422,0.2324219-0.3256836,0.4248047-0.5693359,0.5771484c-0.2324219,0.1474609-0.5,0.2607422-0.8032227,0.3408203
		c-0.3032227,0.0791016-0.6162109,0.1181641-0.9394531,0.1181641C8.230957,10.6480627,7.7719727,10.5523596,7.3525391,10.3599768z
		 M9.5454102,8.863883c0-0.2094727-0.1303711-0.3144531-0.390625-0.3144531c-0.1699219,0-0.3173828,0.0224609-0.4423828,0.0678711
		c-0.0791016,0.0170898-0.144043,0.0395508-0.1953125,0.0678711c0.0908203,0.3964844,0.2890625,0.5947266,0.5952148,0.5947266
		C9.4008789,9.2798986,9.5454102,9.1412268,9.5454102,8.863883z"/>
	<path class="st0" d="M13.4814453,10.7466955c-0.0517578-0.0087891-0.1162109-0.0185547-0.1962891-0.0302734l-0.4584961-0.09375
		c-0.0336914-0.0166016-0.0664062-0.0292969-0.0976562-0.0380859c-0.03125-0.0078125-0.0581055-0.0185547-0.0805664-0.0292969
		c-0.0117188-0.0058594-0.0283203-0.0146484-0.0512695-0.0253906c-0.0224609-0.0117188-0.0336914-0.0253906-0.0336914-0.0429688
		c-0.0512695-0.0166016-0.1137695-0.0449219-0.1870117-0.0849609c-0.0737305-0.0224609-0.1362305-0.0507812-0.1870117-0.0849609
		l-0.1191406-0.0849609c-0.0566406-0.0341797-0.0961914-0.0625-0.1191406-0.0849609
		c-0.1640625-0.1416016-0.2919922-0.3427734-0.3823242-0.6035156c-0.0737305-0.2148438-0.1303711-0.4677734-0.1699219-0.7563477
		c-0.0170898-0.1699219-0.0253906-0.3911133-0.0253906-0.6630859c0-0.3227539,0.0166016-0.574707,0.0507812-0.7563477
		c0.0283203-0.2094727,0.0878906-0.4619141,0.1787109-0.7563477c0.0395508-0.0341797,0.1044922-0.1445312,0.1953125-0.331543
		c0.0224609-0.0283203,0.0395508-0.0581055,0.0507812-0.0893555c0.0117188-0.03125,0.0258789-0.0581055,0.0424805-0.0805664
		c0.0058594-0.0058594,0.015625-0.0214844,0.0297852-0.046875s0.0297852-0.0380859,0.046875-0.0380859
		c0.0454102,0,0.1103516-0.0429688,0.1958008-0.1279297c0.027832-0.0166016,0.0678711-0.0507812,0.1186523-0.1015625
		c0.0395508-0.0400391,0.0766602-0.0683594,0.1108398-0.0854492c0.1582031-0.0961914,0.3569336-0.1640625,0.5947266-0.2036133
		c0.0390625-0.0058594,0.0917969-0.0126953,0.1572266-0.0214844c0.0644531-0.0083008,0.1171875-0.0126953,0.1572266-0.0126953
		c0.0732422,0,0.1357422-0.0029297,0.1865234-0.0083008c0.0517578-0.0058594,0.0966797-0.0117188,0.1367188-0.0170898
		c0.3564453,0.0112305,0.6542969,0.0336914,0.8925781,0.0678711c0.2089844,0.0229492,0.4726562,0.0654297,0.7900391,0.1274414
		c0.0166016,0,0.0449219,0.0087891,0.0849609,0.0253906c0.1875,0.0625,0.328125,0.1191406,0.4248047,0.1704102
		c0.0683594,0.0336914,0.1025391,0.0678711,0.1025391,0.1015625v0.0766602c0.0615234,0,0.1269531,0.0268555,0.1953125,0.0810547
		c0.0683594,0.0537109,0.1298828,0.1259766,0.1865234,0.2163086c0.0625,0.0795898,0.1113281,0.1645508,0.1445312,0.2553711
		c0.0341797,0.090332,0.0517578,0.1640625,0.0517578,0.2207031c0.0507812,0,0.0800781,0.0029297,0.0888672,0.0087891
		c0.0087891,0.0053711,0.0126953,0.03125,0.0126953,0.0761719c0.0283203,0.1420898,0.0566406,0.2553711,0.0849609,0.340332
		c0.0117188,0.0454102,0.0244141,0.0947266,0.0380859,0.1484375c0.0146484,0.0541992,0.0302734,0.1176758,0.046875,0.1914062
		l0.0087891,0.0678711l0.0166016,0.3144531v0.2128906c0,0.4248047-0.0283203,0.7563477-0.0849609,0.9941406
		c-0.0791016,0.3681641-0.2353516,0.6542969-0.4677734,0.8583984c-0.0849609,0.0732422-0.1777344,0.1416016-0.2802734,0.2041016
		l-0.296875,0.1953125c-0.1708984,0.0566406-0.2949219,0.1054688-0.3740234,0.1445312l-0.3662109,0.1279297
		c-0.1923828,0-0.4101562,0.0136719-0.6542969,0.0419922c-0.1865234,0.0283203-0.4111328,0.0429688-0.671875,0.0429688
		C13.5712891,10.7593908,13.5322266,10.754508,13.4814453,10.7466955z M14.4755859,9.2974768
		c0.0283203-0.0683594,0.0449219-0.1445312,0.0507812-0.2294922s0.0087891-0.1362305,0.0087891-0.1533203l0.0087891-0.237793
		c0.0166016-0.1699219,0.0253906-0.3344727,0.0253906-0.4931641c0.0048828-0.0507812,0.0078125-0.1191406,0.0078125-0.2041016
		c0-0.1357422-0.0136719-0.2675781-0.0419922-0.3950195s-0.0595703-0.2480469-0.09375-0.3613281
		s-0.0566406-0.1870117-0.0673828-0.2211914c-0.0117188-0.1015625-0.0361328-0.1811523-0.0722656-0.237793
		c-0.0371094-0.0566406-0.1015625-0.0849609-0.1914062-0.0849609c-0.1699219,0-0.2832031,0.0908203-0.3398438,0.2719727
		c-0.0292969,0.0678711-0.0488281,0.1474609-0.0595703,0.237793c0,0.0341797-0.0087891,0.1108398-0.0253906,0.2294922
		l-0.0595703,0.4165039c-0.0400391,0.125-0.0595703,0.2636719-0.0595703,0.4165039
		c0,0.1987305,0.0195312,0.3769531,0.0595703,0.5356445c0.0107422,0.0849609,0.0351562,0.1743164,0.0722656,0.2670898
		c0.0361328,0.09375,0.0605469,0.1611328,0.0722656,0.2001953c0.0048828,0.0566406,0.0566406,0.1132812,0.1523438,0.1699219
		c0.0283203,0.0283203,0.0595703,0.0527344,0.09375,0.0722656c0.0341797,0.0205078,0.0595703,0.0302734,0.0761719,0.0302734
		C14.2685547,9.526969,14.3964844,9.4498205,14.4755859,9.2974768z"/>
	<path class="st0" d="M19.0488281,10.7466955c-0.0517578-0.0087891-0.1162109-0.0185547-0.1962891-0.0302734l-0.4589844-0.09375
		c-0.0332031-0.0166016-0.0664062-0.0292969-0.0976562-0.0380859c-0.03125-0.0078125-0.0576172-0.0185547-0.0800781-0.0292969
		c-0.0117188-0.0058594-0.0283203-0.0146484-0.0517578-0.0253906c-0.0224609-0.0117188-0.0332031-0.0253906-0.0332031-0.0429688
		c-0.0517578-0.0166016-0.1142578-0.0449219-0.1875-0.0849609c-0.0732422-0.0224609-0.1357422-0.0507812-0.1865234-0.0849609
		l-0.1191406-0.0849609c-0.0566406-0.0341797-0.0966797-0.0625-0.1191406-0.0849609
		c-0.1640625-0.1416016-0.2919922-0.3427734-0.3828125-0.6035156C17.0625,9.3287268,17.0058594,9.0757971,16.9658203,8.7872229
		c-0.0166016-0.1699219-0.0253906-0.3911133-0.0253906-0.6630859c0-0.3227539,0.0166016-0.574707,0.0507812-0.7563477
		c0.0283203-0.2094727,0.0878906-0.4619141,0.1787109-0.7563477c0.0400391-0.0341797,0.1044922-0.1445312,0.1953125-0.331543
		c0.0224609-0.0283203,0.0400391-0.0581055,0.0507812-0.0893555c0.0117188-0.03125,0.0263672-0.0581055,0.0429688-0.0805664
		c0.0058594-0.0058594,0.015625-0.0214844,0.0292969-0.046875c0.0146484-0.0253906,0.0302734-0.0380859,0.046875-0.0380859
		c0.0458984,0,0.1103516-0.0429688,0.1962891-0.1279297c0.0273438-0.0166016,0.0673828-0.0507812,0.1181641-0.1015625
		c0.0400391-0.0400391,0.0771484-0.0683594,0.1113281-0.0854492c0.1582031-0.0961914,0.3564453-0.1640625,0.5947266-0.2036133
		c0.0390625-0.0058594,0.0917969-0.0126953,0.1572266-0.0214844c0.0644531-0.0083008,0.1171875-0.0126953,0.1572266-0.0126953
		c0.0732422,0,0.1357422-0.0029297,0.1865234-0.0083008c0.0517578-0.0058594,0.0966797-0.0117188,0.1367188-0.0170898
		c0.3564453,0.0112305,0.6542969,0.0336914,0.8925781,0.0678711c0.2089844,0.0229492,0.4726562,0.0654297,0.7900391,0.1274414
		c0.0166016,0,0.0449219,0.0087891,0.0849609,0.0253906c0.1875,0.0625,0.328125,0.1191406,0.4248047,0.1704102
		c0.0683594,0.0336914,0.1025391,0.0678711,0.1025391,0.1015625v0.0766602c0.0615234,0,0.1269531,0.0268555,0.1953125,0.0810547
		c0.0683594,0.0537109,0.1298828,0.1259766,0.1865234,0.2163086c0.0625,0.0795898,0.1113281,0.1645508,0.1445312,0.2553711
		c0.0341797,0.090332,0.0517578,0.1640625,0.0517578,0.2207031c0.0507812,0,0.0800781,0.0029297,0.0888672,0.0087891
		c0.0087891,0.0053711,0.0126953,0.03125,0.0126953,0.0761719c0.0283203,0.1420898,0.0566406,0.2553711,0.0849609,0.340332
		c0.0117188,0.0454102,0.0244141,0.0947266,0.0380859,0.1484375c0.0146484,0.0541992,0.0302734,0.1176758,0.046875,0.1914062
		l0.0087891,0.0678711l0.0166016,0.3144531v0.2128906c0,0.4248047-0.0283203,0.7563477-0.0849609,0.9941406
		c-0.0791016,0.3681641-0.2353516,0.6542969-0.4677734,0.8583984c-0.0849609,0.0732422-0.1777344,0.1416016-0.2802734,0.2041016
		l-0.296875,0.1953125c-0.1708984,0.0566406-0.2949219,0.1054688-0.3740234,0.1445312l-0.3662109,0.1279297
		c-0.1923828,0-0.4101562,0.0136719-0.6542969,0.0419922c-0.1865234,0.0283203-0.4111328,0.0429688-0.671875,0.0429688
		C19.1386719,10.7593908,19.0996094,10.754508,19.0488281,10.7466955z M20.0429688,9.2974768
		c0.0283203-0.0683594,0.0449219-0.1445312,0.0507812-0.2294922s0.0087891-0.1362305,0.0087891-0.1533203l0.0087891-0.237793
		c0.0166016-0.1699219,0.0253906-0.3344727,0.0253906-0.4931641c0.0048828-0.0507812,0.0078125-0.1191406,0.0078125-0.2041016
		c0-0.1357422-0.0136719-0.2675781-0.0419922-0.3950195s-0.0595703-0.2480469-0.09375-0.3613281
		s-0.0566406-0.1870117-0.0673828-0.2211914c-0.0117188-0.1015625-0.0361328-0.1811523-0.0722656-0.237793
		c-0.0371094-0.0566406-0.1015625-0.0849609-0.1914062-0.0849609c-0.1699219,0-0.2832031,0.0908203-0.3398438,0.2719727
		c-0.0292969,0.0678711-0.0488281,0.1474609-0.0595703,0.237793c0,0.0341797-0.0087891,0.1108398-0.0253906,0.2294922
		l-0.0595703,0.4165039c-0.0400391,0.125-0.0595703,0.2636719-0.0595703,0.4165039
		c0,0.1987305,0.0195312,0.3769531,0.0595703,0.5356445c0.0107422,0.0849609,0.0351562,0.1743164,0.0722656,0.2670898
		c0.0361328,0.09375,0.0605469,0.1611328,0.0722656,0.2001953c0.0048828,0.0566406,0.0566406,0.1132812,0.1523438,0.1699219
		c0.0283203,0.0283203,0.0595703,0.0527344,0.09375,0.0722656c0.0341797,0.0205078,0.0595703,0.0302734,0.0761719,0.0302734
		C19.8359375,9.526969,19.9638672,9.4498205,20.0429688,9.2974768z"/>
</g>
</svg>
