<?xml version="1.0" encoding="utf-8"?>
<!-- Generator: Adobe Illustrator 27.5.0, SVG Export Plug-In . SVG Version: 6.00 Build 0)  -->
<svg version="1.1" id="Ebene_1" xmlns="http://www.w3.org/2000/svg" xmlns:xlink="http://www.w3.org/1999/xlink" x="0px" y="0px"
	 viewBox="0 0 16 16" style="enable-background:new 0 0 16 16;" xml:space="preserve">
<style type="text/css">
	.st0{fill:#86D146;}
</style>
<g>
	<path class="st0" d="M1.0429688,9.9625158c-0.144043-0.0263672-0.2373047-0.0507812-0.2797852-0.0722656
		C0.6933594,9.8580236,0.6591797,9.8160315,0.6591797,9.7623205c0-0.1386719,0.0717773-0.2802734,0.2158203-0.4238281v0.0078125
		l0.0478516-0.0478516C0.9604492,9.261344,1.0800781,9.1197424,1.2832031,8.8741369
		C1.4267578,8.7086096,1.5761719,8.516715,1.730957,8.297965c0.0268555-0.0424805,0.0571289-0.0893555,0.0917969-0.1401367
		c0.034668-0.050293,0.0600586-0.0917969,0.0761719-0.1235352c0.0693359-0.0908203,0.1411133-0.2163086,0.2158203-0.3764648
		c0.0322266-0.0742188,0.0600586-0.1503906,0.0844727-0.2275391c0.0239258-0.0776367,0.0356445-0.1484375,0.0356445-0.2124023
		c0-0.144043-0.0454102-0.2451172-0.1357422-0.3037109C2.0136719,6.8502111,1.8618164,6.8179846,1.6430664,6.8179846
		c-0.1333008,0-0.2749023,0.0136719-0.4243164,0.0400391C1.1230469,6.8848791,0.9682617,6.9512854,0.7548828,7.058219
		c0-0.0053711-0.0024414-0.0161133-0.0078125-0.0322266S0.7363281,6.9913244,0.730957,6.96984
		C0.7148438,6.8526525,0.6992188,6.6768713,0.6831055,6.442008L0.6591797,6.0259924L0.6508789,5.8580236l-0.0078125-0.144043
		V5.6578283l0.3520508-0.159668C1.2880859,5.40734,1.5869141,5.3380041,1.8911133,5.2901525
		C2.1948242,5.242301,2.4960938,5.2178869,2.7949219,5.2178869c0.2558594,0,0.5039062,0.0283203,0.7441406,0.0839844
		C3.7788086,5.3580236,3.9897461,5.442008,4.1708984,5.5538244c0.4213867,0.2617188,0.6318359,0.65625,0.6318359,1.184082
		c0,0.2827148-0.0932617,0.5576172-0.2797852,0.8242188s-0.4746094,0.5385742-0.8637695,0.815918h0.3359375h0.3276367
		c0.1547852,0,0.2612305,0.0107422,0.3203125,0.0322266c0.1118164,0.0371094,0.1679688,0.0986328,0.1679688,0.1835938
		c0,0.1655273-0.0053711,0.3388672-0.0161133,0.5200195v0.2001953v0.2158203c0,0.1494141-0.0214844,0.2587891-0.0639648,0.328125
		C4.6723633,9.933219,4.5551758,9.9703283,4.3789062,9.9703283C4.362793,9.9859533,4.328125,9.9947424,4.2749023,9.9947424
		C4.184082,9.9996252,3.984375,10.0025549,3.6748047,10.0025549H2.9228516H2.6347656h-0.34375H1.9550781
		C1.5390625,10.0025549,1.2348633,9.988883,1.0429688,9.9625158z"/>
	<path class="st0" d="M6.9790039,10.1822424c-0.0483398-0.0078125-0.109375-0.0175781-0.184082-0.0283203L6.362793,10.0660315
		c-0.0317383-0.015625-0.0625-0.0273438-0.0917969-0.0361328c-0.0292969-0.0078125-0.0546875-0.0166016-0.0761719-0.0273438
		C6.184082,9.9966955,6.1679688,9.988883,6.1469727,9.9781408C6.1254883,9.9673986,6.1147461,9.9547033,6.1147461,9.9381018
		c-0.0478516-0.015625-0.1064453-0.0419922-0.1757812-0.0800781C5.8696289,9.8375158,5.8110352,9.8101721,5.7626953,9.7779455
		L5.6508789,9.6978674c-0.0532227-0.03125-0.0908203-0.0585938-0.1118164-0.0791016
		C5.3842773,9.4849768,5.2641602,9.2955236,5.1787109,9.0504065C5.109375,8.8472815,5.0561523,8.6099768,5.019043,8.3380041
		C5.0029297,8.1778479,4.9946289,7.96984,4.9946289,7.7139807c0-0.3037109,0.0161133-0.5410156,0.0483398-0.7119141
		C5.0693359,6.804801,5.1254883,6.5674963,5.2109375,6.2901525c0.0371094-0.0322266,0.0986328-0.1362305,0.184082-0.3120117
		c0.0209961-0.0268555,0.0371094-0.0546875,0.0478516-0.0839844S5.4667969,5.839469,5.4829102,5.8179846
		c0.0053711-0.0053711,0.0146484-0.0200195,0.027832-0.0439453s0.0283203-0.0361328,0.0439453-0.0361328
		c0.0429688,0,0.1040039-0.0400391,0.184082-0.1196289C5.765625,5.6021643,5.8027344,5.5699377,5.8510742,5.5220861
		C5.8881836,5.4849768,5.9228516,5.4581213,5.9550781,5.442008c0.1489258-0.090332,0.3359375-0.1547852,0.5595703-0.1918945
		c0.0375977-0.0053711,0.0869141-0.012207,0.1479492-0.0200195c0.0615234-0.0078125,0.1108398-0.012207,0.1484375-0.012207
		c0.0688477,0,0.1279297-0.0024414,0.1757812-0.0078125s0.0908203-0.0107422,0.1279297-0.0161133
		C7.4506836,5.2047033,7.730957,5.2261877,7.9550781,5.257926c0.1967773,0.0214844,0.4448242,0.0615234,0.7436523,0.1201172
		c0.0161133,0,0.0429688,0.0078125,0.0800781,0.0239258c0.1762695,0.059082,0.309082,0.1123047,0.3999023,0.1601562
		C9.2421875,5.5938635,9.2744141,5.62609,9.2744141,5.6578283V5.730094c0.0585938,0,0.1201172,0.0253906,0.1845703,0.0761719
		c0.0634766,0.0507812,0.1220703,0.1186523,0.1757812,0.2036133c0.0585938,0.074707,0.1035156,0.1547852,0.1357422,0.2402344
		s0.0478516,0.1547852,0.0478516,0.2080078c0.0478516,0,0.0761719,0.0029297,0.0839844,0.0078125
		c0.0078125,0.0053711,0.0126953,0.0292969,0.0126953,0.0722656c0.0263672,0.1333008,0.0527344,0.2397461,0.0791016,0.3198242
		c0.0107422,0.0429688,0.0234375,0.0893555,0.0361328,0.1401367c0.0136719,0.0507812,0.0283203,0.1108398,0.0439453,0.1796875
		l0.0087891,0.0644531l0.015625,0.2958984v0.199707c0,0.4003906-0.0263672,0.7124023-0.0800781,0.9360352
		C9.9433594,9.0211096,9.796875,9.2906408,9.578125,9.4820471C9.4990234,9.551383,9.4101562,9.6158361,9.3144531,9.6744299
		L9.0341797,9.8580236C8.875,9.9117346,8.7573242,9.9566565,8.6826172,9.9947424l-0.34375,0.1191406
		c-0.1816406,0-0.3867188,0.0136719-0.6162109,0.0400391c-0.1757812,0.0273438-0.3867188,0.0400391-0.6318359,0.0400391
		C7.0639648,10.1939611,7.0268555,10.1900549,6.9790039,10.1822424z M7.9150391,8.8179846
		c0.0263672-0.0639648,0.0424805-0.1357422,0.0478516-0.2158203s0.0078125-0.1279297,0.0078125-0.144043l0.0083008-0.2241211
		C7.9946289,8.073844,8.0029297,7.9195471,8.0029297,7.770133c0.0053711-0.0478516,0.0078125-0.1123047,0.0078125-0.1918945
		c0-0.1279297-0.0131836-0.2519531-0.0400391-0.3720703s-0.0556641-0.2333984-0.0878906-0.340332
		C7.8510742,6.7593908,7.8295898,6.6900549,7.8188477,6.6578283C7.8081055,6.5621252,7.7856445,6.4874182,7.7509766,6.4341955
		S7.65625,6.3541174,7.5708008,6.3541174c-0.1601562,0-0.2666016,0.0854492-0.3198242,0.2558594
		C7.2241211,6.6739416,7.2055664,6.7486486,7.1948242,6.8340979c0,0.0317383-0.0078125,0.1040039-0.0239258,0.2158203
		L7.1147461,7.442008C7.0776367,7.5596838,7.059082,7.6900549,7.059082,7.8340979
		c0,0.1865234,0.0185547,0.3544922,0.0556641,0.5039062c0.0107422,0.0800781,0.0332031,0.1640625,0.0678711,0.2519531
		s0.0576172,0.1508789,0.0683594,0.1879883c0.0048828,0.0537109,0.0532227,0.1069336,0.144043,0.1601562
		c0.0263672,0.0268555,0.0556641,0.0498047,0.0878906,0.0683594c0.0317383,0.0185547,0.0561523,0.0283203,0.0717773,0.0283203
		C7.7202148,9.0347815,7.840332,8.9620275,7.9150391,8.8179846z"/>
	<path class="st0" d="M12.21875,10.1822424c-0.0488281-0.0078125-0.109375-0.0175781-0.1845703-0.0283203l-0.4316406-0.0878906
		c-0.0322266-0.015625-0.0625-0.0273438-0.0917969-0.0361328c-0.0292969-0.0078125-0.0546875-0.0166016-0.0761719-0.0273438
		c-0.0107422-0.0058594-0.0273438-0.0136719-0.0478516-0.0244141c-0.0214844-0.0107422-0.0322266-0.0234375-0.0322266-0.0400391
		c-0.0478516-0.015625-0.1064453-0.0419922-0.1757812-0.0800781c-0.0693359-0.0205078-0.1279297-0.0478516-0.1767578-0.0800781
		L10.890625,9.6978674c-0.0537109-0.03125-0.0908203-0.0585938-0.1123047-0.0791016
		c-0.1542969-0.1337891-0.2744141-0.3232422-0.3603516-0.5683594c-0.0693359-0.203125-0.1220703-0.4404297-0.1591797-0.7124023
		C10.2421875,8.1778479,10.234375,7.96984,10.234375,7.7139807c0-0.3037109,0.015625-0.5410156,0.0478516-0.7119141
		c0.0263672-0.1972656,0.0830078-0.4345703,0.1679688-0.7119141c0.0371094-0.0322266,0.0986328-0.1362305,0.1845703-0.3120117
		c0.0205078-0.0268555,0.0371094-0.0546875,0.0478516-0.0839844s0.0234375-0.0546875,0.0400391-0.0761719
		C10.7275391,5.8126135,10.7373047,5.797965,10.75,5.7740393c0.0136719-0.0239258,0.0283203-0.0361328,0.0439453-0.0361328
		c0.0429688,0,0.1044922-0.0400391,0.1845703-0.1196289c0.0263672-0.0161133,0.0634766-0.0483398,0.1123047-0.0961914
		c0.0371094-0.0371094,0.0712891-0.0639648,0.1035156-0.0800781c0.1494141-0.090332,0.3359375-0.1547852,0.5595703-0.1918945
		c0.0380859-0.0053711,0.0869141-0.012207,0.1484375-0.0200195s0.1103516-0.012207,0.1484375-0.012207
		c0.0683594,0,0.1279297-0.0024414,0.1757812-0.0078125s0.0908203-0.0107422,0.1279297-0.0161133
		c0.3359375,0.0107422,0.6162109,0.0322266,0.8398438,0.0639648c0.1972656,0.0214844,0.4453125,0.0615234,0.7441406,0.1201172
		c0.015625,0,0.0429688,0.0078125,0.0800781,0.0239258c0.1757812,0.059082,0.3085938,0.1123047,0.3994141,0.1601562
		c0.0644531,0.0317383,0.0966797,0.0639648,0.0966797,0.0957031V5.730094c0.0585938,0,0.1201172,0.0253906,0.1835938,0.0761719
		c0.0644531,0.0507812,0.1230469,0.1186523,0.1757812,0.2036133c0.0585938,0.074707,0.1044922,0.1547852,0.1367188,0.2402344
		c0.03125,0.0854492,0.0478516,0.1547852,0.0478516,0.2080078c0.0478516,0,0.0761719,0.0029297,0.0839844,0.0078125
		c0.0078125,0.0053711,0.0117188,0.0292969,0.0117188,0.0722656c0.0263672,0.1333008,0.0537109,0.2397461,0.0800781,0.3198242
		c0.0107422,0.0429688,0.0224609,0.0893555,0.0361328,0.1401367c0.0126953,0.0507812,0.0283203,0.1108398,0.0439453,0.1796875
		l0.0078125,0.0644531l0.015625,0.2958984v0.199707c0,0.4003906-0.0263672,0.7124023-0.0791016,0.9360352
		c-0.0751953,0.347168-0.2216797,0.6166992-0.4404297,0.8081055c-0.0800781,0.0693359-0.1679688,0.1337891-0.2636719,0.1923828
		l-0.2802734,0.1835938c-0.1601562,0.0537109-0.2773438,0.0986328-0.3525391,0.1367188l-0.34375,0.1191406
		c-0.1816406,0-0.3867188,0.0136719-0.6162109,0.0400391c-0.1757812,0.0273438-0.3867188,0.0400391-0.6318359,0.0400391
		C12.3037109,10.1939611,12.2666016,10.1900549,12.21875,10.1822424z M13.1542969,8.8179846
		c0.0263672-0.0639648,0.0429688-0.1357422,0.0478516-0.2158203c0.0058594-0.0800781,0.0078125-0.1279297,0.0078125-0.144043
		L13.21875,8.2340002c0.015625-0.1601562,0.0234375-0.3144531,0.0234375-0.4638672
		C13.2480469,7.7222815,13.25,7.6578283,13.25,7.5782385c0-0.1279297-0.0126953-0.2519531-0.0400391-0.3720703
		c-0.0263672-0.1201172-0.0556641-0.2333984-0.0878906-0.340332c-0.03125-0.1064453-0.0527344-0.1757812-0.0634766-0.2080078
		c-0.0107422-0.0957031-0.0332031-0.1704102-0.0683594-0.2236328c-0.0341797-0.0532227-0.0947266-0.0800781-0.1796875-0.0800781
		c-0.1601562,0-0.2666016,0.0854492-0.3203125,0.2558594c-0.0263672,0.0639648-0.0449219,0.1386719-0.0556641,0.2241211
		c0,0.0317383-0.0078125,0.1040039-0.0244141,0.2158203L12.3544922,7.442008
		c-0.0371094,0.1176758-0.0556641,0.2480469-0.0556641,0.3920898c0,0.1865234,0.0185547,0.3544922,0.0556641,0.5039062
		c0.0107422,0.0800781,0.0332031,0.1640625,0.0673828,0.2519531c0.0351562,0.0878906,0.0576172,0.1508789,0.0683594,0.1879883
		c0.0048828,0.0537109,0.0537109,0.1069336,0.1445312,0.1601562c0.0263672,0.0268555,0.0556641,0.0498047,0.0878906,0.0683594
		c0.03125,0.0185547,0.0556641,0.0283203,0.0712891,0.0283203C12.9599609,9.0347815,13.0800781,8.9620275,13.1542969,8.8179846z"/>
</g>
</svg>
