<?xml version="1.0" encoding="utf-8"?>
<!-- Generator: Adobe Illustrator 27.5.0, SVG Export Plug-In . SVG Version: 6.00 Build 0)  -->
<svg version="1.1" id="Ebene_1" xmlns="http://www.w3.org/2000/svg" xmlns:xlink="http://www.w3.org/1999/xlink" x="0px" y="0px"
	 viewBox="0 0 24 16" style="enable-background:new 0 0 24 16;" xml:space="preserve">
<style type="text/css">
	.st0{fill:#86D146;}
</style>
<g>
	<path class="st0" d="M1.7680664,9.832633c-0.152832-0.0283203-0.2519531-0.0537109-0.2973633-0.0761719
		C1.3969727,9.7222815,1.3603516,9.6773596,1.3603516,9.620719c0-0.1474609,0.0761719-0.2978516,0.2294922-0.4511719v0.0087891
		L1.640625,9.1275549C1.6801758,9.0875158,1.8076172,8.9371252,2.0234375,8.676383
		c0.152832-0.175293,0.3115234-0.3793945,0.4755859-0.6118164C2.5273438,8.0191565,2.5600586,7.96984,2.597168,7.9156408
		c0.0366211-0.0537109,0.0634766-0.0976562,0.0805664-0.1313477C2.7514648,7.6876135,2.8276367,7.554801,2.9072266,7.3843908
		c0.0341797-0.0791016,0.0639648-0.159668,0.0893555-0.2421875C3.0219727,7.0601721,3.034668,6.9849768,3.034668,6.9171057
		c0-0.152832-0.0483398-0.2607422-0.1445312-0.3227539C2.7993164,6.5259924,2.6381836,6.492301,2.4057617,6.492301
		c-0.1416016,0-0.2919922,0.0141602-0.4506836,0.0424805C1.8530273,6.5631018,1.6889648,6.6339025,1.4624023,6.7471838
		c0-0.0058594-0.0029297-0.0170898-0.0087891-0.0341797C1.4482422,6.6959143,1.4423828,6.676383,1.4365234,6.6534338
		C1.4199219,6.5289221,1.402832,6.3419104,1.3857422,6.0923986L1.3603516,5.6505041L1.3515625,5.4722815L1.3432617,5.3189611
		V5.2593908L1.7172852,5.089469c0.3115234-0.0961914,0.6289062-0.1699219,0.9521484-0.2207031
		C2.9921875,4.8174963,3.3125,4.7921057,3.6298828,4.7921057c0.2719727,0,0.5351562,0.0297852,0.7905273,0.0893555
		C4.675293,4.9410315,4.8989258,5.0298986,5.0917969,5.1490393C5.5395508,5.4268713,5.7631836,5.8463049,5.7631836,6.40734
		c0,0.300293-0.0991211,0.5917969-0.2973633,0.8754883C5.2675781,7.5660315,4.9614258,7.855094,4.5478516,8.1495275h0.3569336
		H5.253418c0.1640625,0,0.2773438,0.0117188,0.3398438,0.0341797C5.7124023,8.223258,5.7719727,8.2886877,5.7719727,8.3790197
		c0,0.1757812-0.0058594,0.3598633-0.0170898,0.5527344v0.2124023v0.2294922c0,0.1591797-0.0229492,0.2753906-0.0683594,0.3486328
		C5.6245117,9.801383,5.5,9.8414221,5.3129883,9.8414221C5.2958984,9.8580236,5.2587891,9.8668127,5.2021484,9.8668127
		C5.105957,9.8726721,4.8935547,9.8756018,4.5649414,9.8756018H3.765625H3.4599609H3.0942383H2.7373047
		C2.2954102,9.8756018,1.972168,9.8609533,1.7680664,9.832633z"/>
	<path class="st0" d="M8.0751953,10.067008c-0.0512695-0.0087891-0.1162109-0.0185547-0.1958008-0.0302734l-0.4589844-0.09375
		C7.3867188,9.926383,7.3540039,9.9136877,7.3227539,9.9048986c-0.03125-0.0078125-0.0581055-0.0185547-0.0805664-0.0292969
		C7.2304688,9.8697424,7.2138672,9.8609533,7.190918,9.8502111C7.168457,9.8384924,7.1572266,9.8248205,7.1572266,9.8072424
		C7.105957,9.7906408,7.043457,9.7623205,6.9702148,9.7222815C6.8964844,9.6998205,6.8339844,9.6715002,6.7832031,9.6373205
		L6.6640625,9.5523596c-0.0566406-0.0341797-0.0961914-0.0625-0.1191406-0.0849609
		C6.3808594,9.3257971,6.2529297,9.1246252,6.1625977,8.8633947C6.0888672,8.648551,6.0322266,8.3961096,5.9926758,8.1070471
		C5.9755859,7.9371252,5.9672852,7.7159338,5.9672852,7.4439611c0-0.3227539,0.0166016-0.574707,0.0507812-0.7563477
		C6.0463867,6.4781408,6.105957,6.2256994,6.1967773,5.9312658c0.0395508-0.0341797,0.1044922-0.1445312,0.1953125-0.331543
		c0.0224609-0.0283203,0.0395508-0.0581055,0.0507812-0.0893555C6.4545898,5.4791174,6.46875,5.4522619,6.4853516,5.429801
		c0.0058594-0.0058594,0.015625-0.0214844,0.0297852-0.046875S6.5449219,5.34484,6.5620117,5.34484
		c0.0454102,0,0.1103516-0.0429688,0.1958008-0.1279297c0.027832-0.0166016,0.0678711-0.0507812,0.1186523-0.1015625
		C6.9160156,5.0753088,6.953125,5.0469885,6.9873047,5.0298986c0.1582031-0.0961914,0.3569336-0.1640625,0.5947266-0.2036133
		C7.621582,4.820426,7.6743164,4.81359,7.7392578,4.804801c0.0649414-0.0083008,0.1176758-0.0126953,0.1572266-0.0126953
		c0.0737305,0,0.1362305-0.0029297,0.1870117-0.0083008C8.1347656,4.7779455,8.1796875,4.7720861,8.2197266,4.766715
		c0.3569336,0.0112305,0.6542969,0.0336914,0.8925781,0.0678711c0.2094727,0.0229492,0.4726562,0.0654297,0.7900391,0.1274414
		c0.0170898,0,0.0454102,0.0087891,0.0854492,0.0253906c0.1870117,0.0625,0.328125,0.1191406,0.4248047,0.1704102
		c0.0678711,0.0336914,0.1020508,0.0678711,0.1020508,0.1015625V5.336051c0.0620117,0,0.1274414,0.0268555,0.1953125,0.0810547
		c0.0683594,0.0537109,0.1303711,0.1259766,0.1870117,0.2163086c0.0625,0.0795898,0.1108398,0.1645508,0.1445312,0.2553711
		c0.0341797,0.090332,0.0512695,0.1640625,0.0512695,0.2207031c0.0507812,0,0.0805664,0.0029297,0.0888672,0.0087891
		c0.0087891,0.0053711,0.0131836,0.03125,0.0131836,0.0761719c0.027832,0.1420898,0.0561523,0.2553711,0.0849609,0.340332
		c0.0112305,0.0454102,0.0239258,0.0947266,0.0380859,0.1484375c0.0141602,0.0541992,0.0297852,0.1176758,0.046875,0.1914062
		l0.0083008,0.0678711l0.0170898,0.3144531V7.46984c0,0.4248047-0.0283203,0.7563477-0.0849609,0.9941406
		c-0.0795898,0.3686523-0.2353516,0.6547852-0.4677734,0.8588867c-0.0849609,0.0732422-0.1782227,0.1416016-0.2802734,0.2041016
		l-0.2973633,0.1953125c-0.1704102,0.0566406-0.2949219,0.1054688-0.3740234,0.1445312L9.5200195,9.9947424
		c-0.1928711,0-0.4106445,0.0136719-0.6542969,0.0419922c-0.1870117,0.0283203-0.4111328,0.0429688-0.671875,0.0429688
		C8.1655273,10.0797033,8.1259766,10.0748205,8.0751953,10.067008z M9.0698242,8.617301
		c0.027832-0.0683594,0.0449219-0.1445312,0.0507812-0.2294922c0.0053711-0.0849609,0.0083008-0.1362305,0.0083008-0.1533203
		l0.0087891-0.237793c0.0170898-0.1699219,0.0253906-0.3344727,0.0253906-0.4931641
		C9.168457,7.4527502,9.1713867,7.3843908,9.1713867,7.2994299c0-0.1357422-0.0141602-0.2675781-0.0424805-0.3950195
		s-0.059082-0.2480469-0.0932617-0.3613281S8.9790039,6.3560705,8.9677734,6.3218908
		c-0.0117188-0.1015625-0.0356445-0.1811523-0.0722656-0.237793C8.8583984,6.0274572,8.7944336,5.9991369,8.7041016,5.9991369
		c-0.1699219,0-0.2832031,0.0908203-0.3398438,0.2719727C8.3354492,6.3389807,8.315918,6.4185705,8.3046875,6.5089025
		c0,0.0341797-0.0087891,0.1108398-0.0253906,0.2294922L8.2197266,7.1548986
		c-0.0400391,0.125-0.0595703,0.2636719-0.0595703,0.4165039c0,0.1987305,0.0195312,0.3769531,0.0595703,0.5356445
		C8.230957,8.192008,8.2548828,8.2813635,8.2919922,8.3746252c0.0366211,0.09375,0.0605469,0.1606445,0.0722656,0.2001953
		c0.0053711,0.0566406,0.0566406,0.1132812,0.152832,0.1699219C8.5454102,8.7730627,8.5766602,8.7969885,8.6103516,8.817008
		c0.0341797,0.0200195,0.0595703,0.0297852,0.0766602,0.0297852C8.862793,8.8467932,8.9902344,8.770133,9.0698242,8.617301z"/>
	<path class="st0" d="M13.6425781,10.067008c-0.0507812-0.0087891-0.1162109-0.0185547-0.1953125-0.0302734l-0.4589844-0.09375
		C12.9545898,9.926383,12.921875,9.9136877,12.890625,9.9048986c-0.03125-0.0078125-0.0581055-0.0185547-0.0805664-0.0292969
		c-0.0117188-0.0058594-0.0283203-0.0146484-0.0512695-0.0253906c-0.0224609-0.0117188-0.0336914-0.0253906-0.0336914-0.0429688
		c-0.0512695-0.0166016-0.1137695-0.0449219-0.1870117-0.0849609c-0.0737305-0.0224609-0.1362305-0.0507812-0.1870117-0.0849609
		l-0.1191406-0.0849609c-0.0566406-0.0341797-0.0961914-0.0625-0.1191406-0.0849609
		c-0.1640625-0.1416016-0.2919922-0.3427734-0.3823242-0.6040039c-0.0737305-0.2148438-0.1303711-0.4672852-0.1699219-0.7563477
		c-0.0170898-0.1699219-0.0253906-0.3911133-0.0253906-0.6630859c0-0.3227539,0.0166016-0.574707,0.0507812-0.7563477
		c0.0283203-0.2094727,0.0878906-0.4619141,0.1787109-0.7563477c0.0395508-0.0341797,0.1044922-0.1445312,0.1953125-0.331543
		c0.0224609-0.0283203,0.0395508-0.0581055,0.0507812-0.0893555c0.0117188-0.03125,0.0258789-0.0581055,0.0424805-0.0805664
		c0.0058594-0.0058594,0.015625-0.0214844,0.0297852-0.046875S12.112793,5.34484,12.1298828,5.34484
		c0.0454102,0,0.1103516-0.0429688,0.1958008-0.1279297c0.027832-0.0166016,0.0678711-0.0507812,0.1186523-0.1015625
		c0.0395508-0.0400391,0.0766602-0.0683594,0.1108398-0.0854492c0.1582031-0.0961914,0.3569336-0.1640625,0.5942383-0.2036133
		C13.1894531,4.820426,13.2421875,4.81359,13.3066406,4.804801c0.0654297-0.0083008,0.1181641-0.0126953,0.1572266-0.0126953
		c0.0742188,0,0.1367188-0.0029297,0.1875-0.0083008c0.0507812-0.0058594,0.0957031-0.0117188,0.1357422-0.0170898
		c0.3574219,0.0112305,0.6542969,0.0336914,0.8925781,0.0678711c0.2099609,0.0229492,0.4726562,0.0654297,0.7900391,0.1274414
		c0.0175781,0,0.0458984,0.0087891,0.0859375,0.0253906c0.1865234,0.0625,0.328125,0.1191406,0.4248047,0.1704102
		c0.0673828,0.0336914,0.1015625,0.0678711,0.1015625,0.1015625V5.336051c0.0625,0,0.1279297,0.0268555,0.1953125,0.0810547
		c0.0683594,0.0537109,0.1308594,0.1259766,0.1875,0.2163086c0.0625,0.0795898,0.1103516,0.1645508,0.1445312,0.2553711
		c0.0341797,0.090332,0.0507812,0.1640625,0.0507812,0.2207031c0.0507812,0,0.0810547,0.0029297,0.0888672,0.0087891
		c0.0087891,0.0053711,0.0136719,0.03125,0.0136719,0.0761719c0.0273438,0.1420898,0.0556641,0.2553711,0.0849609,0.340332
		c0.0107422,0.0454102,0.0234375,0.0947266,0.0380859,0.1484375c0.0136719,0.0541992,0.0292969,0.1176758,0.046875,0.1914062
		l0.0078125,0.0678711l0.0175781,0.3144531V7.46984c0,0.4248047-0.0283203,0.7563477-0.0849609,0.9941406
		c-0.0800781,0.3686523-0.2353516,0.6547852-0.4677734,0.8588867C16.3203125,9.3961096,16.2265625,9.464469,16.125,9.526969
		l-0.2978516,0.1953125c-0.1699219,0.0566406-0.2949219,0.1054688-0.3740234,0.1445312l-0.3652344,0.1279297
		c-0.1933594,0-0.4111328,0.0136719-0.6542969,0.0419922c-0.1875,0.0283203-0.4111328,0.0429688-0.671875,0.0429688
		C13.7333984,10.0797033,13.6933594,10.0748205,13.6425781,10.067008z M14.6376953,8.617301
		c0.0273438-0.0683594,0.0449219-0.1445312,0.0507812-0.2294922c0.0048828-0.0849609,0.0078125-0.1362305,0.0078125-0.1533203
		l0.0087891-0.237793c0.0175781-0.1699219,0.0253906-0.3344727,0.0253906-0.4931641
		c0.0058594-0.0507812,0.0087891-0.1191406,0.0087891-0.2041016c0-0.1357422-0.0146484-0.2675781-0.0429688-0.3950195
		s-0.0585938-0.2480469-0.0927734-0.3613281s-0.0566406-0.1870117-0.0683594-0.2211914
		C14.5234375,6.2203283,14.5,6.1407385,14.4628906,6.0840979s-0.1005859-0.0849609-0.1914062-0.0849609
		c-0.1699219,0-0.2832031,0.0908203-0.3398438,0.2719727c-0.0283203,0.0678711-0.0478516,0.1474609-0.0595703,0.237793
		c0,0.0341797-0.0087891,0.1108398-0.0253906,0.2294922l-0.0595703,0.4165039
		c-0.0400391,0.125-0.0595703,0.2636719-0.0595703,0.4165039c0,0.1987305,0.0195312,0.3769531,0.0595703,0.5356445
		c0.0117188,0.0849609,0.0351562,0.1743164,0.0722656,0.2675781c0.0371094,0.09375,0.0605469,0.1606445,0.0722656,0.2001953
		c0.0058594,0.0566406,0.0566406,0.1132812,0.1533203,0.1699219c0.0283203,0.0283203,0.0595703,0.0522461,0.0927734,0.0722656
		c0.0341797,0.0200195,0.0595703,0.0297852,0.0771484,0.0297852C14.4306641,8.8467932,14.5576172,8.770133,14.6376953,8.617301z"/>
	<path class="st0" d="M19.2099609,10.067008c-0.0507812-0.0087891-0.1162109-0.0185547-0.1953125-0.0302734l-0.4589844-0.09375
		c-0.0341797-0.0166016-0.0664062-0.0292969-0.0976562-0.0380859c-0.03125-0.0078125-0.0585938-0.0185547-0.0810547-0.0292969
		c-0.0117188-0.0058594-0.0283203-0.0146484-0.0507812-0.0253906c-0.0224609-0.0117188-0.0341797-0.0253906-0.0341797-0.0429688
		c-0.0507812-0.0166016-0.1132812-0.0449219-0.1865234-0.0849609c-0.0742188-0.0224609-0.1367188-0.0507812-0.1875-0.0849609
		l-0.1191406-0.0849609c-0.0566406-0.0341797-0.0957031-0.0625-0.1191406-0.0849609
		c-0.1640625-0.1416016-0.2919922-0.3427734-0.3818359-0.6040039c-0.0742188-0.2148438-0.1308594-0.4672852-0.1699219-0.7563477
		c-0.0175781-0.1699219-0.0253906-0.3911133-0.0253906-0.6630859c0-0.3227539,0.0166016-0.574707,0.0507812-0.7563477
		c0.0283203-0.2094727,0.0878906-0.4619141,0.1787109-0.7563477c0.0390625-0.0341797,0.1044922-0.1445312,0.1953125-0.331543
		c0.0224609-0.0283203,0.0390625-0.0581055,0.0507812-0.0893555s0.0253906-0.0581055,0.0419922-0.0805664
		c0.0058594-0.0058594,0.015625-0.0214844,0.0302734-0.046875c0.0136719-0.0253906,0.0292969-0.0380859,0.046875-0.0380859
		c0.0449219,0,0.1103516-0.0429688,0.1953125-0.1279297c0.0283203-0.0166016,0.0683594-0.0507812,0.1191406-0.1015625
		c0.0390625-0.0400391,0.0761719-0.0683594,0.1103516-0.0854492c0.1582031-0.0961914,0.3574219-0.1640625,0.5947266-0.2036133
		C18.7568359,4.820426,18.8095703,4.81359,18.8740234,4.804801c0.0654297-0.0083008,0.1181641-0.0126953,0.1572266-0.0126953
		c0.0742188,0,0.1367188-0.0029297,0.1875-0.0083008c0.0507812-0.0058594,0.0957031-0.0117188,0.1357422-0.0170898
		c0.3574219,0.0112305,0.6542969,0.0336914,0.8925781,0.0678711c0.2099609,0.0229492,0.4726562,0.0654297,0.7900391,0.1274414
		c0.0175781,0,0.0458984,0.0087891,0.0859375,0.0253906c0.1865234,0.0625,0.328125,0.1191406,0.4248047,0.1704102
		c0.0673828,0.0336914,0.1015625,0.0678711,0.1015625,0.1015625V5.336051c0.0625,0,0.1279297,0.0268555,0.1953125,0.0810547
		c0.0683594,0.0537109,0.1308594,0.1259766,0.1875,0.2163086c0.0625,0.0795898,0.1103516,0.1645508,0.1445312,0.2553711
		c0.0341797,0.090332,0.0507812,0.1640625,0.0507812,0.2207031c0.0507812,0,0.0810547,0.0029297,0.0888672,0.0087891
		c0.0087891,0.0053711,0.0136719,0.03125,0.0136719,0.0761719c0.0273438,0.1420898,0.0556641,0.2553711,0.0849609,0.340332
		c0.0107422,0.0454102,0.0234375,0.0947266,0.0380859,0.1484375C22.4667969,6.7374182,22.4824219,6.8008947,22.5,6.8746252
		l0.0078125,0.0678711l0.0175781,0.3144531V7.46984c0,0.4248047-0.0283203,0.7563477-0.0849609,0.9941406
		c-0.0800781,0.3686523-0.2353516,0.6547852-0.4677734,0.8588867c-0.0849609,0.0732422-0.1787109,0.1416016-0.2802734,0.2041016
		l-0.2978516,0.1953125c-0.1699219,0.0566406-0.2949219,0.1054688-0.3740234,0.1445312l-0.3652344,0.1279297
		c-0.1933594,0-0.4111328,0.0136719-0.6542969,0.0419922c-0.1875,0.0283203-0.4111328,0.0429688-0.671875,0.0429688
		C19.3007812,10.0797033,19.2607422,10.0748205,19.2099609,10.067008z M20.2050781,8.617301
		C20.2324219,8.5489416,20.25,8.4727697,20.2558594,8.3878088c0.0048828-0.0849609,0.0078125-0.1362305,0.0078125-0.1533203
		l0.0087891-0.237793c0.0175781-0.1699219,0.0253906-0.3344727,0.0253906-0.4931641
		c0.0058594-0.0507812,0.0087891-0.1191406,0.0087891-0.2041016c0-0.1357422-0.0146484-0.2675781-0.0429688-0.3950195
		s-0.0585938-0.2480469-0.0927734-0.3613281s-0.0566406-0.1870117-0.0683594-0.2211914
		c-0.0117188-0.1015625-0.0351562-0.1811523-0.0722656-0.237793s-0.1005859-0.0849609-0.1914062-0.0849609
		c-0.1699219,0-0.2832031,0.0908203-0.3398438,0.2719727c-0.0283203,0.0678711-0.0478516,0.1474609-0.0595703,0.237793
		c0,0.0341797-0.0087891,0.1108398-0.0253906,0.2294922l-0.0595703,0.4165039
		c-0.0400391,0.125-0.0595703,0.2636719-0.0595703,0.4165039c0,0.1987305,0.0195312,0.3769531,0.0595703,0.5356445
		c0.0117188,0.0849609,0.0351562,0.1743164,0.0722656,0.2675781c0.0371094,0.09375,0.0605469,0.1606445,0.0722656,0.2001953
		c0.0058594,0.0566406,0.0566406,0.1132812,0.1533203,0.1699219c0.0283203,0.0283203,0.0595703,0.0522461,0.0927734,0.0722656
		c0.0341797,0.0200195,0.0595703,0.0297852,0.0771484,0.0297852C19.9980469,8.8467932,20.125,8.770133,20.2050781,8.617301z"/>
</g>
</svg>
