<?xml version="1.0" encoding="utf-8"?>
<!-- Generator: Adobe Illustrator 27.5.0, SVG Export Plug-In . SVG Version: 6.00 Build 0)  -->
<svg version="1.1" id="Ebene_1" xmlns="http://www.w3.org/2000/svg" xmlns:xlink="http://www.w3.org/1999/xlink" x="0px" y="0px"
	 viewBox="0 0 16 16" style="enable-background:new 0 0 16 16;" xml:space="preserve">
<style type="text/css">
	.st0{fill:#86D146;}
</style>
<g>
	<path class="st0" d="M0.6,11C0.5,11,0.4,11,0.3,11c-0.1,0-0.1-0.1-0.1-0.1c0-0.1,0.1-0.3,0.2-0.5v0l0.1-0.1c0,0,0.2-0.2,0.4-0.5
		C1,9.7,1.2,9.5,1.3,9.3c0,0,0.1-0.1,0.1-0.1C1.5,9.1,1.5,9,1.5,9c0.1-0.1,0.1-0.2,0.2-0.4c0-0.1,0.1-0.2,0.1-0.2c0-0.1,0-0.2,0-0.2
		c0-0.2,0-0.3-0.1-0.3C1.6,7.7,1.5,7.7,1.3,7.7c-0.1,0-0.3,0-0.5,0c-0.1,0-0.3,0.1-0.5,0.2c0,0,0,0,0,0c0,0,0,0,0-0.1
		c0-0.1,0-0.3-0.1-0.6l0-0.4l0-0.2l0-0.2V6.5l0.4-0.2c0.3-0.1,0.6-0.2,1-0.2C1.8,6,2.2,6,2.5,6C2.7,6,3,6,3.3,6.1
		c0.3,0.1,0.5,0.1,0.7,0.3C4.4,6.6,4.6,7,4.6,7.6c0,0.3-0.1,0.6-0.3,0.9C4.1,8.8,3.8,9.1,3.4,9.3h0.4h0.3c0.2,0,0.3,0,0.3,0
		c0.1,0,0.2,0.1,0.2,0.2c0,0.2,0,0.4,0,0.6v0.2v0.2c0,0.2,0,0.3-0.1,0.3C4.5,11,4.3,11,4.2,11c0,0-0.1,0-0.1,0c-0.1,0-0.3,0-0.6,0
		H2.6H2.3H1.9H1.6C1.1,11.1,0.8,11.1,0.6,11z"/>
	<path class="st0" d="M6.9,11.3c-0.1,0-0.1,0-0.2,0l-0.5-0.1c0,0-0.1,0-0.1,0c0,0-0.1,0-0.1,0c0,0,0,0-0.1,0c0,0,0,0,0,0
		c-0.1,0-0.1,0-0.2-0.1c-0.1,0-0.1-0.1-0.2-0.1l-0.1-0.1c-0.1,0-0.1-0.1-0.1-0.1c-0.2-0.1-0.3-0.3-0.4-0.6C4.9,9.8,4.9,9.6,4.8,9.3
		c0-0.2,0-0.4,0-0.7c0-0.3,0-0.6,0.1-0.8C4.9,7.7,5,7.4,5,7.1c0,0,0.1-0.1,0.2-0.3c0,0,0-0.1,0.1-0.1c0,0,0-0.1,0-0.1c0,0,0,0,0,0
		s0,0,0,0c0,0,0.1,0,0.2-0.1c0,0,0.1-0.1,0.1-0.1c0,0,0.1-0.1,0.1-0.1C6,6.1,6.2,6.1,6.4,6c0,0,0.1,0,0.2,0c0.1,0,0.1,0,0.2,0
		c0.1,0,0.1,0,0.2,0C7,6,7,6,7.1,6C7.4,6,7.7,6,8,6c0.2,0,0.5,0.1,0.8,0.1c0,0,0,0,0.1,0C9,6.2,9.2,6.3,9.3,6.4
		c0.1,0,0.1,0.1,0.1,0.1v0.1c0.1,0,0.1,0,0.2,0.1c0.1,0.1,0.1,0.1,0.2,0.2C9.8,6.9,9.9,7,9.9,7.1c0,0.1,0.1,0.2,0.1,0.2
		c0.1,0,0.1,0,0.1,0c0,0,0,0,0,0.1c0,0.1,0.1,0.3,0.1,0.3c0,0,0,0.1,0,0.1c0,0.1,0,0.1,0,0.2l0,0.1l0,0.3v0.2c0,0.4,0,0.8-0.1,1
		c-0.1,0.4-0.2,0.7-0.5,0.9c-0.1,0.1-0.2,0.1-0.3,0.2l-0.3,0.2C8.9,11,8.8,11,8.7,11.1l-0.4,0.1c-0.2,0-0.4,0-0.7,0
		c-0.2,0-0.4,0-0.7,0C7,11.3,7,11.3,6.9,11.3z M7.9,9.8c0-0.1,0-0.1,0.1-0.2c0-0.1,0-0.1,0-0.2l0-0.2C8,9,8,8.9,8,8.7
		c0-0.1,0-0.1,0-0.2c0-0.1,0-0.3,0-0.4S7.9,7.9,7.9,7.7S7.8,7.6,7.8,7.5c0-0.1,0-0.2-0.1-0.2c0-0.1-0.1-0.1-0.2-0.1
		c-0.2,0-0.3,0.1-0.3,0.3c0,0.1,0,0.1-0.1,0.2c0,0,0,0.1,0,0.2L7.1,8.4C7,8.5,7,8.6,7,8.8C7,9,7,9.1,7.1,9.3c0,0.1,0,0.2,0.1,0.3
		c0,0.1,0.1,0.2,0.1,0.2c0,0.1,0.1,0.1,0.2,0.2c0,0,0.1,0.1,0.1,0.1c0,0,0.1,0,0.1,0C7.7,10,7.8,10,7.9,9.8z"/>
	<path class="st0" d="M12.5,11.3c-0.1,0-0.1,0-0.2,0l-0.5-0.1c0,0-0.1,0-0.1,0c0,0-0.1,0-0.1,0c0,0,0,0-0.1,0c0,0,0,0,0,0
		c-0.1,0-0.1,0-0.2-0.1c-0.1,0-0.1-0.1-0.2-0.1l-0.1-0.1c-0.1,0-0.1-0.1-0.1-0.1c-0.2-0.1-0.3-0.3-0.4-0.6c-0.1-0.2-0.1-0.5-0.2-0.8
		c0-0.2,0-0.4,0-0.7c0-0.3,0-0.6,0.1-0.8c0-0.2,0.1-0.5,0.2-0.8c0,0,0.1-0.1,0.2-0.3c0,0,0-0.1,0.1-0.1c0,0,0-0.1,0-0.1c0,0,0,0,0,0
		c0,0,0,0,0,0c0,0,0.1,0,0.2-0.1c0,0,0.1-0.1,0.1-0.1c0,0,0.1-0.1,0.1-0.1C11.6,6.1,11.8,6.1,12,6c0,0,0.1,0,0.2,0
		c0.1,0,0.1,0,0.2,0c0.1,0,0.1,0,0.2,0c0.1,0,0.1,0,0.1,0C13,6,13.3,6,13.5,6c0.2,0,0.5,0.1,0.8,0.1c0,0,0,0,0.1,0
		c0.2,0.1,0.3,0.1,0.4,0.2c0.1,0,0.1,0.1,0.1,0.1v0.1c0.1,0,0.1,0,0.2,0.1c0.1,0.1,0.1,0.1,0.2,0.2c0.1,0.1,0.1,0.2,0.1,0.3
		c0,0.1,0.1,0.2,0.1,0.2c0.1,0,0.1,0,0.1,0c0,0,0,0,0,0.1c0,0.1,0.1,0.3,0.1,0.3c0,0,0,0.1,0,0.1c0,0.1,0,0.1,0,0.2l0,0.1l0,0.3v0.2
		c0,0.4,0,0.8-0.1,1c-0.1,0.4-0.2,0.7-0.5,0.9c-0.1,0.1-0.2,0.1-0.3,0.2l-0.3,0.2c-0.2,0.1-0.3,0.1-0.4,0.1l-0.4,0.1
		c-0.2,0-0.4,0-0.7,0c-0.2,0-0.4,0-0.7,0C12.6,11.3,12.5,11.3,12.5,11.3z M13.5,9.8c0-0.1,0-0.1,0.1-0.2s0-0.1,0-0.2l0-0.2
		c0-0.2,0-0.3,0-0.5c0-0.1,0-0.1,0-0.2c0-0.1,0-0.3,0-0.4s-0.1-0.2-0.1-0.4s-0.1-0.2-0.1-0.2c0-0.1,0-0.2-0.1-0.2
		c0-0.1-0.1-0.1-0.2-0.1c-0.2,0-0.3,0.1-0.3,0.3c0,0.1,0,0.1-0.1,0.2c0,0,0,0.1,0,0.2l-0.1,0.4c0,0.1-0.1,0.3-0.1,0.4
		c0,0.2,0,0.4,0.1,0.5c0,0.1,0,0.2,0.1,0.3c0,0.1,0.1,0.2,0.1,0.2c0,0.1,0.1,0.1,0.2,0.2C13,10,13,10,13,10c0,0,0.1,0,0.1,0
		C13.3,10,13.4,10,13.5,9.8z"/>
</g>
</svg>
