<?xml version="1.0" encoding="utf-8"?>
<!-- Generator: Adobe Illustrator 27.5.0, SVG Export Plug-In . SVG Version: 6.00 Build 0)  -->
<svg version="1.1" id="Ebene_1" xmlns="http://www.w3.org/2000/svg" xmlns:xlink="http://www.w3.org/1999/xlink" x="0px" y="0px"
	 viewBox="0 0 16 16" style="enable-background:new 0 0 16 16;" xml:space="preserve">
<style type="text/css">
	.st0{fill:#86D146;}
</style>
<g>
	<path class="st0" d="M2.210537,10.2027502c-0.1757812-0.0214844-0.314453-0.0458984-0.4160155-0.0722656
		c-0.090332-0.0214844-0.1489258-0.0371094-0.1757812-0.0478516c-0.0429688-0.0107422-0.0639648-0.0244141-0.0639648-0.0400391
		c-0.0268555-0.0058594-0.0546875-0.0136719-0.0839844-0.0244141S1.4078027,9.9996252,1.3706933,9.9947424
		C1.3120996,9.9840002,1.2549707,9.9615393,1.1988183,9.926383S1.1065332,9.8687658,1.0909082,9.8580236L0.9786034,9.8023596
		l0.0800782-1.1044922c0.3789062,0.0908203,0.690918,0.1362305,0.9360352,0.1362305
		c0.1918944,0,0.333496-0.0322266,0.423828-0.0961914c0.1176758-0.0688477,0.1762695-0.1782227,0.1762695-0.3276367
		c0-0.1972656-0.1679688-0.3095703-0.5039062-0.3364258c-0.1977538,0-0.4160155,0.0083008-0.6562499,0.0244141V7.2340002h0.1362305
		C1.6026269,7.2393713,1.6534082,7.242301,1.7227441,7.242301c0.1811523,0,0.3330077-0.0244141,0.4560546-0.0722656
		c0.1333008-0.0532227,0.199707-0.1625977,0.199707-0.328125c0-0.1333008-0.0532227-0.2236328-0.159668-0.2719727
		C2.1280174,6.5220861,1.9869043,6.4981604,1.7945215,6.4981604c-0.21875,0-0.5332031,0.0800781-0.9438477,0.2397461
		L0.7705956,5.6099768C1.080166,5.476676,1.3838769,5.3834143,1.682705,5.3301916
		c0.3627928-0.074707,0.7250975-0.1123047,1.0878905-0.1123047L3.3306541,5.257926
		c0.1811523,0.0322266,0.3413086,0.0639648,0.4799805,0.0961914c0.0053711,0,0.0131836,0.0014648,0.0239258,0.0039062
		c0.0107422,0.0029297,0.0244141,0.0068359,0.0400391,0.012207c0.1225586,0.0478516,0.2080078,0.0854492,0.2563477,0.1118164
		C4.1734276,5.4981604,4.194912,5.516715,4.194912,5.5381994v0.0639648c0.0957031,0,0.1835938,0.0771484,0.2636719,0.2319336
		c0.0214844,0.0317383,0.0385742,0.0639648,0.0522461,0.0961914c0.0131836,0.0317383,0.027832,0.0610352,0.0439453,0.0878906
		l0.0561523,0.1518555c0.0424805,0.0961914,0.0639648,0.1655273,0.0639648,0.2080078
		C4.6851463,6.4581213,4.7012596,6.5381994,4.722744,6.6182775c0,0.159668-0.0400391,0.3173828-0.1201172,0.4716797
		C4.5332909,7.2393713,4.4268456,7.3702307,4.2828026,7.4820471c0.4267578,0.2456055,0.6401367,0.5839844,0.6401367,1.0161133
		c0,0.4267578-0.0668945,0.7788086-0.2001953,1.0561523C4.6695213,9.660758,4.6119041,9.7486486,4.550869,9.8179846
		c-0.0615234,0.0693359-0.1132812,0.109375-0.15625,0.1201172c-0.2827148,0.1445312-0.5893555,0.2294922-0.9199219,0.2558594
		c-0.2133789,0.0273438-0.5385742,0.0400391-0.9760742,0.0400391C2.4346581,10.2340002,2.3389549,10.223258,2.210537,10.2027502z"/>
	<path class="st0" d="M7.0425682,10.1822424c-0.0483398-0.0078125-0.109375-0.0175781-0.184082-0.0283203l-0.4321289-0.0878906
		c-0.0317383-0.015625-0.0625-0.0273438-0.0917969-0.0361328c-0.0292969-0.0078125-0.0546875-0.0166016-0.0761719-0.0273438
		C6.2476463,9.9966955,6.2315331,9.988883,6.210537,9.9781408C6.1890526,9.9673986,6.1783104,9.9547033,6.1783104,9.9381018
		c-0.0478516-0.015625-0.1064453-0.0419922-0.1757812-0.0800781C5.9331932,9.8375158,5.8745995,9.8101721,5.8262596,9.7779455
		L5.7144432,9.6978674c-0.0532227-0.03125-0.0908203-0.0585938-0.1118164-0.0791016
		C5.4478416,9.4849768,5.3277245,9.2955236,5.2422752,9.0504065c-0.0693359-0.203125-0.1225586-0.4404297-0.159668-0.7124023
		C5.066494,8.1778479,5.0581932,7.96984,5.0581932,7.7139807c0-0.3037109,0.0161133-0.5410156,0.0483398-0.7119141
		C5.1329002,6.804801,5.1890526,6.5674963,5.2745018,6.2901525c0.0371094-0.0322266,0.0986328-0.1362305,0.184082-0.3120117
		c0.0209961-0.0268555,0.0371094-0.0546875,0.0478516-0.0839844S5.5303612,5.839469,5.5464745,5.8179846
		c0.0053711-0.0053711,0.0146484-0.0200195,0.027832-0.0439453s0.0283203-0.0361328,0.0439453-0.0361328
		c0.0429688,0,0.1040039-0.0400391,0.184082-0.1196289c0.0268555-0.0161133,0.0639648-0.0483398,0.1123047-0.0961914
		C5.9517479,5.4849768,5.9864159,5.4581213,6.0186424,5.442008c0.1489258-0.090332,0.3359375-0.1547852,0.5595703-0.1918945
		C6.6158104,5.2447424,6.6651268,5.2379065,6.726162,5.230094c0.0615234-0.0078125,0.1108398-0.012207,0.1484375-0.012207
		c0.0688477,0,0.1279297-0.0024414,0.1757812-0.0078125S7.141201,5.1993322,7.1783104,5.1939611
		c0.3359375,0.0107422,0.6162109,0.0322266,0.840332,0.0639648c0.1967773,0.0214844,0.4448242,0.0615234,0.7436523,0.1201172
		c0.0161133,0,0.0429688,0.0078125,0.0800781,0.0239258c0.1762695,0.059082,0.309082,0.1123047,0.3994141,0.1601562
		C9.3062401,5.5938635,9.3384666,5.62609,9.3384666,5.6578283V5.730094c0.0585938,0,0.1201172,0.0253906,0.1835938,0.0761719
		c0.0644531,0.0507812,0.1230469,0.1186523,0.1757812,0.2036133c0.0585938,0.074707,0.1044922,0.1547852,0.1367188,0.2402344
		c0.03125,0.0854492,0.0478516,0.1547852,0.0478516,0.2080078c0.0478516,0,0.0761719,0.0029297,0.0839844,0.0078125
		c0.0078125,0.0053711,0.0117188,0.0292969,0.0117188,0.0722656c0.0263672,0.1333008,0.0537109,0.2397461,0.0800781,0.3198242
		c0.0107422,0.0429688,0.0224609,0.0893555,0.0361328,0.1401367c0.0126953,0.0507812,0.0283203,0.1108398,0.0439453,0.1796875
		l0.0078125,0.0644531l0.015625,0.2958984v0.199707c0,0.4003906-0.0263672,0.7124023-0.0791016,0.9360352
		c-0.0751953,0.347168-0.2216797,0.6166992-0.4404297,0.8081055C9.5620995,9.551383,9.4742088,9.6158361,9.3785057,9.6744299
		L9.0982323,9.8580236c-0.159668,0.0537109-0.2773438,0.0986328-0.3520508,0.1367188l-0.34375,0.1191406
		c-0.1816406,0-0.3867188,0.0136719-0.6162109,0.0400391c-0.1757812,0.0273438-0.3867188,0.0400391-0.6318359,0.0400391
		C7.1275291,10.1939611,7.0904198,10.1900549,7.0425682,10.1822424z M7.9786034,8.8179846
		c0.0263672-0.0639648,0.0424805-0.1357422,0.0478516-0.2158203s0.0078125-0.1279297,0.0078125-0.144043l0.0083008-0.2241211
		C8.0581932,8.073844,8.066494,7.9195471,8.066494,7.770133c0.0053711-0.0478516,0.0078125-0.1123047,0.0078125-0.1918945
		c0-0.1279297-0.0131836-0.2519531-0.0400391-0.3720703s-0.0556641-0.2333984-0.0878906-0.340332
		C7.9146385,6.7593908,7.8931541,6.6900549,7.882412,6.6578283C7.8716698,6.5621252,7.8492088,6.4874182,7.8145409,6.4341955
		S7.7198143,6.3541174,7.6343651,6.3541174c-0.1601562,0-0.2666016,0.0854492-0.3198242,0.2558594
		C7.2876854,6.6739416,7.2691307,6.7486486,7.2583885,6.8340979c0,0.0317383-0.0078125,0.1040039-0.0239258,0.2158203
		L7.1783104,7.442008C7.141201,7.5596838,7.1226463,7.6900549,7.1226463,7.8340979
		c0,0.1865234,0.0185547,0.3544922,0.0556641,0.5039062c0.0107422,0.0800781,0.0332031,0.1640625,0.0678711,0.2519531
		s0.0576172,0.1508789,0.0683594,0.1879883c0.0048828,0.0537109,0.0532227,0.1069336,0.144043,0.1601562
		C7.484951,8.9649572,7.5142479,8.9879065,7.5464745,9.0064611c0.0317383,0.0185547,0.0561523,0.0283203,0.0717773,0.0283203
		C7.7837791,9.0347815,7.9038963,8.9620275,7.9786034,8.8179846z"/>
	<path class="st0" d="M12.281826,10.1822424c-0.0478516-0.0078125-0.109375-0.0175781-0.1835938-0.0283203l-0.4326172-0.0878906
		c-0.03125-0.015625-0.0625-0.0273438-0.0917969-0.0361328c-0.0292969-0.0078125-0.0546875-0.0166016-0.0761719-0.0273438
		c-0.0107422-0.0058594-0.0263672-0.0136719-0.0478516-0.0244141s-0.0322266-0.0234375-0.0322266-0.0400391
		c-0.0478516-0.015625-0.1064453-0.0419922-0.1757812-0.0800781c-0.0693359-0.0205078-0.1279297-0.0478516-0.1757812-0.0800781
		L10.953701,9.6978674c-0.0527344-0.03125-0.0908203-0.0585938-0.1113281-0.0791016
		c-0.1552734-0.1337891-0.2753906-0.3232422-0.3603516-0.5683594c-0.0693359-0.203125-0.1230469-0.4404297-0.1601562-0.7124023
		C10.3062401,8.1778479,10.297451,7.96984,10.297451,7.7139807c0-0.3037109,0.0166016-0.5410156,0.0488281-0.7119141
		c0.0263672-0.1972656,0.0820312-0.4345703,0.1679688-0.7119141c0.0371094-0.0322266,0.0986328-0.1362305,0.1835938-0.3120117
		c0.0214844-0.0268555,0.0371094-0.0546875,0.0478516-0.0839844s0.0244141-0.0546875,0.0400391-0.0761719
		c0.0058594-0.0053711,0.0146484-0.0200195,0.0283203-0.0439453c0.0126953-0.0239258,0.0283203-0.0361328,0.0439453-0.0361328
		c0.0429688,0,0.1035156-0.0400391,0.1835938-0.1196289c0.0273438-0.0161133,0.0644531-0.0483398,0.1123047-0.0961914
		c0.0371094-0.0371094,0.0722656-0.0639648,0.1044922-0.0800781c0.1484375-0.090332,0.3359375-0.1547852,0.5595703-0.1918945
		c0.0371094-0.0053711,0.0869141-0.012207,0.1474609-0.0200195c0.0615234-0.0078125,0.1113281-0.012207,0.1484375-0.012207
		c0.0693359,0,0.1279297-0.0024414,0.1757812-0.0078125s0.0908203-0.0107422,0.1279297-0.0161133
		c0.3359375,0.0107422,0.6162109,0.0322266,0.8408203,0.0639648c0.1962891,0.0214844,0.4443359,0.0615234,0.7431641,0.1201172
		c0.0166016,0,0.0429688,0.0078125,0.0800781,0.0239258c0.1767578,0.059082,0.3095703,0.1123047,0.4003906,0.1601562
		c0.0634766,0.0317383,0.0957031,0.0639648,0.0957031,0.0957031V5.730094c0.0585938,0,0.1201172,0.0253906,0.1845703,0.0761719
		c0.0634766,0.0507812,0.1220703,0.1186523,0.1757812,0.2036133c0.0585938,0.074707,0.1035156,0.1547852,0.1357422,0.2402344
		s0.0478516,0.1547852,0.0478516,0.2080078c0.0478516,0,0.0761719,0.0029297,0.0839844,0.0078125
		c0.0078125,0.0053711,0.0126953,0.0292969,0.0126953,0.0722656c0.0263672,0.1333008,0.0527344,0.2397461,0.0791016,0.3198242
		c0.0107422,0.0429688,0.0234375,0.0893555,0.0361328,0.1401367c0.0136719,0.0507812,0.0283203,0.1108398,0.0439453,0.1796875
		l0.0087891,0.0644531l0.015625,0.2958984v0.199707c0,0.4003906-0.0263672,0.7124023-0.0800781,0.9360352
		c-0.0751953,0.347168-0.2216797,0.6166992-0.4404297,0.8081055c-0.0791016,0.0693359-0.1679688,0.1337891-0.2636719,0.1923828
		l-0.2802734,0.1835938c-0.1591797,0.0537109-0.2773438,0.0986328-0.3515625,0.1367188l-0.34375,0.1191406
		c-0.1816406,0-0.3867188,0.0136719-0.6162109,0.0400391c-0.1757812,0.0273438-0.3867188,0.0400391-0.6318359,0.0400391
		C12.366787,10.1939611,12.3296776,10.1900549,12.281826,10.1822424z M13.2183495,8.8179846
		c0.0263672-0.0639648,0.0419922-0.1357422,0.0478516-0.2158203c0.0048828-0.0800781,0.0078125-0.1279297,0.0078125-0.144043
		l0.0078125-0.2241211c0.015625-0.1601562,0.0244141-0.3144531,0.0244141-0.4638672
		c0.0048828-0.0478516,0.0078125-0.1123047,0.0078125-0.1918945c0-0.1279297-0.0136719-0.2519531-0.0400391-0.3720703
		c-0.0273438-0.1201172-0.0556641-0.2333984-0.0878906-0.340332c-0.0322266-0.1064453-0.0537109-0.1757812-0.0644531-0.2080078
		c-0.0107422-0.0957031-0.0332031-0.1704102-0.0673828-0.2236328c-0.0351562-0.0532227-0.0947266-0.0800781-0.1806641-0.0800781
		c-0.1601562,0-0.2666016,0.0854492-0.3193359,0.2558594c-0.0273438,0.0639648-0.0458984,0.1386719-0.0566406,0.2241211
		c0,0.0317383-0.0078125,0.1040039-0.0234375,0.2158203L12.4175682,7.442008
		c-0.0371094,0.1176758-0.0556641,0.2480469-0.0556641,0.3920898c0,0.1865234,0.0185547,0.3544922,0.0556641,0.5039062
		c0.0107422,0.0800781,0.0332031,0.1640625,0.0683594,0.2519531c0.0341797,0.0878906,0.0576172,0.1508789,0.0683594,0.1879883
		c0.0048828,0.0537109,0.0527344,0.1069336,0.1435547,0.1601562c0.0263672,0.0268555,0.0556641,0.0498047,0.0878906,0.0683594
		s0.0566406,0.0283203,0.0722656,0.0283203C13.023037,9.0347815,13.1431541,8.9620275,13.2183495,8.8179846z"/>
</g>
</svg>
