<?xml version="1.0" encoding="utf-8"?>
<!-- Generator: Adobe Illustrator 27.5.0, SVG Export Plug-In . SVG Version: 6.00 Build 0)  -->
<svg version="1.1" id="Ebene_1" xmlns="http://www.w3.org/2000/svg" xmlns:xlink="http://www.w3.org/1999/xlink" x="0px" y="0px"
	 viewBox="0 0 24 16" style="enable-background:new 0 0 24 16;" xml:space="preserve">
<style type="text/css">
	.st0{fill:#86D146;}
</style>
<g>
	<path class="st0" d="M2.9848633,10.0875158c-0.1870117-0.0224609-0.3344727-0.0478516-0.4418945-0.0761719
		C2.4462891,9.988883,2.3842773,9.9713049,2.355957,9.9605627C2.3105469,9.948844,2.2875977,9.9351721,2.2875977,9.917594
		C2.2592773,9.9117346,2.2294922,9.9039221,2.1987305,9.8922033c-0.03125-0.0117188-0.0668945-0.0195312-0.1064453-0.0253906
		c-0.0625-0.0117188-0.1230469-0.0351562-0.1826172-0.0722656S1.8115234,9.7340002,1.7949219,9.7222815L1.6757812,9.6627111
		l0.0849609-1.1733398C2.1630859,8.586051,2.4946289,8.6339025,2.7553711,8.6339025
		c0.2041016,0,0.3540039-0.0336914,0.4501953-0.1015625c0.125-0.0737305,0.1870117-0.1899414,0.1870117-0.3486328
		c0-0.2094727-0.1782227-0.3286133-0.5351562-0.3569336c-0.2099609,0-0.4423828,0.0083008-0.6972656,0.0253906V6.9341955h0.1445312
		c0.0341797,0.0058594,0.0878906,0.0083008,0.1616211,0.0083008c0.1923828,0,0.3540039-0.0253906,0.484375-0.0761719
		c0.1416016-0.0566406,0.2124023-0.1728516,0.2124023-0.3486328c0-0.1416016-0.0566406-0.2382812-0.1699219-0.2890625
		C2.8969727,6.1778479,2.746582,6.151969,2.5429688,6.151969c-0.2324219,0-0.5668945,0.0849609-1.003418,0.2553711
		L1.4545898,5.2086096C1.7832031,5.067008,2.1064453,4.9678869,2.4238281,4.9112463
		C2.809082,4.8316565,3.1943359,4.7921057,3.5795898,4.7921057l0.5952148,0.0424805
		c0.1923828,0.0341797,0.3623047,0.0678711,0.5097656,0.1020508c0.0058594,0,0.0141602,0.0014648,0.0258789,0.0043945
		c0.0112305,0.0029297,0.0253906,0.0068359,0.0424805,0.0126953C4.8828125,5.004508,4.9736328,5.0445471,5.0249023,5.0723791
		C5.0698242,5.089469,5.0927734,5.1094885,5.0927734,5.1319494v0.0683594c0.1020508,0,0.1953125,0.0820312,0.2802734,0.2460938
		c0.0229492,0.0341797,0.0410156,0.0683594,0.0556641,0.1020508c0.0136719,0.0341797,0.0297852,0.0654297,0.0463867,0.09375
		L5.534668,5.8038244c0.0454102,0.1015625,0.0678711,0.175293,0.0678711,0.2207031
		c0.0117188,0.0849609,0.0283203,0.1699219,0.0512695,0.2548828c0,0.1704102-0.0424805,0.3374023-0.1274414,0.5014648
		c-0.0737305,0.1591797-0.1870117,0.2978516-0.340332,0.4165039C5.6396484,7.4581213,5.8662109,7.8179846,5.8662109,8.276969
		c0,0.4536133-0.0708008,0.828125-0.2124023,1.1220703c-0.0566406,0.1132812-0.1176758,0.2070312-0.1826172,0.28125
		C5.4057617,9.7535315,5.3505859,9.7965002,5.3051758,9.8072424c-0.300293,0.1533203-0.6259766,0.2441406-0.9775391,0.2724609
		c-0.2265625,0.0283203-0.5722656,0.0419922-1.0371094,0.0419922C3.2226562,10.1216955,3.1206055,10.1099768,2.9848633,10.0875158z"
		/>
	<path class="st0" d="M8.1186523,10.067008c-0.0512695-0.0087891-0.1162109-0.0185547-0.1958008-0.0302734l-0.4589844-0.09375
		C7.4301758,9.926383,7.3974609,9.9136877,7.3662109,9.9048986c-0.03125-0.0078125-0.0581055-0.0185547-0.0805664-0.0292969
		C7.2739258,9.8697424,7.2573242,9.8609533,7.234375,9.8502111C7.2119141,9.8384924,7.2006836,9.8248205,7.2006836,9.8072424
		C7.1494141,9.7906408,7.0869141,9.7623205,7.0136719,9.7222815C6.9399414,9.6998205,6.8774414,9.6715002,6.8266602,9.6373205
		L6.7075195,9.5523596c-0.0566406-0.0341797-0.0961914-0.0625-0.1191406-0.0849609
		C6.4243164,9.3257971,6.2963867,9.1246252,6.2060547,8.8633947C6.1323242,8.648551,6.0756836,8.3961096,6.0361328,8.1070471
		C6.019043,7.9371252,6.0107422,7.7159338,6.0107422,7.4439611c0-0.3227539,0.0166016-0.574707,0.0507812-0.7563477
		c0.0283203-0.2094727,0.0878906-0.4619141,0.1787109-0.7563477c0.0395508-0.0341797,0.1044922-0.1445312,0.1953125-0.331543
		c0.0224609-0.0283203,0.0395508-0.0581055,0.0507812-0.0893555c0.0117188-0.03125,0.0258789-0.0581055,0.0424805-0.0805664
		c0.0058594-0.0058594,0.015625-0.0214844,0.0297852-0.046875S6.5883789,5.34484,6.6054688,5.34484
		c0.0454102,0,0.1103516-0.0429688,0.1958008-0.1279297c0.027832-0.0166016,0.0678711-0.0507812,0.1186523-0.1015625
		C6.9594727,5.0753088,6.996582,5.0469885,7.0307617,5.0298986c0.1582031-0.0961914,0.3569336-0.1640625,0.5947266-0.2036133
		C7.6650391,4.820426,7.7177734,4.81359,7.7827148,4.804801c0.0649414-0.0083008,0.1176758-0.0126953,0.1572266-0.0126953
		c0.0737305,0,0.1362305-0.0029297,0.1870117-0.0083008C8.1782227,4.7779455,8.2231445,4.7720861,8.2631836,4.766715
		c0.3569336,0.0112305,0.6542969,0.0336914,0.8925781,0.0678711C9.3652344,4.8575354,9.628418,4.9000158,9.9458008,4.9620275
		c0.0170898,0,0.0454102,0.0087891,0.0854492,0.0253906c0.1870117,0.0625,0.328125,0.1191406,0.4248047,0.1704102
		c0.0678711,0.0336914,0.1020508,0.0678711,0.1020508,0.1015625V5.336051c0.0620117,0,0.1274414,0.0268555,0.1953125,0.0810547
		c0.0683594,0.0537109,0.1303711,0.1259766,0.1870117,0.2163086c0.0625,0.0795898,0.1108398,0.1645508,0.1445312,0.2553711
		c0.0341797,0.090332,0.0512695,0.1640625,0.0512695,0.2207031c0.0507812,0,0.0805664,0.0029297,0.0888672,0.0087891
		c0.0087891,0.0053711,0.0131836,0.03125,0.0131836,0.0761719c0.027832,0.1420898,0.0561523,0.2553711,0.0849609,0.340332
		c0.0112305,0.0454102,0.0239258,0.0947266,0.0380859,0.1484375c0.0141602,0.0541992,0.0297852,0.1176758,0.046875,0.1914062
		l0.0083008,0.0678711l0.0170898,0.3144531V7.46984c0,0.4248047-0.0283203,0.7563477-0.0849609,0.9941406
		c-0.0795898,0.3686523-0.2353516,0.6547852-0.4677734,0.8588867c-0.0849609,0.0732422-0.1782227,0.1416016-0.2802734,0.2041016
		l-0.2973633,0.1953125c-0.1704102,0.0566406-0.2949219,0.1054688-0.3740234,0.1445312L9.5634766,9.9947424
		c-0.1928711,0-0.4106445,0.0136719-0.6542969,0.0419922c-0.1870117,0.0283203-0.4111328,0.0429688-0.671875,0.0429688
		C8.2089844,10.0797033,8.1694336,10.0748205,8.1186523,10.067008z M9.1132812,8.617301
		c0.027832-0.0683594,0.0449219-0.1445312,0.0507812-0.2294922c0.0053711-0.0849609,0.0083008-0.1362305,0.0083008-0.1533203
		l0.0087891-0.237793C9.1982422,7.8267736,9.206543,7.6622229,9.206543,7.5035315
		c0.0053711-0.0507812,0.0083008-0.1191406,0.0083008-0.2041016c0-0.1357422-0.0141602-0.2675781-0.0424805-0.3950195
		s-0.059082-0.2480469-0.0932617-0.3613281S9.0224609,6.3560705,9.0112305,6.3218908
		c-0.0117188-0.1015625-0.0356445-0.1811523-0.0722656-0.237793C8.9018555,6.0274572,8.8378906,5.9991369,8.7475586,5.9991369
		c-0.1699219,0-0.2832031,0.0908203-0.3398438,0.2719727C8.3789062,6.3389807,8.359375,6.4185705,8.3481445,6.5089025
		c0,0.0341797-0.0087891,0.1108398-0.0253906,0.2294922L8.2631836,7.1548986
		c-0.0400391,0.125-0.0595703,0.2636719-0.0595703,0.4165039c0,0.1987305,0.0195312,0.3769531,0.0595703,0.5356445
		C8.2744141,8.192008,8.2983398,8.2813635,8.3354492,8.3746252c0.0366211,0.09375,0.0605469,0.1606445,0.0722656,0.2001953
		c0.0053711,0.0566406,0.0566406,0.1132812,0.152832,0.1699219C8.5888672,8.7730627,8.6201172,8.7969885,8.6538086,8.817008
		c0.0341797,0.0200195,0.0595703,0.0297852,0.0766602,0.0297852C8.90625,8.8467932,9.0336914,8.770133,9.1132812,8.617301z"/>
	<path class="st0" d="M13.6865234,10.067008c-0.0507812-0.0087891-0.1162109-0.0185547-0.1953125-0.0302734l-0.4589844-0.09375
		C12.9980469,9.926383,12.965332,9.9136877,12.934082,9.9048986c-0.03125-0.0078125-0.0581055-0.0185547-0.0805664-0.0292969
		c-0.0117188-0.0058594-0.0283203-0.0146484-0.0512695-0.0253906c-0.0224609-0.0117188-0.0336914-0.0253906-0.0336914-0.0429688
		c-0.0512695-0.0166016-0.1137695-0.0449219-0.1870117-0.0849609c-0.0737305-0.0224609-0.1362305-0.0507812-0.1870117-0.0849609
		l-0.1191406-0.0849609c-0.0566406-0.0341797-0.0961914-0.0625-0.1191406-0.0849609
		c-0.1640625-0.1416016-0.2919922-0.3427734-0.3823242-0.6040039c-0.0737305-0.2148438-0.1303711-0.4672852-0.1699219-0.7563477
		c-0.0170898-0.1699219-0.0253906-0.3911133-0.0253906-0.6630859c0-0.3227539,0.0166016-0.574707,0.0507812-0.7563477
		c0.0283203-0.2094727,0.0878906-0.4619141,0.1787109-0.7563477c0.0395508-0.0341797,0.1044922-0.1445312,0.1953125-0.331543
		c0.0224609-0.0283203,0.0395508-0.0581055,0.0507812-0.0893555c0.0117188-0.03125,0.0258789-0.0581055,0.0424805-0.0805664
		c0.0058594-0.0058594,0.015625-0.0214844,0.0297852-0.046875S12.15625,5.34484,12.1733398,5.34484
		c0.0454102,0,0.1103516-0.0429688,0.1958008-0.1279297c0.027832-0.0166016,0.0678711-0.0507812,0.1186523-0.1015625
		c0.0395508-0.0400391,0.0766602-0.0683594,0.1108398-0.0854492c0.1582031-0.0961914,0.3569336-0.1640625,0.5947266-0.2036133
		C13.2333984,4.820426,13.2861328,4.81359,13.3505859,4.804801c0.0654297-0.0083008,0.1181641-0.0126953,0.1572266-0.0126953
		c0.0742188,0,0.1367188-0.0029297,0.1875-0.0083008c0.0507812-0.0058594,0.0957031-0.0117188,0.1357422-0.0170898
		c0.3574219,0.0112305,0.6542969,0.0336914,0.8925781,0.0678711c0.2099609,0.0229492,0.4726562,0.0654297,0.7900391,0.1274414
		c0.0175781,0,0.0458984,0.0087891,0.0859375,0.0253906c0.1865234,0.0625,0.328125,0.1191406,0.4248047,0.1704102
		c0.0673828,0.0336914,0.1015625,0.0678711,0.1015625,0.1015625V5.336051c0.0625,0,0.1279297,0.0268555,0.1953125,0.0810547
		c0.0683594,0.0537109,0.1308594,0.1259766,0.1875,0.2163086c0.0625,0.0795898,0.1103516,0.1645508,0.1445312,0.2553711
		c0.0341797,0.090332,0.0507812,0.1640625,0.0507812,0.2207031c0.0507812,0,0.0810547,0.0029297,0.0888672,0.0087891
		c0.0087891,0.0053711,0.0136719,0.03125,0.0136719,0.0761719c0.0273438,0.1420898,0.0556641,0.2553711,0.0849609,0.340332
		c0.0107422,0.0454102,0.0234375,0.0947266,0.0380859,0.1484375c0.0136719,0.0541992,0.0292969,0.1176758,0.046875,0.1914062
		l0.0078125,0.0678711l0.0175781,0.3144531V7.46984c0,0.4248047-0.0283203,0.7563477-0.0849609,0.9941406
		c-0.0800781,0.3686523-0.2353516,0.6547852-0.4677734,0.8588867c-0.0849609,0.0732422-0.1787109,0.1416016-0.2802734,0.2041016
		l-0.2978516,0.1953125c-0.1699219,0.0566406-0.2949219,0.1054688-0.3740234,0.1445312l-0.3652344,0.1279297
		c-0.1933594,0-0.4111328,0.0136719-0.6542969,0.0419922c-0.1875,0.0283203-0.4111328,0.0429688-0.671875,0.0429688
		C13.7773438,10.0797033,13.7373047,10.0748205,13.6865234,10.067008z M14.6816406,8.617301
		c0.0273438-0.0683594,0.0449219-0.1445312,0.0507812-0.2294922c0.0048828-0.0849609,0.0078125-0.1362305,0.0078125-0.1533203
		l0.0087891-0.237793c0.0175781-0.1699219,0.0253906-0.3344727,0.0253906-0.4931641
		c0.0058594-0.0507812,0.0087891-0.1191406,0.0087891-0.2041016c0-0.1357422-0.0146484-0.2675781-0.0429688-0.3950195
		s-0.0585938-0.2480469-0.0927734-0.3613281s-0.0566406-0.1870117-0.0683594-0.2211914
		c-0.0117188-0.1015625-0.0351562-0.1811523-0.0722656-0.237793S14.40625,5.9991369,14.3154297,5.9991369
		c-0.1699219,0-0.2832031,0.0908203-0.3398438,0.2719727c-0.0283203,0.0678711-0.0478516,0.1474609-0.0595703,0.237793
		c0,0.0341797-0.0087891,0.1108398-0.0253906,0.2294922l-0.0595703,0.4165039
		c-0.0400391,0.125-0.0595703,0.2636719-0.0595703,0.4165039c0,0.1987305,0.0195312,0.3769531,0.0595703,0.5356445
		c0.0117188,0.0849609,0.0351562,0.1743164,0.0722656,0.2675781c0.0371094,0.09375,0.0605469,0.1606445,0.0722656,0.2001953
		c0.0058594,0.0566406,0.0566406,0.1132812,0.1533203,0.1699219c0.0283203,0.0283203,0.0595703,0.0522461,0.0927734,0.0722656
		c0.0341797,0.0200195,0.0595703,0.0297852,0.0771484,0.0297852C14.4746094,8.8467932,14.6015625,8.770133,14.6816406,8.617301z"/>
	<path class="st0" d="M19.2539062,10.067008c-0.0507812-0.0087891-0.1162109-0.0185547-0.1953125-0.0302734l-0.4589844-0.09375
		c-0.0341797-0.0166016-0.0664062-0.0292969-0.0976562-0.0380859c-0.03125-0.0078125-0.0585938-0.0185547-0.0810547-0.0292969
		c-0.0117188-0.0058594-0.0283203-0.0146484-0.0507812-0.0253906c-0.0224609-0.0117188-0.0341797-0.0253906-0.0341797-0.0429688
		c-0.0507812-0.0166016-0.1132812-0.0449219-0.1865234-0.0849609c-0.0742188-0.0224609-0.1367188-0.0507812-0.1875-0.0849609
		l-0.1191406-0.0849609c-0.0566406-0.0341797-0.0957031-0.0625-0.1191406-0.0849609
		c-0.1640625-0.1416016-0.2919922-0.3427734-0.3818359-0.6040039c-0.0742188-0.2148438-0.1308594-0.4672852-0.1699219-0.7563477
		c-0.0175781-0.1699219-0.0253906-0.3911133-0.0253906-0.6630859c0-0.3227539,0.0166016-0.574707,0.0507812-0.7563477
		c0.0283203-0.2094727,0.0878906-0.4619141,0.1787109-0.7563477c0.0390625-0.0341797,0.1044922-0.1445312,0.1953125-0.331543
		c0.0224609-0.0283203,0.0390625-0.0581055,0.0507812-0.0893555s0.0253906-0.0581055,0.0419922-0.0805664
		c0.0058594-0.0058594,0.015625-0.0214844,0.0302734-0.046875c0.0136719-0.0253906,0.0292969-0.0380859,0.046875-0.0380859
		c0.0449219,0,0.1103516-0.0429688,0.1953125-0.1279297c0.0283203-0.0166016,0.0683594-0.0507812,0.1191406-0.1015625
		c0.0390625-0.0400391,0.0761719-0.0683594,0.1103516-0.0854492c0.1582031-0.0961914,0.3574219-0.1640625,0.5947266-0.2036133
		C18.8007812,4.820426,18.8535156,4.81359,18.9179688,4.804801c0.0654297-0.0083008,0.1181641-0.0126953,0.1572266-0.0126953
		c0.0742188,0,0.1367188-0.0029297,0.1875-0.0083008c0.0507812-0.0058594,0.0957031-0.0117188,0.1357422-0.0170898
		c0.3574219,0.0112305,0.6542969,0.0336914,0.8925781,0.0678711c0.2099609,0.0229492,0.4726562,0.0654297,0.7900391,0.1274414
		c0.0175781,0,0.0458984,0.0087891,0.0859375,0.0253906c0.1865234,0.0625,0.328125,0.1191406,0.4248047,0.1704102
		c0.0673828,0.0336914,0.1015625,0.0678711,0.1015625,0.1015625V5.336051c0.0625,0,0.1279297,0.0268555,0.1953125,0.0810547
		c0.0683594,0.0537109,0.1308594,0.1259766,0.1875,0.2163086c0.0625,0.0795898,0.1103516,0.1645508,0.1445312,0.2553711
		c0.0341797,0.090332,0.0507812,0.1640625,0.0507812,0.2207031c0.0507812,0,0.0810547,0.0029297,0.0888672,0.0087891
		c0.0087891,0.0053711,0.0136719,0.03125,0.0136719,0.0761719c0.0273438,0.1420898,0.0556641,0.2553711,0.0849609,0.340332
		c0.0107422,0.0454102,0.0234375,0.0947266,0.0380859,0.1484375c0.0136719,0.0541992,0.0292969,0.1176758,0.046875,0.1914062
		l0.0078125,0.0678711l0.0175781,0.3144531V7.46984c0,0.4248047-0.0283203,0.7563477-0.0849609,0.9941406
		c-0.0800781,0.3686523-0.2353516,0.6547852-0.4677734,0.8588867c-0.0849609,0.0732422-0.1787109,0.1416016-0.2802734,0.2041016
		l-0.2978516,0.1953125c-0.1699219,0.0566406-0.2949219,0.1054688-0.3740234,0.1445312l-0.3652344,0.1279297
		c-0.1933594,0-0.4111328,0.0136719-0.6542969,0.0419922c-0.1875,0.0283203-0.4111328,0.0429688-0.671875,0.0429688
		C19.3447266,10.0797033,19.3046875,10.0748205,19.2539062,10.067008z M20.2490234,8.617301
		c0.0273438-0.0683594,0.0449219-0.1445312,0.0507812-0.2294922c0.0048828-0.0849609,0.0078125-0.1362305,0.0078125-0.1533203
		l0.0087891-0.237793c0.0175781-0.1699219,0.0253906-0.3344727,0.0253906-0.4931641
		c0.0058594-0.0507812,0.0087891-0.1191406,0.0087891-0.2041016c0-0.1357422-0.0146484-0.2675781-0.0429688-0.3950195
		s-0.0585938-0.2480469-0.0927734-0.3613281s-0.0566406-0.1870117-0.0683594-0.2211914
		c-0.0117188-0.1015625-0.0351562-0.1811523-0.0722656-0.237793s-0.1005859-0.0849609-0.1914062-0.0849609
		c-0.1699219,0-0.2832031,0.0908203-0.3398438,0.2719727c-0.0283203,0.0678711-0.0478516,0.1474609-0.0595703,0.237793
		c0,0.0341797-0.0087891,0.1108398-0.0253906,0.2294922l-0.0595703,0.4165039
		c-0.0400391,0.125-0.0595703,0.2636719-0.0595703,0.4165039c0,0.1987305,0.0195312,0.3769531,0.0595703,0.5356445
		c0.0117188,0.0849609,0.0351562,0.1743164,0.0722656,0.2675781c0.0371094,0.09375,0.0605469,0.1606445,0.0722656,0.2001953
		c0.0058594,0.0566406,0.0566406,0.1132812,0.1533203,0.1699219c0.0283203,0.0283203,0.0595703,0.0522461,0.0927734,0.0722656
		c0.0341797,0.0200195,0.0595703,0.0297852,0.0771484,0.0297852C20.0419922,8.8467932,20.1689453,8.770133,20.2490234,8.617301z"/>
</g>
</svg>
