<?xml version="1.0" encoding="utf-8"?>
<!-- Generator: Adobe Illustrator 27.5.0, SVG Export Plug-In . SVG Version: 6.00 Build 0)  -->
<svg version="1.1" id="Ebene_1" xmlns="http://www.w3.org/2000/svg" xmlns:xlink="http://www.w3.org/1999/xlink" x="0px" y="0px"
	 viewBox="0 0 16 16" style="enable-background:new 0 0 16 16;" xml:space="preserve">
<style type="text/css">
	.st0{fill:#86D146;}
</style>
<g>
	<path class="st0" d="M2.8762207,10.1861486c0-0.0371094-0.0024414-0.0722656-0.0078125-0.1035156
		c-0.0053711-0.0322266-0.0083008-0.0673828-0.0083008-0.1044922c0-0.0693359-0.0024414-0.1123047-0.0078125-0.1279297
		L2.8361816,9.5543127H2.8044434H2.2365723c-0.4912109,0-0.8642578,0.0029297-1.1201172,0.0078125
		c-0.1230469,0-0.3227539,0.0058594-0.6000977,0.0166016C0.3830566,9.5728674,0.2844238,9.5465002,0.220459,9.4986486
		C0.1774902,9.4820471,0.1564941,9.4556799,0.1564941,9.4185705V8.9947424c0-0.2299805,0.0131836-0.4033203,0.0400391-0.5205078
		C0.201416,8.3834143,0.2443848,8.1993322,0.3244629,7.9219885l0.1279297-0.4638672l0.0478516-0.1201172
		c0.0161133-0.0478516,0.0668945-0.1733398,0.1518555-0.3759766l0.1601562-0.3837891l0.4482422-1
		c0.1118164-0.2241211,0.1835938-0.362793,0.2158203-0.4160156C1.4816895,5.1568518,1.5031738,5.1407385,1.5402832,5.113883
		c0.0161133-0.0102539,0.0292969-0.0209961,0.0400391-0.0317383S1.6018066,5.06359,1.6125488,5.058219h0.5039062
		c0.1171875,0,0.2719727,0.0078125,0.4638672,0.0239258C2.6228027,5.0552893,2.713623,5.0421057,2.8522949,5.0421057
		c0.1494141,0,0.2558594,0.0029297,0.3198242,0.0078125C3.2414551,5.0552893,3.3508301,5.058219,3.5002441,5.058219h0.0161133
		l0.0161133-0.0083008h0.3037109C3.8469238,5.0552893,3.8630371,5.058219,3.8845215,5.058219h0.0556641
		c0.0429688-0.0107422,0.0800781-0.0107422,0.1123047,0h0.0400391h0.1040039h0.1196289h0.1201172
		c0.0268555,0.0107422,0.0561523,0.015625,0.0878906,0.015625c0.0483398,0,0.0776367,0.0351562,0.0883789,0.1040039
		c0.0048828,0.0268555,0.0078125,0.0722656,0.0078125,0.1362305L4.6125488,5.586051
		C4.6018066,5.735465,4.5964355,5.8555822,4.5964355,5.9459143c0,0.1123047,0.0078125,0.2294922,0.0239258,0.3520508v0.1123047
		C4.604248,6.6661291,4.5964355,6.9356604,4.5964355,7.2178869c-0.0107422,0.144043-0.0161133,0.3920898-0.0161133,0.7441406
		V8.098258h0.5761719c0.1064453,0,0.1865234,0.1064453,0.2397461,0.3198242
		C5.4230957,8.5352697,5.4362793,8.7007971,5.4362793,8.914176c0,0.0371094-0.0053711,0.0717773-0.0161133,0.1040039
		c0,0.0800781-0.0024414,0.1416016-0.0078125,0.1845703c0,0.0791016-0.0029297,0.1328125-0.0078125,0.1591797
		c0,0.0488281-0.0029297,0.078125-0.0083008,0.0888672s-0.0239258,0.0205078-0.0556641,0.03125
		C5.3029785,9.4927893,5.2365723,9.4986486,5.1403809,9.4986486c-0.0268555,0.0107422-0.0585938,0.015625-0.0961914,0.015625
		H4.8044434c-0.1069336,0-0.1870117,0.0029297-0.2402344,0.0078125L4.5563965,9.6500158
		C4.5456543,9.7193518,4.5402832,9.8131018,4.5402832,9.9302893c0,0.1865234-0.0185547,0.3125-0.0561523,0.3759766
		c-0.0263672,0.0263672-0.0693359,0.0400391-0.1279297,0.0400391c-0.0053711,0-0.0131836-0.0048828-0.0239258-0.015625
		c-0.0107422,0-0.0214844,0.0048828-0.0317383,0.015625H4.276123c-0.0209961,0-0.034668,0.0029297-0.0395508,0.0078125
		L4.076416,10.3463049H4.036377c-0.0161133-0.0107422-0.034668-0.015625-0.0561523-0.015625
		c-0.0161133,0-0.0317383,0.0078125-0.0478516,0.0234375H3.4123535l-0.0561523,0.0078125
		c-0.0424805,0.0107422-0.0839844,0.0214844-0.1240234,0.0322266s-0.0786133,0.0214844-0.1157227,0.0322266H3.036377
		C2.9509277,10.426383,2.8977051,10.3463049,2.8762207,10.1861486z M2.7561035,8.098258V5.9942541l-0.1196289,0.34375
		C2.604248,6.4234533,2.576416,6.4981604,2.5524902,6.5621252S2.5085449,6.6822424,2.4924316,6.730094
		C2.454834,6.8155432,2.4094238,6.948844,2.3562012,7.1299963C2.276123,7.3218908,2.185791,7.5567541,2.0842285,7.8340979
		C2.036377,7.9620275,2.0070801,8.0474768,1.9963379,8.0899572c0.1601562,0,0.2827148,0.0029297,0.3681641,0.0083008H2.7561035z"/>
	<path class="st0" d="M7.4846191,10.1822424c-0.0483398-0.0078125-0.109375-0.0175781-0.184082-0.0283203l-0.4321289-0.0878906
		c-0.0317383-0.015625-0.0625-0.0273438-0.0917969-0.0361328c-0.0292969-0.0078125-0.0546875-0.0166016-0.0761719-0.0273438
		C6.6896973,9.9966955,6.673584,9.988883,6.6525879,9.9781408C6.6311035,9.9673986,6.6203613,9.9547033,6.6203613,9.9381018
		C6.5725098,9.9224768,6.513916,9.8961096,6.4445801,9.8580236C6.3752441,9.8375158,6.3166504,9.8101721,6.2683105,9.7779455
		L6.1564941,9.6978674c-0.0532227-0.03125-0.0908203-0.0585938-0.1118164-0.0791016
		C5.8898926,9.4849768,5.7697754,9.2955236,5.6843262,9.0504065c-0.0693359-0.203125-0.1225586-0.4404297-0.159668-0.7124023
		C5.5085449,8.1778479,5.5002441,7.96984,5.5002441,7.7139807c0-0.3037109,0.0161133-0.5410156,0.0483398-0.7119141
		C5.5749512,6.804801,5.6311035,6.5674963,5.7165527,6.2901525c0.0371094-0.0322266,0.0986328-0.1362305,0.184082-0.3120117
		c0.0209961-0.0268555,0.0371094-0.0546875,0.0478516-0.0839844S5.9724121,5.839469,5.9885254,5.8179846
		c0.0053711-0.0053711,0.0146484-0.0200195,0.027832-0.0439453s0.0283203-0.0361328,0.0439453-0.0361328
		c0.0429688,0,0.1040039-0.0400391,0.184082-0.1196289c0.0268555-0.0161133,0.0639648-0.0483398,0.1123047-0.0961914
		C6.3937988,5.4849768,6.4284668,5.4581213,6.4606934,5.442008c0.1489258-0.090332,0.3359375-0.1547852,0.5595703-0.1918945
		c0.0375977-0.0053711,0.0869141-0.012207,0.1479492-0.0200195c0.0615234-0.0078125,0.1108398-0.012207,0.1484375-0.012207
		c0.0688477,0,0.1279297-0.0024414,0.1757812-0.0078125S7.583252,5.1993322,7.6203613,5.1939611
		c0.3359375,0.0107422,0.6162109,0.0322266,0.840332,0.0639648c0.1962891,0.0214844,0.4443359,0.0615234,0.7431641,0.1201172
		c0.0166016,0,0.0429688,0.0078125,0.0800781,0.0239258c0.1767578,0.059082,0.3095703,0.1123047,0.4003906,0.1601562
		C9.7478027,5.5938635,9.7800293,5.62609,9.7800293,5.6578283V5.730094c0.0585938,0,0.1201172,0.0253906,0.1845703,0.0761719
		c0.0634766,0.0507812,0.1220703,0.1186523,0.1757812,0.2036133c0.0585938,0.074707,0.1035156,0.1547852,0.1357422,0.2402344
		s0.0478516,0.1547852,0.0478516,0.2080078c0.0478516,0,0.0761719,0.0029297,0.0839844,0.0078125
		c0.0078125,0.0053711,0.0126953,0.0292969,0.0126953,0.0722656c0.0263672,0.1333008,0.0527344,0.2397461,0.0791016,0.3198242
		c0.0107422,0.0429688,0.0234375,0.0893555,0.0361328,0.1401367c0.0136719,0.0507812,0.0283203,0.1108398,0.0439453,0.1796875
		L10.588623,7.242301l0.015625,0.2958984v0.199707c0,0.4003906-0.0263672,0.7124023-0.0800781,0.9360352
		c-0.0751953,0.347168-0.2216797,0.6166992-0.4404297,0.8081055C10.0046387,9.551383,9.9157715,9.6158361,9.8200684,9.6744299
		L9.5397949,9.8580236C9.3806152,9.9117346,9.2624512,9.9566565,9.1882324,9.9947424l-0.34375,0.1191406
		c-0.1816406,0-0.3867188,0.0136719-0.6162109,0.0400391c-0.1757812,0.0273438-0.3867188,0.0400391-0.6318359,0.0400391
		C7.5695801,10.1939611,7.5324707,10.1900549,7.4846191,10.1822424z M8.4206543,8.8179846
		c0.0263672-0.0639648,0.0424805-0.1357422,0.0478516-0.2158203s0.0078125-0.1279297,0.0078125-0.144043l0.0083008-0.2241211
		C8.5002441,8.073844,8.5085449,7.9195471,8.5085449,7.770133C8.513916,7.7222815,8.5163574,7.6578283,8.5163574,7.5782385
		c0-0.1279297-0.0131836-0.2519531-0.0400391-0.3720703s-0.0556641-0.2333984-0.0878906-0.340332
		C8.3566895,6.7593908,8.3352051,6.6900549,8.3244629,6.6578283C8.3137207,6.5621252,8.2912598,6.4874182,8.2565918,6.4341955
		S8.1618652,6.3541174,8.076416,6.3541174c-0.1601562,0-0.2666016,0.0854492-0.3198242,0.2558594
		C7.7297363,6.6739416,7.7111816,6.7486486,7.7004395,6.8340979c0,0.0317383-0.0078125,0.1040039-0.0239258,0.2158203
		L7.6203613,7.442008C7.583252,7.5596838,7.5646973,7.6900549,7.5646973,7.8340979
		c0,0.1865234,0.0185547,0.3544922,0.0556641,0.5039062c0.0107422,0.0800781,0.0332031,0.1640625,0.0678711,0.2519531
		s0.0576172,0.1508789,0.0683594,0.1879883c0.0048828,0.0537109,0.0532227,0.1069336,0.144043,0.1601562
		C7.927002,8.9649572,7.9562988,8.9879065,7.9885254,9.0064611c0.0317383,0.0185547,0.0561523,0.0283203,0.0717773,0.0283203
		C8.2258301,9.0347815,8.3459473,8.9620275,8.4206543,8.8179846z"/>
	<path class="st0" d="M12.7243652,10.1822424c-0.0488281-0.0078125-0.109375-0.0175781-0.1845703-0.0283203l-0.4316406-0.0878906
		c-0.0322266-0.015625-0.0625-0.0273438-0.0917969-0.0361328c-0.0292969-0.0078125-0.0546875-0.0166016-0.0761719-0.0273438
		c-0.0107422-0.0058594-0.0273438-0.0136719-0.0478516-0.0244141c-0.0214844-0.0107422-0.0322266-0.0234375-0.0322266-0.0400391
		c-0.0478516-0.015625-0.1064453-0.0419922-0.1757812-0.0800781c-0.0693359-0.0205078-0.1279297-0.0478516-0.1767578-0.0800781
		l-0.1113281-0.0800781c-0.0537109-0.03125-0.0908203-0.0585938-0.1123047-0.0791016
		c-0.1542969-0.1337891-0.2744141-0.3232422-0.3603516-0.5683594c-0.0693359-0.203125-0.1220703-0.4404297-0.1591797-0.7124023
		c-0.0166016-0.1601562-0.0244141-0.3681641-0.0244141-0.6240234c0-0.3037109,0.015625-0.5410156,0.0478516-0.7119141
		c0.0263672-0.1972656,0.0830078-0.4345703,0.1679688-0.7119141c0.0371094-0.0322266,0.0986328-0.1362305,0.1845703-0.3120117
		c0.0205078-0.0268555,0.0371094-0.0546875,0.0478516-0.0839844s0.0234375-0.0546875,0.0400391-0.0761719
		c0.0048828-0.0053711,0.0146484-0.0200195,0.0273438-0.0439453c0.0136719-0.0239258,0.0283203-0.0361328,0.0439453-0.0361328
		c0.0429688,0,0.1044922-0.0400391,0.1845703-0.1196289c0.0263672-0.0161133,0.0634766-0.0483398,0.1123047-0.0961914
		c0.0371094-0.0371094,0.0712891-0.0639648,0.1035156-0.0800781c0.1494141-0.090332,0.3359375-0.1547852,0.5595703-0.1918945
		c0.0380859-0.0053711,0.0869141-0.012207,0.1484375-0.0200195s0.1103516-0.012207,0.1484375-0.012207
		c0.0683594,0,0.1279297-0.0024414,0.1757812-0.0078125s0.0908203-0.0107422,0.1279297-0.0161133
		c0.3359375,0.0107422,0.6162109,0.0322266,0.8398438,0.0639648c0.1972656,0.0214844,0.4453125,0.0615234,0.7441406,0.1201172
		c0.015625,0,0.0429688,0.0078125,0.0800781,0.0239258c0.1757812,0.059082,0.3085938,0.1123047,0.3994141,0.1601562
		c0.0644531,0.0317383,0.0966797,0.0639648,0.0966797,0.0957031V5.730094c0.0585938,0,0.1201172,0.0253906,0.1835938,0.0761719
		c0.0644531,0.0507812,0.1230469,0.1186523,0.1757812,0.2036133c0.0585938,0.074707,0.1044922,0.1547852,0.1367188,0.2402344
		c0.03125,0.0854492,0.0478516,0.1547852,0.0478516,0.2080078c0.0478516,0,0.0761719,0.0029297,0.0839844,0.0078125
		c0.0078125,0.0053711,0.0117188,0.0292969,0.0117188,0.0722656c0.0263672,0.1333008,0.0537109,0.2397461,0.0800781,0.3198242
		c0.0107422,0.0429688,0.0224609,0.0893555,0.0361328,0.1401367c0.0126953,0.0507812,0.0283203,0.1108398,0.0439453,0.1796875
		l0.0078125,0.0644531l0.015625,0.2958984v0.199707c0,0.4003906-0.0263672,0.7124023-0.0791016,0.9360352
		c-0.0751953,0.347168-0.2216797,0.6166992-0.4404297,0.8081055c-0.0800781,0.0693359-0.1679688,0.1337891-0.2636719,0.1923828
		l-0.2802734,0.1835938c-0.1601562,0.0537109-0.2773438,0.0986328-0.3525391,0.1367188l-0.34375,0.1191406
		c-0.1816406,0-0.3867188,0.0136719-0.6162109,0.0400391c-0.1757812,0.0273438-0.3867188,0.0400391-0.6318359,0.0400391
		C12.8093262,10.1939611,12.7722168,10.1900549,12.7243652,10.1822424z M13.6599121,8.8179846
		c0.0263672-0.0639648,0.0429688-0.1357422,0.0478516-0.2158203c0.0058594-0.0800781,0.0078125-0.1279297,0.0078125-0.144043
		l0.0087891-0.2241211c0.015625-0.1601562,0.0234375-0.3144531,0.0234375-0.4638672
		c0.0058594-0.0478516,0.0078125-0.1123047,0.0078125-0.1918945c0-0.1279297-0.0126953-0.2519531-0.0400391-0.3720703
		c-0.0263672-0.1201172-0.0556641-0.2333984-0.0878906-0.340332c-0.03125-0.1064453-0.0527344-0.1757812-0.0634766-0.2080078
		c-0.0107422-0.0957031-0.0332031-0.1704102-0.0683594-0.2236328c-0.0341797-0.0532227-0.0947266-0.0800781-0.1796875-0.0800781
		c-0.1601562,0-0.2666016,0.0854492-0.3203125,0.2558594c-0.0263672,0.0639648-0.0449219,0.1386719-0.0556641,0.2241211
		c0,0.0317383-0.0078125,0.1040039-0.0244141,0.2158203L12.8601074,7.442008
		c-0.0371094,0.1176758-0.0556641,0.2480469-0.0556641,0.3920898c0,0.1865234,0.0185547,0.3544922,0.0556641,0.5039062
		c0.0107422,0.0800781,0.0332031,0.1640625,0.0673828,0.2519531c0.0351562,0.0878906,0.0576172,0.1508789,0.0683594,0.1879883
		c0.0048828,0.0537109,0.0537109,0.1069336,0.1445312,0.1601562c0.0263672,0.0268555,0.0556641,0.0498047,0.0878906,0.0683594
		c0.03125,0.0185547,0.0556641,0.0283203,0.0712891,0.0283203C13.4655762,9.0347815,13.5856934,8.9620275,13.6599121,8.8179846z"/>
</g>
</svg>
