<?xml version="1.0" encoding="utf-8"?>
<!-- Generator: Adobe Illustrator 27.5.0, SVG Export Plug-In . SVG Version: 6.00 Build 0)  -->
<svg version="1.1" id="Ebene_1" xmlns="http://www.w3.org/2000/svg" xmlns:xlink="http://www.w3.org/1999/xlink" x="0px" y="0px"
	 viewBox="0 0 16 16" style="enable-background:new 0 0 16 16;" xml:space="preserve">
<style type="text/css">
	.st0{fill:#86D146;}
</style>
<g>
	<path class="st0" d="M2.0910749,9.93859C1.9201765,9.9171057,1.7761335,9.8936682,1.658946,9.8663244
		C1.5681257,9.84484,1.5149031,9.829215,1.4992781,9.8184729C1.4509382,9.81359,1.4240828,9.7999182,1.4191999,9.7784338
		C1.3391218,9.7520666,1.2829695,9.7364416,1.2512312,9.7305822c-0.074707-0.0214844-0.1337891-0.0429688-0.1762695-0.0634766
		L0.8591414,9.5381994L0.906993,9.266715L0.8991805,8.9786291L0.9152938,8.754508l0.0239258-0.3203125
		C1.3015242,8.5250158,1.6135359,8.570426,1.8752546,8.570426c0.1811523,0,0.3222656-0.0322266,0.4238281-0.0961914
		C2.4108992,8.4102697,2.4670515,8.301383,2.4670515,8.1465979c0-0.1972656-0.1655273-0.3095703-0.4960938-0.3364258
		c-0.2558594,0-0.5415039,0.0083008-0.855957,0.0244141L1.0910749,7.5142736L1.0988874,7.386344V7.2183752V7.098258
		c0-0.0317383,0.0029297-0.0532227,0.0083008-0.0639648l-0.0083008-0.199707c0-0.0053711-0.0009766-0.0175781-0.0039062-0.0361328
		C1.0925398,6.7798986,1.0910749,6.7437658,1.0910749,6.6905432C1.0695906,6.6212072,1.0588484,6.495719,1.0588484,6.3145666
		V5.1544104c0.0053711-0.0107422,0.0136719-0.0239258,0.0244141-0.0400391
		C1.0935163,5.098258,1.1096296,5.0850744,1.131114,5.0743322h0.0161133
		c0.0048828,0.0107422,0.015625,0.0161133,0.0317383,0.0161133c0.0371094,0,0.0708008-0.0024414,0.1000977-0.0078125
		s0.0600586-0.0083008,0.0917969-0.0083008c0.0585938-0.0161133,0.1201172-0.0239258,0.184082-0.0239258
		c0.0854492,0,0.1865234,0.0053711,0.3041992,0.0161133c0.074707,0.0053711,0.1811523,0.0078125,0.3198242,0.0078125
		L2.2111921,5.058219h0.3598633c0.0053711,0.0107422,0.0239258,0.0161133,0.0561523,0.0161133h0.0239258h0.0400391
		c0.0107422-0.0053711,0.0263672-0.0078125,0.0478516-0.0078125C2.7443953,5.0611486,2.7551374,5.058219,2.7712507,5.058219
		l0.0957031,0.0161133H4.131114c0.0053711,0.0107422,0.0146484,0.019043,0.027832,0.0239258
		c0.0131836,0.0053711,0.0229492,0.0083008,0.0283203,0.0083008c0.015625,0,0.0288086-0.0029297,0.0395508-0.0083008
		c0.0322266,0,0.0561523-0.0024414,0.0722656-0.0078125c0.0263672,0,0.0507812-0.0053711,0.0717773-0.0161133h0.0400391
		c0.0322266,0,0.0585938,0.0322266,0.0800781,0.0961914C4.5280867,5.261344,4.5549421,5.4424963,4.5710554,5.714469
		c0.0053711,0.0800781,0.0078125,0.199707,0.0078125,0.3598633c0,0.0268555-0.0078125,0.046875-0.0239258,0.0600586
		S4.5202742,6.15734,4.4992781,6.1622229C4.4777937,6.167594,4.4616804,6.172965,4.4509382,6.1783361
		c-0.0161133,0-0.0332031,0.0014648-0.0517578,0.0039062C4.3801374,6.1851721,4.3576765,6.1837072,4.330821,6.1783361H4.2190046
		H4.131114c-0.0693359,0-0.1362305,0.0053711-0.2001953,0.0161133c-0.0214844,0-0.0507812,0.0029297-0.0878906,0.0078125
		C3.8059187,6.207633,3.7551374,6.2105627,3.6911726,6.2105627H3.5388288c-0.0532227,0-0.0825195-0.0053711-0.0878906-0.0161133
		L3.3869734,6.2344885L3.3552351,6.386344C3.3283796,6.4664221,3.3122663,6.5943518,3.3068953,6.7706213
		C3.5681257,6.7969885,3.768321,6.8316565,3.9069929,6.8746252l0.0478516,0.015625
		C4.0402937,6.9063635,4.131114,6.9410315,4.2268171,6.9942541c0.0429688,0.0268555,0.0644531,0.0507812,0.0644531,0.0722656
		v0.0478516c0.090332,0,0.1782227,0.0800781,0.2636719,0.2402344l0.0961914,0.1918945
		c0.0107422,0.0424805,0.0263672,0.0854492,0.0478516,0.1279297c0.0478516,0.1118164,0.074707,0.1918945,0.0800781,0.2397461
		c0.0209961,0.128418,0.0322266,0.2080078,0.0322266,0.2402344c0,0.4052734-0.0668945,0.7758789-0.2001953,1.1123047
		C4.5525007,9.3839025,4.4924421,9.4786291,4.4309187,9.5508947C4.3698835,9.6221838,4.315196,9.664176,4.2668562,9.6749182
		C3.9895124,9.8184729,3.6828718,9.9034338,3.3469343,9.9307775C3.1335554,9.9571447,2.8083601,9.9708166,2.3708601,9.9708166
		C2.2961531,9.9708166,2.2028913,9.9600744,2.0910749,9.93859z"/>
	<path class="st0" d="M6.9392195,9.9190588c-0.0483398-0.0087891-0.109375-0.0175781-0.184082-0.0283203L6.3230085,9.8028479
		c-0.0317383-0.0166016-0.0625-0.0283203-0.0917969-0.0361328S6.1765242,9.7491369,6.1550398,9.7383947
		C6.1442976,9.7335119,6.1281843,9.7256994,6.1071882,9.7149572C6.0857038,9.704215,6.0749617,9.6905432,6.0749617,9.6749182
		C6.0271101,9.6583166,5.9685163,9.6319494,5.8991804,9.59484C5.8298445,9.5733557,5.7712507,9.5469885,5.7229109,9.5147619
		L5.6110945,9.4346838C5.5578718,9.4024572,5.5202742,9.37609,5.4992781,9.3546057
		C5.3444929,9.2217932,5.2243757,9.0318518,5.1389265,8.7862463c-0.0693359-0.2026367-0.1225586-0.4399414-0.159668-0.7119141
		C4.9631453,7.914176,4.9548445,7.7061682,4.9548445,7.4503088c0-0.3037109,0.0161133-0.5410156,0.0483398-0.7119141
		c0.0263672-0.1972656,0.0825195-0.4345703,0.1679688-0.7119141c0.0371094-0.0322266,0.0986328-0.1362305,0.184082-0.3120117
		c0.0209961-0.0268555,0.0371094-0.0546875,0.0478516-0.0839844s0.0239258-0.0546875,0.0400391-0.0761719
		c0.0053711-0.0053711,0.0146484-0.0200195,0.027832-0.0439453s0.0283203-0.0361328,0.0439453-0.0361328
		c0.0429688,0,0.1040039-0.0400391,0.184082-0.1196289c0.0268555-0.0161133,0.0639648-0.0483398,0.1123047-0.0961914
		c0.0371094-0.0371094,0.0717773-0.0639648,0.1040039-0.0800781C6.0642195,5.0880041,6.2512312,5.023551,6.474864,4.9864416
		c0.0375977-0.0053711,0.0869141-0.012207,0.1479492-0.0200195c0.0615234-0.0078125,0.1108398-0.012207,0.1484375-0.012207
		c0.0688477,0,0.1279297-0.0024414,0.1757812-0.0078125s0.0908203-0.0107422,0.1279297-0.0161133
		c0.3359375,0.0107422,0.6162109,0.0322266,0.840332,0.0639648C8.112071,5.0157385,8.3601179,5.0557775,8.658946,5.1143713
		c0.0161133,0,0.0429688,0.0078125,0.0800781,0.0239258c0.1762695,0.059082,0.309082,0.1123047,0.3999023,0.1601562
		c0.0639648,0.0317383,0.0957031,0.0639648,0.0957031,0.0957031v0.0722656c0.0585938,0,0.1201172,0.0253906,0.1845703,0.0761719
		c0.0634766,0.0507812,0.1220703,0.1186523,0.1757812,0.2036133c0.0585938,0.074707,0.1035156,0.1547852,0.1357422,0.2402344
		s0.0478516,0.1547852,0.0478516,0.2080078c0.0478516,0,0.0761719,0.0029297,0.0839844,0.0078125
		C9.8703718,6.207633,9.8752546,6.2315588,9.8752546,6.2745275C9.9016218,6.4078283,9.927989,6.5142736,9.9543562,6.5943518
		C9.9650984,6.6373205,9.9777937,6.6837072,9.990489,6.7344885c0.0136719,0.0507812,0.0283203,0.1108398,0.0439453,0.1796875
		l0.0087891,0.0644531l0.015625,0.2958984v0.199707c0,0.4003906-0.0263672,0.7124023-0.0800781,0.9360352
		C9.9035749,8.7569494,9.7570906,9.0264807,9.5383406,9.2188635C9.459239,9.2881994,9.3703718,9.351676,9.2746687,9.4102697
		L8.9948835,9.59484c-0.159668,0.0527344-0.2773438,0.0986328-0.3520508,0.1357422l-0.34375,0.1201172
		c-0.1816406,0-0.3867188,0.0136719-0.6162109,0.0400391C7.5070906,9.9171057,7.2961531,9.9307775,7.0510359,9.9307775
		C7.0241804,9.9307775,6.987071,9.9268713,6.9392195,9.9190588z M7.8752546,8.5543127
		c0.0263672-0.0639648,0.0424805-0.1357422,0.0478516-0.2158203s0.0078125-0.1279297,0.0078125-0.144043l0.0083008-0.2241211
		c0.015625-0.1601562,0.0239258-0.3144531,0.0239258-0.4638672c0.0053711-0.0478516,0.0078125-0.1123047,0.0078125-0.1918945
		c0-0.1279297-0.0131836-0.2519531-0.0400391-0.3720703s-0.0556641-0.2333984-0.0878906-0.340332
		C7.8112898,6.495719,7.7898054,6.426383,7.7790632,6.3941565C7.768321,6.2984533,7.7458601,6.2237463,7.7111921,6.1705236
		S7.6164656,6.0904455,7.5310163,6.0904455c-0.1601562,0-0.2666016,0.0854492-0.3198242,0.2558594
		C7.1843367,6.4102697,7.165782,6.4849768,7.1550398,6.570426c0,0.0317383-0.0078125,0.1040039-0.0239258,0.2158203
		L7.0749617,7.1783361C7.0378523,7.2960119,7.0192976,7.426383,7.0192976,7.570426
		c0,0.1865234,0.0185547,0.3544922,0.0556641,0.5039062c0.0107422,0.0800781,0.0332031,0.1640625,0.0678711,0.2519531
		s0.0576172,0.1508789,0.0683594,0.1879883c0.0048828,0.0537109,0.0532227,0.1069336,0.144043,0.1601562
		C7.3816023,8.7012854,7.4108992,8.7237463,7.4431257,8.742301C7.474864,8.761344,7.4992781,8.7706213,7.5149031,8.7706213
		C7.6804304,8.7706213,7.8005476,8.6983557,7.8752546,8.5543127z"/>
	<path class="st0" d="M12.1789656,9.9190588c-0.0488281-0.0087891-0.109375-0.0175781-0.1845703-0.0283203l-0.4316406-0.0878906
		c-0.0322266-0.0166016-0.0625-0.0283203-0.0917969-0.0361328s-0.0546875-0.0175781-0.0761719-0.0283203
		c-0.0107422-0.0048828-0.0273438-0.0126953-0.0478516-0.0234375c-0.0214844-0.0107422-0.0322266-0.0244141-0.0322266-0.0400391
		c-0.0478516-0.0166016-0.1064453-0.0429688-0.1757812-0.0800781c-0.0693359-0.0214844-0.1279297-0.0478516-0.1767578-0.0800781
		l-0.1113281-0.0800781c-0.0537109-0.0322266-0.0908203-0.0585938-0.1123047-0.0800781
		c-0.1542969-0.1328125-0.2744141-0.3227539-0.3603516-0.5683594c-0.0693359-0.2026367-0.1220703-0.4399414-0.1591797-0.7119141
		c-0.0166016-0.1601562-0.0244141-0.3681641-0.0244141-0.6240234c0-0.3037109,0.015625-0.5410156,0.0478516-0.7119141
		c0.0263672-0.1972656,0.0830078-0.4345703,0.1679688-0.7119141c0.0371094-0.0322266,0.0986328-0.1362305,0.1845703-0.3120117
		c0.0205078-0.0268555,0.0371094-0.0546875,0.0478516-0.0839844s0.0234375-0.0546875,0.0400391-0.0761719
		c0.0048828-0.0053711,0.0146484-0.0200195,0.0273438-0.0439453c0.0136719-0.0239258,0.0283203-0.0361328,0.0439453-0.0361328
		c0.0429688,0,0.1044922-0.0400391,0.1845703-0.1196289c0.0263672-0.0161133,0.0634766-0.0483398,0.1123047-0.0961914
		c0.0371094-0.0371094,0.0712891-0.0639648,0.1035156-0.0800781c0.1494141-0.090332,0.3359375-0.1547852,0.5595703-0.1918945
		c0.0380859-0.0053711,0.0869141-0.012207,0.1484375-0.0200195s0.1103516-0.012207,0.1484375-0.012207
		c0.0683594,0,0.1279297-0.0024414,0.1757812-0.0078125s0.0908203-0.0107422,0.1279297-0.0161133
		c0.3359375,0.0107422,0.6162109,0.0322266,0.8398438,0.0639648c0.1972656,0.0214844,0.4453125,0.0615234,0.7441406,0.1201172
		c0.015625,0,0.0429688,0.0078125,0.0800781,0.0239258c0.1757812,0.059082,0.3085938,0.1123047,0.3994141,0.1601562
		c0.0644531,0.0317383,0.0966797,0.0639648,0.0966797,0.0957031v0.0722656c0.0585938,0,0.1201172,0.0253906,0.1835938,0.0761719
		c0.0644531,0.0507812,0.1230469,0.1186523,0.1757812,0.2036133c0.0585938,0.074707,0.1044922,0.1547852,0.1367188,0.2402344
		c0.03125,0.0854492,0.0478516,0.1547852,0.0478516,0.2080078c0.0478516,0,0.0761719,0.0029297,0.0839844,0.0078125
		c0.0078125,0.0053711,0.0117188,0.0292969,0.0117188,0.0722656c0.0263672,0.1333008,0.0537109,0.2397461,0.0800781,0.3198242
		c0.0107422,0.0429688,0.0224609,0.0893555,0.0361328,0.1401367c0.0126953,0.0507812,0.0283203,0.1108398,0.0439453,0.1796875
		l0.0078125,0.0644531l0.015625,0.2958984v0.199707c0,0.4003906-0.0263672,0.7124023-0.0791016,0.9360352
		c-0.0751953,0.3466797-0.2216797,0.6162109-0.4404297,0.8085938c-0.0800781,0.0693359-0.1679688,0.1328125-0.2636719,0.1914062
		L14.2346296,9.59484c-0.1601562,0.0527344-0.2773438,0.0986328-0.3525391,0.1357422l-0.34375,0.1201172
		c-0.1816406,0-0.3867188,0.0136719-0.6162109,0.0400391c-0.1757812,0.0263672-0.3867188,0.0400391-0.6318359,0.0400391
		C12.2639265,9.9307775,12.2268171,9.9268713,12.1789656,9.9190588z M13.1145124,8.5543127
		c0.0263672-0.0639648,0.0429688-0.1357422,0.0478516-0.2158203c0.0058594-0.0800781,0.0078125-0.1279297,0.0078125-0.144043
		l0.0087891-0.2241211c0.015625-0.1601562,0.0234375-0.3144531,0.0234375-0.4638672
		c0.0058594-0.0478516,0.0078125-0.1123047,0.0078125-0.1918945c0-0.1279297-0.0126953-0.2519531-0.0400391-0.3720703
		c-0.0263672-0.1201172-0.0556641-0.2333984-0.0878906-0.340332c-0.03125-0.1064453-0.0527344-0.1757812-0.0634766-0.2080078
		c-0.0107422-0.0957031-0.0332031-0.1704102-0.0683594-0.2236328c-0.0341797-0.0532227-0.0947266-0.0800781-0.1796875-0.0800781
		c-0.1601562,0-0.2666016,0.0854492-0.3203125,0.2558594c-0.0263672,0.0639648-0.0449219,0.1386719-0.0556641,0.2241211
		c0,0.0317383-0.0078125,0.1040039-0.0244141,0.2158203l-0.0556641,0.3920898
		c-0.0371094,0.1176758-0.0556641,0.2480469-0.0556641,0.3920898c0,0.1865234,0.0185547,0.3544922,0.0556641,0.5039062
		c0.0107422,0.0800781,0.0332031,0.1640625,0.0673828,0.2519531c0.0351562,0.0878906,0.0576172,0.1508789,0.0683594,0.1879883
		c0.0048828,0.0537109,0.0537109,0.1069336,0.1445312,0.1601562c0.0263672,0.0268555,0.0556641,0.0493164,0.0878906,0.0678711
		c0.03125,0.019043,0.0556641,0.0283203,0.0712891,0.0283203C12.9201765,8.7706213,13.0402937,8.6983557,13.1145124,8.5543127z"/>
</g>
</svg>
