<?xml version="1.0" encoding="utf-8"?>
<!-- Generator: Adobe Illustrator 27.5.0, SVG Export Plug-In . SVG Version: 6.00 Build 0)  -->
<svg version="1.1" id="Ebene_1" xmlns="http://www.w3.org/2000/svg" xmlns:xlink="http://www.w3.org/1999/xlink" x="0px" y="0px"
	 viewBox="0 0 23 16" style="enable-background:new 0 0 23 16;" xml:space="preserve">
<style type="text/css">
	.st0{fill:#86D146;}
</style>
<g>
	<path class="st0" d="M2.354248,10.0875158c-0.1816406-0.0224609-0.3344727-0.0478516-0.4589844-0.0761719
		C1.798584,9.988883,1.7419434,9.9713049,1.7253418,9.9605627C1.6740723,9.9547033,1.645752,9.9400549,1.6403809,9.917594
		C1.5549316,9.8892736,1.4958496,9.8726721,1.4616699,9.8668127C1.3820801,9.8443518,1.3200684,9.8218908,1.2746582,9.7984533
		L1.045166,9.6627111l0.0507812-0.2890625L1.0876465,9.0679846l0.0170898-0.2382812l0.0253906-0.340332
		C1.5153809,8.586051,1.8469238,8.6339025,2.1247559,8.6339025c0.1923828,0,0.3427734-0.0336914,0.4501953-0.1015625
		c0.1191406-0.0683594,0.1787109-0.184082,0.1787109-0.3486328c0-0.2094727-0.1757812-0.3286133-0.5268555-0.3569336
		c-0.2719727,0-0.5751953,0.0083008-0.909668,0.0253906L1.291748,7.5123205L1.3000488,7.37609V7.1973791V7.0699377
		c0-0.0336914,0.0029297-0.0566406,0.0087891-0.0678711L1.3000488,6.7896643c0-0.0058594-0.0014648-0.0185547-0.0039062-0.0380859
		C1.2932129,6.7315588,1.291748,6.6934729,1.291748,6.6368322C1.2687988,6.5631018,1.2575684,6.429801,1.2575684,6.2369299V5.004508
		C1.2634277,4.9932775,1.2717285,4.9791174,1.282959,4.9620275c0.0117188-0.0170898,0.0283203-0.0307617,0.0512695-0.0424805
		h0.0170898c0.0053711,0.0117188,0.0166016,0.0170898,0.0336914,0.0170898c0.0395508,0,0.0751953-0.0029297,0.1064453-0.0083008
		c0.03125-0.0058594,0.0634766-0.0087891,0.0976562-0.0087891c0.0625-0.0170898,0.1274414-0.0253906,0.1953125-0.0253906
		c0.0908203,0,0.1987305,0.0058594,0.3232422,0.0170898c0.0791016,0.0053711,0.1923828,0.0083008,0.3398438,0.0083008
		l0.0341797-0.0170898h0.3823242C2.869873,4.914176,2.8898926,4.9195471,2.923584,4.9195471h0.0253906h0.0424805
		C3.0031738,4.914176,3.0197754,4.9112463,3.0427246,4.9112463c0.0053711-0.0058594,0.0170898-0.0087891,0.0341797-0.0087891
		l0.1015625,0.0170898h1.3432617c0.0053711,0.0117188,0.015625,0.0200195,0.0297852,0.0253906
		c0.0141602,0.0058594,0.0239258,0.0087891,0.0297852,0.0087891c0.0170898,0,0.0307617-0.0029297,0.0424805-0.0087891
		c0.0336914,0,0.0595703-0.0024414,0.0761719-0.0083008c0.0283203,0,0.0541992-0.0053711,0.0766602-0.0170898h0.0424805
		c0.0341797,0,0.0625,0.0341797,0.0849609,0.1020508c0.0395508,0.0966797,0.0678711,0.2890625,0.0849609,0.578125
		C4.994873,5.6846838,4.9978027,5.8121252,4.9978027,5.9820471c0,0.0283203-0.0087891,0.0498047-0.0258789,0.0639648
		c-0.0166016,0.0141602-0.0366211,0.0239258-0.059082,0.0297852C4.8898926,6.0811682,4.8728027,6.0870275,4.8615723,6.0923986
		c-0.0170898,0-0.0351562,0.0014648-0.0551758,0.0043945S4.7624512,6.098258,4.7341309,6.0923986H4.6149902H4.5217285
		c-0.0737305,0-0.1445312,0.0058594-0.2124023,0.0170898c-0.0229492,0-0.0541992,0.0029297-0.09375,0.0087891
		C4.1760254,6.1236486,4.1223145,6.1265783,4.0539551,6.1265783H3.8928223c-0.0566406,0-0.0878906-0.0053711-0.09375-0.0170898
		L3.7312012,6.151969L3.6970215,6.31359C3.6687012,6.398551,3.6516113,6.5347815,3.6462402,6.7217932
		c0.2773438,0.0283203,0.4902344,0.0649414,0.637207,0.1103516l0.0512695,0.0170898
		c0.090332,0.0170898,0.1870117,0.0537109,0.2890625,0.1103516c0.0454102,0.0283203,0.0678711,0.0537109,0.0678711,0.0766602
		v0.0507812c0.0961914,0,0.1899414,0.0849609,0.2802734,0.2548828l0.1020508,0.2041016
		c0.0117188,0.0454102,0.0283203,0.0908203,0.0512695,0.1362305C5.1760254,7.8008947,5.2043457,7.886344,5.2102051,7.9371252
		C5.232666,8.0733557,5.2443848,8.1583166,5.2443848,8.192008c0,0.4306641-0.0712891,0.8251953-0.2128906,1.1816406
		c-0.0620117,0.125-0.1259766,0.2255859-0.190918,0.3017578C4.7751465,9.7525549,4.717041,9.7965002,4.6662598,9.8072424
		c-0.2949219,0.1533203-0.6206055,0.2441406-0.9775391,0.2724609c-0.2265625,0.0283203-0.5722656,0.0419922-1.0371094,0.0419922
		C2.5720215,10.1216955,2.4733887,10.1099768,2.354248,10.0875158z"/>
	<path class="st0" d="M7.505127,10.067008c-0.0512695-0.0087891-0.1162109-0.0185547-0.1958008-0.0302734l-0.4589844-0.09375
		C6.8166504,9.926383,6.7839355,9.9136877,6.7526855,9.9048986c-0.03125-0.0078125-0.0581055-0.0185547-0.0805664-0.0292969
		C6.6604004,9.8697424,6.6437988,9.8609533,6.6208496,9.8502111C6.5983887,9.8384924,6.5871582,9.8248205,6.5871582,9.8072424
		C6.5358887,9.7906408,6.4733887,9.7623205,6.4001465,9.7222815C6.326416,9.6998205,6.263916,9.6715002,6.2131348,9.6373205
		L6.0939941,9.5523596c-0.0566406-0.0341797-0.0961914-0.0625-0.1191406-0.0849609
		C5.810791,9.3257971,5.6828613,9.1246252,5.5925293,8.8633947C5.5187988,8.648551,5.4621582,8.3961096,5.4226074,8.1070471
		C5.4055176,7.9371252,5.3972168,7.7159338,5.3972168,7.4439611c0-0.3227539,0.0166016-0.574707,0.0507812-0.7563477
		C5.4763184,6.4781408,5.5358887,6.2256994,5.626709,5.9312658c0.0395508-0.0341797,0.1044922-0.1445312,0.1953125-0.331543
		c0.0224609-0.0283203,0.0395508-0.0581055,0.0507812-0.0893555c0.0117188-0.03125,0.0258789-0.0581055,0.0424805-0.0805664
		c0.0058594-0.0058594,0.015625-0.0214844,0.0297852-0.046875S5.9748535,5.34484,5.9919434,5.34484
		c0.0454102,0,0.1103516-0.0429688,0.1958008-0.1279297c0.027832-0.0166016,0.0678711-0.0507812,0.1186523-0.1015625
		c0.0395508-0.0400391,0.0766602-0.0683594,0.1108398-0.0854492c0.1582031-0.0961914,0.3569336-0.1640625,0.5947266-0.2036133
		C7.0515137,4.820426,7.104248,4.81359,7.1691895,4.804801C7.2341309,4.7965002,7.2868652,4.7921057,7.326416,4.7921057
		c0.0737305,0,0.1362305-0.0029297,0.1870117-0.0083008C7.5646973,4.7779455,7.6096191,4.7720861,7.6496582,4.766715
		c0.3569336,0.0112305,0.6542969,0.0336914,0.8925781,0.0678711C8.751709,4.8575354,9.0148926,4.9000158,9.3322754,4.9620275
		c0.0170898,0,0.0454102,0.0087891,0.0854492,0.0253906c0.1870117,0.0625,0.328125,0.1191406,0.4248047,0.1704102
		c0.0678711,0.0336914,0.1020508,0.0678711,0.1020508,0.1015625V5.336051c0.0620117,0,0.1274414,0.0268555,0.1953125,0.0810547
		c0.0683594,0.0537109,0.1303711,0.1259766,0.1870117,0.2163086c0.0625,0.0795898,0.1108398,0.1645508,0.1445312,0.2553711
		c0.0341797,0.090332,0.0512695,0.1640625,0.0512695,0.2207031c0.0507812,0,0.0805664,0.0029297,0.0888672,0.0087891
		c0.0087891,0.0053711,0.0131836,0.03125,0.0131836,0.0761719c0.027832,0.1420898,0.0561523,0.2553711,0.0849609,0.340332
		c0.0112305,0.0454102,0.0239258,0.0947266,0.0380859,0.1484375c0.0141602,0.0541992,0.0297852,0.1176758,0.046875,0.1914062
		l0.0083008,0.0678711l0.0170898,0.3144531V7.46984c0,0.4248047-0.0283203,0.7563477-0.0849609,0.9941406
		c-0.0795898,0.3686523-0.2353516,0.6547852-0.4677734,0.8588867C10.182373,9.3961096,10.0891113,9.464469,9.9870605,9.526969
		L9.6896973,9.7222815C9.5192871,9.7789221,9.3947754,9.8277502,9.3156738,9.8668127L8.9499512,9.9947424
		c-0.1928711,0-0.4106445,0.0136719-0.6542969,0.0419922c-0.1870117,0.0283203-0.4111328,0.0429688-0.671875,0.0429688
		C7.595459,10.0797033,7.5559082,10.0748205,7.505127,10.067008z M8.4997559,8.617301
		c0.027832-0.0683594,0.0449219-0.1445312,0.0507812-0.2294922c0.0053711-0.0849609,0.0083008-0.1362305,0.0083008-0.1533203
		l0.0087891-0.237793c0.0170898-0.1699219,0.0253906-0.3344727,0.0253906-0.4931641
		c0.0053711-0.0507812,0.0083008-0.1191406,0.0083008-0.2041016c0-0.1357422-0.0141602-0.2675781-0.0424805-0.3950195
		s-0.059082-0.2480469-0.0932617-0.3613281S8.4089355,6.3560705,8.3977051,6.3218908
		c-0.0117188-0.1015625-0.0356445-0.1811523-0.0722656-0.237793C8.2883301,6.0274572,8.2243652,5.9991369,8.1340332,5.9991369
		c-0.1699219,0-0.2832031,0.0908203-0.3398438,0.2719727c-0.0288086,0.0678711-0.0483398,0.1474609-0.0595703,0.237793
		c0,0.0341797-0.0087891,0.1108398-0.0253906,0.2294922L7.6496582,7.1548986
		c-0.0400391,0.125-0.0595703,0.2636719-0.0595703,0.4165039c0,0.1987305,0.0195312,0.3769531,0.0595703,0.5356445
		C7.6608887,8.192008,7.6848145,8.2813635,7.7219238,8.3746252c0.0366211,0.09375,0.0605469,0.1606445,0.0722656,0.2001953
		c0.0053711,0.0566406,0.0566406,0.1132812,0.152832,0.1699219C7.9753418,8.7730627,8.0065918,8.7969885,8.0402832,8.817008
		c0.0341797,0.0200195,0.0595703,0.0297852,0.0766602,0.0297852C8.2927246,8.8467932,8.420166,8.770133,8.4997559,8.617301z"/>
	<path class="st0" d="M13.072998,10.067008c-0.0517578-0.0087891-0.1162109-0.0185547-0.1962891-0.0302734l-0.4589844-0.09375
		c-0.0332031-0.0166016-0.0664062-0.0292969-0.0976562-0.0380859c-0.03125-0.0078125-0.0576172-0.0185547-0.0800781-0.0292969
		c-0.0117188-0.0058594-0.0283203-0.0146484-0.0517578-0.0253906c-0.0224609-0.0117188-0.0332031-0.0253906-0.0332031-0.0429688
		c-0.0517578-0.0166016-0.1142578-0.0449219-0.1875-0.0849609c-0.0732422-0.0224609-0.1357422-0.0507812-0.1865234-0.0849609
		l-0.1191406-0.0849609c-0.0566406-0.0341797-0.0961914-0.0625-0.1191406-0.0849609
		c-0.1640625-0.1416016-0.2919922-0.3427734-0.3823242-0.6040039c-0.0737305-0.2148438-0.1303711-0.4672852-0.1699219-0.7563477
		c-0.0170898-0.1699219-0.0253906-0.3911133-0.0253906-0.6630859c0-0.3227539,0.0166016-0.574707,0.0507812-0.7563477
		c0.0283203-0.2094727,0.0878906-0.4619141,0.1787109-0.7563477c0.0395508-0.0341797,0.1044922-0.1445312,0.1953125-0.331543
		c0.0224609-0.0283203,0.0395508-0.0581055,0.0507812-0.0893555c0.0117188-0.03125,0.0258789-0.0581055,0.0424805-0.0805664
		c0.0058594-0.0058594,0.015625-0.0214844,0.0297852-0.046875S11.5427246,5.34484,11.5598145,5.34484
		c0.0454102,0,0.1103516-0.0429688,0.1958008-0.1279297c0.0273438-0.0166016,0.0673828-0.0507812,0.1181641-0.1015625
		c0.0400391-0.0400391,0.0771484-0.0683594,0.1113281-0.0854492c0.1582031-0.0961914,0.3564453-0.1640625,0.5947266-0.2036133
		C12.6188965,4.820426,12.6716309,4.81359,12.7370605,4.804801c0.0644531-0.0083008,0.1171875-0.0126953,0.1572266-0.0126953
		c0.0732422,0,0.1357422-0.0029297,0.1865234-0.0083008c0.0517578-0.0058594,0.0966797-0.0117188,0.1367188-0.0170898
		c0.3564453,0.0112305,0.6542969,0.0336914,0.8925781,0.0678711c0.2089844,0.0229492,0.4726562,0.0654297,0.7900391,0.1274414
		c0.0166016,0,0.0449219,0.0087891,0.0849609,0.0253906c0.1875,0.0625,0.328125,0.1191406,0.4248047,0.1704102
		c0.0683594,0.0336914,0.1025391,0.0678711,0.1025391,0.1015625V5.336051c0.0615234,0,0.1269531,0.0268555,0.1953125,0.0810547
		c0.0683594,0.0537109,0.1298828,0.1259766,0.1865234,0.2163086c0.0625,0.0795898,0.1113281,0.1645508,0.1445312,0.2553711
		c0.0341797,0.090332,0.0517578,0.1640625,0.0517578,0.2207031c0.0507812,0,0.0800781,0.0029297,0.0888672,0.0087891
		c0.0087891,0.0053711,0.0126953,0.03125,0.0126953,0.0761719c0.0283203,0.1420898,0.0566406,0.2553711,0.0849609,0.340332
		c0.0117188,0.0454102,0.0244141,0.0947266,0.0380859,0.1484375c0.0146484,0.0541992,0.0302734,0.1176758,0.046875,0.1914062
		l0.0087891,0.0678711l0.0166016,0.3144531V7.46984c0,0.4248047-0.0283203,0.7563477-0.0849609,0.9941406
		c-0.0791016,0.3686523-0.2353516,0.6547852-0.4677734,0.8588867c-0.0849609,0.0732422-0.1777344,0.1416016-0.2802734,0.2041016
		l-0.296875,0.1953125c-0.1708984,0.0566406-0.2949219,0.1054688-0.3740234,0.1445312L14.517334,9.9947424
		c-0.1923828,0-0.4101562,0.0136719-0.6542969,0.0419922c-0.1865234,0.0283203-0.4111328,0.0429688-0.671875,0.0429688
		C13.1628418,10.0797033,13.1237793,10.0748205,13.072998,10.067008z M14.0671387,8.617301
		c0.0283203-0.0683594,0.0449219-0.1445312,0.0507812-0.2294922s0.0087891-0.1362305,0.0087891-0.1533203l0.0087891-0.237793
		c0.0166016-0.1699219,0.0253906-0.3344727,0.0253906-0.4931641c0.0048828-0.0507812,0.0078125-0.1191406,0.0078125-0.2041016
		c0-0.1357422-0.0136719-0.2675781-0.0419922-0.3950195s-0.0595703-0.2480469-0.09375-0.3613281
		s-0.0566406-0.1870117-0.0673828-0.2211914c-0.0117188-0.1015625-0.0361328-0.1811523-0.0722656-0.237793
		c-0.0371094-0.0566406-0.1015625-0.0849609-0.1914062-0.0849609c-0.1699219,0-0.2832031,0.0908203-0.3398438,0.2719727
		c-0.0292969,0.0678711-0.0488281,0.1474609-0.0595703,0.237793c0,0.0341797-0.0087891,0.1108398-0.0253906,0.2294922
		l-0.0595703,0.4165039c-0.0400391,0.125-0.0595703,0.2636719-0.0595703,0.4165039
		c0,0.1987305,0.0195312,0.3769531,0.0595703,0.5356445c0.0107422,0.0849609,0.0351562,0.1743164,0.0722656,0.2675781
		c0.0361328,0.09375,0.0605469,0.1606445,0.0722656,0.2001953c0.0048828,0.0566406,0.0566406,0.1132812,0.1523438,0.1699219
		c0.0283203,0.0283203,0.0595703,0.0522461,0.09375,0.0722656s0.0595703,0.0297852,0.0761719,0.0297852
		C13.8601074,8.8467932,13.9880371,8.770133,14.0671387,8.617301z"/>
	<path class="st0" d="M18.6403809,10.067008c-0.0517578-0.0087891-0.1162109-0.0185547-0.1962891-0.0302734l-0.4589844-0.09375
		c-0.0332031-0.0166016-0.0664062-0.0292969-0.0976562-0.0380859c-0.03125-0.0078125-0.0576172-0.0185547-0.0800781-0.0292969
		c-0.0117188-0.0058594-0.0283203-0.0146484-0.0517578-0.0253906c-0.0224609-0.0117188-0.0332031-0.0253906-0.0332031-0.0429688
		c-0.0517578-0.0166016-0.1142578-0.0449219-0.1875-0.0849609c-0.0732422-0.0224609-0.1357422-0.0507812-0.1865234-0.0849609
		L17.229248,9.5523596c-0.0566406-0.0341797-0.0966797-0.0625-0.1191406-0.0849609
		c-0.1640625-0.1416016-0.2919922-0.3427734-0.3828125-0.6040039c-0.0732422-0.2148438-0.1298828-0.4672852-0.1699219-0.7563477
		c-0.0166016-0.1699219-0.0253906-0.3911133-0.0253906-0.6630859c0-0.3227539,0.0166016-0.574707,0.0507812-0.7563477
		c0.0283203-0.2094727,0.0878906-0.4619141,0.1787109-0.7563477c0.0400391-0.0341797,0.1044922-0.1445312,0.1953125-0.331543
		c0.0224609-0.0283203,0.0400391-0.0581055,0.0507812-0.0893555c0.0117188-0.03125,0.0263672-0.0581055,0.0429688-0.0805664
		c0.0058594-0.0058594,0.015625-0.0214844,0.0292969-0.046875C17.0944824,5.3575354,17.1101074,5.34484,17.126709,5.34484
		c0.0458984,0,0.1103516-0.0429688,0.1962891-0.1279297c0.0273438-0.0166016,0.0673828-0.0507812,0.1181641-0.1015625
		c0.0400391-0.0400391,0.0771484-0.0683594,0.1113281-0.0854492c0.1582031-0.0961914,0.3564453-0.1640625,0.5947266-0.2036133
		C18.1862793,4.820426,18.2390137,4.81359,18.3044434,4.804801c0.0644531-0.0083008,0.1171875-0.0126953,0.1572266-0.0126953
		c0.0732422,0,0.1357422-0.0029297,0.1865234-0.0083008c0.0517578-0.0058594,0.0966797-0.0117188,0.1367188-0.0170898
		c0.3564453,0.0112305,0.6542969,0.0336914,0.8925781,0.0678711c0.2089844,0.0229492,0.4726562,0.0654297,0.7900391,0.1274414
		c0.0166016,0,0.0449219,0.0087891,0.0849609,0.0253906c0.1875,0.0625,0.328125,0.1191406,0.4248047,0.1704102
		c0.0683594,0.0336914,0.1025391,0.0678711,0.1025391,0.1015625V5.336051c0.0615234,0,0.1269531,0.0268555,0.1953125,0.0810547
		c0.0683594,0.0537109,0.1298828,0.1259766,0.1865234,0.2163086c0.0625,0.0795898,0.1113281,0.1645508,0.1445312,0.2553711
		c0.0341797,0.090332,0.0517578,0.1640625,0.0517578,0.2207031c0.0507812,0,0.0800781,0.0029297,0.0888672,0.0087891
		c0.0087891,0.0053711,0.0126953,0.03125,0.0126953,0.0761719c0.0283203,0.1420898,0.0566406,0.2553711,0.0849609,0.340332
		c0.0117188,0.0454102,0.0244141,0.0947266,0.0380859,0.1484375c0.0146484,0.0541992,0.0302734,0.1176758,0.046875,0.1914062
		l0.0087891,0.0678711l0.0166016,0.3144531V7.46984c0,0.4248047-0.0283203,0.7563477-0.0849609,0.9941406
		c-0.0791016,0.3686523-0.2353516,0.6547852-0.4677734,0.8588867c-0.0849609,0.0732422-0.1777344,0.1416016-0.2802734,0.2041016
		l-0.296875,0.1953125c-0.1708984,0.0566406-0.2949219,0.1054688-0.3740234,0.1445312l-0.3662109,0.1279297
		c-0.1923828,0-0.4101562,0.0136719-0.6542969,0.0419922c-0.1865234,0.0283203-0.4111328,0.0429688-0.671875,0.0429688
		C18.7302246,10.0797033,18.6911621,10.0748205,18.6403809,10.067008z M19.6345215,8.617301
		c0.0283203-0.0683594,0.0449219-0.1445312,0.0507812-0.2294922s0.0087891-0.1362305,0.0087891-0.1533203l0.0087891-0.237793
		c0.0166016-0.1699219,0.0253906-0.3344727,0.0253906-0.4931641c0.0048828-0.0507812,0.0078125-0.1191406,0.0078125-0.2041016
		c0-0.1357422-0.0136719-0.2675781-0.0419922-0.3950195s-0.0595703-0.2480469-0.09375-0.3613281
		s-0.0566406-0.1870117-0.0673828-0.2211914c-0.0117188-0.1015625-0.0361328-0.1811523-0.0722656-0.237793
		c-0.0371094-0.0566406-0.1015625-0.0849609-0.1914062-0.0849609c-0.1699219,0-0.2832031,0.0908203-0.3398438,0.2719727
		c-0.0292969,0.0678711-0.0488281,0.1474609-0.0595703,0.237793c0,0.0341797-0.0087891,0.1108398-0.0253906,0.2294922
		l-0.0595703,0.4165039c-0.0400391,0.125-0.0595703,0.2636719-0.0595703,0.4165039
		c0,0.1987305,0.0195312,0.3769531,0.0595703,0.5356445c0.0107422,0.0849609,0.0351562,0.1743164,0.0722656,0.2675781
		c0.0361328,0.09375,0.0605469,0.1606445,0.0722656,0.2001953c0.0048828,0.0566406,0.0566406,0.1132812,0.1523438,0.1699219
		c0.0283203,0.0283203,0.0595703,0.0522461,0.09375,0.0722656s0.0595703,0.0297852,0.0761719,0.0297852
		C19.4274902,8.8467932,19.5554199,8.770133,19.6345215,8.617301z"/>
</g>
</svg>
