<?xml version="1.0" encoding="utf-8"?>
<!-- Generator: Adobe Illustrator 27.5.0, SVG Export Plug-In . SVG Version: 6.00 Build 0)  -->
<svg version="1.1" id="Ebene_1" xmlns="http://www.w3.org/2000/svg" xmlns:xlink="http://www.w3.org/1999/xlink" x="0px" y="0px"
	 viewBox="0 0 16 16" style="enable-background:new 0 0 16 16;" xml:space="preserve">
<style type="text/css">
	.st0{fill:#86D146;}
</style>
<g>
	<path class="st0" d="M2.4150391,10.3824377c-0.1201172-0.0429688-0.2412109-0.1015625-0.3642578-0.1757812
		C1.7578125,10.0465002,1.5200195,9.886344,1.3388672,9.7261877c-0.21875-0.1806641-0.328125-0.3164062-0.328125-0.4072266
		c0-0.0058594,0.0043945-0.0166016,0.012207-0.0322266c0.0078125-0.0166016,0.0170898-0.0429688,0.027832-0.0800781
		c0.0375977-0.0742188,0.0668945-0.1386719,0.0883789-0.1923828C1.203125,8.8594885,1.2670898,8.7237463,1.3310547,8.6065588
		l0.0957031-0.2001953C1.4428711,8.3585119,1.472168,8.2916174,1.5151367,8.2061682
		c0.015625-0.0263672,0.0556641-0.1040039,0.1196289-0.2319336c0.0429688-0.0957031,0.0693359-0.1542969,0.0800781-0.1757812
		l0.328125-0.6879883C2.059082,7.0782385,2.0751953,7.0450354,2.0908203,7.0103674
		c0.0161133-0.034668,0.0268555-0.0654297,0.0322266-0.0917969c-0.0429688,0-0.1054688-0.0029297-0.1879883-0.0083008
		C1.8520508,6.9048986,1.7841797,6.8995275,1.730957,6.8941565H1.402832H1.1147461H0.8427734
		c-0.1279297,0-0.2158203-0.1489258-0.2636719-0.4477539C0.5522461,6.2808752,0.5390625,6.0518713,0.5390625,5.7584143
		c0-0.0424805,0.0053711-0.0825195,0.0161133-0.1201172V5.4464025c0-0.0800781,0.0024414-0.1386719,0.0078125-0.1762695
		c0-0.0478516,0.0039062-0.0786133,0.012207-0.0917969c0.0078125-0.0131836,0.027832-0.027832,0.0595703-0.0439453
		c0.0322266-0.0053711,0.0693359-0.0107422,0.1123047-0.0161133C0.7895508,5.1129065,0.8242188,5.110465,0.8510742,5.110465
		h0.1040039c0.0209961,0,0.1757812-0.0083008,0.4638672-0.0239258C1.621582,5.0650549,1.7763672,5.0543127,1.8828125,5.0543127
		c1.0932617,0,1.9306641-0.0053711,2.512207-0.0161133c0.144043,0.0053711,0.2504883,0.0292969,0.3198242,0.0722656
		C4.7680664,5.1475744,4.7949219,5.1822424,4.7949219,5.214469v1.2797852c0,0.0639648-0.0146484,0.1333008-0.0439453,0.2080078
		S4.6748047,6.8809729,4.6108398,7.0142736l-0.199707,0.4160156L4.1391602,7.9981604
		C4.1337891,8.0142736,4.1269531,8.0342932,4.1191406,8.058219C4.1108398,8.0821447,4.0991211,8.1129065,4.0830078,8.1505041
		c-0.0375977,0.1171875-0.1469727,0.3598633-0.328125,0.7280273c-0.074707,0.1601562-0.1787109,0.3632812-0.3120117,0.6083984
		l-0.199707,0.3759766c-0.0375977,0.0742188-0.1069336,0.1806641-0.2080078,0.3193359
		c-0.0375977,0.0537109-0.0961914,0.1201172-0.1762695,0.2001953c-0.0107422,0.0214844-0.0317383,0.0371094-0.0639648,0.0478516
		c-0.0317383,0.0107422-0.0639648,0.0166016-0.0957031,0.0166016C2.6293945,10.4468908,2.5351562,10.4254065,2.4150391,10.3824377z"
		/>
	<path class="st0" d="M6.8110352,9.8590002c-0.0483398-0.0087891-0.109375-0.0175781-0.184082-0.0283203L6.1948242,9.7427893
		c-0.0317383-0.0166016-0.0625-0.0283203-0.0917969-0.0361328S6.0483398,9.6890783,6.0268555,9.6783361
		C6.0161133,9.6734533,6,9.6656408,5.9790039,9.6548986C5.9575195,9.6441565,5.9467773,9.6304846,5.9467773,9.6148596
		C5.8989258,9.598258,5.840332,9.5718908,5.7709961,9.5347815C5.7016602,9.5132971,5.6430664,9.4869299,5.5947266,9.4547033
		L5.4829102,9.3746252C5.4296875,9.3423986,5.3920898,9.3160315,5.3710938,9.2945471
		C5.2163086,9.1617346,5.0961914,8.9717932,5.0107422,8.7261877C4.9414062,8.523551,4.8881836,8.2862463,4.8510742,8.0142736
		C4.8349609,7.8541174,4.8266602,7.6461096,4.8266602,7.3902502c0-0.3037109,0.0161133-0.5410156,0.0483398-0.7119141
		c0.0263672-0.1972656,0.0825195-0.4345703,0.1679688-0.7119141c0.0371094-0.0322266,0.0986328-0.1362305,0.184082-0.3120117
		C5.2480469,5.6275549,5.2641602,5.5997229,5.2749023,5.570426s0.0239258-0.0546875,0.0400391-0.0761719
		c0.0053711-0.0053711,0.0146484-0.0200195,0.027832-0.0439453S5.3710938,5.414176,5.3867188,5.414176
		c0.0429688,0,0.1040039-0.0400391,0.184082-0.1196289c0.0268555-0.0161133,0.0639648-0.0483398,0.1123047-0.0961914
		c0.0371094-0.0371094,0.0717773-0.0639648,0.1040039-0.0800781c0.1489258-0.090332,0.3359375-0.1547852,0.5595703-0.1918945
		c0.0375977-0.0053711,0.0869141-0.012207,0.1479492-0.0200195c0.0615234-0.0078125,0.1108398-0.012207,0.1484375-0.012207
		c0.0688477,0,0.1279297-0.0024414,0.1757812-0.0078125S6.909668,4.8756018,6.9467773,4.8702307
		c0.3359375,0.0107422,0.6162109,0.0322266,0.840332,0.0639648C7.9838867,4.9556799,8.2319336,4.995719,8.5307617,5.0543127
		c0.0161133,0,0.0429688,0.0078125,0.0800781,0.0239258c0.1762695,0.059082,0.309082,0.1123047,0.3999023,0.1601562
		C9.0742188,5.270133,9.1064453,5.3023596,9.1064453,5.3340979v0.0722656c0.0585938,0,0.1201172,0.0253906,0.1845703,0.0761719
		c0.0634766,0.0507812,0.1220703,0.1186523,0.1757812,0.2036133c0.0585938,0.074707,0.1035156,0.1547852,0.1357422,0.2402344
		s0.0478516,0.1547852,0.0478516,0.2080078c0.0478516,0,0.0761719,0.0029297,0.0839844,0.0078125
		C9.7421875,6.1475744,9.7470703,6.1715002,9.7470703,6.214469C9.7734375,6.3477697,9.7998047,6.454215,9.8261719,6.5342932
		c0.0107422,0.0429688,0.0234375,0.0893555,0.0361328,0.1401367C9.8759766,6.7252111,9.890625,6.7852697,9.90625,6.8541174
		l0.0087891,0.0644531l0.015625,0.2958984v0.199707c0,0.4003906-0.0263672,0.7124023-0.0800781,0.9360352
		C9.7753906,8.6968908,9.6289062,8.9664221,9.4101562,9.1588049C9.3310547,9.2281408,9.2421875,9.2916174,9.1464844,9.3502111
		L8.8666992,9.5347815c-0.159668,0.0527344-0.2773438,0.0986328-0.3520508,0.1357422l-0.34375,0.1201172
		c-0.1816406,0-0.3867188,0.0136719-0.6162109,0.0400391C7.3789062,9.8570471,7.1679688,9.870719,6.9228516,9.870719
		C6.8959961,9.870719,6.8588867,9.8668127,6.8110352,9.8590002z M7.7470703,8.4942541
		c0.0263672-0.0639648,0.0424805-0.1357422,0.0478516-0.2158203s0.0078125-0.1279297,0.0078125-0.144043l0.0083008-0.2241211
		c0.015625-0.1601562,0.0239258-0.3144531,0.0239258-0.4638672C7.840332,7.398551,7.8427734,7.3340979,7.8427734,7.254508
		c0-0.1279297-0.0131836-0.2519531-0.0400391-0.3720703s-0.0556641-0.2333984-0.0878906-0.340332
		C7.6831055,6.4356604,7.6616211,6.3663244,7.6508789,6.3340979C7.6401367,6.2383947,7.6176758,6.1636877,7.5830078,6.110465
		S7.4882812,6.0303869,7.402832,6.0303869c-0.1601562,0-0.2666016,0.0854492-0.3198242,0.2558594
		C7.0561523,6.3502111,7.0375977,6.4249182,7.0268555,6.5103674c0,0.0317383-0.0078125,0.1040039-0.0239258,0.2158203
		L6.9467773,7.1182775C6.909668,7.2359533,6.8911133,7.3663244,6.8911133,7.5103674
		c0,0.1865234,0.0185547,0.3544922,0.0556641,0.5039062c0.0107422,0.0800781,0.0332031,0.1640625,0.0678711,0.2519531
		S7.0722656,8.4171057,7.0830078,8.454215c0.0048828,0.0537109,0.0532227,0.1069336,0.144043,0.1601562
		C7.253418,8.6412268,7.2827148,8.6636877,7.3149414,8.6822424c0.0317383,0.019043,0.0561523,0.0283203,0.0717773,0.0283203
		C7.5522461,8.7105627,7.6723633,8.6382971,7.7470703,8.4942541z"/>
	<path class="st0" d="M12.0507812,9.8590002c-0.0488281-0.0087891-0.109375-0.0175781-0.1845703-0.0283203l-0.4316406-0.0878906
		c-0.0322266-0.0166016-0.0625-0.0283203-0.0917969-0.0361328s-0.0546875-0.0175781-0.0761719-0.0283203
		c-0.0107422-0.0048828-0.0273438-0.0126953-0.0478516-0.0234375c-0.0214844-0.0107422-0.0322266-0.0244141-0.0322266-0.0400391
		c-0.0478516-0.0166016-0.1064453-0.0429688-0.1757812-0.0800781c-0.0693359-0.0214844-0.1279297-0.0478516-0.1767578-0.0800781
		l-0.1113281-0.0800781c-0.0537109-0.0322266-0.0908203-0.0585938-0.1123047-0.0800781
		C10.4560547,9.1617346,10.3359375,8.9717932,10.25,8.7261877c-0.0693359-0.2026367-0.1220703-0.4399414-0.1591797-0.7119141
		c-0.0166016-0.1601562-0.0244141-0.3681641-0.0244141-0.6240234c0-0.3037109,0.015625-0.5410156,0.0478516-0.7119141
		c0.0263672-0.1972656,0.0830078-0.4345703,0.1679688-0.7119141c0.0371094-0.0322266,0.0986328-0.1362305,0.1845703-0.3120117
		c0.0205078-0.0268555,0.0371094-0.0546875,0.0478516-0.0839844s0.0234375-0.0546875,0.0400391-0.0761719
		c0.0048828-0.0053711,0.0146484-0.0200195,0.0273438-0.0439453c0.0136719-0.0239258,0.0283203-0.0361328,0.0439453-0.0361328
		c0.0429688,0,0.1044922-0.0400391,0.1845703-0.1196289c0.0263672-0.0161133,0.0634766-0.0483398,0.1123047-0.0961914
		c0.0371094-0.0371094,0.0712891-0.0639648,0.1035156-0.0800781c0.1494141-0.090332,0.3359375-0.1547852,0.5595703-0.1918945
		c0.0380859-0.0053711,0.0869141-0.012207,0.1484375-0.0200195s0.1103516-0.012207,0.1484375-0.012207
		c0.0683594,0,0.1279297-0.0024414,0.1757812-0.0078125s0.0908203-0.0107422,0.1279297-0.0161133
		c0.3359375,0.0107422,0.6162109,0.0322266,0.8398438,0.0639648c0.1972656,0.0214844,0.4453125,0.0615234,0.7441406,0.1201172
		c0.015625,0,0.0429688,0.0078125,0.0800781,0.0239258C14.0263672,5.1373205,14.1591797,5.1905432,14.25,5.2383947
		c0.0644531,0.0317383,0.0966797,0.0639648,0.0966797,0.0957031v0.0722656c0.0585938,0,0.1201172,0.0253906,0.1835938,0.0761719
		c0.0644531,0.0507812,0.1230469,0.1186523,0.1757812,0.2036133c0.0585938,0.074707,0.1044922,0.1547852,0.1367188,0.2402344
		c0.03125,0.0854492,0.0478516,0.1547852,0.0478516,0.2080078c0.0478516,0,0.0761719,0.0029297,0.0839844,0.0078125
		c0.0078125,0.0053711,0.0117188,0.0292969,0.0117188,0.0722656c0.0263672,0.1333008,0.0537109,0.2397461,0.0800781,0.3198242
		c0.0107422,0.0429688,0.0224609,0.0893555,0.0361328,0.1401367c0.0126953,0.0507812,0.0283203,0.1108398,0.0439453,0.1796875
		l0.0078125,0.0644531l0.015625,0.2958984v0.199707c0,0.4003906-0.0263672,0.7124023-0.0791016,0.9360352
		c-0.0751953,0.3466797-0.2216797,0.6162109-0.4404297,0.8085938c-0.0800781,0.0693359-0.1679688,0.1328125-0.2636719,0.1914062
		l-0.2802734,0.1845703c-0.1601562,0.0527344-0.2773438,0.0986328-0.3525391,0.1357422l-0.34375,0.1201172
		c-0.1816406,0-0.3867188,0.0136719-0.6162109,0.0400391c-0.1757812,0.0263672-0.3867188,0.0400391-0.6318359,0.0400391
		C12.1357422,9.870719,12.0986328,9.8668127,12.0507812,9.8590002z M12.9863281,8.4942541
		c0.0263672-0.0639648,0.0429688-0.1357422,0.0478516-0.2158203c0.0058594-0.0800781,0.0078125-0.1279297,0.0078125-0.144043
		l0.0087891-0.2241211c0.015625-0.1601562,0.0234375-0.3144531,0.0234375-0.4638672
		c0.0058594-0.0478516,0.0078125-0.1123047,0.0078125-0.1918945c0-0.1279297-0.0126953-0.2519531-0.0400391-0.3720703
		c-0.0263672-0.1201172-0.0556641-0.2333984-0.0878906-0.340332c-0.03125-0.1064453-0.0527344-0.1757812-0.0634766-0.2080078
		c-0.0107422-0.0957031-0.0332031-0.1704102-0.0683594-0.2236328c-0.0341797-0.0532227-0.0947266-0.0800781-0.1796875-0.0800781
		c-0.1601562,0-0.2666016,0.0854492-0.3203125,0.2558594c-0.0263672,0.0639648-0.0449219,0.1386719-0.0556641,0.2241211
		c0,0.0317383-0.0078125,0.1040039-0.0244141,0.2158203l-0.0556641,0.3920898
		c-0.0371094,0.1176758-0.0556641,0.2480469-0.0556641,0.3920898c0,0.1865234,0.0185547,0.3544922,0.0556641,0.5039062
		c0.0107422,0.0800781,0.0332031,0.1640625,0.0673828,0.2519531c0.0351562,0.0878906,0.0576172,0.1508789,0.0683594,0.1879883
		c0.0048828,0.0537109,0.0537109,0.1069336,0.1445312,0.1601562c0.0263672,0.0268555,0.0556641,0.0493164,0.0878906,0.0678711
		c0.03125,0.019043,0.0556641,0.0283203,0.0712891,0.0283203C12.7919922,8.7105627,12.9121094,8.6382971,12.9863281,8.4942541z"/>
</g>
</svg>
