<?xml version="1.0" encoding="utf-8"?>
<!-- Generator: Adobe Illustrator 27.5.0, SVG Export Plug-In . SVG Version: 6.00 Build 0)  -->
<svg version="1.1" id="Ebene_1" xmlns="http://www.w3.org/2000/svg" xmlns:xlink="http://www.w3.org/1999/xlink" x="0px" y="0px"
	 viewBox="0 0 16 16" style="enable-background:new 0 0 16 16;" xml:space="preserve">
<style type="text/css">
	.st0{fill:#86D146;}
</style>
<g>
	<path class="st0" d="M1.9462891,10.7105627c-0.4638672-0.0585938-0.8530273-0.1835938-1.1679688-0.3759766l-0.1118164-0.0400391
		c-0.0483398-0.015625-0.0776367-0.0341797-0.0878906-0.0556641c-0.1923828-0.1171875-0.3120117-0.2646484-0.3603516-0.4404297
		C0.1650391,9.6441565,0.1381836,9.4361486,0.1381836,9.1744299c0-0.2348633,0.0292969-0.4291992,0.0883789-0.5839844
		C0.2954102,8.414176,0.4262695,8.270133,0.6181641,8.1583166c-0.1279297-0.0961914-0.234375-0.2265625-0.3198242-0.3920898
		C0.2182617,7.6119299,0.1782227,7.454215,0.1782227,7.2945471c0-0.2988281,0.0830078-0.5600586,0.2480469-0.7841797
		C0.4423828,6.4835119,0.4794922,6.4464025,0.5385742,6.398551c0.0209961-0.0107422,0.0410156-0.0253906,0.0600586-0.0444336
		C0.6171875,6.3355627,0.637207,6.3209143,0.6582031,6.3101721C0.796875,6.1929846,0.90625,6.1212072,0.9863281,6.0943518
		C1.2265625,5.9717932,1.543457,5.891715,1.9384766,5.8541174h0.5200195h0.5200195
		c0.2080078,0,0.4238281,0.0214844,0.6479492,0.0644531c0.2133789,0.0317383,0.4052734,0.090332,0.5761719,0.1757812
		C4.378418,6.1636877,4.5288086,6.2452307,4.6542969,6.3384924s0.2148438,0.1826172,0.2680664,0.2680664
		c0.1225586,0.21875,0.184082,0.4423828,0.184082,0.671875c0,0.159668-0.0292969,0.3198242-0.0878906,0.4799805
		C4.9331055,7.9239416,4.8261719,8.0572424,4.6982422,8.1583166C5.125,8.4039221,5.3383789,8.742301,5.3383789,9.1744299
		c0,0.3789062-0.0908203,0.6796875-0.2719727,0.9042969c-0.1171875,0.1386719-0.2402344,0.2421875-0.3681641,0.3115234
		c-0.1171875,0.0751953-0.2880859,0.1494141-0.5117188,0.2246094l-0.2319336,0.0556641
		c-0.0639648,0.0107422-0.1176758,0.015625-0.1601562,0.015625c-0.074707,0-0.1816406,0.0107422-0.3198242,0.0322266
		c-0.1230469,0.0263672-0.2617188,0.0400391-0.4160156,0.0400391c-0.0537109,0.0058594-0.1416016,0.0078125-0.2641602,0.0078125
		C2.4956055,10.7662268,2.2128906,10.7476721,1.9462891,10.7105627z M2.90625,7.8145666
		c0.0585938-0.0908203,0.0883789-0.2426758,0.0883789-0.4560547c0-0.2402344-0.0375977-0.4106445-0.1123047-0.512207
		C2.8452148,6.8038244,2.8022461,6.7755041,2.7543945,6.7623205s-0.0800781-0.0224609-0.0961914-0.027832
		C2.6474609,6.7398596,2.6181641,6.7462072,2.5703125,6.754508C2.5224609,6.7623205,2.4794922,6.7877111,2.4423828,6.8301916
		c-0.0375977,0.0375977-0.0668945,0.0991211-0.0878906,0.184082C2.3330078,7.1212072,2.3222656,7.2359533,2.3222656,7.3585119
		c0,0.2236328,0.0322266,0.3813477,0.0961914,0.4716797c0.0585938,0.059082,0.1411133,0.0883789,0.2480469,0.0883789
		C2.7836914,7.9185705,2.8637695,7.8839025,2.90625,7.8145666z M2.9023438,9.870719
		c0.034668-0.0166016,0.0654297-0.0478516,0.0922852-0.0957031C3.0209961,9.7320471,3.0424805,9.651969,3.0585938,9.5347815
		c0.015625-0.0908203,0.0239258-0.2265625,0.0239258-0.4082031c0-0.2080078-0.0268555-0.3574219-0.0800781-0.4482422
		c-0.0693359-0.0961914-0.144043-0.144043-0.2241211-0.144043H2.6582031c-0.0639648,0-0.1171875,0.0478516-0.159668,0.144043
		C2.4501953,8.7955236,2.4262695,8.9449377,2.4262695,9.1265783c0,0.3310547,0.0375977,0.546875,0.1123047,0.6484375
		C2.5595703,9.8228674,2.590332,9.8541174,2.6303711,9.870719c0.0400391,0.015625,0.0893555,0.0234375,0.1479492,0.0234375
		C2.8261719,9.8941565,2.8676758,9.886344,2.9023438,9.870719z"/>
	<path class="st0" d="M7.4663086,10.8590002c-0.0483398-0.0087891-0.109375-0.0175781-0.184082-0.0283203l-0.4321289-0.0878906
		c-0.0317383-0.0166016-0.0625-0.0283203-0.0917969-0.0361328s-0.0546875-0.0175781-0.0761719-0.0283203
		c-0.0107422-0.0048828-0.0268555-0.0126953-0.0478516-0.0234375c-0.0214844-0.0107422-0.0322266-0.0244141-0.0322266-0.0400391
		c-0.0478516-0.0166016-0.1064453-0.0429688-0.1757812-0.0800781C6.3569336,10.5132971,6.2983398,10.4869299,6.25,10.4547033
		l-0.1118164-0.0800781c-0.0532227-0.0322266-0.0908203-0.0585938-0.1118164-0.0800781
		C5.871582,10.1617346,5.7514648,9.9722815,5.6660156,9.7261877C5.5966797,9.5240393,5.543457,9.2867346,5.5063477,9.0142736
		C5.4902344,8.8541174,5.4819336,8.6461096,5.4819336,8.3902502c0-0.3037109,0.0161133-0.5410156,0.0483398-0.7119141
		C5.5566406,7.4810705,5.612793,7.2437658,5.6982422,6.9664221c0.0371094-0.0322266,0.0986328-0.1362305,0.184082-0.3120117
		C5.9033203,6.6275549,5.9194336,6.5997229,5.9301758,6.570426s0.0239258-0.0546875,0.0400391-0.0761719
		c0.0053711-0.0053711,0.0146484-0.0200195,0.027832-0.0439453S6.0263672,6.414176,6.0419922,6.414176
		c0.0429688,0,0.1040039-0.0400391,0.184082-0.1196289c0.0268555-0.0161133,0.0639648-0.0483398,0.1123047-0.0961914
		c0.0371094-0.0371094,0.0717773-0.0639648,0.1040039-0.0800781c0.1489258-0.090332,0.3359375-0.1547852,0.5595703-0.1918945
		c0.0375977-0.0053711,0.0869141-0.012207,0.1479492-0.0200195c0.0615234-0.0078125,0.1108398-0.012207,0.1484375-0.012207
		c0.0688477,0,0.1279297-0.0024414,0.1757812-0.0078125s0.0908203-0.0107422,0.1279297-0.0161133
		c0.3359375,0.0107422,0.6162109,0.0322266,0.840332,0.0639648C8.6391602,5.9556799,8.887207,5.995719,9.1865234,6.0543127
		c0.015625,0,0.0429688,0.0078125,0.0800781,0.0239258c0.1757812,0.059082,0.3085938,0.1123047,0.3994141,0.1601562
		C9.7304688,6.270133,9.7626953,6.3023596,9.7626953,6.3340979v0.0722656c0.0585938,0,0.1201172,0.0253906,0.1835938,0.0761719
		c0.0644531,0.0507812,0.1230469,0.1186523,0.1757812,0.2036133c0.0585938,0.074707,0.1044922,0.1547852,0.1367188,0.2402344
		c0.03125,0.0854492,0.0478516,0.1547852,0.0478516,0.2080078c0.0478516,0,0.0761719,0.0029297,0.0839844,0.0078125
		c0.0078125,0.0053711,0.0117188,0.0292969,0.0117188,0.0722656c0.0263672,0.1333008,0.0537109,0.2397461,0.0800781,0.3198242
		c0.0107422,0.0429688,0.0224609,0.0893555,0.0361328,0.1401367C10.53125,7.7252111,10.546875,7.7852697,10.5625,7.8541174
		l0.0078125,0.0644531l0.015625,0.2958984v0.199707c0,0.4003906-0.0263672,0.7124023-0.0791016,0.9360352
		c-0.0751953,0.3466797-0.2216797,0.6162109-0.4404297,0.8085938c-0.0800781,0.0693359-0.1679688,0.1328125-0.2636719,0.1914062
		l-0.2802734,0.1845703c-0.1601562,0.0527344-0.2773438,0.0986328-0.3525391,0.1357422l-0.34375,0.1201172
		c-0.1816406,0-0.3867188,0.0136719-0.6162109,0.0400391C8.0341797,10.8570471,7.8232422,10.870719,7.578125,10.870719
		C7.5512695,10.870719,7.5141602,10.8668127,7.4663086,10.8590002z M8.4023438,9.4947424
		c0.0263672-0.0644531,0.0424805-0.1357422,0.0478516-0.2158203s0.0078125-0.1279297,0.0078125-0.1445312l0.0083008-0.2241211
		c0.015625-0.1601562,0.0239258-0.3144531,0.0239258-0.4638672C8.4956055,8.398551,8.4980469,8.3340979,8.4980469,8.254508
		c0-0.1279297-0.0131836-0.2519531-0.0400391-0.3720703s-0.0556641-0.2333984-0.0878906-0.340332
		C8.3383789,7.4356604,8.3168945,7.3663244,8.3061523,7.3340979C8.2954102,7.2383947,8.2729492,7.1636877,8.2382812,7.110465
		S8.1435547,7.0303869,8.0581055,7.0303869c-0.1601562,0-0.2666016,0.0854492-0.3198242,0.2558594
		C7.7114258,7.3502111,7.6928711,7.4249182,7.6821289,7.5103674c0,0.0317383-0.0078125,0.1040039-0.0239258,0.2158203
		L7.6020508,8.1182775C7.5649414,8.2359533,7.5463867,8.3663244,7.5463867,8.5103674
		c0,0.1865234,0.0185547,0.3544922,0.0556641,0.5039062C7.612793,9.0943518,7.6352539,9.1783361,7.6699219,9.2662268
		S7.7275391,9.417594,7.7382812,9.4547033c0.0048828,0.0537109,0.0532227,0.1064453,0.144043,0.1601562
		c0.0263672,0.0263672,0.0556641,0.0488281,0.0878906,0.0673828c0.0317383,0.0195312,0.0561523,0.0283203,0.0717773,0.0283203
		C8.2075195,9.7105627,8.3276367,9.6382971,8.4023438,9.4947424z"/>
	<path class="st0" d="M12.7060547,10.8590002c-0.0478516-0.0087891-0.109375-0.0175781-0.1835938-0.0283203l-0.4326172-0.0878906
		c-0.03125-0.0166016-0.0625-0.0283203-0.0917969-0.0361328s-0.0546875-0.0175781-0.0761719-0.0283203
		c-0.0107422-0.0048828-0.0263672-0.0126953-0.0478516-0.0234375s-0.0322266-0.0244141-0.0322266-0.0400391
		c-0.0478516-0.0166016-0.1064453-0.0429688-0.1757812-0.0800781c-0.0693359-0.0214844-0.1279297-0.0478516-0.1757812-0.0800781
		l-0.1123047-0.0800781c-0.0527344-0.0322266-0.0908203-0.0585938-0.1113281-0.0800781
		c-0.1552734-0.1328125-0.2753906-0.3222656-0.3603516-0.5683594c-0.0693359-0.2021484-0.1230469-0.4394531-0.1601562-0.7119141
		c-0.015625-0.1601562-0.0244141-0.3681641-0.0244141-0.6240234c0-0.3037109,0.0166016-0.5410156,0.0488281-0.7119141
		c0.0263672-0.1972656,0.0820312-0.4345703,0.1679688-0.7119141c0.0371094-0.0322266,0.0986328-0.1362305,0.1835938-0.3120117
		c0.0214844-0.0268555,0.0371094-0.0546875,0.0478516-0.0839844s0.0244141-0.0546875,0.0400391-0.0761719
		c0.0058594-0.0053711,0.0146484-0.0200195,0.0283203-0.0439453c0.0126953-0.0239258,0.0283203-0.0361328,0.0439453-0.0361328
		c0.0429688,0,0.1035156-0.0400391,0.1835938-0.1196289c0.0273438-0.0161133,0.0644531-0.0483398,0.1123047-0.0961914
		c0.0371094-0.0371094,0.0722656-0.0639648,0.1044922-0.0800781c0.1484375-0.090332,0.3359375-0.1547852,0.5595703-0.1918945
		c0.0371094-0.0053711,0.0869141-0.012207,0.1474609-0.0200195c0.0615234-0.0078125,0.1113281-0.012207,0.1484375-0.012207
		c0.0693359,0,0.1279297-0.0024414,0.1757812-0.0078125s0.0908203-0.0107422,0.1279297-0.0161133
		c0.3359375,0.0107422,0.6162109,0.0322266,0.8408203,0.0639648c0.1962891,0.0214844,0.4443359,0.0615234,0.7431641,0.1201172
		c0.0166016,0,0.0429688,0.0078125,0.0800781,0.0239258c0.1767578,0.059082,0.3095703,0.1123047,0.4003906,0.1601562
		c0.0634766,0.0317383,0.0957031,0.0639648,0.0957031,0.0957031v0.0722656c0.0585938,0,0.1201172,0.0253906,0.1845703,0.0761719
		C15.25,6.5333166,15.3085938,6.6011877,15.3623047,6.6861486c0.0585938,0.074707,0.1035156,0.1547852,0.1357422,0.2402344
		s0.0478516,0.1547852,0.0478516,0.2080078c0.0478516,0,0.0761719,0.0029297,0.0839844,0.0078125
		c0.0078125,0.0053711,0.0126953,0.0292969,0.0126953,0.0722656c0.0263672,0.1333008,0.0527344,0.2397461,0.0791016,0.3198242
		c0.0107422,0.0429688,0.0234375,0.0893555,0.0361328,0.1401367c0.0136719,0.0507812,0.0283203,0.1108398,0.0439453,0.1796875
		l0.0087891,0.0644531l0.015625,0.2958984v0.199707c0,0.4003906-0.0263672,0.7124023-0.0800781,0.9360352
		c-0.0751953,0.3466797-0.2216797,0.6162109-0.4404297,0.8085938c-0.0791016,0.0693359-0.1679688,0.1328125-0.2636719,0.1914062
		l-0.2802734,0.1845703c-0.1591797,0.0527344-0.2773438,0.0986328-0.3515625,0.1357422l-0.34375,0.1201172
		c-0.1816406,0-0.3867188,0.0136719-0.6162109,0.0400391c-0.1757812,0.0263672-0.3867188,0.0400391-0.6318359,0.0400391
		C12.7910156,10.870719,12.7539062,10.8668127,12.7060547,10.8590002z M13.6425781,9.4947424
		c0.0263672-0.0644531,0.0419922-0.1357422,0.0478516-0.2158203c0.0048828-0.0800781,0.0078125-0.1279297,0.0078125-0.1445312
		l0.0078125-0.2241211c0.015625-0.1601562,0.0244141-0.3144531,0.0244141-0.4638672
		c0.0048828-0.0478516,0.0078125-0.1123047,0.0078125-0.1918945c0-0.1279297-0.0136719-0.2519531-0.0400391-0.3720703
		c-0.0273438-0.1201172-0.0556641-0.2333984-0.0878906-0.340332c-0.0322266-0.1064453-0.0537109-0.1757812-0.0644531-0.2080078
		c-0.0107422-0.0957031-0.0332031-0.1704102-0.0673828-0.2236328c-0.0351562-0.0532227-0.0947266-0.0800781-0.1806641-0.0800781
		c-0.1601562,0-0.2666016,0.0854492-0.3193359,0.2558594c-0.0273438,0.0639648-0.0458984,0.1386719-0.0566406,0.2241211
		c0,0.0317383-0.0078125,0.1040039-0.0234375,0.2158203l-0.0566406,0.3920898
		c-0.0371094,0.1176758-0.0556641,0.2480469-0.0556641,0.3920898c0,0.1865234,0.0185547,0.3544922,0.0556641,0.5039062
		C12.8525391,9.0943518,12.875,9.1783361,12.9101562,9.2662268c0.0341797,0.0878906,0.0576172,0.1513672,0.0683594,0.1884766
		c0.0048828,0.0537109,0.0527344,0.1064453,0.1435547,0.1601562c0.0263672,0.0263672,0.0556641,0.0488281,0.0878906,0.0673828
		c0.0322266,0.0195312,0.0566406,0.0283203,0.0722656,0.0283203C13.4472656,9.7105627,13.5673828,9.6382971,13.6425781,9.4947424z"
		/>
</g>
</svg>
