<?xml version="1.0" encoding="utf-8"?>
<!-- Generator: Adobe Illustrator 27.5.0, SVG Export Plug-In . SVG Version: 6.00 Build 0)  -->
<svg version="1.1" id="Ebene_1" xmlns="http://www.w3.org/2000/svg" xmlns:xlink="http://www.w3.org/1999/xlink" x="0px" y="0px"
	 viewBox="0 0 80 16" enable-background="new 0 0 80 16" xml:space="preserve">
<g>
	<path fill="#E53E50" d="M3.7504883,11.7935705c-0.5600586-0.2724609-1.0200195-0.7207031-1.3798828-1.3447266
		C1.9702148,9.7447424,1.7705078,8.9131994,1.7705078,7.9532385c0-0.6796875,0.1201172-1.2919922,0.3598633-1.8359375
		c0.2402344-0.5439453,0.5839844-1.0039062,1.0322266-1.3798828C3.6020508,4.3692541,4.1181641,4.089469,4.7104492,3.8975747
		c0.5917969-0.1923828,1.2358398-0.2880859,1.9321289-0.2880859c1.0239258,0,2.0795898,0.2597656,3.1679688,0.7797849
		L9.3422852,6.4293127C9.2861328,6.4131994,9.2202148,6.3931799,9.1445312,6.3692541
		C9.0683594,6.3453283,8.9824219,6.3214025,8.8862305,6.2974768c-0.4399414-0.1123047-0.7636719-0.184082-0.9716797-0.2163086
		C7.722168,6.0494299,7.5664062,6.0333166,7.4462891,6.0333166c-0.5039062,0-0.8876953,0.1362305-1.1518555,0.4082031
		C5.9824219,6.7535315,5.8261719,7.2774572,5.8261719,8.0132971c0,0.671875,0.1000977,1.1513672,0.300293,1.4394531
		c0.1679688,0.2724609,0.4160156,0.4082031,0.7441406,0.4082031c0.2075195,0,0.4477539-0.0556641,0.7197266-0.1679688
		c0-0.1279297-0.0078125-0.3193359-0.0239258-0.5761719l-0.012207-0.2636719
		c-0.0078125-0.1835938-0.0117188-0.4555664-0.0117188-0.815918V7.7134924c0-0.0722656,0.0117188-0.1220703,0.0361328-0.1503906
		c0.0239258-0.027832,0.0678711-0.0419922,0.1318359-0.0419922c0.0239258,0.0083008,0.0917969,0.012207,0.2041016,0.012207
		h1.2719727c0.3759766,0,0.6240234-0.0039062,0.7436523-0.012207c0.2163086,0,0.355957,0.0043945,0.4204102,0.012207
		c0.1035156,0.0239258,0.1738281,0.0620117,0.2099609,0.1142578c0.0356445,0.0517578,0.0537109,0.1337891,0.0537109,0.2456055
		c0,0.0400391,0.0039062,0.0761719,0.012207,0.1079102v0.1083984V8.301383v0.3598633v1.2114258V9.933219
		c-0.0083008,0.0322266-0.0161133,0.0683594-0.0239258,0.1074219c-0.0083008,0.0410156-0.012207,0.0839844-0.012207,0.1328125
		v0.0595703c0,0.5039062-0.0078125,0.8564453-0.0239258,1.0556641c-0.0161133,0.328125-0.0439453,0.5361328-0.0839844,0.6240234
		c-0.2080078,0-0.3642578,0.0087891-0.4682617,0.0244141L9.7504883,11.948844H9.7143555
		c-0.0717773,0-0.1123047-0.0039062-0.1201172-0.0117188s-0.0161133-0.015625-0.0239258-0.0244141H9.5341797
		c-0.0078125,0.0087891-0.0161133,0.0205078-0.0239258,0.0361328h-1.199707H8.2504883H8.1303711h-0.144043
		c-0.0239258,0.0078125-0.0561523,0.0126953-0.0957031,0.0126953c-0.0322266,0-0.0600586-0.0244141-0.0844727-0.0722656
		c-0.0556641-0.1445312-0.0878906-0.3164062-0.0957031-0.5166016c-0.0161133-0.0957031-0.0322266-0.2353516-0.0478516-0.4199219
		C7.590332,11.3609533,7.3383789,11.6773596,6.90625,11.9009924c-0.3920898,0.2158203-0.8837891,0.3242188-1.4760742,0.3242188
		C4.8061523,12.2252111,4.2460938,12.0806799,3.7504883,11.7935705z"/>
	<path fill="#E53E50" d="M10.9506836,11.7213049c-0.0083008-0.0244141-0.012207-0.0644531-0.012207-0.1201172
		c0-0.0800781,0.0161133-0.2001953,0.0478516-0.3603516c0.0161133-0.1035156,0.0302734-0.1855469,0.0419922-0.2460938
		c0.012207-0.0595703,0.0219727-0.1054688,0.0302734-0.1376953c0.2397461-1.1279297,0.4755859-2.1196289,0.7080078-2.9755859
		l0.8398438-3.7919922c0-0.0161133,0.012207-0.0400391,0.0361328-0.0722656
		c0.0239258-0.031738,0.0517578-0.0517576,0.0839844-0.0600584h0.0600586c0,0.0083008,0.0117188,0.012207,0.0361328,0.012207
		c0.0957031,0,0.2036133-0.012207,0.3237305-0.0361328s0.2280273-0.0356445,0.3242188-0.0356445
		c0.1757812,0,0.3398438,0.0117188,0.4916992,0.0356445c0.0722656,0,0.1518555,0.0043945,0.2402344,0.012207
		c0.0878906,0.0078125,0.1796875,0.0117188,0.2758789,0.0117188c0.0317383,0,0.0678711-0.0078125,0.1079102-0.0239258h0.2163086
		h0.2758789l0.2880859-0.0117188c0.0556641-0.0078125,0.1235352-0.012207,0.2036133-0.012207
		c0.0639648,0,0.0961914-0.0039062,0.0961914-0.0117188h0.1918945h0.4082031h0.5039062
		c0.4477539,0,0.7441406,0.0078125,0.8881836,0.0239258c0.0239258,0,0.0576172,0.0019531,0.1020508,0.0058594
		c0.043457,0.0039062,0.0698242,0.0141602,0.0776367,0.0297852c0.0561523,0,0.1123047-0.0039062,0.1679688-0.0117188
		c0.0561523-0.0078125,0.1083984-0.012207,0.15625-0.012207c0.1118164-0.0239258,0.2197266-0.0356445,0.3237305-0.0356445
		c0.0483398,0,0.0961914,0.0117188,0.144043,0.0356445c0.0483398,0.0239258,0.1000977,0.0361328,0.15625,0.0361328
		l0.0600586-0.012207h0.0356445c0.0244141,0.0161133,0.050293,0.0380859,0.078125,0.066406
		c0.027832,0.027832,0.0419922,0.0498047,0.0419922,0.065918l0.8398438,3.7919922
		c0.2563477,0.9360352,0.4882812,1.9277344,0.6962891,2.9755859c0,0.0478516,0.0161133,0.1005859,0.0478516,0.15625
		c0.0078125,0.0556641,0.0200195,0.1318359,0.0361328,0.2275391c0.0161133,0.0966797,0.0239258,0.1767578,0.0239258,0.2402344
		c0.0078125,0.0322266,0.012207,0.0761719,0.012207,0.1318359c0,0.1123047-0.0239258,0.2041016-0.0722656,0.2763672
		c-0.0317383,0.0478516-0.0800781,0.0722656-0.144043,0.0722656h-0.1557617c-0.1201172,0-0.2119141-0.0048828-0.2758789-0.0126953
		h-0.3120117h-0.300293h-0.2397461c-0.0644531,0-0.0961914-0.0039062-0.0961914-0.0117188h-0.7558594v-0.0244141
		c-0.0322266-0.015625-0.0722656-0.0234375-0.1201172-0.0234375c-0.0083008,0.0078125-0.0161133,0.015625-0.0239258,0.0234375
		c0,0.0166016-0.0083008,0.0244141-0.0239258,0.0244141h-0.0361328h-0.0961914
		c-0.0400391-0.015625-0.1196289-0.0244141-0.2397461-0.0244141c-0.2402344-0.015625-0.4282227-0.0234375-0.5639648-0.0234375
		c-0.0483398-0.0722656-0.0981445-0.2158203-0.1499023-0.4326172c-0.0522461-0.2158203-0.1064453-0.4560547-0.1621094-0.7197266
		c-0.0161133-0.1279297-0.0322266-0.2158203-0.0483398-0.2636719c-0.1679688,0.0322266-0.3876953,0.0478516-0.659668,0.0478516
		h-0.3720703h-0.3481445l-0.0839844,0.3837891c-0.1040039,0.5283203-0.1879883,0.8564453-0.2519531,0.984375
		c-0.0322266,0-0.0717773,0.0078125-0.1201172,0.0234375c-0.0161133,0.0087891-0.0356445,0.0166016-0.0600586,0.0244141h-0.0478516
		c-0.0478516,0-0.0839844-0.0078125-0.1079102-0.0244141c-0.0161133-0.015625-0.0361328-0.0234375-0.0600586-0.0234375
		l-0.5400391,0.0234375h-0.1918945h-0.1801758c-0.0317383,0.0166016-0.0717773,0.0244141-0.1196289,0.0244141h-0.0483398h-1.1040039
		h-0.1079102c-0.0878906,0.0078125-0.2680664,0.0117188-0.5400391,0.0117188h-0.3120117
		c-0.0639648,0.0078125-0.1557617,0.0126953-0.2758789,0.0126953h-0.144043
		C11.0625,11.9615393,10.9902344,11.8814611,10.9506836,11.7213049z M16.6264648,8.433219
		C16.6025391,8.3214025,16.5625,8.1094885,16.5063477,7.7974768c-0.0161133-0.0800781-0.0556641-0.2958984-0.1196289-0.6479492
		l-0.0961914-0.5761719C16.2666016,6.4131994,16.2426758,6.273551,16.21875,6.1534338l-0.012207-0.15625
		c-0.0239258-0.0395508-0.0361328-0.0756836-0.0361328-0.1079102l-0.0117188-0.0717773
		c-0.0083008,0.0161133-0.012207,0.0400391-0.012207,0.0717773c0,0.0322266-0.0078125,0.0522461-0.0239258,0.0600586v0.0478516
		l-0.0239258,0.15625c-0.0083008,0.0561523-0.0180664,0.1181641-0.0302734,0.1860352
		c-0.0117188,0.0678711-0.0258789,0.1420898-0.0419922,0.2216797l-0.0600586,0.3364258
		c-0.0878906,0.5039062-0.1396484,0.7958984-0.1557617,0.8759766c-0.0083008,0.0878906-0.0283203,0.2197266-0.0600586,0.3959961
		c-0.0161133,0.0556641-0.0322266,0.1396484-0.0478516,0.2519531L15.6064453,8.973258H16.21875l0.0839844-0.0239258h0.0239258
		c0.0957031,0,0.1679688,0.0083008,0.2158203,0.0239258c0.0317383,0,0.0620117,0.0058594,0.0898438,0.0175781
		c0.0283203,0.0126953,0.0541992,0.0224609,0.078125,0.0302734L16.6264648,8.433219z"/>
	<path fill="#E53E50" d="M22.3027344,11.9615393H22.0625h-0.2158203h-0.0839844l-0.5400391-0.1328125l-0.0478516-0.0957031
		c-0.0083008,0-0.012207-0.0439453-0.012207-0.1318359c0-0.1123047-0.0039062-0.2041016-0.0117188-0.2763672l-0.012207-0.5517578
		c-0.0078125-0.1201172-0.0117188-0.2998047-0.0117188-0.5400391l-0.0244141-0.9238281
		c0-0.2001953,0.0083008-0.4755859,0.0244141-0.8276367l0.0117188-0.4082031
		c0.0161133-0.2558594,0.0239258-0.6757812,0.0239258-1.2602539V6.7291174V6.5733557
		c-0.0161133-0.0239258-0.0239258-0.0678711-0.0239258-0.1318359l-0.0117188-0.0839844
		c0-0.2001953,0.0117188-0.4082031,0.0356445-0.6240234c0.0161133-0.2719727,0.0239258-0.5200195,0.0239258-0.7441406
		l-0.0117188-0.3359375c-0.0083008-0.0878906-0.012207-0.1918945-0.012207-0.3120117
		c0-0.0078125-0.0058594-0.0200195-0.0180664-0.0361328c-0.0117188-0.0161133-0.0175781-0.0317383-0.0175781-0.0478516
		c0-0.0800781,0.0317383-0.1479492,0.0957031-0.2041016c0.0639648-0.0556638,0.144043-0.0961912,0.2402344-0.1201169
		c0.1279297-0.0400391,0.2919922-0.0600586,0.4916992-0.0600586h2.0283203h0.9360352
		c0.0078125,0,0.0195312,0.0083008,0.0356445,0.0244141s0.0322266,0.027832,0.0483398,0.0356445
		c0.0639648,0.0561523,0.144043,0.1640623,0.2397461,0.3242185c0.0239258,0.0478516,0.0498047,0.1020508,0.078125,0.1621094
		c0.027832,0.0595703,0.065918,0.1538086,0.1137695,0.2817383c0.0561523,0.1279297,0.1323242,0.3242188,0.2280273,0.5878906
		l0.144043,0.3720703c0.0639648,0.1201172,0.1362305,0.2919922,0.2163086,0.5161133
		c0.0239258,0.0639648,0.0498047,0.1279297,0.0776367,0.1918945c0.0283203,0.0639648,0.0541992,0.1279297,0.078125,0.1918945
		c0.0161133,0.0561523,0.0341797,0.0981445,0.0541992,0.1259766c0.0195312,0.0283203,0.0297852,0.0463867,0.0297852,0.0541992
		c0.0561523,0.1279297,0.1157227,0.1918945,0.1801758,0.1918945c0.0795898,0,0.144043-0.0639648,0.1918945-0.1918945
		c0.0078125-0.0078125,0.0161133-0.0258789,0.0239258-0.0541992c0.0078125-0.027832,0.027832-0.0737305,0.0600586-0.1376953
		l0.1801758-0.3959961l0.4799805-1.0200195l0.2036133-0.4321289c0.0244141-0.0639648,0.0419922-0.1176758,0.0541992-0.1621094
		c0.012207-0.0439453,0.0258789-0.0737305,0.0419922-0.0898438c0.0317383-0.0717773,0.1079102-0.1958008,0.2280273-0.3720703
		c0.0400391-0.0639648,0.0761719-0.1118162,0.1079102-0.1440427c0.0239258-0.0078125,0.0400391-0.0195312,0.0478516-0.0356445
		c0.0083008-0.0161133,0.0200195-0.0244141,0.0361328-0.0244141h0.9360352H31.0625h0.1801758h0.1201172h0.1557617h0.2641602
		c0.0161133,0,0.0361328,0.0600586,0.0600586,0.1801755l0.0361328,1.1757812
		c0.015625,0.3364258,0.0239258,0.8642578,0.0239258,1.5839844v0.6962891c0,0.2719727-0.012207,0.5761719-0.0361328,0.9121094
		s-0.0400391,0.5517578-0.0478516,0.6474609l-0.0239258,0.2402344v0.4199219
		c0.0078125,0.1123047,0.0117188,0.2802734,0.0117188,0.5039062c0,0.2402344,0.0039062,0.4199219,0.012207,0.5400391
		c0,0.2324219,0.0078125,0.3916016,0.0239258,0.4804688v0.3476562v0.1318359l-0.0361328,0.0957031l-0.5400391,0.1328125h-0.0839844
		h-0.2158203h-0.2402344c-0.0556641,0.015625-0.1240234,0.0234375-0.2036133,0.0234375
		c-0.144043,0-0.3442383-0.0078125-0.6000977-0.0234375l-0.300293-0.0126953
		c-0.0556641-0.0078125-0.1196289-0.015625-0.1918945-0.0234375c-0.0717773-0.0078125-0.1601562-0.0126953-0.2641602-0.0126953
		l-0.4677734-0.0351562c-0.0161133,0-0.0283203,0.0039062-0.0361328,0.0117188h-0.0957031
		c-0.0400391,0-0.0644531-0.0439453-0.0722656-0.1318359c-0.0478516-0.1601562-0.0717773-0.4326172-0.0717773-0.8164062
		c0-0.2558594-0.0043945-0.4560547-0.012207-0.5996094l-0.0117188-0.6484375
		c-0.0083008-0.1435547-0.012207-0.3515625-0.012207-0.6240234c0-0.0634766-0.0283203-0.0957031-0.0839844-0.0957031
		c-0.0322266,0-0.0639648,0.0400391-0.0961914,0.1201172L28.074707,9.4166174l-0.1079102,0.3007812
		c-0.0161133,0.0478516-0.0322266,0.0957031-0.0478516,0.1435547c-0.0161133,0.0478516-0.0361328,0.0917969-0.0600586,0.1318359
		l-0.0600586,0.1445312c-0.0722656,0.1601562-0.1640625,0.3398438-0.2758789,0.5400391
		c-0.1201172,0.2158203-0.2685547,0.3876953-0.4443359,0.515625c-0.0957031,0.0566406-0.1796875,0.0839844-0.2519531,0.0839844
		h-0.1796875c-0.0961914,0-0.1762695-0.0078125-0.2402344-0.0234375h-0.2641602H25.902832
		c-0.3203125-0.5126953-0.6201172-1.0722656-0.8999023-1.6806641L24.8227539,9.129508
		c-0.0478516-0.1044922-0.0800781-0.15625-0.0961914-0.15625c-0.0556641,0-0.0839844,0.0322266-0.0839844,0.0957031v0.5644531
		c0,0.5595703-0.0078125,0.9716797-0.0239258,1.2353516c-0.0161133,0.4160156-0.0439453,0.7041016-0.0839844,0.8642578
		c-0.0078125,0.1044922-0.0322266,0.15625-0.0717773,0.15625h-0.0839844l-0.0600586-0.0117188
		c-0.2719727,0.015625-0.4882812,0.03125-0.6479492,0.0478516c-0.0961914,0.0078125-0.2641602,0.0195312-0.5043945,0.0361328
		c-0.2397461,0.015625-0.4638672,0.0234375-0.671875,0.0234375C22.4145508,11.9849768,22.3505859,11.9771643,22.3027344,11.9615393z
		"/>
	<path fill="#E53E50" d="M33.1865234,11.9312658c-0.0800781-0.0117188-0.1762695-0.0224609-0.2880859-0.0302734
		l-0.2519531-0.0595703c-0.0400391-0.0078125-0.0703125-0.0185547-0.0898438-0.0302734
		c-0.0200195-0.0117188-0.0263672-0.0224609-0.0180664-0.0302734c0-0.2080078-0.012207-0.4833984-0.0361328-0.828125
		c0-0.1201172-0.0039062-0.2255859-0.0117188-0.3173828c-0.0083008-0.0917969-0.0161133-0.1699219-0.0244141-0.234375
		l-0.0239258-0.515625c0-0.1357422-0.0078125-0.3085938-0.0239258-0.5166016l-0.0117188-0.3720703
		c0-0.3032227-0.0043945-0.5395508-0.012207-0.7075195c-0.0083008-0.1679688-0.012207-0.5200195-0.012207-1.0556641
		c0-0.5043945,0.0039062-1.0239258,0.012207-1.5600586c0.0078125-0.5361328,0.0317383-1.0439453,0.0717773-1.5239258
		c0-0.0878906,0.0961914-0.160156,0.2880859-0.2163084c0.1201172-0.015625,0.3198242-0.0239258,0.6000977-0.0239258
		c0.6479492,0,1.1240234-0.0117188,1.4282227-0.0361328c0.9438477-0.015625,1.6557617-0.0239258,2.1357422-0.0239258h0.527832
		c0.65625,0.0161133,1.1601562,0.0400391,1.512207,0.0722656c0.1279297,0,0.2197266,0.1518552,0.2758789,0.4560544
		c0.0239258,0.0556641,0.0522461,0.199707,0.0839844,0.4316406c0.0239258,0.1201172,0.0561523,0.2680664,0.0961914,0.4443359
		c0.0078125,0.0478516,0.0097656,0.09375,0.0058594,0.1376953s-0.0058594,0.0703125-0.0058594,0.078125
		C39.40625,5.5494299,39.3623047,5.589469,39.2827148,5.589469c-0.0322266-0.0078125-0.0800781-0.012207-0.144043-0.012207
		c-0.3359375,0-0.7480469,0.0283203-1.2363281,0.0839844l-0.6357422,0.0478516
		c-0.2641602,0.0322266-0.472168,0.0522461-0.6240234,0.0600586c-0.0239258,0-0.0561523,0.0483398-0.0961914,0.144043
		c-0.0317383,0.1040039-0.0678711,0.3442383-0.1079102,0.7202148L36.4145508,6.933219
		c0,0.1040039,0.012207,0.1704102,0.0361328,0.1982422s0.0756836,0.0419922,0.1557617,0.0419922h1.0678711
		c0.3120117,0,0.6679688,0.0200195,1.0683594,0.0600586h0.144043c0.1035156,0.0239258,0.1679688,0.0639648,0.1918945,0.1196289
		c0.0317383,0.0483398,0.0517578,0.1000977,0.0600586,0.15625l0.0478516,1.0678711v0.0361328
		c0,0.1362305-0.144043,0.2158203-0.4321289,0.2397461c-0.1679688,0.0405273-0.487793,0.0600586-0.9599609,0.0600586
		c-0.4077148,0-0.671875-0.0039062-0.7919922-0.0117188c-0.2319336,0-0.3720703,0.0039062-0.4199219,0.0117188
		c-0.0878906,0.0239258-0.144043,0.0698242-0.1679688,0.1381836C36.390625,9.1187658,36.378418,9.2330236,36.378418,9.3931799
		c0,0.1035156-0.0078125,0.2519531-0.0239258,0.4443359c-0.0078125,0.0957031-0.012207,0.2480469-0.012207,0.4560547
		c0.5200195,0,0.9042969-0.0087891,1.1523438-0.0244141c0.2719727-0.0244141,0.6557617-0.0361328,1.1518555-0.0361328
		c0.0317383,0,0.0639648,0.0283203,0.0961914,0.0839844c0.0395508,0.0800781,0.1035156,0.2597656,0.1918945,0.5400391
		c0.0478516,0.1601562,0.0961914,0.3603516,0.144043,0.5996094c0.015625,0.0566406,0.0239258,0.1162109,0.0239258,0.1806641
		c0,0.1679688-0.0800781,0.2519531-0.2402344,0.2519531c-0.2080078,0-0.487793,0.0078125-0.8398438,0.0234375
		c-0.184082,0.0166016-0.472168,0.0244141-0.8637695,0.0244141c-0.840332,0-1.472168,0.0039062-1.8959961,0.0117188h-1.8959961
		C33.3261719,11.948844,33.2666016,11.9429846,33.1865234,11.9312658z"/>
	<path fill="#E53E50" d="M44.2978516,12.0093908c-0.7675781-0.2001953-1.3515625-0.5722656-1.7519531-1.1162109
		c-0.4638672-0.6484375-0.6962891-1.5478516-0.6962891-2.699707c0-0.8242188,0.0927734-1.5239258,0.2763672-2.1000977
		s0.4677734-1.0478516,0.8525391-1.4160156c0.3837891-0.3676758,0.8779297-0.6376953,1.4814453-0.8100584
		c0.6044922-0.171875,1.3417969-0.2578125,2.2138672-0.2578125c0.6796875,0,1.3203125,0.1040039,1.9199219,0.3120117
		c0.7363281,0.2636716,1.3085938,0.6679685,1.7167969,1.2119138c0.5039062,0.6479492,0.7558594,1.5,0.7558594,2.5561523
		c0,1.2319336-0.1845703,2.1918945-0.5527344,2.8793945c-0.3671875,0.6318359-0.8994141,1.0800781-1.5957031,1.34375
		c-0.5683594,0.2167969-1.3554688,0.3242188-2.3642578,0.3242188C45.6015625,12.2369299,44.8496094,12.160758,44.2978516,12.0093908
		z M46.6865234,10.8931799c0.1191406-0.2558594,0.203125-0.6601562,0.2519531-1.2119141
		c0.0478516-0.5039062,0.0712891-0.9799805,0.0712891-1.4277344V7.773551V7.473258
		c0-0.3520508-0.0234375-0.7797852-0.0712891-1.2836914c-0.0488281-0.5439453-0.1328125-0.9560547-0.2519531-1.2363281
		c-0.0644531-0.1357422-0.140625-0.2041016-0.2285156-0.2041016c-0.1757812,0-0.3037109,0.1679688-0.3837891,0.5043945
		c-0.0800781,0.4638672-0.1201172,0.8837891-0.1201172,1.2597656c-0.0244141,0.3203125-0.0361328,0.8203125-0.0361328,1.5
		c0,0.4560547,0.0117188,0.8320312,0.0361328,1.1279297c0,0.3759766,0.0400391,0.8115234,0.1201172,1.3076172
		c0.0800781,0.4160156,0.2080078,0.6240234,0.3837891,0.6240234C46.5537109,11.0728674,46.6298828,11.0132971,46.6865234,10.8931799
		z"/>
	<path fill="#E53E50" d="M53.5615234,11.9127111c-0.1201172-0.0234375-0.2275391-0.0351562-0.3232422-0.0351562
		c-0.0244141,0-0.0361328,0.0039062-0.0361328,0.0117188h-0.0605469c-0.0800781-0.0478516-0.1201172-0.0917969-0.1201172-0.1318359
		l-0.8398438-3.8041992c-0.2324219-0.8320312-0.4677734-1.8198242-0.7080078-2.9638672
		c-0.0078125-0.0239258-0.0136719-0.0639648-0.0175781-0.1201172C51.4521484,4.81359,51.4414062,4.761344,51.4257812,4.7134924
		c-0.0400391-0.1601562-0.0595703-0.3041992-0.0595703-0.4321289c0-0.0961914,0.0117188-0.1801758,0.0351562-0.2519531
		c0.0166016-0.1040037,0.0761719-0.1562498,0.1806641-0.1562498h0.1435547h0.2763672
		c0.0634766,0.0161133,0.1679688,0.0244141,0.3115234,0.0244141l0.5400391,0.0117188h0.1083984h1.1035156
		c0.0078125,0.0083008,0.0244141,0.0161133,0.0488281,0.0239258c0.0234375,0.0083008,0.0478516,0.0161133,0.0712891,0.0239258
		c0.0166016,0,0.0302734-0.0039062,0.0419922-0.0117188c0.0126953-0.0078125,0.0224609-0.012207,0.0302734-0.012207
		c0.0322266-0.015625,0.0634766-0.0239258,0.0957031-0.0239258h0.0478516l0.1201172,0.012207
		c0.1044922,0.0078125,0.3242188,0.0117188,0.6601562,0.0117188c0.0878906,0.0161133,0.2080078,0.0239258,0.359375,0.0239258
		c0.0488281,0.0961912,0.1289062,0.3881834,0.2402344,0.8759763l0.1328125,0.684082
		c0.03125,0.1679688,0.0878906,0.4199219,0.1679688,0.7563477c0,0.0078125,0.0019531,0.027832,0.0058594,0.0595703
		c0.0039062,0.0322266,0.0097656,0.0722656,0.0175781,0.1201172c0.015625,0.0644531,0.0292969,0.1342773,0.0429688,0.2099609
		c0.0117188,0.0761719,0.0292969,0.1582031,0.0527344,0.2460938c0.0078125,0.0561523,0.0410156,0.2441406,0.0957031,0.5639648
		l0.2050781,0.9960938l0.0351562,0.1801758v0.0478516C56.5527344,8.7051916,56.5625,8.7256994,56.5625,8.7574377
		l0.0117188,0.0717773l0.0117188-0.0717773c0-0.0483398,0.0117188-0.0839844,0.0351562-0.1079102
		c0-0.0083008,0.0019531-0.0258789,0.0058594-0.0541992c0.0039062-0.027832,0.0097656-0.0698242,0.0195312-0.1259766
		c0.0625-0.3198242,0.1269531-0.6518555,0.1914062-0.9960938l0.1191406-0.5639648
		c0.015625-0.0961914,0.0332031-0.1801758,0.0488281-0.2519531s0.0273438-0.1396484,0.0351562-0.2041016L57.078125,6.273551
		c0.0390625-0.168457,0.0917969-0.4204102,0.15625-0.7563477l0.1308594-0.6240234
		c0.015625-0.0878906,0.0566406-0.2880859,0.1210938-0.5996094c0.0390625-0.1279297,0.0839844-0.2402344,0.1308594-0.3364255
		c0.1132812,0,0.2011719-0.0039062,0.2636719-0.0117188l0.3007812-0.012207l0.2402344-0.0117188l0.0957031-0.012207h0.0351562
		c0.0175781,0,0.0253906,0.0083008,0.0253906,0.0239258c0.0078125,0,0.015625,0.0083008,0.0234375,0.0239258
		c0.03125,0,0.0585938-0.0039062,0.078125-0.0117188s0.0332031-0.012207,0.0410156-0.012207V3.9092934h0.7578125h0.0957031
		c0.0957031,0,0.1757812-0.0039062,0.2402344-0.0117188h0.2988281c0.1523438,0,0.2558594-0.0083008,0.3125-0.0244141h0.2753906
		h0.15625c0.1445312,0,0.2167969,0.1123047,0.2167969,0.3359373L61.0625,4.3531408
		c0,0.0800781-0.0175781,0.2001953-0.0488281,0.3603516c-0.0234375,0.0800781-0.0390625,0.1420898-0.0429688,0.1860352
		S60.9609375,4.973258,60.953125,4.9893713c-0.2070312,1.0561523-0.4394531,2.0439453-0.6953125,2.9638672l-0.8398438,3.8041992
		c0,0.0234375-0.0410156,0.0673828-0.1210938,0.1318359h-0.0351562l-0.0605469-0.0117188
		c-0.0566406,0-0.1074219,0.0117188-0.15625,0.0351562c-0.046875,0.0244141-0.0957031,0.0361328-0.1425781,0.0361328
		c-0.1054688,0-0.2128906-0.0117188-0.3242188-0.0361328c-0.1289062-0.015625-0.2363281-0.0234375-0.3242188-0.0234375
		c-0.9921875,0.0400391-2.4492188,0.0595703-4.3681641,0.0595703C53.7900391,11.948844,53.6816406,11.9371252,53.5615234,11.9127111
		z"/>
	<path fill="#E53E50" d="M62.3212891,11.9312658c-0.0800781-0.0117188-0.1757812-0.0224609-0.2880859-0.0302734L61.78125,11.8414221
		c-0.0400391-0.0078125-0.0703125-0.0185547-0.0898438-0.0302734c-0.0205078-0.0117188-0.0263672-0.0224609-0.0185547-0.0302734
		c0-0.2080078-0.0117188-0.4833984-0.0351562-0.828125c0-0.1201172-0.0048828-0.2255859-0.0126953-0.3173828
		s-0.015625-0.1699219-0.0234375-0.234375l-0.0244141-0.515625c0-0.1357422-0.0078125-0.3085938-0.0234375-0.5166016
		l-0.0126953-0.3720703c0-0.3032227-0.0039062-0.5395508-0.0117188-0.7075195s-0.0117188-0.5200195-0.0117188-1.0556641
		c0-0.5043945,0.0039062-1.0239258,0.0117188-1.5600586s0.0322266-1.0439453,0.0722656-1.5239258
		c0-0.0878906,0.0957031-0.160156,0.2880859-0.2163084c0.1201172-0.015625,0.3193359-0.0239258,0.5996094-0.0239258
		c0.6484375,0,1.1240234-0.0117188,1.4277344-0.0361328c0.9443359-0.015625,1.65625-0.0239258,2.1367188-0.0239258h0.5273438
		c0.65625,0.0161133,1.1601562,0.0400391,1.5126953,0.0722656c0.1269531,0,0.2197266,0.1518552,0.2753906,0.4560544
		c0.0244141,0.0556641,0.0517578,0.199707,0.0839844,0.4316406c0.0244141,0.1201172,0.0556641,0.2680664,0.0957031,0.4443359
		c0.0087891,0.0478516,0.0107422,0.09375,0.0068359,0.1376953c-0.0048828,0.0439453-0.0068359,0.0703125-0.0068359,0.078125
		c-0.0078125,0.0800781-0.0517578,0.1201172-0.1318359,0.1201172c-0.0322266-0.0078125-0.0800781-0.012207-0.1435547-0.012207
		c-0.3359375,0-0.7480469,0.0283203-1.2363281,0.0839844l-0.6357422,0.0478516
		c-0.2636719,0.0322266-0.4726562,0.0522461-0.6240234,0.0600586c-0.0244141,0-0.0556641,0.0483398-0.0957031,0.144043
		c-0.0322266,0.1040039-0.0683594,0.3442383-0.1083984,0.7202148L65.5488281,6.933219
		c0,0.1040039,0.0126953,0.1704102,0.0361328,0.1982422c0.0244141,0.027832,0.0761719,0.0419922,0.15625,0.0419922h1.0683594
		c0.3115234,0,0.6679688,0.0200195,1.0673828,0.0600586h0.1445312C68.125,7.2574377,68.1894531,7.2974768,68.2128906,7.3531408
		c0.0322266,0.0483398,0.0527344,0.1000977,0.0605469,0.15625l0.0478516,1.0678711v0.0361328
		c0,0.1362305-0.1435547,0.2158203-0.4316406,0.2397461c-0.1679688,0.0405273-0.4882812,0.0600586-0.9599609,0.0600586
		c-0.4082031,0-0.6728516-0.0039062-0.7919922-0.0117188c-0.2324219,0-0.3720703,0.0039062-0.4199219,0.0117188
		c-0.0888672,0.0239258-0.1445312,0.0698242-0.1689453,0.1381836c-0.0234375,0.0673828-0.0351562,0.1816406-0.0351562,0.3417969
		c0,0.1035156-0.0087891,0.2519531-0.0244141,0.4443359c-0.0078125,0.0957031-0.0117188,0.2480469-0.0117188,0.4560547
		c0.5195312,0,0.9033203-0.0087891,1.1513672-0.0244141c0.2724609-0.0244141,0.65625-0.0361328,1.1523438-0.0361328
		c0.0322266,0,0.0644531,0.0283203,0.0957031,0.0839844c0.0400391,0.0800781,0.1044922,0.2597656,0.1923828,0.5400391
		c0.0478516,0.1601562,0.0957031,0.3603516,0.1435547,0.5996094c0.0166016,0.0566406,0.0244141,0.1162109,0.0244141,0.1806641
		c0,0.1679688-0.0800781,0.2519531-0.2402344,0.2519531c-0.2080078,0-0.4882812,0.0078125-0.8398438,0.0234375
		c-0.1835938,0.0166016-0.4716797,0.0244141-0.8642578,0.0244141c-0.8398438,0-1.4716797,0.0039062-1.8955078,0.0117188h-1.8964844
		C62.4609375,11.948844,62.4013672,11.9429846,62.3212891,11.9312658z"/>
	<path fill="#E53E50" d="M75.2929688,12.3453283c-0.1201172-0.0722656-0.2197266-0.1523438-0.2998047-0.2402344
		c-0.0234375-0.0400391-0.0400391-0.0595703-0.0478516-0.0595703c-0.0078125-0.0166016-0.0205078-0.0244141-0.0361328-0.0244141
		l-0.0234375-0.0117188l-0.0488281-0.0478516l-1.0195312-1.5126953c-0.0478516-0.1035156-0.1162109-0.2158203-0.2041016-0.3359375
		c-0.0556641-0.0556641-0.1044922-0.1152344-0.1435547-0.1796875C73.4375,9.8853674,73.4052734,9.8609533,73.3730469,9.8609533
		c-0.0234375,0-0.0419922,0.0117188-0.0537109,0.0361328s-0.0224609,0.0556641-0.0302734,0.0957031
		c-0.0234375,0.2158203-0.0361328,0.5087891-0.0361328,0.8759766c0,0.3525391-0.0195312,0.6367188-0.0595703,0.8525391
		c-0.0244141,0.1035156-0.0595703,0.15625-0.1083984,0.15625h-0.0712891
		c-0.0166016-0.0087891-0.0361328-0.0166016-0.0605469-0.0244141c-0.2802734,0.0244141-0.7001953,0.0517578-1.2597656,0.0839844
		c-0.5439453,0.0322266-0.9599609,0.0478516-1.2480469,0.0478516c-0.0800781,0-0.1435547-0.0078125-0.1923828-0.0234375h-0.2636719
		h-0.2158203h-0.1083984l-0.4316406-0.1445312l-0.0361328-0.0957031c0-0.0078125-0.0019531-0.0244141-0.0058594-0.0478516
		c-0.0039062-0.0244141-0.0058594-0.0566406-0.0058594-0.0966797c0-0.0478516-0.0087891-0.1357422-0.0244141-0.2636719
		c-0.0400391-0.4882812-0.0556641-0.6796875-0.0478516-0.5761719c-0.015625-0.2080078-0.0439453-0.5673828-0.0839844-1.0800781
		l-0.0361328-0.4433594c0-0.1445312-0.0039062-0.2719727-0.0117188-0.3842773
		c-0.0078125-0.1118164-0.0166016-0.2080078-0.0244141-0.2880859l-0.0234375-0.2636719
		c-0.0244141-0.328125-0.0361328-0.6362305-0.0361328-0.9243164c0-0.0078125,0.0019531-0.0195312,0.0058594-0.0356445
		s0.0058594-0.0483398,0.0058594-0.0961914c0.015625-0.0478516,0.0244141-0.1240234,0.0244141-0.2280273l0.0117188-0.2158203
		l0.0117188-0.144043c0-0.1679688-0.0078125-0.4121094-0.0234375-0.7319336
		c-0.0322266-0.2001953-0.0478516-0.4560547-0.0478516-0.7680664c0-0.4482422,0.0273438-0.7758789,0.0839844-0.9838867
		c0.0712891-0.2880857,0.1914062-0.4321287,0.359375-0.4321287c0.9042969,0,1.8242188,0.0117188,2.7597656,0.0361328
		c0.2080078,0,0.5205078,0.0078125,0.9365234,0.0239258l0.4677734,0.0117188
		c0.6396484,0.0161133,1.0839844,0.0239258,1.3320312,0.0239258c1.0322266,0.0483398,1.8125,0.3081052,2.3398438,0.7802732
		c0.2402344,0.2001953,0.4179688,0.4399414,0.5341797,0.7197266c0.1162109,0.2802734,0.1738281,0.5805664,0.1738281,0.9003906
		c0,0.3676758-0.0673828,0.7080078-0.2041016,1.0200195c-0.1113281,0.2480469-0.2714844,0.4760742-0.4794922,0.6835938
		c-0.2001953,0.2001953-0.4277344,0.3603516-0.6845703,0.4804688c0.0488281,0.0239258,0.1123047,0.0756836,0.1923828,0.1557617
		c0.0322266,0.0400391,0.0878906,0.0922852,0.1679688,0.1557617l0.1679688,0.1201172
		c0.0244141,0.0400391,0.0517578,0.078125,0.0839844,0.1142578c0.0322266,0.0356445,0.0644531,0.0737305,0.0957031,0.1137695
		l0.5644531,0.6962891c0.2558594,0.328125,0.4199219,0.5673828,0.4921875,0.7197266
		c0.0556641,0.1035156,0.0839844,0.1835938,0.0839844,0.2402344c0,0.0800781-0.0322266,0.1513672-0.0966797,0.2158203
		c-0.0634766,0.0634766-0.1591797,0.1435547-0.2871094,0.2402344c-0.0966797,0.0712891-0.2089844,0.1396484-0.3359375,0.203125
		c-0.1201172,0.0644531-0.2128906,0.125-0.2763672,0.1806641l-0.4443359,0.2402344
		c-0.1601562,0.0878906-0.3320312,0.1630859-0.515625,0.2275391c-0.0078125,0-0.0185547,0.0039062-0.0302734,0.0117188
		s-0.0302734,0.0166016-0.0537109,0.0244141c-0.0478516,0.0234375-0.1796875,0.0673828-0.3964844,0.1318359
		c-0.0400391,0.0244141-0.1074219,0.0439453-0.2041016,0.0595703c-0.0234375,0.0166016-0.0517578,0.0283203-0.0839844,0.0361328
		c-0.03125,0.0078125-0.0556641,0.0126953-0.0712891,0.0126953h-0.0605469
		c-0.0078125,0.0390625-0.0234375,0.0595703-0.0478516,0.0595703h-0.0361328h-0.0361328
		C75.3457031,12.3570471,75.3173828,12.3531408,75.2929688,12.3453283z M73.4091797,8.1212072
		c0.2480469,0,0.4443359-0.1240234,0.5878906-0.3720703c0.1357422-0.2236328,0.2119141-0.4799805,0.2285156-0.7675781
		c0.015625-0.168457,0.0234375-0.3681641,0.0234375-0.6000977V6.2491369c0-0.1835938-0.0322266-0.3759766-0.0957031-0.5756836
		c-0.0644531-0.2558594-0.1962891-0.4399414-0.3964844-0.5522461c-0.0878906-0.0717773-0.203125-0.1079102-0.3476562-0.1079102
		c-0.0400391,0-0.0722656,0.0478516-0.0957031,0.144043c-0.0722656,0.1762695-0.1123047,0.4560547-0.1201172,0.8398438
		c-0.0322266,0.1601562-0.0478516,0.3481445-0.0478516,0.5639648l-0.0117188,0.3603516
		c-0.0166016,0.4638672-0.0244141,0.8476562-0.0244141,1.1518555c0,0.0078125,0.0039062,0.0161133,0.0117188,0.0239258
		c0.0078125,0.0083008,0.0166016,0.012207,0.0244141,0.012207l0.0839844,0.0117188H73.4091797z"/>
</g>
</svg>
