<?xml version="1.0" encoding="utf-8"?>
<!-- Generator: Adobe Illustrator 27.5.0, SVG Export Plug-In . SVG Version: 6.00 Build 0)  -->
<svg version="1.1" id="Ebene_1" xmlns="http://www.w3.org/2000/svg" xmlns:xlink="http://www.w3.org/1999/xlink" x="0px" y="0px"
	 viewBox="0 0 48 16" enable-background="new 0 0 48 16" xml:space="preserve">
<g>
	<path fill="#F2E500" d="M6.9895463,11.7529144c-0.1122766-0.0668182-0.2053843-0.1423998-0.2804179-0.2245541
		c-0.0224552-0.0372429-0.0372429-0.0558643-0.0449104-0.0558643c-0.0071201-0.0153351-0.0186214-0.0219069-0.0334091-0.0219069
		l-0.0224552-0.0120497l-0.0449109-0.0449104L5.6099133,9.980587C5.5650024,9.8841934,5.5014706,9.7790365,5.4193168,9.6673079
		C5.3667383,9.6147289,5.3218279,9.5588646,5.284585,9.4986191c-0.0295753-0.0449114-0.0596986-0.067914-0.0898213-0.067914
		c-0.0224552,0-0.0388861,0.0120497-0.0503874,0.0339565C5.1334224,9.4876652,5.1241117,9.5172405,5.1164436,9.5544834
		c-0.0224552,0.2015505-0.0334091,0.4753952-0.0334091,0.8193455c0,0.3286142-0.0191689,0.5936966-0.0564117,0.7963419
		c-0.0224557,0.0963936-0.0558648,0.1456861-0.1007752,0.1456861H4.8584814
		c-0.0147877-0.0076675-0.0334091-0.0153351-0.0558643-0.0230036c-0.2617965,0.0230036-0.6544905,0.0492926-1.1780829,0.0788679
		c-0.5082569,0.0295753-0.8971174,0.0449104-1.1665814,0.0449104c-0.0744858,0-0.1341841-0.0076675-0.1790948-0.0230026H2.0318494
		H1.8297515H1.7289764l-0.403648-0.1336365l-0.0339569-0.0898218c0-0.0076675-0.0016431-0.0230026-0.0054768-0.0449104
		c-0.0038339-0.0230026-0.005477-0.052578-0.005477-0.0898209c0-0.0449114-0.0076677-0.1270647-0.0224553-0.2464609
		c-0.0377907-0.4567747-0.0525783-0.6364174-0.0449107-0.538928C1.198264,10.0561676,1.1719749,9.7187901,1.1347319,9.2401085
		L1.1007751,8.8260546c0-0.1347322-0.0038339-0.2541285-0.0109538-0.3592854
		C1.0821536,8.3616123,1.0744859,8.2717915,1.067366,8.1973057L1.0449107,7.9508448
		C1.0224553,7.6441379,1.0109538,7.3560524,1.0109538,7.0865889c0-0.0065722,0.0021908-0.0186214,0.0060246-0.0328617
		c0.0032861-0.0153351,0.005477-0.0449104,0.005477-0.0898213C1.037243,6.9189954,1.0449107,6.8477955,1.0449107,6.7503066
		l0.0109538-0.2015505L1.067366,6.4140244c0-0.1566396-0.0076677-0.3855743-0.0224553-0.6846132
		C1.0147877,5.5431962,1,5.3033075,1,5.0119362c0-0.4184361,0.0262891-0.725143,0.0783198-0.9201207
		c0.067366-0.2694638,0.1796426-0.4031003,0.3368298-0.4031003c0.8445393,0,1.7049614,0.0109537,2.5796237,0.0328615
		c0.1944301,0,0.4858015,0.0076675,0.87521,0.0230029l0.437057,0.0109539
		c0.5980783,0.0153353,1.0132279,0.0230029,1.2454486,0.0230029c0.9644837,0.0438154,1.69346,0.2869902,2.1869292,0.7284288
		C8.9639711,4.6942754,9.1299219,4.9188285,9.2383642,5.180625c0.1084433,0.261796,0.1626644,0.5422139,0.1626644,0.8412528
		c0,0.3439498-0.0635319,0.6616106-0.1905966,0.9529819c-0.1046085,0.2322211-0.2541285,0.444725-0.4485588,0.6397028
		C8.5751114,7.8007774,8.3620596,7.9508448,8.1227188,8.0625734C8.1676292,8.085577,8.2273273,8.1337738,8.3018131,8.2082596
		c0.0301228,0.0383377,0.0821543,0.0865345,0.1571875,0.1456852L8.616188,8.4667692
		c0.0224552,0.0372429,0.0481968,0.0722952,0.0783195,0.1062527c0.0301228,0.0339565,0.0596981,0.0690088,0.0898209,0.1062517
		l0.5274267,0.6506567c0.2387934,0.3067064,0.3921461,0.5312595,0.4595127,0.6736593
		c0.052578,0.0974894,0.078867,0.1719751,0.078867,0.2245531c0,0.0744858-0.0301228,0.141304-0.0898209,0.2015505
		c-0.0602465,0.0602455-0.1495199,0.1347322-0.2694635,0.2245531c-0.0898218,0.0668182-0.1944304,0.1303501-0.3138275,0.1905966
		c-0.1122761,0.0591507-0.1982641,0.1161098-0.2579622,0.167593L8.503911,11.236989
		c-0.149519,0.0821543-0.3105402,0.1533537-0.4825153,0.2136002c-0.0071201,0-0.0164309,0.0032854-0.0279322,0.0109529
		c-0.0109539,0.0076685-0.0279322,0.015336-0.0503879,0.0219078c-0.0449104,0.0230036-0.1681409,0.0635328-0.3702388,0.1237783
		c-0.0372429,0.0230026-0.1007752,0.0405293-0.1905966,0.0558643c-0.0224552,0.0153351-0.0487442,0.026289-0.0783195,0.0339565
		C7.273798,11.7047176,7.2513423,11.708003,7.2365546,11.708003H7.1801424
		c-0.0071197,0.0372429-0.0224552,0.0558643-0.0449104,0.0558643H7.1018229H7.0684137
		C7.0382905,11.7638674,7.0120015,11.760582,6.9895463,11.7529144z M5.2287207,7.8051591
		c0.2316728,0,0.4151492-0.1161108,0.5493336-0.3483315c0.1270642-0.209218,0.1982641-0.4480109,0.2135992-0.7174749
		c0.0147877-0.1566396,0.0219078-0.3439498,0.0219078-0.5608354V6.0547395c0-0.1719751-0.0295753-0.3516178-0.0892735-0.5378327
		c-0.060246-0.2398882-0.1834764-0.4118633-0.3702393-0.5159245C5.4713473,4.9330688,5.3634524,4.900207,5.2287207,4.900207
		c-0.0377908,0-0.0673661,0.0438151-0.0898213,0.1336365c-0.0673661,0.1654029-0.104609,0.4271989-0.1122766,0.7853889
		C4.9970474,5.9692993,4.9817119,6.1445603,4.9817119,6.3461108L4.970758,6.6834884
		C4.9554229,7.1172595,4.9483027,7.4754491,4.9483027,7.7602482c0,0.007668,0.0038338,0.0142403,0.0109539,0.0219078
		c0.0076675,0.0076675,0.0153351,0.0109539,0.0224552,0.0109539l0.0788674,0.0120492H5.2287207z"/>
	<path fill="#F2E500" d="M10.7472525,11.3662443c-0.0750332-0.0109539-0.1643066-0.020812-0.2694635-0.0284796l-0.235507-0.0558643
		c-0.0372429-0.0076685-0.0651751-0.0164309-0.0837965-0.0284805c-0.0186214-0.0109539-0.0246468-0.0197163-0.0169792-0.0273848
		c0-0.1949778-0.0109529-0.4523926-0.0334091-0.7744341c0-0.1117296-0.0038338-0.2103138-0.0115013-0.2968483
		c-0.0076675-0.0854397-0.0147877-0.1588306-0.0224552-0.2190771l-0.0224552-0.4819679
		c0-0.1270638-0.0076675-0.288085-0.0224552-0.481967l-0.0109539-0.3483315c0-0.2837038-0.0038338-0.5049715-0.0115013-0.6616106
		C9.9996548,7.8051591,9.995821,7.4754491,9.995821,6.9748597c0-0.471014,0.0038338-0.9573636,0.0109539-1.457953
		c0.0076675-0.5016847,0.0301228-0.9759846,0.0673656-1.4250913c0-0.0821533,0.0898218-0.1489718,0.2694635-0.2015502
		c0.112277-0.0153353,0.2990398-0.0230029,0.5608358-0.0230029c0.6057463,0,1.0504713-0.0109539,1.3347225-0.0328615
		c0.8823299-0.0153353,1.5477743-0.0230031,1.9963331-0.0230031h0.4934692
		c0.6134138,0.0153353,1.0844278,0.0372431,1.4135904,0.0679138c0.1193962,0,0.2053833,0.141304,0.2579613,0.4261036
		c0.0224552,0.052578,0.0487442,0.1873102,0.0783195,0.4031c0.0224552,0.1128244,0.052578,0.2508426,0.0898209,0.4151497
		c0.0076694,0.0449109,0.0093117,0.088726,0.0054779,0.1292553c-0.0038338,0.0416245-0.0054779,0.0657229-0.0054779,0.0733905
		c-0.0076675,0.0744858-0.0487442,0.1117287-0.12323,0.1117287c-0.0301228-0.0076675-0.0750332-0.0109539-0.1347313-0.0109539
		c-0.3138266,0-0.6994009,0.0262895-1.1550798,0.0777721l-0.5947924,0.0449109
		c-0.2464609,0.0306706-0.4414387,0.0492921-0.5832911,0.0569596c-0.0224552,0-0.0520306,0.0449109-0.0898209,0.1347322
		c-0.0295753,0.0963936-0.0635319,0.3209467-0.1007748,0.672564l-0.0224562,0.2804179
		c0,0.0974889,0.0115023,0.1588302,0.0339575,0.1851192c0.0224552,0.0262895,0.070652,0.039434,0.1456852,0.039434h0.9984407
		c0.2913713,0,0.6238194,0.0186214,0.9978924,0.0558643h0.1347313c0.0969429,0.0219078,0.1571884,0.060246,0.1796436,0.1117291
		c0.0295753,0.0449104,0.0481968,0.0942025,0.0558643,0.1456857l0.0449104,0.9989877v0.0339565
		c0,0.1270647-0.1347313,0.2015505-0.4036484,0.2234583c-0.1571865,0.0383387-0.4562263,0.0569601-0.897665,0.0569601
		c-0.3811922,0-0.6282015-0.0043821-0.7399302-0.0120497c-0.217433,0-0.347784,0.0043821-0.3926945,0.0120497
		c-0.0827007,0.0219078-0.1347313,0.0646276-0.1571875,0.1281595c-0.0224552,0.0635319-0.0334091,0.1708794-0.0334091,0.3198509
		c0,0.0974894-0.0076675,0.235507-0.0224552,0.4151497c-0.0076675,0.0898218-0.0115013,0.2322216-0.0115013,0.4261036
		c0.4863491,0,0.8450871-0.0076675,1.0767603-0.0219078c0.2541285-0.0230026,0.6134138-0.0339565,1.0767603-0.0339565
		c0.0301228,0,0.0602455,0.026289,0.0898209,0.0788679c0.0372429,0.0744858,0.0974884,0.2431746,0.1796417,0.5038748
		c0.0449123,0.1500673,0.0898228,0.3373775,0.1347332,0.5608358c0.0147877,0.052578,0.0224552,0.1084423,0.0224552,0.1686888
		c0,0.1566391-0.0750332,0.235507-0.2245541,0.235507c-0.1944294,0-0.4562254,0.0076675-0.785388,0.0230026
		c-0.1719751,0.0142403-0.4408913,0.0219078-0.8072958,0.0219078c-0.7853889,0-1.3757992,0.0043812-1.7723274,0.0109539h-1.7723274
		C10.8781509,11.3826752,10.8217382,11.3771982,10.7472525,11.3662443z"/>
	<path fill="#F2E500" d="M16.8939857,11.1701708c-0.0071201-0.0230026-0.0109539-0.0602455-0.0109539-0.1128244
		c0-0.0744858,0.0147877-0.1862144,0.0449104-0.3362818c0.0147877-0.0974894,0.0279331-0.1741657,0.0394344-0.2300301
		c0.0109539-0.0558643,0.0202637-0.0985842,0.0279331-0.1292553c0.2240047-1.0537567,0.4447231-1.9815445,0.6616096-2.7811737
		l0.7853889-3.5446544c0-0.0153356,0.0109539-0.0372431,0.0334091-0.0668182
		c0.0224552-0.0306709,0.0487442-0.0492923,0.0783195-0.0569599h0.0564117c0,0.0076675,0.0109539,0.0120492,0.0334091,0.0120492
		c0.0898209,0,0.1905956-0.0120492,0.3028736-0.033957c0.1122761-0.0230029,0.2130508-0.0339568,0.3028717-0.0339568
		c0.1643085,0,0.3176613,0.0109539,0.460062,0.0339568c0.0673656,0,0.1418514,0.0032864,0.2240047,0.0109539
		c0.0827007,0.0076678,0.1686878,0.0109539,0.2585106,0.0109539c0.0295753,0,0.0629845-0.0065722,0.1007748-0.0219078h0.2015495
		h0.2585106l0.2689152-0.0109537c0.0520306-0.0076678,0.1161118-0.0120492,0.1905975-0.0120492
		c0.0596981,0,0.0898209-0.0032861,0.0898209-0.0109539h0.1796417h0.3811932h0.471014
		c0.4189835,0,0.6955681,0.0076678,0.8302994,0.0230031c0.0224552,0,0.0542221,0.0010953,0.0952988,0.005477
		c0.0405293,0.0032861,0.0646267,0.0131445,0.0722942,0.0273845c0.0525799,0,0.1051579-0.0032861,0.1577358-0.0109539
		c0.0514832-0.0076675,0.1007748-0.0109539,0.1456852-0.0109539c0.1040611-0.0230029,0.2048359-0.0339568,0.3023262-0.0339568
		c0.0449104,0,0.0898209,0.0109539,0.1347313,0.0339568c0.0449104,0.0219078,0.0931072,0.033957,0.1456852,0.033957
		l0.0558643-0.0120492h0.0339584c0.0230026,0.0153353,0.0471001,0.0361476,0.0733891,0.0624366
		c0.0251942,0.0262892,0.0383396,0.046006,0.0383396,0.0613415l0.7853889,3.5446544
		c0.2398872,0.8752098,0.4567738,1.8019028,0.6506557,2.7811737c0,0.0449104,0.0153351,0.094203,0.0449104,0.146781
		c0.0076675,0.0514832,0.0186214,0.1226835,0.0339565,0.2125044c0.0142403,0.0898209,0.0219078,0.1643076,0.0219078,0.2245531
		c0.0076675,0.0295753,0.0120487,0.0712004,0.0120487,0.1237783c0,0.1040611-0.0230026,0.1905966-0.0679131,0.2574148
		c-0.0295753,0.0449104-0.0744858,0.0668182-0.1347313,0.0668182h-0.1456871c-0.1117287,0-0.1982632-0.0032864-0.2574139-0.0109539
		h-0.2924671h-0.2804165h-0.2234592c-0.0602455,0-0.0898209-0.0032864-0.0898209-0.0109539h-0.7065201v-0.0219078
		c-0.0306721-0.0153351-0.067915-0.0230026-0.1128254-0.0230026c-0.0076675,0.0076675-0.0153351,0.0153351-0.0219078,0.0230026
		c0,0.0142403-0.0076675,0.0219078-0.0230026,0.0219078h-0.0339565h-0.088726
		c-0.0383377-0.0153351-0.1128254-0.0219078-0.2245541-0.0219078c-0.2245522-0.0153351-0.400362-0.0230026-0.5274258-0.0230026
		c-0.044363-0.0668182-0.091465-0.2015505-0.1402092-0.4041958c-0.0481968-0.2015505-0.0991306-0.4261036-0.1511612-0.6725645
		c-0.015337-0.1193962-0.0301247-0.2015505-0.0449123-0.2464609c-0.1571865,0.0295753-0.3625698,0.0449104-0.6166992,0.0449104
		h-0.347784h-0.3253269l-0.0783215,0.3581896c-0.0974884,0.4940176-0.175808,0.800724-0.2360535,0.9201212
		c-0.0295753,0-0.0668182,0.0076675-0.1117287,0.0230026c-0.0153351,0.0065727-0.0339565,0.0142403-0.0564137,0.0219078h-0.0449104
		c-0.0449104,0-0.0783195-0.0076675-0.1007748-0.0219078c-0.0153351-0.0153351-0.0334091-0.0230026-0.0558643-0.0230026
		l-0.5049706,0.0230026h-0.1796417h-0.1681423c-0.0301228,0.0142403-0.0673656,0.0219078-0.1122761,0.0219078h-0.0449104h-1.0318489
		H18.28512c-0.0821533,0.0076675-0.2508411,0.0109539-0.5049706,0.0109539h-0.2913704
		c-0.0602474,0.0076675-0.1456871,0.0109539-0.2579632,0.0109539h-0.1347313
		C16.9985943,11.3936291,16.931776,11.3191433,16.8939857,11.1701708z M22.1994667,8.0965309
		c-0.0224552-0.1051569-0.0596981-0.303421-0.1117287-0.5947928c-0.0153351-0.0744858-0.052578-0.2760358-0.1122761-0.6057458
		L21.8856392,6.35816c-0.0224552-0.1500673-0.0449104-0.2804179-0.0673656-0.3932419l-0.0109539-0.1456857
		c-0.0224552-0.0372434-0.0339565-0.0711999-0.0339565-0.1007752L21.7624092,5.651639
		c-0.0076675,0.0142398-0.0115013,0.0372429-0.0115013,0.0668182s-0.0076675,0.0492921-0.0224552,0.0558643v0.0449109
		l-0.0224552,0.1456857c-0.0071201,0.052578-0.0164318,0.1106334-0.0279331,0.1741657
		c-0.0109539,0.0635319-0.0240974,0.1325407-0.0394325,0.207027l-0.0558643,0.3143744
		c-0.0821552,0.471014-0.1308994,0.7448592-0.1456871,0.8193455c-0.0076675,0.0821533-0.026289,0.2059317-0.0564117,0.3702388
		c-0.0147877,0.0514832-0.0295753,0.1303506-0.0449104,0.2355075l-0.0892735,0.5159245h0.5717888l0.0783195-0.0230036h0.0224552
		c0.0898228,0,0.1571884,0.0076685,0.2020988,0.0230036c0.0295753,0,0.058054,0.005477,0.0843449,0.0164309
		c0.0257416,0.0109539,0.0503864,0.020812,0.0728416,0.0284796L22.1994667,8.0965309z"/>
	<path fill="#F2E500" d="M28.458477,11.3826752l-1.7164631-0.0109539c-0.1270638,0-0.2092171-0.0821533-0.2464619-0.2464609
		c-0.0372429-0.1051569-0.0558643-0.2541285-0.0558643-0.4491062c0-0.6506567-0.0076675-1.230114-0.0230026-1.7383709
		c-0.0219078-0.73281-0.0328617-1.5072446-0.0328617-2.3222084v-2.467895c0-0.0668182,0.0317669-0.1325412,0.0952988-0.1960731
		c0.0635319-0.0635321,0.1281605-0.0952983,0.1960735-0.0952983l1.3013134,0.0109539
		c0.24646,0.0076675,0.5564537,0.0120492,0.9310741,0.0120492c0.5608349,0,0.9978924-0.0043817,1.3122673-0.0120492
		l0.4151497-0.0109539c0.4633465-0.01424,0.8292027-0.0219076,1.0986671-0.0219076
		c0.4633465,0,0.9124546,0.0898213,1.3462238,0.2683685c0.5082588,0.1949778,0.915741,0.5279737,1.2224464,0.9989882
		c0.366951,0.5685029,0.549881,1.2673564,0.549881,2.0976553c0,0.7853885-0.0876312,1.4393315-0.2639885,1.9629235
		c-0.1752586,0.5235929-0.4534874,0.9529819-0.8357735,1.2892647c-0.3811951,0.32971-0.8795929,0.5685024-1.4973869,0.7185698
		c-0.6167011,0.1489725-1.3889446,0.2234583-2.3156376,0.2234583L28.458477,11.3826752z M30.1519375,9.9028149
		c0.0602455,0,0.1423988-0.0076675,0.2475548-0.0230036c0.0372429-0.0076675,0.0646286-0.0164309,0.08325-0.0284796
		c0.0186214-0.0109539,0.0361462-0.0197172,0.0503864-0.0273848c0.0898228-0.1051569,0.1763573-0.3253279,0.2585106-0.6616106
		c0.052578-0.2092171,0.1161098-0.5685024,0.1905956-1.0767593c0.0372429-0.4337716,0.0558643-0.808392,0.0558643-1.1216712
		V6.7503066c0-0.1938825-0.0186214-0.4863496-0.0558643-0.8752098c-0.052578-0.3877654-0.1270638-0.6616106-0.2245522-0.8182502
		c-0.0821533-0.1051564-0.1566391-0.1566396-0.2245541-0.1566396c-0.0668182,0-0.1270638,0.0065722-0.1785469,0.0219078
		c-0.052578,0.0153351-0.0865345,0.026289-0.1018696,0.0339565c-0.0142403,0.007668-0.0481968,0.0262895-0.1007748,0.0558648
		L30.1409836,6.35816c0,0.1193967-0.0076694,0.2990389-0.0219078,0.5378323l-0.0120506,0.269464
		c-0.0142384,0.3735251-0.0219078,0.6429887-0.0219078,0.8072958L30.029253,9.8907652
		C30.0588284,9.8984327,30.0993576,9.9028149,30.1519375,9.9028149z"/>
	<path fill="#F2E500" d="M39.6532745,12.3816633c-0.0230026,0-0.0383377,0.0032854-0.0449104,0.0109539l-0.0339546,0.0109539
		c-0.0219078,0-0.0339584-0.0076685-0.0339584-0.0219078c-0.0295753-0.015336-0.0481949-0.0383387-0.0558624-0.067914
		c-0.2617989-0.0449104-0.4304848-0.0821533-0.5049706-0.1117287l-0.3921471-0.1128244h-0.0558662
		c-0.0383377,0-0.0679131-0.0076675-0.0898209-0.0219078c-0.0679131,0-0.1237793-0.0076675-0.1686897-0.0230026
		c-0.0602455-0.0065727-0.1566391-0.0328617-0.2913704-0.0777721s-0.2322197-0.0788679-0.2913704-0.1007757
		c-0.1204948-0.0383377-0.292469-0.1018705-0.5159264-0.1916914c-0.1051559-0.0438156-0.1840248-0.0744858-0.235508-0.088726
		l-0.2585068-0.1577349c-0.0602493-0.0449104-0.0898247-0.0898209-0.0898247-0.1347322
		c0-0.141304,0.0339584-0.2913713,0.1007767-0.4480104c0.0230026-0.0525789,0.0547676-0.1161108,0.0952988-0.1905966
		c0.0416222-0.0755816,0.0810585-0.1610212,0.1183014-0.2585096c0.0142403-0.0449114,0.0558624-0.1117296,0.1237793-0.2015505
		c0.1785469-0.2990389,0.2760353-0.4633465,0.2913704-0.4940176c0.0295753-0.0821533,0.0449104-0.1566391,0.0449104-0.2245531
		c0-0.1117287-0.0602455-0.2278395-0.1796417-0.3472357c-0.1128273-0.1117287-0.1686897-0.2201719-0.1686897-0.3253279
		c-0.0372429,0-0.0558662,0.0043812-0.0558662,0.0109529h-0.0219078h-0.0120468
		c-0.0142403-0.0142393-0.0219078-0.0295744-0.0219078-0.0449104c-0.2398911-0.2990389-0.4819679-0.6616106-0.7295265-1.0877137
		c-0.3132782-0.4940171-0.5685005-0.942028-0.7623825-1.3462238c-0.0602455-0.0898213-0.1314468-0.2497468-0.2136002-0.4819679
		c-0.0963936-0.20155-0.1785469-0.4074817-0.24646-0.6166997C34.870842,5.0042682,34.829216,4.8552966,34.829216,4.7873826
		c0-0.0744858,0.0832481-0.1719747,0.2475548-0.2913713c0.0668182-0.0449104,0.1456871-0.0898213,0.235508-0.1347318
		c0.0898209-0.0449109,0.1566391-0.0788674,0.2015495-0.1007752c0.0372429-0.0076675,0.1949806-0.0481968,0.4710159-0.1237779
		l0.1577339-0.0558648c0.0295753-0.0219073,0.0624352-0.0339565,0.1007767-0.0339565
		c0.0449104,0,0.1150131-0.0142403,0.2125015-0.0449109c0.2168884-0.0449104,0.3439522-0.0744858,0.3811951-0.0898211
		l0.4041939-0.0898213c0.2245522-0.074486,0.3549042-0.115015,0.3921471-0.1226828l0.0230026-0.0109537h0.0339584h0.0219078
		c0.1577339,0,0.261795,0.0372429,0.314373,0.1117289c0.0449104,0.0449107,0.1193962,0.1500671,0.2245522,0.3143744
		c0.0142403,0.0449104,0.0427208,0.0974889,0.083252,0.1566396c0.0416222,0.060246,0.0701027,0.0974889,0.084343,0.1117287
		l0.0898209,0.1237783l0.0788689,0.0898213c0.0295753,0.0372429,0.0591507,0.0821533,0.0898209,0.1347318
		c0.0295753,0.0525784,0.06353,0.1084428,0.1007729,0.1686888c0.1938858,0.3439498,0.3439522,0.5871243,0.4491081,0.7284288
		c0.0668182,0.0974889,0.1226807,0.1456857,0.1675949,0.1456857c0.0230026,0,0.0602455-0.0405293,0.1128235-0.1226826
		c0.0668182-0.1051569,0.1905937-0.3439498,0.3691444-0.7185702c0.0974884-0.2387934,0.2135963-0.5115433,0.3483276-0.8182502
		c0.0668182-0.134732,0.1040649-0.2168856,0.1117325-0.2475562c0.0306702-0.1336365,0.06353-0.2201717,0.1007729-0.2574146
		c0.0383377-0.060246,0.1051559-0.0898213,0.2026443-0.0898213c0.2387962,0,0.5531693,0.0481968,0.942028,0.1456857
		c0.3811951,0.1128242,0.7470512,0.2585101,1.0997658,0.4370573c0.3570938,0.1949778,0.6002693,0.3746204,0.7273331,0.5389276
		c0,0.2015505-0.0481987,0.3888607-0.1445923,0.5608354l-1.0318489,2.2772985l-1.0099411,2.2882519l-0.0449104,0.0109539
		c-0.0076675,0-0.0186234,0.0076675-0.0328598,0.0219078c-0.4940186,0.9650307-0.9464111,1.8325729-1.3571777,2.6026268
		c-0.0153389,0.0295744-0.0602493,0.0449104-0.1347351,0.0449104V12.3816633z"/>
	<path fill="#F2E500" d="M44.2965965,8.7471867c-0.2026443-0.0153351-0.3297081-0.0339565-0.3811913-0.0558643
		c-0.0306702-0.0372429-0.052578-0.1533527-0.0679131-0.3483315c-0.0153351-0.0514822-0.0240974-0.0952978-0.0273857-0.1292543
		c-0.0043793-0.0328617-0.0065727-0.0613413-0.0065727-0.0832491l-0.010952-0.1456861
		c-0.0076675-0.0230026-0.0109558-0.0974889-0.0109558-0.2245531c-0.0153351-0.0679135-0.052578-0.3176603-0.1117287-0.7514315
		c0-0.0449109-0.0065727-0.0920124-0.0175247-0.1402092c-0.0109558-0.0492921-0.0164299-0.081058-0.0164299-0.0952978
		c-0.0153351-0.060246-0.0230026-0.1347322-0.0230026-0.2245536c0-0.052578-0.0032883-0.1062517-0.0109558-0.1632118
		c-0.0076675-0.0558643-0.010952-0.1139197-0.010952-0.17307c-0.0153351-0.1500673-0.0230026-0.2508426-0.0230026-0.303421
		l-0.0109558-0.167593c0-0.0898213-0.010952-0.2059321-0.0339546-0.3483315c0-0.0591507-0.0065727-0.1423998-0.0219078-0.2464609
		c-0.0602493-0.261796-0.0898247-0.4753957-0.0898247-0.6397028c0-0.141304-0.0262871-0.2946577-0.0788651-0.4600601
		c0-0.0219078,0.0054779-0.039434,0.0175247-0.0503876c0.0109558-0.0109539,0.0273857-0.0208123,0.0503883-0.0273845
		c0.1347313-0.0525784,0.3023262-0.0788677,0.5049706-0.0788677c0.0668182,0,0.1599274-0.0032861,0.2804184-0.0109537
		c0.1193962-0.0076678,0.2157898-0.0153353,0.2913704-0.0230031c0.0372429,0,0.0898209-0.0109537,0.1566391-0.0339568h1.8961067
		c0.0372429,0.0306706,0.0821533,0.0525782,0.1347313,0.0679135c0.1193962,0.0372431,0.2092171,0.0931075,0.2683678,0.168689
		C46.9802818,4.0961971,47,4.1520615,47,4.2265472c0,0.3067069-0.041626,0.5838385-0.1237793,0.8302994l-0.2804184,1.6375957
		v0.0788674c-0.0230026,0.0295753-0.0339546,0.0777721-0.0339546,0.1456857l-0.0219078,0.1456857v0.0788674
		c0,0.148972-0.0339584,0.3735251-0.1007767,0.6725645c-0.052578,0.2092175-0.1128235,0.4819674-0.1796417,0.8182502
		c0,0.0153351-0.0153351,0.0306702-0.0449104,0.0449104c-0.0306702,0.0153351-0.0679131,0.026289-0.1128235,0.0339565
		c-0.1347313,0.0372429-0.418438,0.0558643-0.8522072,0.0558643h-0.5608368
		C44.5386772,8.7690945,44.408329,8.7625227,44.2965965,8.7471867z M45.4182701,11.5962744l-0.1347313-0.0109539h-0.6506577
		c-0.2694664,0-0.4896355-0.0197163-0.6616096-0.0569601c-0.0755844,0-0.1128273-0.0142393-0.1128273-0.0449104
		l-0.0328598-0.9748898c-0.0076675-0.0832481-0.0120506-0.1796417-0.0120506-0.2924662
		c0-0.0744858,0.0043831-0.1270647,0.0120506-0.1566401c0-0.0602455,0.0065727-0.1007748,0.0219078-0.1237783V9.8579044V9.7231722
		c0-0.0372429,0.0186195-0.0744858,0.0558624-0.1128244c0.0449142-0.0449104,0.0942039-0.0668182,0.1456871-0.0668182
		c0.0898209,0,0.1610222-0.0032864,0.2136002-0.0109539h0.2804184h0.2694626h0.235508h0.4370575
		c0.24646,0,0.455677,0.0142403,0.6287498,0.0449104c0.2092171,0.0372429,0.3132782,0.1007757,0.3132782,0.1905966
		c0,0.2683687,0.0043793,0.4600601,0.0120468,0.5717888c0,0.0602465,0.0065727,0.2387934,0.0219078,0.5378332v0.4151487
		c-0.0076675,0.1051569-0.0262871,0.1818342-0.0558624,0.230031c-0.0306702,0.0492916-0.0744858,0.0810575-0.1347313,0.0952978
		c-0.0295753,0-0.0635338,0.0043812-0.1007767,0.0120487c-0.0372429,0.0065727-0.0821533,0.0109539-0.1347313,0.0109539
		C45.7731743,11.6411848,45.5672417,11.6258497,45.4182701,11.5962744z"/>
</g>
</svg>
