<?xml version="1.0" encoding="utf-8"?>
<!-- Generator: Adobe Illustrator 27.5.0, SVG Export Plug-In . SVG Version: 6.00 Build 0)  -->
<svg version="1.2" baseProfile="tiny" id="Ebene_1" xmlns="http://www.w3.org/2000/svg" xmlns:xlink="http://www.w3.org/1999/xlink"
	 x="0px" y="0px" viewBox="0 0 32 16" overflow="visible" xml:space="preserve">
<path id="XMLID_1689_" fill="#71C2AE" d="M8,13.5c1.1,0,0.9,1.9,1.8,1.9c1.2,0,0.7-1.7,1.7-1.7s1.2,1.7,2.3,1.7
	c0.6,0,0.7-0.7,0.7-1.3c0-1,0-2.8,0-6.9c0-3.6-2.9-6.5-6.5-6.5S1.5,3.5,1.5,7.1c0,4.1,0,5.9,0,6.9c0,0.6,0.1,1.3,0.7,1.3
	c1,0,1.3-1.7,2.3-1.7s0.5,1.7,1.7,1.7C7.1,15.4,6.9,13.5,8,13.5z"/>
<circle id="XMLID_1688_" fill="#FFFFFF" cx="6.2" cy="6.9" r="1.8"/>
<circle id="XMLID_1687_" fill="#FFFFFF" cx="11.5" cy="6.9" r="1.8"/>
<path id="XMLID_1150_" fill="#2B2523" d="M8,6.9c0,0.5-0.4,0.9-0.9,0.9c-0.5,0-0.9-0.4-0.9-0.9C6.1,6.4,6.5,6,7.1,6
	C7.6,6,8,6.4,8,6.9z"/>
<path id="XMLID_1149_" fill="#2B2523" d="M13.3,6.9c0,0.5-0.4,0.9-0.9,0.9s-0.9-0.4-0.9-0.9c0-0.5,0.4-0.9,0.9-0.9
	S13.3,6.4,13.3,6.9z"/>
<path id="XMLID_00000019639814813071695620000012252871042102929806_" fill="#71C2AE" d="M24,14.4c1.1,0,0.9,0.9,1.8,0.9
	c1.2,0,1.1-0.9,2.1-0.9c1,0,0.9,0.9,1.9,0.9c0.6,0,0.7-0.7,0.7-1.3c0-1,0-2.8,0-6.9c0-3.6-2.9-6.5-6.5-6.5s-6.5,2.9-6.5,6.5
	c0,4.1,0,5.9,0,6.9c0,0.6,0.1,1.3,0.7,1.3c1,0,1.1-0.9,2.1-0.9c1,0,0.7,0.9,1.9,0.9C23.1,15.4,22.9,14.4,24,14.4z"/>
<circle id="XMLID_00000165235161923665892550000006595643786141257647_" fill="#FFFFFF" cx="22.2" cy="6.9" r="1.8"/>
<circle id="XMLID_00000012462169418684369130000005416559335999089318_" fill="#FFFFFF" cx="27.5" cy="6.9" r="1.8"/>
<path id="XMLID_00000094602698256458474820000004804925475477524616_" fill="#2B2523" d="M24,6.9c0,0.5-0.4,0.9-0.9,0.9
	c-0.5,0-0.9-0.4-0.9-0.9c0-0.5,0.4-0.9,0.9-0.9C23.6,6,24,6.4,24,6.9z"/>
<path id="XMLID_00000098932860938777139630000010590097330185621918_" fill="#2B2523" d="M29.3,6.9c0,0.5-0.4,0.9-0.9,0.9
	c-0.5,0-0.9-0.4-0.9-0.9c0-0.5,0.4-0.9,0.9-0.9C28.9,6,29.3,6.4,29.3,6.9z"/>
</svg>
