<?xml version="1.0" encoding="utf-8"?>
<!-- Generator: Adobe Illustrator 27.5.0, SVG Export Plug-In . SVG Version: 6.00 Build 0)  -->
<svg version="1.1" id="Ebene_1" xmlns="http://www.w3.org/2000/svg" xmlns:xlink="http://www.w3.org/1999/xlink" x="0px" y="0px"
	 viewBox="0 0 526.0999756 137.1000061" style="enable-background:new 0 0 526.0999756 137.1000061;" xml:space="preserve">
<style type="text/css">
	.st0{fill:#FFFFFF;stroke:#12110B;stroke-width:1.9338;}
	.st1{fill:#E43F50;stroke:#12110B;stroke-width:1.9338;}
	.st2{fill:#12110B;}
	.st3{fill:#FFD140;}
	.st4{fill:#E43F50;stroke:#12110B;stroke-width:1.9337889;stroke-miterlimit:3.9999769;}
	.st5{fill:#FEE022;stroke:#12110B;stroke-width:2.9006834;stroke-miterlimit:3.9999769;}
</style>
<path id="XMLID_124_" class="st0" d="M494.5,113.0000076l17.7999878-71.9000015l-25.3999939-5.7999992L475,82.9000092
	c-3.2999878-5.6999969-8.5-16.4000015-13.2000122-25.5c-4-7.5999985-7.8999939-15.2000008-11.7999878-22.7000008
	l-14.1000061,63.9999962L494.5,113.0000076z"/>
<path id="XMLID_123_" class="st1" d="M503.2000122,124.1000061l17.5-68.3000031L494.5,48.2000046l-8.3999939,32.9000015
	c-3.2999878-5.6999969-8.5-16.4000015-13.2000122-25.5c-4-7.5999985-7.8999939-15.2000008-11.7999878-22.7000008L445.5,111.3000107
	L503.2000122,124.1000061z"/>
<path id="XMLID_121_" class="st1" d="M86.8000031,116.6000061L111.5,30.3000031
	c7.9000015,8.7999992,17.6000061,20,29.1000061,33.5999985l28.8000031,34.1999969L86.8000031,116.6000061z"/>
<path id="XMLID_120_" class="st0" d="M77.5,107.9000092l23.1999969-79.0999985
	c7.4000015,8.0999985,16.4000015,18.2999992,27.1999969,30.7999992l26.8999939,31.2999992L77.5,107.9000092z"/>
<path id="XMLID_113_" class="st2" d="M83.1999969,112.3000107l23.0999985-81.5
	C113.6999969,39.1000099,122.6999969,49.7000122,133.5,62.6000099l27,32.2999992L83.1999969,112.3000107z"/>
<polygon id="XMLID_112_" class="st3" points="156.1999969,93.6000061 107.3000031,35.6000061 86.3000031,109.3000107 "/>
<path id="XMLID_111_" class="st2" d="M118.6999969,74.8000107c0.4000015,1.0999985,0.5,2.1999969,0.1999969,3.3000031
	c-0.4000015,1.1999969-1.0999985,1.9000015-2.1999969,2.1999969c-1.4000015,0.3000031-2.6999969-0.1999969-3.8000031-1.5999985
	c-0.4000015-0.9000015-0.5-1.8000031-0.4000015-2.8000031c0.0999985-1.1999969,0.5999985-2,1.4000015-2.4000015
	c0.3000031-0.0999985,0.5999985-0.1999969,0.8000031-0.3000031C116.1999969,72.9000092,117.5,73.4000092,118.6999969,74.8000107z"/>
<path id="XMLID_110_" class="st2" d="M149.5,91.4000092L135,95.0000076l-0.1999969-1l12.1000061-3.0999985
	c-0.8999939-1.5999985-2.6999969-3.9000015-5.3000031-6.9000015C138.9000092,80.9000092,137,78.5000076,136,76.8000107
	l0.6999969-0.6999969L149.5,91.4000092z"/>
<path id="XMLID_00000148662432120612334530000018003825118779965347_" class="st0" d="M86.9000015,88.5000076
	c-1.3000031,7.8000031-5.1999969,14.5999985-11.5,20.5999985s-13.5999985,9.6999969-21.7999992,11.1999969
	C46.2000008,121.7000046,39,121.1000061,31.9000015,118.6000061s-13-6.5999985-17.7999992-12.3000031
	c-3.6999998-4.5-6.1999998-10-7.5-16.5999985C5.5,83.6000061,5.6999998,78.0000076,7.4000001,72.9000092
	c2.2999997-7.3000031,6.4000001-13.5,12.3000011-18.5C25.5,49.4000092,32.3000031,46.1000099,40,44.7000084
	c2.2000008-0.4000015,4.4000015-0.7000008,6.7000008-0.7999992c6.0999985-0.2000008,12.1000023,0.9000015,17.9999962,3.5
	c6.0999985,2.7000008,10.9000015,6.4000015,14.5,11.0999985c-6.3000031,5.2999992-15.7000008,13.1999969-28.2000008,23.8000031
	C64,85.0000076,76,87.1000061,86.9000015,88.5000076z"/>
<path id="XMLID_00000111874388082299481180000003915106012949631147_" class="st1" d="M94,93.5000076
	c-0.4000015,7.3000031-3.3000031,10.3000031-8.5999985,16.4000015
	c-5.3000031,6.1999969-11.5999985,10.4000015-19.0999985,12.6999969c-6.7999992,2.0999985-13.5999985,2.4000015-20.5,0.9000015
	s-12.9000015-4.5999985-18-9.1999969c-4-3.6999969-7-8.4000015-8.8999996-14.3000031
	c-1.7999992-5.5-2.2000008-10.6999969-1.2000008-15.5999985c1.3999996-7,4.5-13.0999985,9.3999996-18.4000015
	S38,57.0000076,45,54.8000069c2-0.5999985,4.0999985-1.0999985,6.2000008-1.5
	c5.7000008-0.9000015,11.3999977-0.5,17.2000008,1.2000008c6,1.7999992,7.4000015,5.7000008,11.1999969,9.5999985
	c-5.2999954,5.5999985-12.9000015,11.8000031-23.5,22.9000015C68.6999969,88.0000076,83.5999985,93.4000092,94,93.5000076z"/>
<path id="XMLID_00000132808552392734846470000001419407169332798123_" class="st2" d="M91.6999969,85.2000046
	c-0.4000015,7.9000015-3.4000015,15.0999985-9,21.8000031c-5.5999985,6.6999969-12.3000031,11.3000031-20.2999992,13.6999969
	C55.1999969,123.0000076,48,123.3000031,40.5999985,121.6000061c-7.2999992-1.5999985-13.7000008-5-19.1000004-10
	c-4.3000011-4-7.3999996-9.0999985-9.3999996-15.5c-1.8999996-6-2.3000002-11.5999985-1.3000002-16.9000015
	c1.3999996-7.5,4.6999998-14.1999969,9.8999987-19.9000015s11.5-9.7000008,19-12.0999985
	c2.0999985-0.7000008,4.2999992-1.2000008,6.5999985-1.5999985c6.0999985-1,12.0999985-0.5,18.2000046,1.2999992
	c6.4000015,1.9000015,11.5999985,5,15.6999969,9.2000008c-5.5999985,6-13.9000015,15-25.0999985,27
	C68.5,84.4000092,80.6999969,85.0000076,91.6999969,85.2000046z"/>
<path id="XMLID_00000088826173179707496720000011910489982806216334_" class="st3" d="M87.9000015,87.9000092
	c-13.8000031-0.5-26.5-1.3000031-38-2.4000015c3.5-3.5999985,8-8.4000015,13.5-14.5999985
	C70,63.5000076,74.4000015,58.6000099,76.5,56.3000107c-3.9000015-3.5-8.6999969-6-14.2999992-7.4000015
	C57,47.7000084,51.5999985,47.4000092,46,48.1000099c-1.5,0.4000015-2.9000015,0.7999992-4.2999992,1.2000008
	c-7.0999985,2.2000008-13,5.7000008-17.8999996,10.5c-5.1000004,5-8.3999996,11-10,17.8000031
	c-1.3000002,5.8000031-1,11.8000031,0.8999996,17.9000015c2.6000004,8.4000015,7.2999992,14.5,14,18.5
	c5.0999985,3,10.6000023,4.9000015,16.3999977,5.6999969c5.7999992,0.8000031,11.5,0.3000031,17-1.4000015
	c3.9000015-1.1999969,7.4000015-3,10.6999969-5.4000015c4.4000015-3.0999985,8-6.8000031,10.8000031-11.0999985
	C86.9000015,96.8000107,88.3000031,92.2000046,87.9000015,87.9000092z"/>
<rect id="XMLID_92_" x="233.6974792" y="38.3996201" transform="matrix(0.9994058 -0.0344687 0.0344687 0.9994058 -1.399017 8.547226)" class="st0" width="26.9998589" height="12.8999271"/>
<rect id="XMLID_91_" x="244.7980042" y="47.697525" transform="matrix(0.9994058 -0.0344687 0.0344687 0.9994058 -1.7370354 8.9357872)" class="st4" width="26.9998283" height="14.2999172"/>
<rect id="XMLID_90_" x="240.9996796" y="44.5984993" transform="matrix(0.9994058 -0.0344687 0.0344687 0.9994058 -1.571529 8.7381859)" class="st5" width="23.2998543" height="10.6999388"/>
<polygon id="XMLID_89_" class="st2" points="499.1000061,117.9000092 440.2999878,105.0000076 456.1000061,33.1000061 
	480.7000122,81.7000046 490.2000122,41.0000076 516.7999878,47.2000084 "/>
<path id="XMLID_88_" class="st3" d="M497.8999939,115.4000092l16.6999817-66.1999969l-23.2000122-5.4000015l-9.8999939,43.6999969
	c-3.2999878-5.6999969-8.5-16.4000015-13.2000122-25.5c-4-7.5999985-7.8999939-15.2000008-11.7999878-22.7000008l-14.1000061,64
	L497.8999939,115.4000092z"/>
<path id="XMLID_87_" class="st2" d="M494.2999878,110.2000046L476.5,106.0000076l0.2000122-0.9000015
	c2.1000061,0.3000031,4.8999939,0.8000031,8.2000122,1.5999985l8.2000122,1.9000015l5.2000122-21l0.6000061,0.0999985
	L494.2999878,110.2000046z"/>
<path id="XMLID_00000124149144385490056890000004569472646281483137_" class="st0" d="M218.6000061,80.2000046l-14-72.6999969
	l-25.5,5.3999996l9.1999969,48.2000008c-5.3999939-3.7999992-14.6000061-11.2999992-22.6999969-17.5999985
	c-6.8000031-5.2000008-13.5-10.5-20.3000031-15.6000004l14.1000061,64.0999985L218.6000061,80.2000046z"/>
<path id="XMLID_00000171719975155925144140000017250958240718893193_" class="st1" d="M231.1000061,86.6000061
	l-12.8000031-69.3000031l-26.8999939,4.1000004l6.1999969,33.4000015C192.2000122,51.0000038,183,43.5000038,174.9000092,37.2000046
	c-6.8000031-5.2000008-13.5-10.5-20.3000031-15.6000004l18.8000031,77.6999969L231.1000061,86.6000061z"/>
<polygon id="XMLID_00000122704640906977269970000011592741612695077283_" class="st2" points="224.8999939,82.7000046 
	166,95.8000107 150.3000031,23.9000072 192.8999939,57.6000061 184.5,16.600008 211.1999969,11.1000071 "/>
<path id="XMLID_00000115500195520197752570000004712084506165305788_" class="st3" d="M222.8000031,81.0000076
	l-12.6999969-67.0999985l-23.3000031,4.8000002l9.3999939,43.7999992
	C190.8000031,58.7000084,181.5999908,51.2000084,173.5,44.9000092c-6.8000031-5.2000008-13.5-10.5-20.3000031-15.6000004
	l14.1000061,64.0999985L222.8000031,81.0000076z"/>
<path id="XMLID_00000101080287017673097550000017762657500695833531_" class="st2" d="M217.1999969,77.7000046
	l-17.8999939,3.5999985l-0.1999969-0.9000015c2-0.6999969,4.6999969-1.3000031,8.1000061-2l8.3000031-1.6999969
	l-4.1000061-21.2000008l0.6000061-0.0999985L217.1999969,77.7000046z"/>
<path id="XMLID_86_" class="st1" d="M359.8999939,96.9000092l56.5-75.3000031
	c3.8999939,11.5999985,8.5,26.0999985,13.8999939,43.7999954l13.5,44.1999969L359.8999939,96.9000092z"/>
<path id="XMLID_85_" class="st0" d="M355.2999878,85.1000061l50.5-65.5C409.5,30.2000065,414.8999939,40.1000061,420,56.4000053
	l12.7999878,40.7000008L355.2999878,85.1000061z"/>
<path id="XMLID_84_" class="st2" d="M358.2000122,91.4000092l53.1000061-71.1999969
	c3.6000061,10.8999996,7.8999939,24.5999985,12.8999939,41.2000008l12.5,41.7000008L358.2000122,91.4000092z"/>
<polygon id="XMLID_83_" class="st3" points="433.2000122,100.3000107 410.3999939,25.3000069 362.2000122,89.6000061 "/>
<path id="XMLID_82_" class="st2" d="M405.7999878,67.8000107c-0.1000061,1.3000031-0.3999939,2.4000015-1.1000061,3.3000031
	c-0.7999878,1.0999985-1.7999878,1.5-2.8999939,1.3000031c-1.3999939-0.1999969-2.3999939-1.1999969-2.8999939-3
	c0-1,0.2000122-2,0.7000122-2.9000015c0.6000061-1.0999985,1.2999878-1.6999969,2.2999878-1.8000031
	c0.2999878,0,0.6000061,0,0.8999939,0.0999985C404.1000061,65.0000076,405.2000122,66.0000076,405.7999878,67.8000107z"/>
<path id="XMLID_81_" class="st2" d="M427.8999939,95.6000061l-14.7999878-1.9000015l0.2000122-1.0999985l12.3999939,1.5
	c-0.2000122-2-1-4.9000015-2.2999878-8.8000031c-1.2999878-4.0999985-2.1000061-7.0999985-2.3999939-9.0999985l1-0.4000015
	L427.8999939,95.6000061z"/>
<path id="XMLID_80_" class="st0" d="M346.6000061,83.9000092l-72.1000061-4l4.2999878-68.3000031l33,36.2000008
	c5.2999878-4.2999992,11.7000122-9.7000008,19.1000061-16.2999992C337.1999817,25.9000072,345.5,19.9000072,351.7999878,14.3000059
	L346.6000061,83.9000092z"/>
<path id="XMLID_79_" class="st1" d="M356.2999878,96.8000107l-71-4.4000015l5.7999878-79.3000031l32.1000061,42.2999992
	c5.2999878-4.7000008,9.7999878-8.7999992,17.2000122-16c6.2999878-6.0999985,14.5-12.7000008,20.7999878-18.7999992
	L356.2999878,96.8000107z"/>
<path id="XMLID_78_" class="st2" d="M351.1000061,90.5000076l-71.6000061-4l5.2000122-71.5999985l32.7000122,38
	c5.3999939-4.5,11.7999878-10.2000008,19.3999939-17.0999985c6.3999939-5.8999996,12.7999878-11.7000008,19.2999878-17.6000004
	L351.1000061,90.5000076z"/>
<path id="XMLID_77_" class="st3" d="M348.8999939,88.2000046l4.7000122-64.8000031l-35.2000122,31.7000008l-2.1000061-0.0999985
	c-5-5.7999992-9.8999939-11.7000008-14.7999878-17.6000023c-5.8999939-6.8999996-11-12.6000004-15.2000122-17.1000004
	l-4.7000122,64.0999985L348.8999939,88.2000046z"/>
<polygon id="XMLID_76_" class="st2" points="343,81.9000092 326.6000061,81.3000107 326.7000122,80.3000107 341.6000061,80.9000092 
	343.7000122,61.5000076 344.1000061,61.6000061 "/>
</svg>
