<?xml version="1.0" encoding="utf-8"?>
<!-- Generator: Adobe Illustrator 27.5.0, SVG Export Plug-In . SVG Version: 6.00 Build 0)  -->
<svg version="1.2" baseProfile="tiny" id="Ebene_1" xmlns="http://www.w3.org/2000/svg" xmlns:xlink="http://www.w3.org/1999/xlink"
	 x="0px" y="0px" viewBox="0 0 500 500" overflow="visible" xml:space="preserve">
<g>
	<g id="Logo__x28_Snus_Packaging_x29__00000095331546666535852780000016667019820582324653_">
		<g id="s_00000109723692185252080430000011342156879038337936_">
			<path fill="#FFFFFF" d="M330.9,340.6l-3.3-0.8c-1.4-0.3-2.3-0.7-2.9-1.2c-0.6-0.5-0.8-1.1-0.8-1.9c0-1,0.5-1.8,1.5-2.3
				c1-0.5,2.3-0.8,4-0.8c1.1,0,2.3,0.1,3.4,0.4c1.1,0.2,2.1,0.5,3,0.9c0.9,0.4,1.6,0.7,2.1,1c0.5-0.3,1-0.7,1.3-1.3
				c0.3-0.6,0.5-1.3,0.5-2c0-1.1-0.5-2-1.4-2.8c-0.9-0.8-2.2-1.4-3.9-1.8c-1.7-0.4-3.5-0.6-5.6-0.6c-4,0-7.1,0.9-9.4,2.7
				c-2.3,1.8-3.4,4-3.4,6.8c0,2.5,0.8,4.5,2.3,5.9c1.6,1.5,3.9,2.6,7.1,3.3l3.7,1c1.3,0.3,2.3,0.7,3,1.3c0.7,0.6,1,1.4,1,2.3
				c0,2.3-1.9,3.4-5.5,3.4c-2,0-3.9-0.3-5.5-0.9c-1.6-0.6-3-1.3-4.2-2.1c-0.6,0.3-1,0.8-1.4,1.5c-0.3,0.6-0.5,1.3-0.5,2.1
				c0,1.7,1.1,3.1,3.3,4.2c2.2,1,5.1,1.6,8.5,1.6c4.3,0,7.6-0.9,9.9-2.6c2.3-1.7,3.4-4.1,3.4-7.2c0-2.5-0.8-4.6-2.4-6.2
				C337,342.7,334.5,341.5,330.9,340.6z"/>
		</g>
		<g id="u_00000048475021026611369580000013365099353062671522_">
			<path fill="#FFFFFF" d="M400.7,327.4c-0.7,0-1.4,0.1-2.1,0.2c-0.7,0.1-1.2,0.2-1.5,0.3v14.1v3.2v7.3c-0.5,0.3-1.2,0.6-2.2,0.9
				c-1,0.3-2.1,0.4-3.5,0.4c-2.1,0-3.8-0.5-5-1.5c-1.2-1-1.8-2.7-1.8-5.1v-1.9v-3.2v-10.8c0-1.5-0.3-2.5-1-3
				c-0.7-0.5-1.8-0.8-3.3-0.8c-0.8,0-1.5,0.1-2.2,0.2c-0.7,0.1-1.2,0.2-1.5,0.3v14.1v3.2v2.1c0,3,0.6,5.5,1.8,7.4
				c1.2,1.9,2.9,3.3,5.1,4.2c2.2,0.9,4.8,1.3,7.8,1.3c2.5,0,4.7-0.2,6.6-0.8c1.9-0.5,3.5-1.1,4.8-1.9c0.9-0.6,1.5-1.2,1.8-1.9
				c0.3-0.7,0.5-1.5,0.5-2.6v-7.9v-3.2v-10.8c0-1.5-0.4-2.5-1-3C403.3,327.6,402.2,327.4,400.7,327.4z"/>
		</g>
		<g id="n_00000023988177738278452590000004094949949224318398_">
			<path fill="#FFFFFF" d="M359.1,327.4c-2.5,0-4.8,0.3-6.9,0.9c-2.1,0.6-3.8,1.4-5.1,2.2c-0.9,0.6-1.5,1.2-2,1.9
				c-0.4,0.7-0.7,1.6-0.7,2.6v7.4v3.3v10.7c0,1.4,0.4,2.4,1.1,3c0.7,0.6,1.8,0.8,3.3,0.8c0.8,0,1.5-0.1,2.1-0.2
				c0.7-0.1,1.2-0.2,1.5-0.4v-14v-3.3v-6.9c0.8-0.4,1.8-0.8,2.8-1.2c1.1-0.3,2.3-0.5,3.6-0.5c1.8,0,3.3,0.5,4.4,1.4
				c1.1,0.9,1.6,2.3,1.6,4.3v2.9v3.3v10.7c0,1.4,0.4,2.4,1.1,3c0.7,0.6,1.8,0.8,3.4,0.8c0.7,0,1.5-0.1,2.1-0.2
				c0.7-0.1,1.2-0.2,1.5-0.4v-14v-3.3v-3.2c0-3.9-1.2-6.8-3.7-8.8C366.9,328.4,363.5,327.4,359.1,327.4z"/>
		</g>
		<g id="s_00000020376270967329737540000003004330747759960741_">
			<path fill="#FFFFFF" d="M431.2,344.3c-1.6-1.6-4.2-2.8-7.7-3.6l-3.3-0.8c-1.3-0.3-2.3-0.7-2.9-1.2c-0.6-0.5-0.8-1.1-0.8-1.9
				c0-1,0.5-1.8,1.5-2.3c1-0.5,2.3-0.8,4-0.8c1.1,0,2.3,0.1,3.4,0.4c1.1,0.2,2.1,0.5,3,0.9c0.9,0.4,1.6,0.7,2.1,1
				c0.5-0.3,0.9-0.7,1.3-1.3c0.3-0.6,0.5-1.3,0.5-2c0-1.1-0.5-2-1.4-2.8c-0.9-0.8-2.2-1.4-3.9-1.8c-1.7-0.4-3.5-0.6-5.6-0.6
				c-4,0-7.1,0.9-9.4,2.7c-2.3,1.8-3.4,4-3.4,6.8c0,2.5,0.8,4.5,2.3,5.9c1.5,1.5,3.9,2.6,7.1,3.3l3.7,1c1.3,0.3,2.3,0.7,3,1.3
				c0.7,0.6,1,1.4,1,2.3c0,2.3-1.8,3.4-5.5,3.4c-2.1,0-3.9-0.3-5.5-0.9c-1.6-0.6-3-1.3-4.2-2.1c-0.6,0.3-1,0.8-1.4,1.5
				c-0.3,0.6-0.5,1.3-0.5,2.1c0,1.7,1.1,3.1,3.3,4.2c2.2,1,5.1,1.6,8.6,1.6c4.3,0,7.6-0.9,9.9-2.6c2.3-1.7,3.4-4.1,3.4-7.2
				C433.6,347.9,432.8,345.8,431.2,344.3z"/>
		</g>
		<g id="Swiss_Cross_00000109011979587426856200000004606737341974139034_">
			<g>
				<path fill="#F5333F" d="M455.6,327c-9.2,0-16.7,7.5-16.7,16.8c0,9.2,7.5,16.8,16.7,16.8c9.2,0,16.7-7.5,16.7-16.8
					C472.3,334.5,464.9,327,455.6,327z"/>
			</g>
			<g>
				<path fill="#FFFFFF" d="M463.1,340.5H459v-4.1c0-1.8-1.5-3.2-3.3-3.2c-1.8,0-3.3,1.4-3.3,3.2v4.1h-4.1c-1.8,0-3.2,1.5-3.2,3.3
					c0,1.8,1.4,3.3,3.2,3.3h4.1v4.1c0,1.8,1.5,3.2,3.3,3.2c1.8,0,3.3-1.4,3.3-3.2v-4.1h4.1c1.8,0,3.2-1.5,3.2-3.3
					C466.3,342,464.8,340.5,463.1,340.5z"/>
			</g>
		</g>
		<g id="E_00000034794985373831467500000011391342325332087453_">
			<path fill="#FFFFFF" d="M458.6,274.2c2.4,0.1,4.2-0.4,5.7-1.7c1.6-1.3,2.5-3.4,2.6-5.7c0.5-10.6-3.5-21.7-10.9-30.6
				c-8.9-10.7-21.8-16.9-35.3-16.9c-10.8,0-21.5,4-30.1,11.2l0,0c-12.2,10.3-18.4,25.8-16.5,41.3c2.5,25,23.6,43.1,50.3,43.1
				c16.9,0,32.3-10.7,38-18.4l0,0c0.9-1.3,1.5-3.1,1.5-4.6c0-4.2-3.4-7.7-7.6-7.7c-2.1,0-4.2,0.9-5.7,2.6l-0.8,0.8
				c-3.5,4-13.1,13.2-26,13.2c-17.4,0-30.8-9.9-34.9-25.9c0,0-0.2-0.8-0.2-0.8L458.6,274.2z M388.8,260.5
				c1.6-7.2,5.6-13.7,11.4-18.6l0,0c0.3-0.2,1.2-0.9,1.2-0.9c14.2-10.9,33.2-9.2,44.1,4c4,4.8,6.4,10.5,6.4,15.6L388.8,260.5z"/>
		</g>
		<g id="E_00000145745858517534205140000015966795969663996591_">
			<path fill="#FFFFFF" d="M259,274.1c2.4,0.1,4.2-0.4,5.7-1.7c1.6-1.3,2.5-3.4,2.6-5.7c0.5-10.6-3.5-21.7-10.9-30.6
				c-8.9-10.7-21.8-16.9-35.3-16.9c-10.8,0-21.5,4-30.1,11.2l0,0c-12.2,10.3-18.4,25.8-16.5,41.3c2.5,25,23.6,43.1,50.3,43.1
				c16.9,0,32.3-10.7,38-18.4l0,0c0.9-1.3,1.5-3.1,1.5-4.6c0-4.2-3.4-7.7-7.6-7.7c-2.1,0-4.2,0.9-5.7,2.6l-0.8,0.8
				c-3.5,4-13.1,13.2-26,13.2c-17.4,0-30.8-9.9-34.9-25.9c0,0-0.2-0.8-0.2-0.8L259,274.1z M189.2,260.4c1.6-7.2,5.6-13.7,11.4-18.6
				l0,0c0.3-0.2,1.2-0.9,1.2-0.9c14.2-10.9,33.2-9.2,44.1,4c4,4.8,6.4,10.5,6.4,15.6L189.2,260.4z"/>
		</g>
		<g id="Matterhorn_00000108304120915234018000000015406139734775483059_">
			<polygon fill="#FFFFFF" points="329,209.7 328.5,209.1 325,205.1 320.9,197.1 320.6,179.4 291,124.7 256.9,91.7 235,76.9 
				222.9,88.2 195.5,135.5 170.4,147.9 164.9,177.3 153,187.3 154.2,202.4 109.1,227.8 74.5,270.1 155,203.8 165.7,176.8 196,135.8 
				224.7,118.5 258,126.5 236.9,158.5 234.4,202.3 235.3,206 236.5,202.8 256.2,166.8 288.4,177 314.2,206.1 290.7,178.2 
				288.1,176.4 290,177.7 288.9,176.4 259.2,125.8 223.4,88.8 235.6,82.6 256.4,92.2 287.2,126.8 319.6,179.4 313.3,194.3 
				290,177.7 314.2,206.1 323.6,209.1 327.4,210 329.8,210.6 			"/>
		</g>
	</g>
	<g>
		<g>
			<path fill="#FFFFFF" d="M249.2,477C123.8,477,21.6,375.6,20.5,250.4C19.3,124.1,123,19.5,249.2,19.5c97.6,0,181.2,61.5,214,147.8
				c1.1,3,4,5,7.2,5l0,0c5.4,0,9.1-5.4,7.2-10.4c-1.1-2.9-2.2-5.8-3.5-8.6c-12.3-29.1-29.9-55.2-52.3-77.6
				c-22.4-22.4-48.5-40-77.6-52.3c-30.1-12.7-62.1-19.2-95-19.2s-64.9,6.5-95,19.2C125.1,35.7,99,53.3,76.6,75.7
				c-22.4,22.4-40,48.5-52.3,77.6c-12.7,30.1-19.2,62.1-19.2,95c0,32.9,6.5,64.9,19.2,95c12.3,29.1,29.9,55.2,52.3,77.6
				c22.4,22.4,48.5,40,77.6,52.3c30.1,12.7,62.1,19.2,95,19.2s64.9-6.5,95-19.2c29.1-12.3,55.2-29.9,77.6-52.3
				c11.5-11.5,21.8-24.1,30.7-37.5c3.4-5.1-0.3-12-6.4-12l0,0c-2.6,0-5,1.3-6.4,3.4C398.7,436.4,328.6,477,249.2,477z"/>
		</g>
	</g>
	<g>
		<path fill="#FFFFFF" d="M479.8,188.4L479.8,188.4c-4.9,0-8.6,4.5-7.5,9.3c3.7,16.3,5.6,33.2,5.6,50.5c0,19.6-2.5,38.7-7.2,56.9
			c-1.2,4.9,2.4,9.6,7.4,9.6h0c3.5,0,6.6-2.4,7.4-5.8c5-19.7,7.6-40,7.6-60.7c0-18.3-2-36.3-5.9-53.8
			C486.5,190.9,483.4,188.4,479.8,188.4z"/>
	</g>
	<g>
		<path fill="#FFFFFF" d="M360.5,188.4c-4.1,0-7.5,3.5-7.5,7.7v36.6c-2.6-2.6-5.5-4.8-8.6-6.7c-0.2-0.1-0.4-0.2-0.6-0.4
			c-0.2-0.1-0.4-0.2-0.6-0.3c-2.8-1.6-5.7-2.9-8.8-3.9c-0.1,0-0.1,0-0.2-0.1c-0.3-0.1-0.6-0.2-0.8-0.3c-0.6-0.2-1.1-0.3-1.7-0.5
			c-0.1,0-0.1,0-0.2,0c-3.6-0.9-7.3-1.4-11.2-1.4c-0.1,0-0.1,0-0.2,0c0,0-0.1,0-0.1,0c-26.1,0-46.5,21-46.5,47.8
			c0,26.8,20.4,47.8,46.5,47.8c0.1,0,0.1,0,0.2,0c0.1,0,0.1,0,0.2,0c23.3,0,42.5-17.3,46.2-39.9c0.9-4.3,1.4-9.1,1.4-14.6v-64.2
			C368,191.7,364.8,188.4,360.5,188.4z M286.8,266.9c0-18.5,15-33.6,33.6-33.6c18.5,0,33.6,15,33.6,33.6s-15,33.6-33.6,33.6
			C301.8,300.5,286.8,285.5,286.8,266.9z"/>
	</g>
</g>
<g id="Name_Label_00000132780867070841704590000002365805031762326202_">
	<path fill="#FFFFFF" d="M314.9,478.3l-8.2-31c-1.9-7.2-9-11.7-16.2-10.3c-20,3.9-40,4.6-59.4,2.6c-0.4,0-0.9-0.1-1.3-0.1
		c-1.5-0.2-3.1-0.4-4.6-0.6c-1.2-0.2-2.4-0.3-3.6-0.5c-0.7-0.1-1.5-0.3-2.2-0.4c-1.9-0.3-3.9-0.7-5.8-1.1c0,0,0,0,0,0
		c-53.6-10.8-102.4-43.5-132.1-93.4c-3.8-6.4-11.9-8.7-18.5-5.3l-28.6,14.6c4.2,8.2,8.8,16,13.8,23.6l0,0
		c36,54.3,91.9,92.1,155,105.1c0.4,0.1,0.8,0.2,1.2,0.2c2.5,0.5,4.9,1,7.4,1.4c1,0.2,2,0.3,3,0.5c1.9,0.3,3.7,0.6,5.6,0.8
		c1.7,0.2,3.5,0.4,5.2,0.6c1.1,0.1,2.2,0.3,3.3,0.4c2.7,0.3,5.3,0.5,8,0.7c0.2,0,0.4,0,0.5,0c16.9,1.1,33.9,0.2,50.9-2.2l0,0
		C297.1,482.4,306,480.6,314.9,478.3z"/>
</g>
<g>
	<path fill-rule="evenodd" d="M69.8,357.6c1.4,5.1-1.5,10.4-6.6,11.8c-5.1,1.5-10.4-1.5-11.8-6.6c-1.4-5.1,1.5-10.4,6.6-11.8
		C63.1,349.5,68.4,352.5,69.8,357.6"/>
</g>
<g>
	<g>
		<g>
			<path fill-rule="evenodd" d="M297.4,464c1.4,4.9-1.5,10.1-6.4,11.5c-5,1.4-10.1-1.5-11.5-6.4c-1.4-5,1.5-10.1,6.4-11.5
				C290.9,456.1,296,459,297.4,464"/>
		</g>
	</g>
	<g>
		<g>
			<path d="M288.4,476.1c-1.6,0-3.2-0.4-4.6-1.2c-2.2-1.2-3.8-3.3-4.5-5.7c-1.4-5.1,1.6-10.4,6.6-11.8c5.1-1.4,10.4,1.6,11.8,6.6
				c0.7,2.5,0.4,5-0.9,7.3c-1.3,2.2-3.3,3.8-5.8,4.5C290.2,475.9,289.3,476.1,288.4,476.1z M288.5,457.8c-0.8,0-1.6,0.1-2.3,0.3
				c-4.6,1.3-7.3,6.1-6,10.8c0.6,2.2,2.1,4.1,4.1,5.2c2,1.1,4.4,1.4,6.6,0.8c2.2-0.6,4.1-2.1,5.2-4.1c1.1-2,1.4-4.4,0.8-6.6l0,0
				C295.8,460.3,292.3,457.8,288.5,457.8z"/>
		</g>
	</g>
</g>
<g>
	<path d="M75.3,382.7l3.7,4.4l-7.6,6.4c-0.2-0.1-0.5-0.4-0.9-0.7c-0.4-0.3-0.7-0.7-1.1-1.1c-0.7-0.9-1.1-1.6-1.1-2.2
		c0-0.6,0.4-1.3,1.2-1.9L75.3,382.7z M78.8,390.8l-5.4-6.5l10.5-8.8c0.4-0.3,0.8-0.5,1.1-0.4c0.4,0,0.8,0.2,1.2,0.4
		c0.8,0.4,1.6,1.1,2.4,1.9c0.8,0.8,1.6,1.6,2.2,2.3c2.2,2.6,3.3,5.1,3.3,7.4c0,2.3-0.9,4.2-2.9,5.9c-1.2,1-2.6,1.7-4,1.9
		c-1.4,0.2-2.9-0.1-4.3-0.7C81.5,393.5,80.1,392.4,78.8,390.8z M80.6,385.8l1.5,1.8c0.8,1,1.7,1.6,2.7,1.8c1,0.2,1.9-0.1,2.7-0.8
		c0.9-0.7,1.3-1.6,1.3-2.5c0-0.9-0.4-1.9-1.3-2.9c-0.3-0.4-0.6-0.7-0.8-0.9c-0.3-0.3-0.5-0.5-0.8-0.8L80.6,385.8z"/>
	<path d="M106.7,413.6c-1.8,1.9-3.8,3.2-5.8,3.8c-2,0.6-4,0.6-5.9,0c-1.9-0.6-3.7-1.6-5.3-3.2c-1.6-1.6-2.8-3.3-3.4-5.2
		c-0.6-1.9-0.7-3.9-0.2-5.9c0.5-2,1.7-4,3.5-5.9c1.8-1.9,3.8-3.2,5.8-3.7c2-0.6,4-0.6,5.9,0c1.9,0.6,3.7,1.6,5.3,3.1
		c1.6,1.6,2.8,3.3,3.4,5.2c0.7,1.9,0.7,3.9,0.2,5.9C109.7,409.8,108.6,411.7,106.7,413.6z M102.4,409.5c1.7-1.8,2.6-3.5,2.7-5.1
		c0.1-1.7-0.5-3.1-1.8-4.3c-1.3-1.2-2.7-1.7-4.4-1.6c-1.6,0.2-3.3,1.2-5,2.9c-1.7,1.8-2.6,3.5-2.7,5.2c-0.1,1.6,0.5,3.1,1.8,4.3
		c1.3,1.2,2.7,1.8,4.4,1.6C99,412.3,100.7,411.3,102.4,409.5z"/>
	<path d="M121.5,417.6c0.3,0.1,0.7,0.2,1.2,0.4c0.5,0.2,1,0.5,1.4,0.8c0.8,0.6,1.3,1.1,1.6,1.7c0.3,0.6,0.4,1.2,0.2,1.7
		c-0.5,1.5-1,2.8-1.5,4c-0.5,1.2-0.9,2.4-1.3,3.5c-0.4,1.1-0.9,2.3-1.3,3.5l0.1,0.1c1.5-1.5,3-2.9,4.4-4.3c1.4-1.4,2.7-2.8,4-4.1
		c1.3-1.4,2.7-2.8,4-4.2c0.9,0.1,1.8,0.5,2.5,1c0.7,0.5,1.1,1.1,1.4,1.7c0.3,0.6,0.1,1.3-0.4,2c-0.3,0.4-0.8,1-1.5,1.8
		c-0.7,0.7-1.5,1.6-2.4,2.5c-0.9,0.9-1.9,1.9-3,2.8c-1,1-2.1,1.9-3.1,2.8c-1,0.9-2,1.7-2.9,2.4c-0.9,0.7-1.6,1.2-2.3,1.6
		c-0.4,0-1-0.1-1.7-0.4s-1.4-0.6-2.1-1.1c-0.8-0.6-1.4-1.2-1.9-1.9c-0.4-0.7-0.5-1.3-0.4-1.8c0.2-0.7,0.5-1.6,0.8-2.6
		c0.3-1,0.7-2.1,1.1-3.2c0.4-1.1,0.9-2.3,1.4-3.5c-0.9,0.8-1.9,1.6-2.9,2.4c-1,0.8-2,1.6-2.9,2.3c-0.9,0.7-1.7,1.3-2.3,1.8
		c-0.4,0-1-0.1-1.7-0.3c-0.7-0.2-1.3-0.6-2-1.1c-0.8-0.6-1.4-1.2-1.9-2c-0.5-0.7-0.7-1.4-0.6-1.9c0.1-0.6,0.4-1.5,0.8-2.7
		c0.4-1.2,0.9-2.5,1.6-3.9c0.6-1.5,1.3-3,2-4.5c0.7-1.5,1.4-3,2.2-4.5c0.7-1.4,1.4-2.7,2-3.8c0.4,0,0.9,0,1.5,0.1
		c0.6,0.1,1.2,0.4,1.7,0.8c0.7,0.5,1.1,1.1,1.3,1.7c0.2,0.6,0.1,1.3-0.3,2.1c-1.1,2.1-2,3.9-2.8,5.4c-0.8,1.5-1.4,2.8-2,3.9
		c-0.6,1.1-1,2-1.4,2.8c-0.4,0.8-0.7,1.5-1,2.2l0.2,0.1c0.8-0.7,1.6-1.3,2.3-1.9c0.7-0.6,1.5-1.2,2.2-1.8c0.8-0.6,1.6-1.2,2.4-1.9
		C119.4,419.4,120.4,418.6,121.5,417.6z"/>
	<path d="M137.8,430.5l4.9,2.8l-7.9,13.8c-0.2-0.1-0.6-0.2-1-0.4c-0.4-0.2-0.9-0.4-1.4-0.6c-0.8-0.5-1.3-1.1-1.5-1.8
		c-0.2-0.8-0.1-1.6,0.4-2.4L137.8,430.5z M132.4,446.1l2.3-4l11.1,6.3c0,0.3,0,0.6-0.1,1c-0.1,0.4-0.2,0.8-0.5,1.2
		c-0.4,0.7-0.9,1.1-1.4,1.3c-0.5,0.1-1,0.1-1.6-0.2L132.4,446.1z M138.1,441.3l-4.9-2.8l6.5-11.4c0.5-0.8,1.1-1.4,1.9-1.6
		c0.8-0.2,1.5-0.1,2.4,0.4c0.5,0.3,0.9,0.5,1.3,0.8c0.4,0.3,0.6,0.5,0.8,0.7L138.1,441.3z M137.2,437.8l2.3-4l10,5.7
		c0,0.3,0,0.6-0.1,1c-0.1,0.4-0.2,0.8-0.5,1.2c-0.4,0.7-0.9,1.1-1.4,1.3c-0.5,0.1-1,0.1-1.6-0.2L137.2,437.8z M141.6,430l2.3-4
		l11,6.2c0,0.3,0,0.6-0.1,1c-0.1,0.4-0.2,0.8-0.5,1.2c-0.4,0.7-0.9,1.1-1.4,1.3c-0.5,0.2-1,0.1-1.6-0.2L141.6,430z"/>
	<path d="M152.5,445.8l5.3,2.4l-4.1,9c-0.2,0-0.6-0.1-1.1-0.3c-0.5-0.1-1-0.3-1.5-0.6c-1-0.5-1.7-1-2-1.5c-0.3-0.6-0.2-1.3,0.2-2.2
		L152.5,445.8z M159.6,451.4l-8-3.6l5.5-12.1c0.2-0.4,0.5-0.7,0.9-0.9c0.4-0.1,0.8-0.2,1.3-0.1c0.9,0.1,1.9,0.3,3,0.6
		c1.1,0.3,2.2,0.8,3.3,1.3c3.1,1.4,5.2,3.1,6.2,5.1c1,2,1,4.2,0,6.4c-0.6,1.4-1.6,2.5-2.8,3.2c-1.2,0.8-2.7,1.2-4.3,1.2
		S161.3,452.2,159.6,451.4z M158.7,446.1l2.3,1c1.2,0.5,2.2,0.7,3.2,0.5c0.9-0.2,1.6-0.8,2.1-1.8c0.4-1,0.4-1.9,0-2.7
		c-0.4-0.8-1.4-1.5-2.8-2.2c-0.4-0.2-0.8-0.3-1.1-0.4c-0.3-0.1-0.7-0.2-1-0.3L158.7,446.1z M159.2,449.7l5.2,1c0.2,1,0.4,2,0.7,2.9
		s0.5,1.9,0.7,2.8c0.2,0.9,0.4,1.7,0.6,2.5c0.2,0.8,0.3,1.4,0.4,1.9c-0.5,0.6-1.1,1-1.8,1.1c-0.7,0.1-1.4,0.1-2.1-0.2
		c-0.9-0.4-1.4-0.9-1.7-1.5c-0.3-0.6-0.5-1.3-0.6-2.1L159.2,449.7z"/>
	<path d="M175.2,449l5.4,1.8l-5.1,15.1c-0.2,0-0.6-0.1-1.1-0.2c-0.5-0.1-1-0.2-1.5-0.4c-0.9-0.3-1.5-0.8-1.9-1.5
		c-0.4-0.7-0.4-1.5-0.1-2.4L175.2,449z M177.6,459.5l-5.4-1.8l4.2-12.4c0.3-0.9,0.8-1.5,1.5-1.9c0.7-0.3,1.5-0.4,2.4-0.1
		c0.5,0.2,1,0.4,1.4,0.6c0.4,0.2,0.7,0.4,0.9,0.5L177.6,459.5z M172.9,465.3l1.5-4.4l12.1,4.1c0.1,0.3,0.1,0.6,0.1,1
		c0,0.4-0.1,0.9-0.2,1.3c-0.3,0.8-0.6,1.3-1.1,1.5c-0.5,0.2-1,0.3-1.6,0.1L172.9,465.3z M176,456.3l1.5-4.3l10.9,3.7
		c0.1,0.3,0.1,0.6,0.1,1c0,0.4-0.1,0.8-0.2,1.3c-0.3,0.8-0.6,1.3-1.1,1.5c-0.5,0.2-1,0.3-1.6,0.1L176,456.3z M178.9,447.7l1.5-4.3
		l11.9,4.1c0.1,0.3,0.1,0.6,0.1,1c0,0.4-0.1,0.8-0.2,1.2c-0.3,0.8-0.6,1.3-1.1,1.5c-0.5,0.3-1,0.3-1.6,0.1L178.9,447.7z"/>
	<path d="M210.3,470.6c-1.4,1.5-3.2,2.5-5.2,3c-2,0.5-4.3,0.4-6.8-0.2c-0.8-0.2-1.8-0.5-3-0.9c-1.2-0.4-2.2-0.9-3.1-1.4
		c-1.2-0.8-1.6-1.7-1.4-2.9l4.1-17.8c0.1-0.5,0.3-0.8,0.7-1c0.3-0.2,0.7-0.3,1.2-0.4c1.1-0.1,2.2-0.1,3.3,0.1
		c1.2,0.2,2.2,0.4,3.2,0.6c2.6,0.6,4.7,1.5,6.4,2.8c1.7,1.3,2.9,2.9,3.6,4.9s0.7,4.3,0.1,6.9C212.8,467,211.8,469.1,210.3,470.6z
		 M207.6,458.8c-0.3-1.2-0.9-2.2-1.8-2.9c-0.9-0.8-1.9-1.3-3.2-1.6c-0.4-0.1-0.9-0.2-1.3-0.2c-0.4-0.1-0.8-0.1-1.3-0.2l-3.2,14.1
		c0.4,0.2,0.8,0.3,1.2,0.5c0.5,0.1,0.9,0.3,1.3,0.4c2,0.4,3.7,0.2,5.1-0.7c1.5-0.9,2.5-2.6,3-5C207.9,461.4,208,460,207.6,458.8z"/>
	<path d="M232.8,468.5l0.7-3.1c2.1,0.2,3.8,0.6,5.2,1.2c1.4,0.6,2.3,1.4,3,2.4c0.6,1,0.9,2.1,0.8,3.4c-0.2,2.5-1.3,4.2-3.2,5.2
		c-1.9,1-4.6,1.4-8,1.1c-0.6-0.1-1.3-0.1-2.1-0.3c-0.8-0.1-1.5-0.3-2.3-0.5c-0.8-0.2-1.5-0.4-2.1-0.7c-1.3-0.6-1.9-1.5-1.8-2.7
		l1.6-18.2c0-0.5,0.2-0.8,0.5-1.1c0.3-0.3,0.7-0.4,1.2-0.5c0.9-0.2,2-0.3,3.2-0.4c1.2,0,2.5,0,3.8,0.1c3.1,0.3,5.5,1,7.1,2.3
		c1.6,1.2,2.3,3,2.1,5.2c-0.1,1.2-0.6,2.2-1.3,3c-0.8,0.8-1.9,1.4-3.3,1.7c-1.4,0.3-3.1,0.4-5,0.2l0-2.6c1.2,0.1,2.1,0,2.8-0.5
		c0.6-0.4,1-1.1,1.1-2c0.1-0.8-0.2-1.5-0.8-2c-0.6-0.5-1.6-0.8-3-1c-0.5,0-1-0.1-1.5-0.1c-0.5,0-1,0-1.3,0.1l-1.3,14.8
		c0.4,0.1,0.9,0.3,1.6,0.4c0.6,0.1,1.2,0.2,1.8,0.2c1.3,0.1,2.3,0,3.1-0.5c0.8-0.4,1.3-1.1,1.4-2.2c0.1-1-0.2-1.7-0.8-2.2
		C235.1,469,234.2,468.6,232.8,468.5z M236,464.7l-0.4,4.1l-8.5-0.8l0.4-4.1L236,464.7z"/>
	<path d="M256.8,471.7l-5.2,0c-0.7-1-1.4-2.1-2.2-3.3c-0.8-1.2-1.6-2.5-2.4-3.8c-0.8-1.3-1.5-2.6-2.2-3.8c-0.7-1.2-1.2-2.3-1.7-3.3
		c0.3-0.4,0.7-0.8,1.2-1.1c0.5-0.4,1.1-0.5,1.9-0.6c0.9,0,1.6,0.2,2.1,0.5c0.5,0.4,1.1,1,1.5,2c0.1,0.1,0.3,0.5,0.6,1
		c0.3,0.5,0.6,1.1,1,1.8c0.4,0.7,0.7,1.4,1.1,2.1c0.4,0.7,0.7,1.3,1,1.8c0.3,0.5,0.4,0.8,0.5,0.9h0.2c0.6-1.2,1.1-2.3,1.5-3.3
		c0.5-1,0.9-2,1.3-3c0.4-1,0.9-2.2,1.4-3.4c0.4-0.2,0.8-0.4,1.3-0.5c0.5-0.1,0.9-0.2,1.4-0.2c0.8,0,1.5,0.2,2,0.6
		c0.5,0.4,0.8,1,0.8,1.8c0,0.3-0.1,0.8-0.3,1.3c-0.2,0.6-0.6,1.4-1.2,2.4c-0.6,1-1.3,2.3-2.2,3.9
		C259.4,467.5,258.2,469.4,256.8,471.7z M251.3,469.6l5.7,0l0.1,9.5c-0.3,0.1-0.6,0.2-1.1,0.2c-0.5,0.1-1,0.1-1.5,0.1
		c-1.1,0-1.9-0.2-2.4-0.6c-0.5-0.4-0.7-1.1-0.7-2.1L251.3,469.6z"/>
</g>
</svg>
