<?xml version="1.0" encoding="utf-8"?>
<!-- Generator: Adobe Illustrator 27.5.0, SVG Export Plug-In . SVG Version: 6.00 Build 0)  -->
<svg version="1.2" baseProfile="tiny" id="Ebene_1" xmlns="http://www.w3.org/2000/svg" xmlns:xlink="http://www.w3.org/1999/xlink"
	 x="0px" y="0px" viewBox="0 0 1000 1000" overflow="visible" xml:space="preserve">
<g>
	<g id="Swiss_Cross_00000150104020146898612320000009056941212029355414_">
		<path fill="#F5333F" d="M890.9,649.1c-17.5,0-31.7,14.2-31.7,31.7c0,17.5,14.2,31.7,31.7,31.7c17.5,0,31.7-14.2,31.7-31.7
			C922.6,663.3,908.4,649.1,890.9,649.1z"/>
		<path fill="#FFFFFF" d="M905,674.7h-7.8v-7.8c0-3.3-2.8-6-6.2-6c-3.5,0-6.3,2.7-6.3,6v7.8H877c-3.3,0-6,2.8-6,6.3
			c0,3.4,2.7,6.3,6,6.3h7.8v7.8c0,3.3,2.8,6,6.3,6c3.4,0,6.2-2.7,6.2-6v-7.8h7.8c3.3,0,6.1-2.8,6.1-6.3
			C911.1,677.5,908.4,674.7,905,674.7z"/>
	</g>
	<g>
		<path fill="#FFFFFF" d="M500,933.2C262.5,933.2,69,741.1,66.8,504C64.6,264.9,260.9,66.8,500,66.8
			c184.9,0,343.1,116.4,405.2,279.8c2.2,5.7,7.5,9.4,13.6,9.4l0,0c10.1,0,17.2-10.1,13.6-19.6c-2.1-5.5-4.3-10.9-6.5-16.3
			c-23.3-55-56.6-104.5-99-146.9c-42.4-42.4-91.9-75.8-146.9-99C622.9,50,562.4,37.8,500,37.8S377.1,50,320.1,74.1
			c-55,23.3-104.5,56.6-146.9,99c-42.4,42.4-75.8,91.9-99,146.9C50,377.1,37.8,437.6,37.8,500c0,62.4,12.2,122.9,36.3,179.9
			c23.3,55,56.6,104.5,99,146.9c42.4,42.4,91.9,75.8,146.9,99c57,24.1,117.5,36.3,179.9,36.3s122.9-12.2,179.9-36.3
			c55-23.3,104.5-56.6,146.9-99c21.9-21.9,41.3-45.6,58.2-71c6.5-9.7-0.5-22.7-12.2-22.7l0,0c-4.9,0-9.4,2.4-12.1,6.5
			C783,856.2,650.3,933.2,500,933.2z"/>
	</g>
	<g>
		<path id="s_00000078765732558716518180000003101926673349801388_" fill="#FFFFFF" d="M654.8,674.9l-6.3-1.5
			c-2.6-0.6-4.4-1.4-5.4-2.3c-1.1-1-1.6-2.2-1.6-3.6c0-1.9,0.9-3.4,2.8-4.4c1.8-1,4.4-1.5,7.6-1.5c2.1,0,4.3,0.2,6.4,0.7
			c2.1,0.4,4.1,1,5.8,1.7c1.7,0.7,3,1.3,4,1.9c1-0.6,1.8-1.4,2.4-2.5c0.6-1.1,0.9-2.4,0.9-3.8c0-2.1-0.9-3.8-2.7-5.3
			c-1.8-1.5-4.2-2.6-7.3-3.4c-3.1-0.8-6.7-1.2-10.6-1.2c-7.6,0-13.5,1.7-17.8,5c-4.3,3.3-6.4,7.6-6.4,12.8c0,4.7,1.5,8.4,4.4,11.2
			c2.9,2.8,7.4,4.9,13.4,6.2l7,1.9c2.5,0.5,4.4,1.3,5.7,2.4c1.2,1.1,1.9,2.6,1.9,4.4c0,4.3-3.5,6.4-10.5,6.4
			c-3.9,0-7.3-0.6-10.4-1.7c-3.1-1.1-5.7-2.5-8-3.9c-1.1,0.7-1.9,1.6-2.6,2.8c-0.7,1.2-1,2.5-1,3.9c0,3.3,2.1,5.9,6.3,7.9
			c4.2,2,9.6,3,16.2,3c8.2,0,14.4-1.6,18.7-4.9c4.3-3.2,6.4-7.8,6.4-13.6c0-4.8-1.5-8.7-4.6-11.7
			C666.3,678.8,661.5,676.5,654.8,674.9z"/>
		<path id="u_00000018216570725531420510000005970198753762345630_" fill="#FFFFFF" d="M786.9,649.8c-1.4,0-2.7,0.1-4,0.3
			c-1.3,0.2-2.2,0.4-2.9,0.6v26.7v6.1v13.7c-0.9,0.6-2.2,1.2-4.1,1.6c-1.8,0.5-4,0.8-6.7,0.8c-4,0-7.2-1-9.5-2.9
			c-2.3-1.9-3.4-5.1-3.4-9.6v-3.7v-6.1V657c0-2.8-0.7-4.7-2-5.7c-1.3-1-3.4-1.5-6.3-1.5c-1.5,0-2.9,0.1-4.1,0.3
			c-1.2,0.2-2.2,0.4-2.8,0.6v26.7v6.1v3.9c0,5.7,1.1,10.4,3.4,14.1c2.3,3.6,5.5,6.3,9.7,8c4.2,1.7,9.1,2.5,14.8,2.5
			c4.7,0,8.9-0.5,12.5-1.4c3.7-1,6.7-2.1,9.1-3.6c1.7-1.1,2.9-2.3,3.5-3.6c0.6-1.3,0.9-2.9,0.9-4.9v-15v-6.1V657
			c0-2.8-0.7-4.7-2-5.7C791.9,650.3,789.7,649.8,786.9,649.8z"/>
		<path id="n_00000026846498818679384690000006365654617314019995_" fill="#FFFFFF" d="M708,649.8c-4.8,0-9.1,0.6-13,1.7
			c-3.9,1.1-7.1,2.6-9.6,4.2c-1.6,1.1-2.9,2.3-3.7,3.6c-0.8,1.3-1.2,3-1.2,5v14v6.2v20.3c0,2.7,0.7,4.5,2,5.6
			c1.4,1.1,3.4,1.6,6.2,1.6c1.5,0,2.8-0.1,4.1-0.3c1.2-0.2,2.2-0.4,2.8-0.7v-26.5v-6.2v-13c1.6-0.9,3.4-1.6,5.4-2.2
			c2-0.6,4.3-1,6.9-1c3.5,0,6.2,0.9,8.3,2.6c2.1,1.7,3.1,4.4,3.1,8.1v5.4v6.2v20.3c0,2.7,0.7,4.5,2,5.6c1.4,1.1,3.5,1.6,6.4,1.6
			c1.4,0,2.8-0.1,4-0.3c1.3-0.2,2.2-0.4,2.8-0.7v-26.5v-6.2v-6.1c0-7.4-2.3-13-7-16.7C722.9,651.7,716.4,649.8,708,649.8z"/>
		<path id="s_00000145776522517159476610000010506573469875786651_" fill="#FFFFFF" d="M844.6,681.8c-3-3-7.9-5.3-14.6-6.9l-6.3-1.5
			c-2.6-0.6-4.4-1.4-5.4-2.3c-1.1-1-1.6-2.2-1.6-3.6c0-1.9,0.9-3.4,2.8-4.4c1.8-1,4.4-1.5,7.6-1.5c2.1,0,4.3,0.2,6.4,0.7
			c2.1,0.4,4,1,5.7,1.7c1.7,0.7,3,1.3,4,1.9c1-0.6,1.8-1.4,2.4-2.5c0.6-1.1,0.9-2.4,0.9-3.8c0-2.1-0.9-3.8-2.7-5.3
			c-1.8-1.5-4.2-2.6-7.3-3.4c-3.1-0.8-6.7-1.2-10.6-1.2c-7.6,0-13.5,1.7-17.8,5c-4.3,3.3-6.4,7.6-6.4,12.8c0,4.7,1.5,8.4,4.4,11.2
			c2.9,2.8,7.4,4.9,13.4,6.2l7.1,1.9c2.5,0.5,4.4,1.3,5.7,2.4c1.2,1.1,1.9,2.6,1.9,4.4c0,4.3-3.5,6.4-10.5,6.4
			c-3.9,0-7.3-0.6-10.4-1.7c-3.1-1.1-5.7-2.5-8-3.9c-1.1,0.7-1.9,1.6-2.6,2.8c-0.7,1.2-1,2.5-1,3.9c0,3.3,2.1,5.9,6.3,7.9
			c4.2,2,9.6,3,16.2,3c8.1,0,14.4-1.6,18.7-4.9c4.3-3.2,6.4-7.8,6.4-13.6C849.2,688.7,847.7,684.8,844.6,681.8z"/>
		<path id="E_00000164492649507038941920000006270423652267456956_" fill="#FFFFFF" d="M896.5,549c4.6,0.1,7.9-0.8,10.8-3.3
			c3-2.5,4.7-6.5,4.9-10.9c0.9-20-6.5-41.1-20.6-57.9c-16.9-20.3-41.2-31.9-66.8-31.9c-20.4,0-40.8,7.6-57,21.3l0,0
			c-23.2,19.5-34.8,48.8-31.2,78.2c4.7,47.3,44.7,81.6,95.2,81.6c31.9,0,61.2-20.3,71.9-34.9l0,0c1.7-2.5,2.9-5.8,2.9-8.7
			c0-8-6.5-14.5-14.5-14.5c-4.1,0-8,1.8-10.8,4.9l-1.4,1.6c-6.6,7.5-24.7,24.9-49.3,24.9c-33,0-58.2-18.7-66.1-49
			c0,0-0.4-1.4-0.4-1.4L896.5,549z M764.3,523.1c3-13.5,10.7-26,21.7-35.3l0,0c0.5-0.4,2.3-1.8,2.3-1.8
			c26.8-20.7,62.8-17.4,83.6,7.5c7.6,9.1,12,19.8,12.2,29.6L764.3,523.1z"/>
		<path id="E_00000021111771713126152640000007796027815907775143_" fill="#FFFFFF" d="M518.5,549c4.6,0.1,7.9-0.8,10.8-3.3
			c3-2.5,4.7-6.5,4.9-10.9c0.9-20-6.5-41.1-20.6-57.9c-16.9-20.3-41.2-31.9-66.8-31.9c-20.4,0-40.8,7.6-57,21.3l0,0
			c-23.2,19.5-34.8,48.8-31.2,78.2c4.7,47.3,44.7,81.6,95.2,81.6c31.9,0,61.2-20.3,71.9-34.9l0,0c1.7-2.5,2.9-5.8,2.9-8.7
			c0-8-6.5-14.5-14.5-14.5c-4.1,0-8,1.8-10.8,4.9l-1.4,1.6c-6.6,7.5-24.7,24.9-49.3,24.9c-33,0-58.2-18.7-66.1-49
			c0,0-0.4-1.4-0.4-1.4L518.5,549z M386.4,523.1c3-13.5,10.7-26,21.7-35.3l0,0c0.5-0.4,2.3-1.8,2.3-1.8
			c26.8-20.7,62.8-17.4,83.6,7.5c7.6,9.1,12,19.8,12.2,29.6L386.4,523.1z"/>
		<path fill="#FFFFFF" d="M651.2,426.9l-0.9-1.2l-6.7-7.5l-7.7-15.1l-0.6-33.6L579,266l-64.5-62.5l-41.4-27.9l-23,21.4l-51.9,89.7
			l-47.6,23.3l-10.3,55.7l-22.5,19l2.1,28.5l-85.4,48.2l-65.5,80.1l152.5-125.5l20.3-51.2l57.3-77.5l54.4-32.8l63,15.1l-40,60.6
			l-4.6,82.9l1.7,6.9l2.2-6l37.2-68.1l61,19.3l49,55.1l17.8,5.6l7.1,1.6l4.6,1.3L651.2,426.9z M621.3,397.8l-44.1-31.4l-2.1-2.5
			l-56.2-96l-67.8-70l23-11.7l39.4,18.3L572,270l61.3,99.7L621.3,397.8z"/>
		<path fill="#FFFFFF" d="M936.7,386.7L936.7,386.7c-9.3,0-16.2,8.6-14.2,17.7c7,30.8,10.6,62.8,10.6,95.7
			c0,37.2-4.7,73.3-13.6,107.7c-2.4,9.2,4.6,18.2,14.1,18.2h0c6.7,0,12.4-4.5,14.1-11c9.6-37.3,14.4-75.7,14.4-114.9
			c0-34.6-3.8-68.7-11.3-101.9C949.4,391.4,943.6,386.7,936.7,386.7z"/>
		<path fill="#FFFFFF" d="M710.8,386.7c-7.8,0-14.2,6.6-14.2,14.6v69.3c-4.9-4.9-10.4-9.2-16.3-12.8c-0.4-0.2-0.7-0.5-1.1-0.7
			c-0.4-0.2-0.7-0.4-1.1-0.6c-5.2-3-10.8-5.5-16.6-7.3c-0.1,0-0.2-0.1-0.3-0.1c-0.5-0.2-1-0.3-1.6-0.5c-1.1-0.3-2.1-0.6-3.2-0.9
			c-0.1,0-0.2-0.1-0.4-0.1c-6.8-1.7-13.9-2.6-21.2-2.6c-0.1,0-0.3,0-0.4,0c-0.1,0-0.1,0-0.2,0c-49.4,0-88.2,39.8-88.2,90.5
			c0,50.8,38.7,90.5,88.2,90.5c0.1,0,0.2,0,0.3,0c0.1,0,0.2,0,0.3,0c44,0,80.6-32.7,87.5-75.6c1.7-8.1,2.7-17.3,2.7-27.6V401.3
			C725,392.9,718.9,386.7,710.8,386.7z M571.2,535.3c0-35.1,28.5-63.6,63.6-63.6c35.1,0,63.6,28.5,63.6,63.6
			c0,35.1-28.5,63.6-63.6,63.6C599.7,599,571.2,570.5,571.2,535.3z"/>
	</g>
</g>
</svg>
