<?xml version="1.0" encoding="utf-8"?>
<!-- Generator: Adobe Illustrator 27.5.0, SVG Export Plug-In . SVG Version: 6.00 Build 0)  -->
<svg version="1.1" id="Ebene_1" xmlns="http://www.w3.org/2000/svg" xmlns:xlink="http://www.w3.org/1999/xlink" x="0px" y="0px"
	 viewBox="0 0 16 16" enable-background="new 0 0 16 16" xml:space="preserve">
<g>
	<circle id="Stanzriss_00000181803842129830074620000002156056062301650866_" fill="#FFFFFF" cx="8" cy="7.9403353" r="6.6816192"/>
	<g>
		<path id="s_00000122701024483197810110000011960048271124135356_" fill="#55575A" d="M10.1186161,10.3346176l-0.0862389-0.0205126
			c-0.0350018-0.0077114-0.0598612-0.0186567-0.074317-0.0321054c-0.0146685-0.0134916-0.0218859-0.0298071-0.0218859-0.0490398
			c0-0.0258875,0.0124121-0.0460844,0.0378857-0.0601387c0.0252218-0.0141401,0.059968-0.0212126,0.1040945-0.0212126
			c0.0290556,0,0.0586452,0.0031271,0.0878382,0.0093031c0.0293121,0.0061293,0.0555658,0.0142298,0.078702,0.0236349
			c0.023097,0.0098572,0.0413914,0.0183668,0.0548792,0.0262203c0.0135212-0.0078535,0.0246458-0.019412,0.0330362-0.0345764
			c0.0084667-0.0152788,0.0127707-0.0325451,0.0127707-0.0518417c0-0.0281868-0.0121269-0.0523291-0.0366917-0.0726624
			c-0.0239973-0.0204191-0.0575066-0.0356207-0.1003962-0.0465956c-0.0428677-0.0107317-0.0914421-0.0161152-0.1453791-0.0161152
			c-0.1038465,0-0.184989,0.0229568-0.2437115,0.0687675c-0.0585384,0.0455551-0.0878763,0.1040564-0.0878763,0.1752167
			c0,0.0644722,0.0200815,0.1156149,0.0598269,0.153923c0.0401764,0.0384569,0.1013308,0.0666819,0.1839142,0.0847673
			l0.0963097,0.0254984c0.0348997,0.0068207,0.0608292,0.0175018,0.0777636,0.0330324
			c0.0168524,0.0151806,0.0253572,0.035224,0.0253572,0.0600147c0,0.0585728-0.0480623,0.0880299-0.1437244,0.0880299
			c-0.0530195,0-0.1004038-0.007865-0.141984-0.0236855c-0.0418911-0.0156717-0.0785093-0.0337486-0.1101551-0.0540094
			c-0.0145922,0.0089617-0.0265017,0.0216255-0.0354328,0.0379114c-0.0090427,0.0162811-0.0135298,0.0342178-0.0135298,0.0531559
			c0,0.0453081,0.0287275,0.0812187,0.0863409,0.1087952c0.0574341,0.026906,0.1312819,0.0404577,0.2214241,0.0404577
			c0.1117039,0,0.1968594-0.0223131,0.2554703-0.0668955c0.0586119-0.0444412,0.0880222-0.1063547,0.0880222-0.1855125
			c0-0.0653896-0.0211611-0.1187334-0.0628815-0.1599808C10.2765102,10.3873138,10.2100801,10.3559628,10.1186161,10.3346176z"/>
		<path id="u_00000164479934714622376930000001845750860825157259_" fill="#55575A" d="M11.9263792,9.990592
			c-0.0192194,0-0.0375528,0.0013561-0.0550537,0.0042772c-0.0176888,0.0028858-0.0307407,0.0053768-0.039916,0.0076456v0.3658457
			V10.45119v0.1879911c-0.0123148,0.0080757-0.0307112,0.0157518-0.0558605,0.0225191
			c-0.0246754,0.006938-0.0550241,0.0104456-0.0910721,0.0104456c-0.0553179,0-0.0983906-0.0131531-0.1294479-0.0396242
			c-0.0309963-0.0265703-0.046463-0.0702152-0.046463-0.1311417v-0.05019v-0.0828295v-0.2795525
			c0-0.037859-0.0089579-0.0637426-0.0270729-0.0777388c-0.0180855-0.0136089-0.0468855-0.0204773-0.0862045-0.0204773
			c-0.0202522,0-0.0391273,0.0013561-0.0558825,0.0042772c-0.0169334,0.0028858-0.0298109,0.0053768-0.03899,0.0076456v0.3658457
			V10.45119v0.0536242c0,0.0784044,0.0156412,0.1422253,0.0465574,0.1925201
			c0.03092,0.04986,0.0752897,0.0863714,0.1328983,0.1094046c0.0574265,0.0231714,0.1249352,0.0343246,0.2029161,0.0343246
			c0.0642042,0,0.1214933-0.0064373,0.1715956-0.0197725c0.0502634-0.0132055,0.0915451-0.0293179,0.1244402-0.0491648
			c0.0236816-0.014883,0.039711-0.0312519,0.0479174-0.0489473c0.008728-0.017951,0.0128822-0.0399542,0.0128822-0.0664511V10.45119
			v-0.0828295v-0.2795525c0-0.037859-0.009243-0.0637426-0.0271196-0.0777388
			C11.9946785,9.9974604,11.9657707,9.990592,11.9263792,9.990592z"/>
		<path id="n_00000058559689170333722190000015464196582761847993_" fill="#55575A" d="M10.8474503,9.990592
			c-0.0653172,0-0.1247139,0.0078917-0.1781301,0.0233402c-0.0535784,0.0154924-0.0973501,0.0349932-0.1312094,0.0578556
			c-0.022522,0.0149012-0.0394936,0.0313311-0.050827,0.0491552c-0.0112267,0.0178938-0.0168953,0.0406523-0.0168953,0.0681181
			v0.1913767v0.0844088v0.2777967c0,0.0366344,0.0092554,0.0621681,0.0280151,0.0765915
			c0.0186148,0.0143843,0.0471678,0.021616,0.0853691,0.021616c0.0202312,0,0.0389175-0.0015287,0.055707-0.0044212
			c0.0169973-0.0028105,0.0299854-0.0060158,0.0389986-0.0092688v-0.3623142v-0.0844088v-0.1776476
			c0.0214128-0.0116444,0.0459137-0.0217247,0.0736341-0.0300207c0.0273762-0.0087557,0.058898-0.0130033,0.0938272-0.0130033
			c0.047287,0,0.0851641,0.0118351,0.1131802,0.0352449c0.0281563,0.0236664,0.0425053,0.0607386,0.0425053,0.1111851v0.0742416
			v0.0844088v0.2777967c0,0.0366344,0.0093536,0.0621681,0.0277977,0.0765915
			c0.0186529,0.0143843,0.0477428,0.021616,0.0870152,0.021616c0.0191174,0,0.0377321-0.0015287,0.0550241-0.0044212
			c0.0176125-0.0028105,0.0302038-0.0060158,0.0382442-0.0092688v-0.3623142v-0.0844088v-0.0829067
			c0-0.101017-0.0318165-0.1774216-0.0956612-0.2290707C11.0502596,10.0165291,10.961483,9.990592,10.8474503,9.990592z"/>
		<path id="s_00000029004783846780162510000008785656538416756670_" fill="#55575A" d="M12.7170429,10.428462
			c-0.0416059-0.0411482-0.1080742-0.0724993-0.1994743-0.0938444l-0.0862598-0.0205126
			c-0.0349817-0.0077114-0.0598364-0.0186567-0.0744753-0.0321054c-0.0146351-0.0134916-0.0219412-0.0298071-0.0219412-0.0490398
			c0-0.0258875,0.0126123-0.0460844,0.0382271-0.0601387c0.0252552-0.0141401,0.0599041-0.0212126,0.1039486-0.0212126
			c0.0293465,0,0.0586462,0.0031271,0.0879583,0.0093031c0.0292311,0.0061293,0.0553827,0.0142298,0.0784416,0.0236349
			c0.0231781,0.0098572,0.0415068,0.0183668,0.0552464,0.0262203c0.0133419-0.0078535,0.0243168-0.019412,0.032711-0.0345764
			c0.008646-0.0152788,0.012763-0.0325451,0.012763-0.0518417c0-0.0281868-0.011982-0.0523291-0.0364017-0.0726624
			c-0.0241079-0.0204191-0.0577154-0.0356207-0.1005793-0.0465956c-0.0428638-0.0107317-0.091362-0.0161152-0.1454563-0.0161152
			c-0.1038122,0-0.1850481,0.0229568-0.243515,0.0687675c-0.0585775,0.0455551-0.0879879,0.1040564-0.0879879,0.1752167
			c0,0.0644722,0.0200481,0.1156149,0.060216,0.153923c0.0397797,0.0384569,0.1009073,0.0666819,0.1832647,0.0847673
			l0.0965614,0.0254984c0.0348024,0.0068207,0.0608339,0.0175018,0.077631,0.0330324
			c0.0171051,0.0151806,0.0253925,0.035224,0.0253925,0.0600147c0,0.0585728-0.0478878,0.0880299-0.1436605,0.0880299
			c-0.0531645,0-0.1003313-0.007865-0.1421204-0.0236855c-0.0418568-0.0156717-0.0783739-0.0337486-0.1099424-0.0540094
			c-0.0146685,0.0089617-0.0264711,0.0216255-0.0354033,0.0379114c-0.0090342,0.0162811-0.0134487,0.0342178-0.0134487,0.0531559
			c0,0.0453081,0.0286303,0.0812187,0.0859833,0.1087952c0.0575323,0.026906,0.1313887,0.0404577,0.2216759,0.0404577
			c0.1115236,0,0.196641-0.0223131,0.2554617-0.0668955c0.0585051-0.0444412,0.088026-0.1063547,0.088026-0.1855125
			C12.7798853,10.5230532,12.7588358,10.4697094,12.7170429,10.428462z"/>
	</g>
	<g id="Swiss_Cross_00000135649959173525841420000010385822899939584190_">
		<path fill="#E73842" d="M13.3500719,9.9805641c-0.2394714,0-0.4335279,0.1944151-0.4335279,0.4342022
			c0,0.2397223,0.1940565,0.4344959,0.4335279,0.4344959c0.2395391,0,0.4335957-0.1947737,0.4335957-0.4344959
			C13.7836676,10.1749792,13.5896111,9.9805641,13.3500719,9.9805641z"/>
		<path fill="#FFFFFF" d="M13.5433769,10.3311939h-0.1063566v-0.106637c0-0.0453796-0.0384512-0.0824375-0.0852613-0.0824375
			c-0.0473137,0-0.0855856,0.0370579-0.0855856,0.0824375v0.106637H13.159709c-0.0457392,0-0.0825377,0.0384874-0.0825377,0.0856571
			c0,0.0471334,0.0367985,0.0856209,0.0825377,0.0856209h0.1064644v0.1065722c0,0.0454445,0.0382719,0.082531,0.0855856,0.082531
			c0.0468102,0,0.0852613-0.0370865,0.0852613-0.082531v-0.1065722h0.1063566c0.0457678,0,0.0828972-0.0384874,0.0828972-0.0856209
			C13.6262741,10.3696814,13.5891447,10.3311939,13.5433769,10.3311939z"/>
	</g>
	<polygon id="Matterhorn_00000045603406000947974450000002873017794523620273_" fill="#C1C5C9" points="10.0690165,6.9404678 
		10.0564699,6.9242163 9.965024,6.8212085 9.8592968,6.6144586 9.8513002,6.1540785 9.0819263,4.7373767 8.1996384,3.8815415 
		7.6325088,3.4990747 7.3171725,3.7914119 6.6070871,5.0187101 5.9560099,5.3378248 5.8148541,6.1005902 5.5073757,6.3606443 
		5.53613,6.7507043 4.3673401,7.4105358 3.4714825,8.50669 5.5586147,6.7888155 5.8359499,6.0874181 6.6203618,5.0263033 
		7.3651557,4.5769925 8.2275181,4.7833457 7.6802273,5.6133885 7.6173525,6.7486901 7.6403956,6.8437371 7.6708407,6.7620754 
		8.1801233,5.8295321 9.0145388,6.093328 9.6849327,6.847846 9.0766144,6.1232252 9.0076809,6.0767088 9.0572081,6.1121449 
		9.0285854,6.0785098 8.2589626,4.764852 7.3309617,3.8065977 7.6459379,3.6458459 8.1857386,3.8959997 8.9848289,4.7919602 
		9.8240452,6.1564598 9.66014,6.5413451 9.0572081,6.1121449 9.6849327,6.847846 9.9291401,6.9248042 10.0260983,6.9473257 
		10.0893774,6.9645324 	"/>
	<path fill="#F2E500" d="M13.9182644,5.7013168c-0.0283556-0.0748949-0.0581827-0.1493721-0.0894947-0.2234082
		c-0.3186245-0.7533092-0.7747221-1.429821-1.3556223-2.0107257c-0.5809002-0.5809002-1.257412-1.0369978-2.0107355-1.3556273
		c-0.7800226-0.3299209-1.6085043-0.4972064-2.462419-0.4972064S6.3176003,1.7816347,5.5375781,2.1115556
		c-0.7533183,0.3186295-1.429821,0.7747271-2.0107305,1.3556273C2.9459474,4.0480876,2.4898498,4.7245994,2.1712248,5.4779086
		C1.8413041,6.2579403,1.6740185,7.0864182,1.6740185,7.9403324c0,0.8539104,0.1672856,1.6823921,0.4972063,2.46241
		c0.318625,0.7533283,0.7747226,1.4298353,1.3556228,2.0107355c0.5809095,0.5809002,1.2574122,1.0370026,2.0107305,1.3556271
		c0.7800221,0.3299208,1.6085,0.4972162,2.4624147,0.4972162s1.6823964-0.1672955,2.462419-0.4972162
		c0.7533236-0.3186245,1.4298353-0.7747269,2.0107355-1.3556271c0.2993374-0.2993374,0.5654926-0.6240978,0.7967939-0.9716587
		c0.0883255-0.13272-0.0069838-0.3104057-0.1664085-0.3104057c-0.0667448,0-0.1290207,0.0333815-0.1660366,0.0889196
		c-0.7706985,1.1563425-1.9366016,2.0275164-3.3029823,2.4199362l-0.1425495-0.5412626
		c-0.0488453-0.1854591-0.2326756-0.3041124-0.4209051-0.2673521c-0.5183687,0.1012411-1.0359812,0.1203384-1.5386686,0.0663233
		c-0.011138-0.0012255-0.0223041-0.0022049-0.0334282-0.0035038c-0.0401115-0.0045767-0.0799718-0.0102797-0.1198792-0.0157795
		c-0.0313768-0.0044088-0.0628095-0.0084839-0.0940847-0.0134583c-0.0193524-0.0030451-0.0385609-0.0066557-0.0578623-0.0099087
		c-0.0504003-0.0086136-0.1007771-0.0173473-0.150866-0.027441c-0.0001302-0.0000286-0.0002599-0.0000515-0.0003853-0.0000744
		c-1.3900905-0.2801247-2.6532292-1.1266975-3.4239142-2.4213428c-0.0983498-0.1652107-0.3090508-0.2242947-0.4802904-0.1368599
		l-0.5058477,0.2582884c-0.3734803-0.7668047-0.58672-1.6254387-0.5950503-2.5322366
		C2.0407186,4.7230959,4.7272973,2.0108576,8.0000019,2.0108621c2.530756,0,4.6962843,1.5937142,5.5456924,3.8302243
		c0.0294275,0.0774841,0.1032829,0.1290073,0.1861639,0.1290073C13.8707466,5.9700937,13.9674397,5.8312058,13.9182644,5.7013168z"
		/>
	<g>
		<path id="E_00000163785706318467350510000010184092335997522333_" fill="#55575A" d="M13.4270096,8.6114721
			c0.0628357,0.0018692,0.1075716-0.0107698,0.1479645-0.0445213c0.0405722-0.0343256,0.0649529-0.088541,0.0669289-0.1485758
			c0.0129595-0.2738104-0.0895834-0.5626993-0.2813168-0.792563c-0.2312622-0.277617-0.5643883-0.4368906-0.914032-0.4370704
			c-0.2797346,0-0.5577784,0.1043043-0.7800312,0.2908645l0,0c-0.3174353,0.2675643-0.4769268,0.6674743-0.4266949,1.0698962
			c0.0639105,0.6472187,0.6118536,1.1169987,1.302846,1.1169987c0.4370327,0,0.837245-0.2781487,0.9842749-0.4772053l0,0
			c0.0227985-0.033679,0.0393734-0.0793924,0.0393734-0.1193905c0-0.1096516-0.0887556-0.1988392-0.1978741-0.1988392
			c-0.0555086,0-0.1089687,0.0245571-0.147171,0.0675001l-0.0194969,0.021903
			c-0.0908041,0.1026878-0.3382969,0.3414555-0.67451,0.3414555c-0.451539,0-0.7972689-0.2565765-0.9042301-0.6702003
			c0,0-0.0050936-0.0194559-0.0051661-0.0196714L13.4270096,8.6114721z M11.6179581,8.2563353
			c0.0411472-0.185339,0.1460447-0.3559961,0.2966318-0.4825974l0.0002489-0.0002146
			c0.0068588-0.0061045,0.0311317-0.024128,0.0311317-0.024128c0.367342-0.2831469,0.8593121-0.2387676,1.1441793,0.1031208
			c0.1043768,0.1247325,0.1649141,0.2715816,0.1671047,0.4045019L11.6179581,8.2563353z"/>
		<path id="E_00000075879076061397672790000005505851915857973679_" fill="#55575A" d="M8.2538939,8.6112366
			c0.0628347,0.0018682,0.1075706-0.0107698,0.1479635-0.0445223c0.0405731-0.0343256,0.0649529-0.0885401,0.0669289-0.1485758
			C8.4817467,8.1443281,8.3792038,7.8554397,8.1874695,7.625576c-0.2312613-0.2776175-0.5643873-0.4368906-0.914031-0.4370704
			c-0.2797351,0-0.5577784,0.1043038-0.7800317,0.2908645l0,0C6.175971,7.7469339,6.0164804,8.1468439,6.0667114,8.5492659
			C6.1306229,9.1964846,6.678566,9.6662655,7.3695579,9.6662655c0.4370322,0,0.8372455-0.2781487,0.9842744-0.4772062l0,0
			c0.0227985-0.033679,0.0393734-0.0793915,0.0393734-0.1193905c0-0.1096506-0.0887556-0.1988392-0.1978731-0.1988392
			c-0.0555086,0-0.1089697,0.0245571-0.147171,0.0675011L8.0286636,8.9602327
			c-0.0908041,0.1026878-0.3382959,0.3414555-0.674509,0.3414555c-0.4515395,0-0.7972689-0.2565765-0.9042306-0.6702003
			c0,0-0.0050936-0.0194559-0.0051661-0.0196705L8.2538939,8.6112366z M6.4448419,8.2560987
			c0.0411472-0.185339,0.1460447-0.3559961,0.2966313-0.4825969l0.0002494-0.0002146
			c0.0068588-0.0061045,0.0311317-0.024128,0.0311317-0.024128c0.367342-0.2831473,0.8593121-0.2387676,1.1441793,0.1031203
			C8.02141,7.9770122,8.0819473,8.1238623,8.0841379,8.2567825L6.4448419,8.2560987z"/>
		<path fill="#55575A" d="M13.9777699,6.3891649L13.9777699,6.3891649c-0.1272011,0-0.2220211,0.1178765-0.1939535,0.2419419
			c0.0953159,0.4213195,0.1456432,0.8595076,0.1456432,1.3092284c0,0.5087471-0.0644789,1.0027027-0.1855831,1.4741964
			c-0.0323524,0.1259565,0.0624409,0.2486172,0.1924858,0.2486172h0.000001c0.0911407,0,0.1703176-0.0620232,0.192934-0.1503143
			c0.130724-0.5103464,0.1966867-1.0364094,0.1966867-1.5724993c0-0.4741645-0.0516424-0.9404716-0.1540222-1.3950071
			C14.1514463,6.4542451,14.0711355,6.3891649,13.9777699,6.3891649z"/>
		<path fill="#55575A" d="M10.8856258,6.3891649c-0.1073904,0-0.1947479,0.0896897-0.1947479,0.1999559v0.9486957
			c-0.0672426-0.0665812-0.1419945-0.1252937-0.2228651-0.1746821c-0.0050774-0.0031476-0.0102158-0.006186-0.0153408-0.009253
			c-0.0049038-0.0029345-0.009901-0.0057063-0.0148487-0.0085659C10.366312,7.3039808,10.29035,7.2704039,10.2107811,7.2451024
			c-0.0015621-0.0004973-0.0031013-0.0010519-0.0046673-0.0015421c-0.007122-0.0022321-0.0142651-0.0044069-0.0214424-0.0065069
			C10.1700096,7.2327638,10.1552935,7.2286,10.1404095,7.2248631c-0.0016603-0.0004168-0.0033216-0.0008321-0.0049849-0.0012412
			C10.0423841,7.2003379,9.9451675,7.187901,9.845089,7.187901c-0.0017481,0-0.0034847,0.0000601-0.0052309,0.0000677
			C9.8389082,7.1879673,9.8379736,7.187901,9.8370237,7.187901c-0.6765575,0-1.2065506,0.5442815-1.2065506,1.2390428
			c0,0.6948309,0.5299931,1.2390766,1.2065506,1.2390766c0.0013752,0,0.0027428-0.0000467,0.004118-0.0000505
			C9.8424606,9.6659737,9.8437691,9.6660204,9.845089,9.6660204c0.6027422,0,1.1028461-0.4479294,1.1981325-1.035264
			c0.0227375-0.1107178,0.036973-0.2361193,0.036973-0.3773785v-1.664257
			C11.0801945,6.4751205,10.9965363,6.3891649,10.8856258,6.3891649z M8.9742765,8.4241562
			c0-0.4808168,0.3897791-0.8705959,0.8705959-0.8705959s0.870595,0.3897791,0.870595,0.8705959
			s-0.3897781,0.8705959-0.870595,0.8705959S8.9742765,8.904973,8.9742765,8.4241562z"/>
	</g>
	<path fill-rule="evenodd" clip-rule="evenodd" fill="#FFFFFF" d="M6.422811,13.2087936
		c0.0371828,0.1313553-0.039598,0.2683649-0.1713042,0.3050718c-0.1322246,0.0377436-0.2689552-0.0388403-0.305768-0.1702967
		c-0.0368938-0.1322165,0.0393467-0.2690973,0.1715813-0.3066788C6.2489886,13.0002632,6.3859534,13.0771675,6.422811,13.2087936"/>
	<g>
		<path fill="#FFFFFF" d="M3.3301713,11.4013462c-0.0178955-0.0086136-0.0358648-0.0189352-0.053983-0.0313358
			c-0.0181923-0.0123262-0.0352707-0.030221-0.051384-0.0535364c-0.0315208-0.0456667-0.0426962-0.0907393-0.0335629-0.1354399
			c0.0091333-0.044776,0.039726-0.0850954,0.0917783-0.1209602c0.034157-0.0235386,0.0670516-0.0380182,0.0986097-0.0432901
			c0.0315208-0.0052719,0.0608885-0.0016336,0.087954,0.0109148c0.0271029,0.0126238,0.0506043,0.0332661,0.0704303,0.0620022
			c0.0161502,0.0233908,0.026583,0.0460377,0.0313723,0.068017c0.0047894,0.0219049,0.0071657,0.0429192,0.0073512,0.0628195
			c0.0110269,0.0043812,0.0234272,0.0066824,0.0371642,0.0068312c0.0137372,0.0002232,0.0268059-0.0040092,0.0392807-0.0126228
			c0.0151849-0.0104704,0.0245781-0.0261374,0.0281422-0.0470772c0.0036385-0.0208654,0.0009654-0.0454435-0.0078337-0.0738831
			c-0.0087991-0.0283651-0.0242441-0.0585871-0.0463717-0.0905905c-0.0318551-0.0461864-0.0709872-0.0813828-0.1172476-0.1055155
			c-0.0463345-0.0240583-0.096679-0.0341568-0.150996-0.0299988c-0.0543911,0.004159-0.1097107,0.025692-0.1661811,0.0645275
			c-0.0596633,0.0411367-0.1007259,0.0862093-0.1232247,0.1352911c-0.0224619,0.049305-0.029479,0.0998716-0.021014,0.1521463
			c0.0084648,0.0522757,0.029182,0.1022482,0.0621507,0.1499939c0.0187864,0.0271769,0.0371642,0.048562,0.055171,0.06423
			c0.0179694,0.0155935,0.0332658,0.0266571,0.0458148,0.0333405c0.0158904,0.0089846,0.0304072,0.0132914,0.0435872,0.0126972
			c0.0131431-0.0006685,0.0250981-0.0048265,0.0360134-0.0122519c0.0124376-0.0086136,0.0216823-0.018712,0.0275855-0.0304441
			S3.3298743,11.4135981,3.3301713,11.4013462z"/>
		<path fill="#FFFFFF" d="M3.7197599,11.4486923l0.0932868-0.0747461c0.0216079-0.0173016,0.0323005-0.0339336,0.0321891-0.0498247
			c-0.0001857-0.0160389-0.0091333-0.0350475-0.0268428-0.0571012c-0.0082796-0.0103216-0.0174499-0.0200491-0.027437-0.0294046
			c-0.0099874-0.0092821-0.0175612-0.0161133-0.022759-0.0204945l-0.2906682,0.2328615l0.0000045,0.0000095l-0.1279817,0.1025352
			c-0.0205314,0.0164108-0.0311496,0.0326719-0.0317066,0.0487852c-0.0005569,0.0160389,0.0084279,0.0357904,0.0270286,0.0589581
			c0.0086877,0.010767,0.0177467,0.0207911,0.0273254,0.0300732c0.0095789,0.0092077,0.0169301,0.0155935,0.0221651,0.0190086
			L3.7197833,11.44872L3.7197599,11.4486923z"/>
		<path fill="#FFFFFF" d="M4.1063137,11.7904387c0.0111752,0.0121031,0.0237985,0.0182667,0.0377955,0.0182667
			c0.0139599,0.0001478,0.0286989-0.0069799,0.0442181-0.021163c0.008688-0.0080938,0.0158162-0.0169296,0.0213113-0.0264349
			c0.0054946-0.0096521,0.009059-0.0178947,0.010767-0.0247259l-0.1122079-0.121397l0.0000095-0.0000086l-0.1820714-0.1970711
			c-0.0107667-0.0115099-0.0230188-0.0175238-0.036793-0.0178957c-0.0137742-0.0002966-0.028625,0.0069056-0.0445526,0.0216827
			c-0.0087249,0.0080938-0.0160017,0.0167074-0.0217192,0.0259886c-0.0056806,0.0093565-0.0091333,0.0177469-0.0103958,0.0251722
			l0.1068242,0.1155348l-0.3041918,0.280612c-0.0193803,0.0178213-0.0287735,0.0348253-0.0282166,0.051012
			c0.0005939,0.0161133,0.0108781,0.0349741,0.0310383,0.0568047c0.0094302,0.0101728,0.0191946,0.0195293,0.0294046,0.0281429
			c0.0101357,0.0085392,0.0181923,0.0146275,0.0241325,0.0180435l0.3506796-0.3234282L4.1063137,11.7904387z"/>
		<path fill="#FFFFFF" d="M4.3962765,12.2961102c0.0368671-0.0090599,0.0684252-0.0282917,0.0947857-0.0576963
			c0.0425477-0.0476713,0.0595145-0.1002426,0.0508642-0.1578646c-0.0087252-0.057621-0.0462604-0.1161327-0.1127181-0.1754627
			c-0.023613-0.021162-0.0474486-0.0401716-0.0715809-0.0573235c-0.0241327-0.0171528-0.0468917-0.0299253-0.0684257-0.038538
			c-0.0114722-0.0049753-0.0223503-0.0072031-0.0326347-0.0066833c-0.0102468,0.0005941-0.0195289,0.0054951-0.0278454,0.0148506
			l-0.2297795,0.2569942l0.0000093,0.0000095l-0.0914905,0.102313c-0.0175984,0.0196772-0.0253208,0.0374241-0.0232046,0.053463
			c0.0020792,0.0158901,0.0141826,0.0337858,0.0363104,0.0536118c0.0103214,0.0092068,0.0209768,0.0175982,0.0319293,0.0251722
			c0.0109525,0.0075731,0.0193062,0.0126228,0.0250237,0.0150728l0.1336577-0.1494551l0.0542288,0.0484095L4.138206,12.4013281
			c-0.00349,0.0207167-0.0040469,0.0394287-0.001708,0.0560617c0.0023761,0.0167074,0.0126233,0.0331917,0.03089,0.0494537
			c0.0142198,0.0126972,0.0306668,0.0200481,0.0492678,0.0220528c0.0185261,0.0020056,0.0366073-0.0023756,0.0541682-0.0130682
			c0.002079-0.013217,0.0040841-0.0297756,0.0059404-0.0496759c0.0018935-0.0199747,0.0036383-0.041954,0.0053463-0.0660868
			c0.0016336-0.0241327,0.0032301-0.0492306,0.0047522-0.0752192c0.0006356-0.0105677,0.0017867-0.0211067,0.0026174-0.0316696
			C4.3261433,12.3029318,4.3618641,12.3045053,4.3962765,12.2961102z M4.2361474,12.1299286l-0.0480056-0.0428448
			l0.1132379-0.1266775c0.0076852,0.0042324,0.0152221,0.0092077,0.0225363,0.0148506
			c0.0073509,0.0057182,0.0152221,0.0122519,0.0235753,0.0197515c0.0295162,0.0263605,0.0465207,0.0514584,0.0509014,0.0752201
			c0.0044184,0.0238352-0.0028214,0.0462599-0.0216823,0.0674229c-0.0193429,0.021533-0.0414338,0.0311127-0.066309,0.0288105
			C4.2854891,12.1641598,4.2607255,12.1519079,4.2361474,12.1299286z"/>
		<path fill="#FFFFFF" d="M4.883347,12.721364l0.1683345-0.2330103c0.0161505-0.0224247,0.0219421-0.0413589,0.0173011-0.0568781
			c-0.0046778-0.0155935-0.0184889-0.0316324-0.0415077-0.0482655c-0.0101728-0.0072775-0.0213113-0.0141087-0.0334144-0.0204945
			c-0.0121779-0.0063114-0.021534-0.0110636-0.0282168-0.0142565l-0.2053127,0.2842445l0,0l-0.0173388,0.0239849
			c-0.0211992,0.0294046-0.0458889,0.0462599-0.0739942,0.0507898c-0.0280681,0.004529-0.0549483-0.0025988-0.0806403-0.0210886
			c-0.0256548-0.0184889-0.0407653-0.0418797-0.045332-0.0699472c-0.0045667-0.0280685,0.0037498-0.0567303,0.0249863-0.0860605
			l0.0286207-0.0396423l0.1570148-0.2173519c0.0161877-0.0224247,0.0219793-0.0414343,0.0173388-0.056879
			c-0.0046411-0.0155935-0.0184522-0.0317059-0.041471-0.0483389c-0.0106926-0.0076485-0.0219793-0.0146284-0.0338602-0.0207176
			c-0.0118432-0.0060883-0.0211253-0.0108404-0.027771-0.0140333L4.463922,12.4161043l0.0000138,0.0000095l-0.0208421,0.028801
			c-0.0273628,0.0379448-0.0428448,0.077076-0.0464458,0.1174707c-0.0036016,0.0404682,0.0045667,0.0798979,0.0245037,0.1182127
			c0.0199375,0.0383892,0.0518293,0.0733633,0.0957136,0.1050701c0.0438471,0.0316315,0.087286,0.051012,0.1302419,0.0580664
			c0.0429564,0.0070543,0.082942,0.00245,0.1199579-0.0138855c0.0370531-0.0162621,0.069242-0.0434389,0.0966048-0.081234
			l0.0196543-0.0272655L4.883347,12.721364z"/>
		<path fill="#FFFFFF" d="M5.4834328,12.6992359c-0.0074997-0.0207167-0.0221276-0.0415077-0.0438843-0.0625219
			c-0.0217562-0.0210142-0.0489335-0.0408401-0.0814195-0.0597c-0.0640073-0.0371275-0.1220741-0.0521269-0.1742377-0.0450726
			s-0.0918899,0.0342312-0.1192894,0.0814571c-0.0178213,0.0308151-0.0261374,0.0599232-0.024838,0.0873222
			c0.0012994,0.0273256,0.0101728,0.0542059,0.0266199,0.080492c0.0164475,0.0261374,0.0370903,0.0533886,0.0620022,0.0815315
			l0.0369787,0.0408392c0.0165586,0.018712,0.0276971,0.0354939,0.0333033,0.0501213
			c0.0056062,0.0147028,0.0042696,0.0291824-0.0039725,0.0433645c-0.0089107,0.0153713-0.0232787,0.0247269-0.043179,0.0280685
			c-0.0198259,0.0033417-0.0451837-0.0039358-0.0759993-0.0218306c-0.0291448-0.0167818-0.0523491-0.0369787-0.0697246-0.0603685
			c-0.0173755-0.0233164-0.0300732-0.0457411-0.0382409-0.067275c-0.0138488-0.0011139-0.0282168,0.0010395-0.043179,0.0064602
			c-0.0149622,0.0053463-0.0267687,0.0154448-0.0353079,0.0302963c-0.0109153,0.0187864-0.0123262,0.0400229-0.0043068,0.0637102
			c0.0080566,0.0236864,0.023613,0.0471506,0.0467062,0.0703926c0.0231671,0.0233154,0.0520892,0.0450726,0.0869517,0.0652695
			c0.0702443,0.0406914,0.1325436,0.0568047,0.1870461,0.0484877c0.0543542-0.0084648,0.0954909-0.0365324,0.1232252-0.0844269
			c0.0257292-0.0444784,0.0323377-0.0879908,0.01964-0.1306877c-0.0126233-0.0427704-0.0402827-0.0871-0.0830159-0.1331377
			l-0.0386124-0.0418787c-0.0149994-0.0162621-0.0250239-0.0306673-0.0299988-0.0429935
			c-0.005012-0.012475-0.0042324-0.0243559,0.0023761-0.0357161c0.0082421-0.0142574,0.0217566-0.0219049,0.040617-0.0227222
			c0.0187864-0.0008907,0.0418797,0.006609,0.0693536,0.0224991c0.0262117,0.0151482,0.0482655,0.0323009,0.0661979,0.0515327
			c0.0178952,0.019083,0.0308151,0.0370531,0.0386863,0.0536852c0.0130687-0.0014849,0.0253949-0.0051231,0.036756-0.0110636
			c0.011435-0.0060892,0.0209394-0.0155191,0.0285134-0.0286617C5.4894476,12.7391109,5.4908586,12.7198792,5.4834328,12.6992359z"
			/>
	</g>
	<path fill="#FFFFFF" d="M7.2723289,13.4199524c-0.0368299-0.1315784-0.1741261-0.2084312-0.3060017-0.172121
		c-0.1315041,0.0373497-0.20858,0.1750908-0.1718245,0.3071156c0.0178213,0.0636358,0.0594778,0.1165047,0.1171732,0.1487312
		c0.0374246,0.0209398,0.0785613,0.031558,0.1202922,0.031558c0.0229445,0,0.0460377-0.0032673,0.0687594-0.0097275
		c0.0637102-0.0177469,0.1167274-0.0594034,0.1491766-0.1171732S7.2902985,13.4836626,7.2723289,13.4199524z"/>
	<g>
		<g>
			<path fill="#FFFFFF" d="M8.7310734,13.7720308c-0.0417309,0-0.0828676-0.0106182-0.1202917-0.031558
				c-0.0576963-0.0322266-0.0993528-0.0850954-0.1171732-0.1487312C8.456852,13.4597178,8.5339279,13.3219757,8.665432,13.284626
				c0.131876-0.0363102,0.2691717,0.0405426,0.3060017,0.172122c0.0179701,0.0637093,0.010025,0.1306124-0.0224247,0.1883821
				c-0.0324488,0.0577698-0.0854664,0.0994272-0.1491766,0.1171732C8.7771111,13.7687635,8.7540178,13.7720308,8.7310734,13.7720308
				z M8.7320385,13.2985115c-0.0199747,0-0.040246,0.0026731-0.0604429,0.0082426
				c-0.1192522,0.0338602-0.1892738,0.1589785-0.1558599,0.2787504c0.0161877,0.0577698,0.0539083,0.1056633,0.1062584,0.1349201
				c0.0525713,0.0293303,0.1134605,0.0365324,0.1715269,0.0197515c0.0579185-0.0161133,0.1060352-0.0538349,0.1354399-0.1063318
				c0.029479-0.0524235,0.0366812-0.1130896,0.0203457-0.1708593l0,0
				C8.9215355,13.3637066,8.8306484,13.2985115,8.7320385,13.2985115z"/>
		</g>
	</g>
	<path fill="#FFFFFF" d="M8.1218815,13.4981518c-0.0368309-0.1315794-0.1741266-0.2084322-0.3060021-0.172122
		c-0.1315041,0.0373497-0.20858,0.1750917-0.1718245,0.3071156c0.0178213,0.0636358,0.0594778,0.1165047,0.1171732,0.1487312
		c0.0374241,0.0209398,0.0785613,0.031558,0.1202922,0.031558c0.0229445,0,0.0460377-0.0032673,0.0687594-0.0097275
		c0.0637097-0.017746,0.1167274-0.0594034,0.1491761-0.1171732C8.1319056,13.6287642,8.1398506,13.561861,8.1218815,13.4981518z"/>
</g>
</svg>
