<?xml version="1.0" encoding="utf-8"?>
<!-- Generator: Adobe Illustrator 27.5.0, SVG Export Plug-In . SVG Version: 6.00 Build 0)  -->
<svg version="1.1" id="Ebene_1" xmlns="http://www.w3.org/2000/svg" xmlns:xlink="http://www.w3.org/1999/xlink" x="0px" y="0px"
	 viewBox="0 0 32 16" style="enable-background:new 0 0 32 16;" xml:space="preserve">
<style type="text/css">
	.st0{fill:#E53E50;}
	.st1{fill:#FFFFFF;}
	.st2{fill:#2B2523;}
</style>
<path id="XMLID_1689_" class="st0" d="M8,13.5c1.1,0,0.9,1.9,1.8,1.9c1.2,0,0.7-1.7,1.7-1.7s1.2,1.7,2.3,1.7c0.6,0,0.7-0.7,0.7-1.3
	c0-1,0-2.8,0-6.9c0-3.6-2.9-6.5-6.5-6.5S1.5,3.5,1.5,7.1c0,4.1,0,5.9,0,6.9c0,0.6,0.1,1.3,0.7,1.3c1,0,1.3-1.7,2.3-1.7
	s0.5,1.7,1.7,1.7C7.1,15.4,6.9,13.5,8,13.5z"/>
<circle id="XMLID_1688_" class="st1" cx="5.4" cy="7.8" r="1.8"/>
<circle id="XMLID_1687_" class="st1" cx="10.6" cy="7.8" r="1.8"/>
<path id="XMLID_1150_" class="st2" d="M6.3,8.6c0,0.5-0.4,0.9-0.9,0.9S4.5,9.1,4.5,8.6s0.4-0.9,0.9-0.9C5.9,7.6,6.3,8.1,6.3,8.6z"/>
<path id="XMLID_1149_" class="st2" d="M11.6,8.6c0,0.5-0.4,0.9-0.9,0.9s-1-0.4-1-0.9s0.4-0.9,0.9-0.9S11.6,8.1,11.6,8.6z"/>
<path id="XMLID_00000019639814813071695620000012252871042102929806_" class="st0" d="M24,14.4c1.1,0,0.9,0.9,1.8,0.9
	c1.2,0,1.1-0.9,2.1-0.9s0.9,0.9,1.9,0.9c0.6,0,0.7-0.7,0.7-1.3c0-1,0-2.8,0-6.9c0-3.6-2.9-6.5-6.5-6.5s-6.5,2.9-6.5,6.5
	c0,4.1,0,5.9,0,6.9c0,0.6,0.1,1.3,0.7,1.3c1,0,1.1-0.9,2.1-0.9s0.7,0.9,1.9,0.9C23.1,15.4,22.9,14.4,24,14.4z"/>
<circle id="XMLID_00000165235161923665892550000006595643786141257647_" class="st1" cx="21.4" cy="7.8" r="1.8"/>
<circle id="XMLID_00000012462169418684369130000005416559335999089318_" class="st1" cx="26.6" cy="7.8" r="1.8"/>
<path id="XMLID_00000094602698256458474820000004804925475477524616_" class="st2" d="M22.3,8.6c0,0.5-0.4,0.9-0.9,0.9
	s-0.9-0.4-0.9-0.9s0.4-0.9,0.9-0.9C21.9,7.6,22.3,8.1,22.3,8.6z"/>
<path id="XMLID_00000098932860938777139630000010590097330185621918_" class="st2" d="M27.6,8.6c0,0.5-0.4,0.9-0.9,0.9
	s-0.9-0.4-0.9-0.9s0.4-0.9,0.9-0.9C27.2,7.6,27.6,8.1,27.6,8.6z"/>
</svg>
