<?xml version="1.0" encoding="utf-8"?>
<!-- Generator: Adobe Illustrator 27.5.0, SVG Export Plug-In . SVG Version: 6.00 Build 0)  -->
<svg version="1.1" id="Ebene_1" xmlns="http://www.w3.org/2000/svg" xmlns:xlink="http://www.w3.org/1999/xlink" x="0px" y="0px"
	 viewBox="0 0 32 16" style="enable-background:new 0 0 32 16;" xml:space="preserve">
<style type="text/css">
	.st0{fill:#E53E50;}
	.st1{fill:#FFFFFF;}
	.st2{fill:#E43C50;}
	.st3{fill:#2B2523;}
</style>
<path id="XMLID_00000019639814813071695620000012252871042102929806_" class="st0" d="M24,14.4c1.1,0,0.9,0.9,1.8,0.9
	c1.2,0,1.1-0.9,2.1-0.9s0.9,0.9,1.9,0.9c0.6,0,0.7-0.7,0.7-1.3c0-1,0-2.8,0-6.9c0-3.6-2.9-6.5-6.5-6.5s-6.5,2.9-6.5,6.5
	c0,4.1,0,5.9,0,6.9c0,0.6,0.1,1.3,0.7,1.3c1,0,1.1-0.9,2.1-0.9s0.7,0.9,1.9,0.9C23.1,15.4,22.9,14.4,24,14.4z"/>
<g>
	<path class="st1" d="M11.3,6.2L8.8,7.6c0,0.1,0,0.1,0,0.2c0,1,0.8,1.8,1.8,1.8c1,0,1.8-0.8,1.8-1.8C12.4,7.1,12,6.4,11.3,6.2z"/>
</g>
<path id="XMLID_00000004531892320119892870000004090435808595458981_" class="st2" d="M8,13.5c1.1,0,0.9,1.9,1.8,1.9
	c1.2,0,0.7-1.7,1.7-1.7s1.2,1.7,2.3,1.7c0.6,0,0.7-0.7,0.7-1.3c0-1,0-2.8,0-6.9c0-3.6-2.9-6.5-6.5-6.5S1.5,3.5,1.5,7.1
	c0,4.1,0,5.9,0,6.9c0,0.6,0.1,1.3,0.7,1.3c1,0,1.3-1.7,2.3-1.7s0.5,1.7,1.7,1.7C7.1,15.4,6.9,13.5,8,13.5z"/>
<g>
	<path class="st1" d="M11.3,6.2L8.8,7.6c0,0.1,0,0.1,0,0.2c0,1,0.8,1.8,1.8,1.8c1,0,1.8-0.8,1.8-1.8C12.4,7.1,12,6.4,11.3,6.2z"/>
</g>
<g>
	<path class="st1" d="M4.7,6.2l2.5,1.5c0,0.1,0,0.1,0,0.2c0,1-0.8,1.8-1.8,1.8c-1,0-1.8-0.8-1.8-1.8C3.6,7.1,4,6.4,4.7,6.2z"/>
</g>
<g>
	<path class="st1" d="M4.7,6.2l2.5,1.5c0,0.1,0,0.1,0,0.2c0,1-0.8,1.8-1.8,1.8c-1,0-1.8-0.8-1.8-1.8C3.6,7.1,4,6.4,4.7,6.2z"/>
</g>
<rect x="4.1" y="6" transform="matrix(-0.866 -0.5 0.5 -0.866 7.8828 14.5876)" class="st3" width="3.6" height="0.5"/>
<rect id="XMLID_00000182486528025089306790000007017487195479615647_" x="8.2" y="6" transform="matrix(0.866 -0.5 0.5 0.866 -1.7796 5.8347)" class="st3" width="3.6" height="0.5"/>
<path id="XMLID_00000083071322119493331400000005889733935067692479_" class="st3" d="M6.3,8.6c0,0.5-0.4,0.9-0.9,0.9
	S4.5,9.1,4.5,8.6s0.4-0.9,0.9-0.9C5.9,7.6,6.3,8.1,6.3,8.6z"/>
<path id="XMLID_00000008839916752096231460000000257102609162097328_" class="st3" d="M11.6,8.7c0,0.5-0.4,0.9-0.9,0.9s-1-0.4-1-0.9
	s0.4-0.9,0.9-0.9S11.6,8.2,11.6,8.7z"/>
<g>
	<path class="st1" d="M27.3,6.2l-2.5,1.5c0,0.1,0,0.1,0,0.2c0,1,0.8,1.8,1.8,1.8c1,0,1.8-0.8,1.8-1.8C28.4,7.1,28,6.4,27.3,6.2z"/>
</g>
<g>
	<path class="st1" d="M27.3,6.2l-2.5,1.5c0,0.1,0,0.1,0,0.2c0,1,0.8,1.8,1.8,1.8c1,0,1.8-0.8,1.8-1.8C28.4,7.1,28,6.4,27.3,6.2z"/>
</g>
<g>
	<path class="st1" d="M20.7,6.2l2.5,1.5c0,0.1,0,0.1,0,0.2c0,1-0.8,1.8-1.8,1.8c-1,0-1.8-0.8-1.8-1.8C19.6,7.1,20,6.4,20.7,6.2z"/>
</g>
<g>
	<path class="st1" d="M20.7,6.2l2.5,1.5c0,0.1,0,0.1,0,0.2c0,1-0.8,1.8-1.8,1.8c-1,0-1.8-0.8-1.8-1.8C19.6,7.1,20,6.4,20.7,6.2z"/>
</g>
<rect x="20.1" y="6" transform="matrix(-0.866 -0.5 0.5 -0.866 37.7392 22.5877)" class="st3" width="3.6" height="0.5"/>
<rect id="XMLID_00000083076745964736098860000016605920104657780097_" x="24.2" y="6" transform="matrix(0.866 -0.5 0.5 0.866 0.364 13.8347)" class="st3" width="3.6" height="0.5"/>
<path id="XMLID_00000002366173279619336890000009390766111985823371_" class="st3" d="M22.3,8.6c0,0.5-0.4,0.9-0.9,0.9
	s-0.9-0.4-0.9-0.9c0-0.5,0.4-0.9,0.9-0.9C21.9,7.6,22.3,8.1,22.3,8.6z"/>
<path id="XMLID_00000114778304805625124720000013692560126013319048_" class="st3" d="M27.6,8.7c0,0.5-0.4,0.9-0.9,0.9s-1-0.4-1-0.9
	s0.4-0.9,0.9-0.9S27.6,8.2,27.6,8.7z"/>
</svg>
