<?xml version="1.0" encoding="utf-8"?>
<!-- Generator: Adobe Illustrator 27.5.0, SVG Export Plug-In . SVG Version: 6.00 Build 0)  -->
<svg version="1.1" id="Ebene_1" xmlns="http://www.w3.org/2000/svg" xmlns:xlink="http://www.w3.org/1999/xlink" x="0px" y="0px"
	 viewBox="0 0 32 16" enable-background="new 0 0 32 16" xml:space="preserve">
<path id="XMLID_00000019639814813071695620000012252871042102929806_" fill="#E53E50" d="M24,14.4c1.1,0,0.9,0.9,1.8,0.9
	c1.2,0,1.1-0.9,2.1-0.9s0.9,0.9,1.9,0.9c0.6,0,0.7-0.7,0.7-1.3c0-1,0-2.8,0-6.9c0-3.6-2.9-6.5-6.5-6.5s-6.5,2.9-6.5,6.5
	c0,4.1,0,5.9,0,6.9c0,0.6,0.1,1.3,0.7,1.3c1,0,1.1-0.9,2.1-0.9s0.7,0.9,1.9,0.9C23.1,15.4,22.9,14.4,24,14.4z"/>
<path id="XMLID_00000004531892320119892870000004090435808595458981_" fill="#E43C50" d="M8,13.5c1.1,0,0.9,1.9,1.8,1.9
	c1.2,0,0.7-1.7,1.7-1.7s1.2,1.7,2.3,1.7c0.6,0,0.7-0.7,0.7-1.3c0-1,0-2.8,0-6.9c0-3.6-2.9-6.5-6.5-6.5S1.5,3.5,1.5,7.1
	c0,4.1,0,5.9,0,6.9c0,0.6,0.1,1.3,0.7,1.3c1,0,1.3-1.7,2.3-1.7s0.5,1.7,1.7,1.7C7.1,15.4,6.9,13.5,8,13.5z"/>
<g>
	<path fill="#FFFFFF" d="M27.3,6.2l-2.5,1.5c0,0.1,0,0.1,0,0.2c0,1,0.8,1.8,1.8,1.8c1,0,1.8-0.8,1.8-1.8C28.4,7.1,28,6.4,27.3,6.2z"
		/>
</g>
<g id="XMLID_00000091008905171186774670000000651510832010185623_">
	<path fill="#FFFFFF" d="M27.3,6.2l-2.5,1.5c0,0.1,0,0.1,0,0.2c0,1,0.8,1.8,1.8,1.8c1,0,1.8-0.8,1.8-1.8C28.4,7.1,28,6.4,27.3,6.2z"
		/>
</g>
<g>
	<path fill="#FFFFFF" d="M20.7,6.2l2.5,1.5c0,0.1,0,0.1,0,0.2c0,1-0.8,1.8-1.8,1.8c-1,0-1.8-0.8-1.8-1.8C19.6,7.1,20,6.4,20.7,6.2z"
		/>
</g>
<g>
	<path fill="#FFFFFF" d="M20.7,6.2l2.5,1.5c0,0.1,0,0.1,0,0.2c0,1-0.8,1.8-1.8,1.8c-1,0-1.8-0.8-1.8-1.8C19.6,7.1,20,6.4,20.7,6.2z"
		/>
</g>
<rect x="19.3" y="5.6" transform="matrix(-0.9713 -0.2378 0.2378 -0.9713 40.2373 16.4332)" fill="#2B2523" width="3.6" height="0.5"/>
<rect id="XMLID_00000083076745964736098860000016605920104657780097_" x="25" y="5.6" transform="matrix(0.9691 -0.2465 0.2465 0.9691 -0.6015 6.7748)" fill="#2B2523" width="3.6" height="0.5"/>
<path id="XMLID_00000002366173279619336890000009390766111985823371_" fill="#2B2523" d="M21.6,8c0,0.5-0.4,0.9-0.9,0.9
	S19.8,8.5,19.8,8s0.4-0.9,0.9-0.9C21.2,7,21.6,7.5,21.6,8z"/>
<path id="XMLID_00000114778304805625124720000013692560126013319048_" fill="#2B2523" d="M27,8.2c0,0.5-0.4,0.9-0.9,0.9
	s-1-0.4-1-0.9s0.4-0.9,0.9-0.9S27,7.7,27,8.2z"/>
<g>
	<path fill="#FFFFFF" d="M11.3,6.2L8.8,7.6c0,0.1,0,0.1,0,0.2c0,1,0.8,1.8,1.8,1.8c1,0,1.8-0.8,1.8-1.8C12.4,7.1,12,6.4,11.3,6.2z"
		/>
</g>
<g id="XMLID_00000163774060624047972710000000593041924911560858_">
	<path fill="#FFFFFF" d="M11.3,6.2L8.8,7.6c0,0.1,0,0.1,0,0.2c0,1,0.8,1.8,1.8,1.8c1,0,1.8-0.8,1.8-1.8C12.4,7.1,12,6.4,11.3,6.2z"
		/>
</g>
<g>
	<path fill="#FFFFFF" d="M4.7,6.2l2.5,1.5c0,0.1,0,0.1,0,0.2c0,1-0.8,1.8-1.8,1.8c-1,0-1.8-0.8-1.8-1.8C3.6,7.1,4,6.4,4.7,6.2z"/>
</g>
<g>
	<path fill="#FFFFFF" d="M4.7,6.2l2.5,1.5c0,0.1,0,0.1,0,0.2c0,1-0.8,1.8-1.8,1.8c-1,0-1.8-0.8-1.8-1.8C3.6,7.1,4,6.4,4.7,6.2z"/>
</g>
<rect x="3.3" y="5.6" transform="matrix(-0.9713 -0.2378 0.2378 -0.9713 8.6962 12.6288)" fill="#2B2523" width="3.6" height="0.5"/>
<rect id="XMLID_00000007425368479249856010000013297469805951500969_" x="9" y="5.6" transform="matrix(0.9691 -0.2465 0.2465 0.9691 -1.0953 2.8306)" fill="#2B2523" width="3.6" height="0.5"/>
<path id="XMLID_00000083767658692843043950000013401407816727057587_" fill="#2B2523" d="M5.6,8c0,0.5-0.4,0.9-0.9,0.9
	S3.8,8.5,3.8,8s0.4-0.9,0.9-0.9C5.2,7,5.6,7.5,5.6,8z"/>
<path id="XMLID_00000034055681312256070120000001136437536115757230_" fill="#2B2523" d="M11,8.2c0,0.5-0.4,0.9-0.9,0.9
	s-1-0.4-1-0.9S9.5,7.3,10,7.3S11,7.7,11,8.2z"/>
</svg>
